G04*
G04 #@! TF.GenerationSoftware,Altium Limited,Altium Designer,22.10.1 (41)*
G04*
G04 Layer_Color=2752767*
%FSLAX25Y25*%
%MOIN*%
G70*
G04*
G04 #@! TF.SameCoordinates,8BAF8B8E-E321-4B2E-8998-6E6DE7EF2018*
G04*
G04*
G04 #@! TF.FilePolarity,Positive*
G04*
G01*
G75*
%ADD10C,0.00787*%
%ADD11C,0.00591*%
%ADD15C,0.01575*%
%ADD19C,0.00984*%
%ADD51C,0.00200*%
%ADD52C,0.00945*%
G36*
X761965Y-141778D02*
X763683D01*
Y-142065D01*
X764542D01*
Y-142351D01*
X765401D01*
Y-142637D01*
X766260D01*
Y-142924D01*
X766832D01*
Y-143210D01*
X767119D01*
Y-143496D01*
X767691D01*
Y-143783D01*
X767978D01*
Y-144069D01*
X768550D01*
Y-144355D01*
X768837D01*
Y-144641D01*
X769123D01*
Y-144928D01*
X769409D01*
Y-145214D01*
X769696D01*
Y-145501D01*
X769982D01*
Y-145787D01*
X770268D01*
Y-146073D01*
Y-146359D01*
X770554D01*
Y-146646D01*
X770841D01*
Y-146932D01*
Y-147218D01*
X771127D01*
Y-147505D01*
X771414D01*
Y-147791D01*
Y-148077D01*
X771700D01*
Y-148364D01*
Y-148650D01*
Y-148936D01*
X771986D01*
Y-149223D01*
Y-149509D01*
Y-149795D01*
X772272D01*
Y-150082D01*
Y-150368D01*
Y-150654D01*
Y-150940D01*
X772559D01*
Y-151227D01*
Y-151513D01*
Y-151799D01*
Y-152086D01*
Y-152372D01*
X772845D01*
Y-152658D01*
Y-152945D01*
Y-153231D01*
Y-153517D01*
Y-153804D01*
Y-154090D01*
Y-154376D01*
Y-154663D01*
Y-154949D01*
Y-155235D01*
Y-155521D01*
Y-155808D01*
Y-156094D01*
Y-156380D01*
Y-156667D01*
Y-156953D01*
Y-157239D01*
Y-157526D01*
Y-157812D01*
Y-158098D01*
X772559D01*
Y-158385D01*
Y-158671D01*
Y-158957D01*
Y-159244D01*
Y-159530D01*
Y-159816D01*
Y-160102D01*
X772272D01*
Y-160389D01*
Y-160675D01*
Y-160961D01*
Y-161248D01*
Y-161534D01*
X771986D01*
Y-161820D01*
Y-162107D01*
Y-162393D01*
Y-162679D01*
Y-162966D01*
X771700D01*
Y-163252D01*
Y-163538D01*
Y-163824D01*
X771414D01*
Y-164111D01*
Y-164397D01*
Y-164683D01*
Y-164970D01*
X771127D01*
Y-165256D01*
Y-165542D01*
Y-165829D01*
X770841D01*
Y-166115D01*
Y-166401D01*
X770554D01*
Y-166688D01*
Y-166974D01*
Y-167260D01*
X770268D01*
Y-167547D01*
Y-167833D01*
X769982D01*
Y-168119D01*
Y-168405D01*
X769696D01*
Y-168692D01*
Y-168978D01*
X769409D01*
Y-169264D01*
X769123D01*
Y-169551D01*
Y-169837D01*
X768837D01*
Y-170123D01*
X768550D01*
Y-170410D01*
X768264D01*
Y-170696D01*
Y-170982D01*
X767978D01*
Y-171269D01*
X767691D01*
Y-171555D01*
X767405D01*
Y-171841D01*
X767119D01*
Y-172127D01*
X766832D01*
Y-172414D01*
X766260D01*
Y-172700D01*
X765974D01*
Y-172986D01*
X765401D01*
Y-173273D01*
X765115D01*
Y-173559D01*
X764542D01*
Y-173845D01*
X763683D01*
Y-174132D01*
X762824D01*
Y-174418D01*
X761965D01*
Y-174704D01*
X760247D01*
Y-174991D01*
X755094D01*
Y-174704D01*
X752517D01*
Y-174418D01*
X750513D01*
Y-174132D01*
X749081D01*
Y-173845D01*
X747649D01*
Y-173559D01*
X746218D01*
Y-173845D01*
Y-174132D01*
Y-174418D01*
Y-174704D01*
Y-174991D01*
Y-175277D01*
Y-175563D01*
X745932D01*
Y-175850D01*
Y-176136D01*
Y-176422D01*
Y-176709D01*
Y-176995D01*
Y-177281D01*
X745645D01*
Y-177568D01*
Y-177854D01*
Y-178140D01*
Y-178426D01*
Y-178713D01*
Y-178999D01*
X745359D01*
Y-179285D01*
Y-179572D01*
Y-179858D01*
Y-180144D01*
Y-180431D01*
Y-180717D01*
Y-181003D01*
X745073D01*
Y-181290D01*
Y-181576D01*
Y-181862D01*
Y-182149D01*
Y-182435D01*
Y-182721D01*
X744786D01*
Y-183007D01*
Y-183294D01*
Y-183580D01*
Y-183866D01*
Y-184153D01*
Y-184439D01*
X744500D01*
Y-184725D01*
Y-185012D01*
Y-185298D01*
Y-185584D01*
Y-185871D01*
Y-186157D01*
Y-186443D01*
X744214D01*
Y-186730D01*
Y-187016D01*
Y-187302D01*
Y-187588D01*
Y-187875D01*
Y-188161D01*
X743927D01*
Y-188447D01*
Y-188734D01*
Y-189020D01*
Y-189306D01*
Y-189593D01*
Y-189879D01*
X743641D01*
Y-190165D01*
Y-190452D01*
Y-190738D01*
Y-191024D01*
Y-191311D01*
Y-191597D01*
Y-191883D01*
X730184D01*
Y-191597D01*
X730471D01*
Y-191311D01*
Y-191024D01*
Y-190738D01*
Y-190452D01*
Y-190165D01*
X730757D01*
Y-189879D01*
Y-189593D01*
Y-189306D01*
Y-189020D01*
Y-188734D01*
Y-188447D01*
Y-188161D01*
X731043D01*
Y-187875D01*
Y-187588D01*
Y-187302D01*
Y-187016D01*
Y-186730D01*
Y-186443D01*
X731330D01*
Y-186157D01*
Y-185871D01*
Y-185584D01*
Y-185298D01*
Y-185012D01*
Y-184725D01*
X731616D01*
Y-184439D01*
Y-184153D01*
Y-183866D01*
Y-183580D01*
Y-183294D01*
Y-183007D01*
Y-182721D01*
X731902D01*
Y-182435D01*
Y-182149D01*
Y-181862D01*
Y-181576D01*
Y-181290D01*
Y-181003D01*
X732189D01*
Y-180717D01*
Y-180431D01*
Y-180144D01*
Y-179858D01*
Y-179572D01*
Y-179285D01*
X732475D01*
Y-178999D01*
Y-178713D01*
Y-178426D01*
Y-178140D01*
Y-177854D01*
Y-177568D01*
X732761D01*
Y-177281D01*
Y-176995D01*
Y-176709D01*
Y-176422D01*
Y-176136D01*
Y-175850D01*
Y-175563D01*
X733047D01*
Y-175277D01*
Y-174991D01*
Y-174704D01*
Y-174418D01*
Y-174132D01*
Y-173845D01*
X733334D01*
Y-173559D01*
Y-173273D01*
Y-172986D01*
Y-172700D01*
Y-172414D01*
Y-172127D01*
X733620D01*
Y-171841D01*
Y-171555D01*
Y-171269D01*
Y-170982D01*
Y-170696D01*
Y-170410D01*
X733907D01*
Y-170123D01*
Y-169837D01*
Y-169551D01*
Y-169264D01*
Y-168978D01*
Y-168692D01*
Y-168405D01*
X734193D01*
Y-168119D01*
Y-167833D01*
Y-167547D01*
Y-167260D01*
Y-166974D01*
Y-166688D01*
X734479D01*
Y-166401D01*
Y-166115D01*
Y-165829D01*
Y-165542D01*
Y-165256D01*
Y-164970D01*
X734765D01*
Y-164683D01*
Y-164397D01*
Y-164111D01*
Y-163824D01*
Y-163538D01*
Y-163252D01*
Y-162966D01*
X735052D01*
Y-162679D01*
Y-162393D01*
Y-162107D01*
Y-161820D01*
Y-161534D01*
Y-161248D01*
X735338D01*
Y-160961D01*
Y-160675D01*
Y-160389D01*
Y-160102D01*
Y-159816D01*
Y-159530D01*
X735624D01*
Y-159244D01*
Y-158957D01*
Y-158671D01*
Y-158385D01*
Y-158098D01*
Y-157812D01*
X735911D01*
Y-157526D01*
Y-157239D01*
Y-156953D01*
Y-156667D01*
Y-156380D01*
Y-156094D01*
Y-155808D01*
X736197D01*
Y-155521D01*
Y-155235D01*
Y-154949D01*
Y-154663D01*
Y-154376D01*
Y-154090D01*
X736483D01*
Y-153804D01*
Y-153517D01*
Y-153231D01*
Y-152945D01*
Y-152658D01*
Y-152372D01*
X736770D01*
Y-152086D01*
Y-151799D01*
Y-151513D01*
Y-151227D01*
Y-150940D01*
Y-150654D01*
Y-150368D01*
X737056D01*
Y-150082D01*
Y-149795D01*
Y-149509D01*
Y-149223D01*
Y-148936D01*
Y-148650D01*
X737342D01*
Y-148364D01*
Y-148077D01*
Y-147791D01*
Y-147505D01*
Y-147218D01*
Y-146932D01*
X737629D01*
Y-146646D01*
Y-146359D01*
Y-146073D01*
Y-145787D01*
Y-145501D01*
Y-145214D01*
Y-144928D01*
X737915D01*
Y-144641D01*
Y-144355D01*
Y-144069D01*
Y-143783D01*
Y-143496D01*
Y-143210D01*
X738201D01*
Y-142924D01*
Y-142637D01*
Y-142351D01*
Y-142065D01*
Y-141778D01*
Y-141492D01*
X761965D01*
Y-141778D01*
D02*
G37*
G36*
X793173Y-138343D02*
Y-138629D01*
X792887D01*
Y-138915D01*
Y-139202D01*
Y-139488D01*
Y-139774D01*
Y-140060D01*
Y-140347D01*
X792601D01*
Y-140633D01*
Y-140919D01*
Y-141206D01*
Y-141492D01*
Y-141778D01*
Y-142065D01*
X792314D01*
Y-142351D01*
Y-142637D01*
Y-142924D01*
Y-143210D01*
Y-143496D01*
Y-143783D01*
Y-144069D01*
X792028D01*
Y-144355D01*
Y-144641D01*
Y-144928D01*
Y-145214D01*
Y-145501D01*
Y-145787D01*
X791742D01*
Y-146073D01*
Y-146359D01*
Y-146646D01*
Y-146932D01*
Y-147218D01*
Y-147505D01*
X791455D01*
Y-147791D01*
Y-148077D01*
Y-148364D01*
Y-148650D01*
Y-148936D01*
Y-149223D01*
Y-149509D01*
X791169D01*
Y-149795D01*
Y-150082D01*
Y-150368D01*
Y-150654D01*
Y-150940D01*
Y-151227D01*
X790883D01*
Y-151513D01*
Y-151799D01*
Y-152086D01*
Y-152372D01*
Y-152658D01*
Y-152945D01*
X790596D01*
Y-153231D01*
Y-153517D01*
Y-153804D01*
Y-154090D01*
Y-154376D01*
Y-154663D01*
X790310D01*
Y-154949D01*
Y-155235D01*
Y-155521D01*
Y-155808D01*
Y-156094D01*
Y-156380D01*
Y-156667D01*
X790024D01*
Y-156953D01*
Y-157239D01*
Y-157526D01*
Y-157812D01*
Y-158098D01*
Y-158385D01*
X789738D01*
Y-158671D01*
Y-158957D01*
X790310D01*
Y-158671D01*
X790596D01*
Y-158385D01*
X790883D01*
Y-158098D01*
X791455D01*
Y-157812D01*
X791742D01*
Y-157526D01*
X792028D01*
Y-157239D01*
X792601D01*
Y-156953D01*
X793173D01*
Y-156667D01*
X793460D01*
Y-156380D01*
X794032D01*
Y-156094D01*
X794891D01*
Y-155808D01*
X795464D01*
Y-155521D01*
X796323D01*
Y-155235D01*
X797754D01*
Y-154949D01*
X804053D01*
Y-155235D01*
X805198D01*
Y-155521D01*
X806057D01*
Y-155808D01*
X806630D01*
Y-156094D01*
X806916D01*
Y-156380D01*
X807489D01*
Y-156667D01*
X807775D01*
Y-156953D01*
X808062D01*
Y-157239D01*
X808348D01*
Y-157526D01*
X808634D01*
Y-157812D01*
Y-158098D01*
X808920D01*
Y-158385D01*
Y-158671D01*
X809207D01*
Y-158957D01*
Y-159244D01*
Y-159530D01*
X809493D01*
Y-159816D01*
Y-160102D01*
Y-160389D01*
Y-160675D01*
X809779D01*
Y-160961D01*
Y-161248D01*
Y-161534D01*
Y-161820D01*
Y-162107D01*
Y-162393D01*
Y-162679D01*
Y-162966D01*
Y-163252D01*
Y-163538D01*
Y-163824D01*
Y-164111D01*
Y-164397D01*
Y-164683D01*
Y-164970D01*
Y-165256D01*
Y-165542D01*
Y-165829D01*
X809493D01*
Y-166115D01*
Y-166401D01*
Y-166688D01*
Y-166974D01*
Y-167260D01*
Y-167547D01*
Y-167833D01*
X809207D01*
Y-168119D01*
Y-168405D01*
Y-168692D01*
Y-168978D01*
Y-169264D01*
Y-169551D01*
Y-169837D01*
X808920D01*
Y-170123D01*
Y-170410D01*
Y-170696D01*
Y-170982D01*
Y-171269D01*
Y-171555D01*
X808634D01*
Y-171841D01*
Y-172127D01*
Y-172414D01*
Y-172700D01*
Y-172986D01*
Y-173273D01*
X808348D01*
Y-173559D01*
Y-173845D01*
Y-174132D01*
Y-174418D01*
Y-174704D01*
Y-174991D01*
X808062D01*
Y-175277D01*
Y-175563D01*
Y-175850D01*
Y-176136D01*
Y-176422D01*
Y-176709D01*
Y-176995D01*
X807775D01*
Y-177281D01*
Y-177568D01*
Y-177854D01*
Y-178140D01*
Y-178426D01*
Y-178713D01*
X807489D01*
Y-178999D01*
Y-179285D01*
Y-179572D01*
Y-179858D01*
Y-180144D01*
Y-180431D01*
X807203D01*
Y-180717D01*
Y-181003D01*
Y-181290D01*
Y-181576D01*
Y-181862D01*
Y-182149D01*
Y-182435D01*
X806916D01*
Y-182721D01*
Y-183007D01*
Y-183294D01*
Y-183580D01*
Y-183866D01*
Y-184153D01*
X806630D01*
Y-184439D01*
Y-184725D01*
Y-185012D01*
Y-185298D01*
Y-185584D01*
Y-185871D01*
X806344D01*
Y-186157D01*
Y-186443D01*
Y-186730D01*
Y-187016D01*
Y-187302D01*
Y-187588D01*
X806057D01*
Y-187875D01*
Y-188161D01*
Y-188447D01*
Y-188734D01*
Y-189020D01*
Y-189306D01*
Y-189593D01*
X805771D01*
Y-189879D01*
Y-190165D01*
Y-190452D01*
Y-190738D01*
Y-191024D01*
Y-191311D01*
X805485D01*
Y-191597D01*
Y-191883D01*
X792314D01*
Y-191597D01*
Y-191311D01*
X792601D01*
Y-191024D01*
Y-190738D01*
Y-190452D01*
Y-190165D01*
Y-189879D01*
Y-189593D01*
X792887D01*
Y-189306D01*
Y-189020D01*
Y-188734D01*
Y-188447D01*
Y-188161D01*
Y-187875D01*
Y-187588D01*
X793173D01*
Y-187302D01*
Y-187016D01*
Y-186730D01*
Y-186443D01*
Y-186157D01*
Y-185871D01*
X793460D01*
Y-185584D01*
Y-185298D01*
Y-185012D01*
Y-184725D01*
Y-184439D01*
Y-184153D01*
X793746D01*
Y-183866D01*
Y-183580D01*
Y-183294D01*
Y-183007D01*
Y-182721D01*
Y-182435D01*
Y-182149D01*
X794032D01*
Y-181862D01*
Y-181576D01*
Y-181290D01*
Y-181003D01*
Y-180717D01*
Y-180431D01*
X794318D01*
Y-180144D01*
Y-179858D01*
Y-179572D01*
Y-179285D01*
Y-178999D01*
Y-178713D01*
Y-178426D01*
X794605D01*
Y-178140D01*
Y-177854D01*
Y-177568D01*
Y-177281D01*
Y-176995D01*
Y-176709D01*
X794891D01*
Y-176422D01*
Y-176136D01*
Y-175850D01*
Y-175563D01*
Y-175277D01*
Y-174991D01*
X795177D01*
Y-174704D01*
Y-174418D01*
Y-174132D01*
Y-173845D01*
Y-173559D01*
Y-173273D01*
X795464D01*
Y-172986D01*
Y-172700D01*
Y-172414D01*
Y-172127D01*
Y-171841D01*
Y-171555D01*
Y-171269D01*
X795750D01*
Y-170982D01*
Y-170696D01*
Y-170410D01*
Y-170123D01*
Y-169837D01*
Y-169551D01*
X796036D01*
Y-169264D01*
Y-168978D01*
Y-168692D01*
Y-168405D01*
Y-168119D01*
Y-167833D01*
Y-167547D01*
X796323D01*
Y-167260D01*
Y-166974D01*
Y-166688D01*
Y-166401D01*
Y-166115D01*
Y-165829D01*
X796036D01*
Y-165542D01*
Y-165256D01*
X795750D01*
Y-164970D01*
X795464D01*
Y-164683D01*
X794891D01*
Y-164397D01*
X793173D01*
Y-164683D01*
X791742D01*
Y-164970D01*
X790883D01*
Y-165256D01*
X790310D01*
Y-165542D01*
X790024D01*
Y-165829D01*
X789451D01*
Y-166115D01*
X789165D01*
Y-166401D01*
X788878D01*
Y-166688D01*
Y-166974D01*
X788592D01*
Y-167260D01*
Y-167547D01*
Y-167833D01*
X788306D01*
Y-168119D01*
Y-168405D01*
Y-168692D01*
Y-168978D01*
Y-169264D01*
Y-169551D01*
X788020D01*
Y-169837D01*
Y-170123D01*
Y-170410D01*
Y-170696D01*
Y-170982D01*
Y-171269D01*
Y-171555D01*
X787733D01*
Y-171841D01*
Y-172127D01*
Y-172414D01*
Y-172700D01*
Y-172986D01*
Y-173273D01*
X787447D01*
Y-173559D01*
Y-173845D01*
Y-174132D01*
Y-174418D01*
Y-174704D01*
Y-174991D01*
X787161D01*
Y-175277D01*
Y-175563D01*
Y-175850D01*
Y-176136D01*
Y-176422D01*
Y-176709D01*
X786874D01*
Y-176995D01*
Y-177281D01*
Y-177568D01*
Y-177854D01*
Y-178140D01*
Y-178426D01*
Y-178713D01*
X786588D01*
Y-178999D01*
Y-179285D01*
Y-179572D01*
Y-179858D01*
Y-180144D01*
Y-180431D01*
X786302D01*
Y-180717D01*
Y-181003D01*
Y-181290D01*
Y-181576D01*
Y-181862D01*
Y-182149D01*
X786015D01*
Y-182435D01*
Y-182721D01*
Y-183007D01*
Y-183294D01*
Y-183580D01*
Y-183866D01*
Y-184153D01*
X785729D01*
Y-184439D01*
Y-184725D01*
Y-185012D01*
Y-185298D01*
Y-185584D01*
Y-185871D01*
X785443D01*
Y-186157D01*
Y-186443D01*
Y-186730D01*
Y-187016D01*
Y-187302D01*
Y-187588D01*
X785156D01*
Y-187875D01*
Y-188161D01*
Y-188447D01*
Y-188734D01*
Y-189020D01*
Y-189306D01*
X784870D01*
Y-189593D01*
Y-189879D01*
Y-190165D01*
Y-190452D01*
Y-190738D01*
Y-191024D01*
Y-191311D01*
X784584D01*
Y-191597D01*
Y-191883D01*
X771414D01*
Y-191597D01*
Y-191311D01*
X771700D01*
Y-191024D01*
Y-190738D01*
Y-190452D01*
Y-190165D01*
Y-189879D01*
Y-189593D01*
Y-189306D01*
X771986D01*
Y-189020D01*
Y-188734D01*
Y-188447D01*
Y-188161D01*
Y-187875D01*
Y-187588D01*
X772272D01*
Y-187302D01*
Y-187016D01*
Y-186730D01*
Y-186443D01*
Y-186157D01*
Y-185871D01*
X772559D01*
Y-185584D01*
Y-185298D01*
Y-185012D01*
Y-184725D01*
Y-184439D01*
Y-184153D01*
Y-183866D01*
X772845D01*
Y-183580D01*
Y-183294D01*
Y-183007D01*
Y-182721D01*
Y-182435D01*
Y-182149D01*
X773131D01*
Y-181862D01*
Y-181576D01*
Y-181290D01*
Y-181003D01*
Y-180717D01*
Y-180431D01*
X773418D01*
Y-180144D01*
Y-179858D01*
Y-179572D01*
Y-179285D01*
Y-178999D01*
Y-178713D01*
X773704D01*
Y-178426D01*
Y-178140D01*
Y-177854D01*
Y-177568D01*
Y-177281D01*
Y-176995D01*
Y-176709D01*
X773990D01*
Y-176422D01*
Y-176136D01*
Y-175850D01*
Y-175563D01*
Y-175277D01*
Y-174991D01*
X774277D01*
Y-174704D01*
Y-174418D01*
Y-174132D01*
Y-173845D01*
Y-173559D01*
Y-173273D01*
X774563D01*
Y-172986D01*
Y-172700D01*
Y-172414D01*
Y-172127D01*
Y-171841D01*
Y-171555D01*
Y-171269D01*
X774849D01*
Y-170982D01*
Y-170696D01*
Y-170410D01*
Y-170123D01*
Y-169837D01*
Y-169551D01*
X775136D01*
Y-169264D01*
Y-168978D01*
Y-168692D01*
Y-168405D01*
Y-168119D01*
Y-167833D01*
X775422D01*
Y-167547D01*
Y-167260D01*
Y-166974D01*
Y-166688D01*
Y-166401D01*
Y-166115D01*
X775708D01*
Y-165829D01*
Y-165542D01*
Y-165256D01*
Y-164970D01*
Y-164683D01*
Y-164397D01*
Y-164111D01*
X775994D01*
Y-163824D01*
Y-163538D01*
Y-163252D01*
Y-162966D01*
Y-162679D01*
Y-162393D01*
X776281D01*
Y-162107D01*
Y-161820D01*
Y-161534D01*
Y-161248D01*
Y-160961D01*
Y-160675D01*
X776567D01*
Y-160389D01*
Y-160102D01*
Y-159816D01*
Y-159530D01*
Y-159244D01*
Y-158957D01*
X776853D01*
Y-158671D01*
Y-158385D01*
Y-158098D01*
Y-157812D01*
Y-157526D01*
Y-157239D01*
Y-156953D01*
X777140D01*
Y-156667D01*
Y-156380D01*
Y-156094D01*
Y-155808D01*
Y-155521D01*
Y-155235D01*
X777426D01*
Y-154949D01*
Y-154663D01*
Y-154376D01*
Y-154090D01*
Y-153804D01*
Y-153517D01*
X777712D01*
Y-153231D01*
Y-152945D01*
Y-152658D01*
Y-152372D01*
Y-152086D01*
Y-151799D01*
Y-151513D01*
X777999D01*
Y-151227D01*
Y-150940D01*
Y-150654D01*
Y-150368D01*
Y-150082D01*
Y-149795D01*
X778285D01*
Y-149509D01*
Y-149223D01*
Y-148936D01*
Y-148650D01*
Y-148364D01*
Y-148077D01*
X778571D01*
Y-147791D01*
Y-147505D01*
Y-147218D01*
Y-146932D01*
Y-146646D01*
Y-146359D01*
X778858D01*
Y-146073D01*
Y-145787D01*
Y-145501D01*
Y-145214D01*
Y-144928D01*
Y-144641D01*
Y-144355D01*
X779144D01*
Y-144069D01*
Y-143783D01*
Y-143496D01*
Y-143210D01*
Y-142924D01*
Y-142637D01*
X779430D01*
Y-142351D01*
Y-142065D01*
Y-141778D01*
Y-141492D01*
Y-141206D01*
Y-140919D01*
X779716D01*
Y-140633D01*
Y-140347D01*
Y-140060D01*
Y-139774D01*
Y-139488D01*
Y-139202D01*
Y-138915D01*
X780003D01*
Y-138629D01*
Y-138343D01*
Y-138056D01*
X793173D01*
Y-138343D01*
D02*
G37*
G36*
X895101Y-155808D02*
X894814D01*
Y-156094D01*
X894528D01*
Y-156380D01*
Y-156667D01*
X894242D01*
Y-156953D01*
X893955D01*
Y-157239D01*
X893669D01*
Y-157526D01*
Y-157812D01*
X893383D01*
Y-158098D01*
X893096D01*
Y-158385D01*
X892810D01*
Y-158671D01*
X892524D01*
Y-158957D01*
Y-159244D01*
X892237D01*
Y-159530D01*
X891951D01*
Y-159816D01*
X891665D01*
Y-160102D01*
Y-160389D01*
X891378D01*
Y-160675D01*
X891092D01*
Y-160961D01*
X890806D01*
Y-161248D01*
X890520D01*
Y-161534D01*
Y-161820D01*
X890233D01*
Y-162107D01*
X889947D01*
Y-162393D01*
X889661D01*
Y-162679D01*
Y-162966D01*
X889374D01*
Y-163252D01*
X889088D01*
Y-163538D01*
X888802D01*
Y-163824D01*
Y-164111D01*
X888515D01*
Y-164397D01*
X888229D01*
Y-164683D01*
X887943D01*
Y-164970D01*
X887656D01*
Y-165256D01*
Y-165542D01*
X887370D01*
Y-165829D01*
X887084D01*
Y-166115D01*
X886798D01*
Y-166401D01*
Y-166688D01*
X886511D01*
Y-166974D01*
X886225D01*
Y-167260D01*
X885939D01*
Y-167547D01*
Y-167833D01*
X885652D01*
Y-168119D01*
X885366D01*
Y-168405D01*
X885080D01*
Y-168692D01*
X884793D01*
Y-168978D01*
Y-169264D01*
X884507D01*
Y-169551D01*
X884221D01*
Y-169837D01*
X883934D01*
Y-170123D01*
Y-170410D01*
X883648D01*
Y-170696D01*
X883362D01*
Y-170982D01*
X883076D01*
Y-171269D01*
Y-171555D01*
X882789D01*
Y-171841D01*
X882503D01*
Y-172127D01*
X882216D01*
Y-172414D01*
X881930D01*
Y-172700D01*
Y-172986D01*
X881644D01*
Y-173273D01*
X881358D01*
Y-173559D01*
X881071D01*
Y-173845D01*
Y-174132D01*
X880785D01*
Y-174418D01*
X880499D01*
Y-174704D01*
X880212D01*
Y-174991D01*
X879926D01*
Y-175277D01*
Y-175563D01*
X880212D01*
Y-175850D01*
Y-176136D01*
X880499D01*
Y-176422D01*
Y-176709D01*
X880785D01*
Y-176995D01*
X881071D01*
Y-177281D01*
Y-177568D01*
X881358D01*
Y-177854D01*
Y-178140D01*
X881644D01*
Y-178426D01*
Y-178713D01*
X881930D01*
Y-178999D01*
Y-179285D01*
X882216D01*
Y-179572D01*
Y-179858D01*
X882503D01*
Y-180144D01*
Y-180431D01*
X882789D01*
Y-180717D01*
Y-181003D01*
X883076D01*
Y-181290D01*
Y-181576D01*
X883362D01*
Y-181862D01*
X883648D01*
Y-182149D01*
Y-182435D01*
X883934D01*
Y-182721D01*
Y-183007D01*
X884221D01*
Y-183294D01*
Y-183580D01*
X884507D01*
Y-183866D01*
Y-184153D01*
X884793D01*
Y-184439D01*
Y-184725D01*
X885080D01*
Y-185012D01*
Y-185298D01*
X885366D01*
Y-185584D01*
Y-185871D01*
X885652D01*
Y-186157D01*
X885939D01*
Y-186443D01*
Y-186730D01*
X886225D01*
Y-187016D01*
Y-187302D01*
X886511D01*
Y-187588D01*
Y-187875D01*
X886798D01*
Y-188161D01*
Y-188447D01*
X887084D01*
Y-188734D01*
Y-189020D01*
X887370D01*
Y-189306D01*
Y-189593D01*
X887656D01*
Y-189879D01*
Y-190165D01*
X887943D01*
Y-190452D01*
X888229D01*
Y-190738D01*
Y-191024D01*
X888515D01*
Y-191311D01*
Y-191597D01*
X888802D01*
Y-191883D01*
X873627D01*
Y-191597D01*
X873341D01*
Y-191311D01*
Y-191024D01*
Y-190738D01*
X873055D01*
Y-190452D01*
Y-190165D01*
Y-189879D01*
X872768D01*
Y-189593D01*
Y-189306D01*
X872482D01*
Y-189020D01*
Y-188734D01*
Y-188447D01*
X872196D01*
Y-188161D01*
Y-187875D01*
Y-187588D01*
X871909D01*
Y-187302D01*
Y-187016D01*
X871623D01*
Y-186730D01*
Y-186443D01*
Y-186157D01*
X871337D01*
Y-185871D01*
Y-185584D01*
Y-185298D01*
X871050D01*
Y-185012D01*
Y-184725D01*
Y-184439D01*
X870764D01*
Y-184153D01*
X870191D01*
Y-184439D01*
Y-184725D01*
X869905D01*
Y-185012D01*
X869619D01*
Y-185298D01*
Y-185584D01*
X869332D01*
Y-185871D01*
X869046D01*
Y-186157D01*
Y-186443D01*
X868760D01*
Y-186730D01*
X868474D01*
Y-187016D01*
Y-187302D01*
X868187D01*
Y-187588D01*
X867901D01*
Y-187875D01*
X867615D01*
Y-188161D01*
Y-188447D01*
X867328D01*
Y-188734D01*
X867042D01*
Y-189020D01*
Y-189306D01*
X866756D01*
Y-189593D01*
X866469D01*
Y-189879D01*
Y-190165D01*
X866183D01*
Y-190452D01*
X865897D01*
Y-190738D01*
Y-191024D01*
X865610D01*
Y-191311D01*
X865324D01*
Y-191597D01*
Y-191883D01*
X849290D01*
Y-191597D01*
X849577D01*
Y-191311D01*
X849863D01*
Y-191024D01*
X850150D01*
Y-190738D01*
X850436D01*
Y-190452D01*
Y-190165D01*
X850722D01*
Y-189879D01*
X851008D01*
Y-189593D01*
X851295D01*
Y-189306D01*
X851581D01*
Y-189020D01*
Y-188734D01*
X851867D01*
Y-188447D01*
X852154D01*
Y-188161D01*
X852440D01*
Y-187875D01*
Y-187588D01*
X852726D01*
Y-187302D01*
X853013D01*
Y-187016D01*
X853299D01*
Y-186730D01*
X853585D01*
Y-186443D01*
Y-186157D01*
X853872D01*
Y-185871D01*
X854158D01*
Y-185584D01*
X854444D01*
Y-185298D01*
X854731D01*
Y-185012D01*
Y-184725D01*
X855017D01*
Y-184439D01*
X855303D01*
Y-184153D01*
X855589D01*
Y-183866D01*
Y-183580D01*
X855876D01*
Y-183294D01*
X856162D01*
Y-183007D01*
X856448D01*
Y-182721D01*
X856735D01*
Y-182435D01*
Y-182149D01*
X857021D01*
Y-181862D01*
X857307D01*
Y-181576D01*
X857594D01*
Y-181290D01*
Y-181003D01*
X857880D01*
Y-180717D01*
X858166D01*
Y-180431D01*
X858453D01*
Y-180144D01*
X858739D01*
Y-179858D01*
Y-179572D01*
X859025D01*
Y-179285D01*
X859311D01*
Y-178999D01*
X859598D01*
Y-178713D01*
Y-178426D01*
X859884D01*
Y-178140D01*
X860170D01*
Y-177854D01*
X860457D01*
Y-177568D01*
X860743D01*
Y-177281D01*
Y-176995D01*
X861029D01*
Y-176709D01*
X861316D01*
Y-176422D01*
X861602D01*
Y-176136D01*
X861888D01*
Y-175850D01*
Y-175563D01*
X862175D01*
Y-175277D01*
X862461D01*
Y-174991D01*
X862747D01*
Y-174704D01*
Y-174418D01*
X863034D01*
Y-174132D01*
X863320D01*
Y-173845D01*
X863606D01*
Y-173559D01*
X863892D01*
Y-173273D01*
Y-172986D01*
X864179D01*
Y-172700D01*
Y-172414D01*
Y-172127D01*
X863892D01*
Y-171841D01*
X863606D01*
Y-171555D01*
Y-171269D01*
X863320D01*
Y-170982D01*
Y-170696D01*
X863034D01*
Y-170410D01*
Y-170123D01*
X862747D01*
Y-169837D01*
Y-169551D01*
X862461D01*
Y-169264D01*
Y-168978D01*
X862175D01*
Y-168692D01*
Y-168405D01*
X861888D01*
Y-168119D01*
X861602D01*
Y-167833D01*
Y-167547D01*
X861316D01*
Y-167260D01*
Y-166974D01*
X861029D01*
Y-166688D01*
Y-166401D01*
X860743D01*
Y-166115D01*
Y-165829D01*
X860457D01*
Y-165542D01*
Y-165256D01*
X860170D01*
Y-164970D01*
Y-164683D01*
X859884D01*
Y-164397D01*
X859598D01*
Y-164111D01*
Y-163824D01*
X859311D01*
Y-163538D01*
Y-163252D01*
X859025D01*
Y-162966D01*
Y-162679D01*
X858739D01*
Y-162393D01*
Y-162107D01*
X858453D01*
Y-161820D01*
Y-161534D01*
X858166D01*
Y-161248D01*
Y-160961D01*
X857880D01*
Y-160675D01*
Y-160389D01*
X857594D01*
Y-160102D01*
X857307D01*
Y-159816D01*
Y-159530D01*
X857021D01*
Y-159244D01*
Y-158957D01*
X856735D01*
Y-158671D01*
Y-158385D01*
X856448D01*
Y-158098D01*
Y-157812D01*
X856162D01*
Y-157526D01*
Y-157239D01*
X855876D01*
Y-156953D01*
Y-156667D01*
X855589D01*
Y-156380D01*
X855303D01*
Y-156094D01*
Y-155808D01*
X855017D01*
Y-155521D01*
X870764D01*
Y-155808D01*
X871050D01*
Y-156094D01*
Y-156380D01*
Y-156667D01*
X871337D01*
Y-156953D01*
Y-157239D01*
Y-157526D01*
X871623D01*
Y-157812D01*
Y-158098D01*
Y-158385D01*
X871909D01*
Y-158671D01*
Y-158957D01*
Y-159244D01*
X872196D01*
Y-159530D01*
Y-159816D01*
Y-160102D01*
X872482D01*
Y-160389D01*
Y-160675D01*
Y-160961D01*
X872768D01*
Y-161248D01*
Y-161534D01*
Y-161820D01*
X873055D01*
Y-162107D01*
Y-162393D01*
Y-162679D01*
X873341D01*
Y-162966D01*
Y-163252D01*
Y-163538D01*
Y-163824D01*
X873913D01*
Y-163538D01*
X874200D01*
Y-163252D01*
X874486D01*
Y-162966D01*
Y-162679D01*
X874772D01*
Y-162393D01*
X875059D01*
Y-162107D01*
Y-161820D01*
X875345D01*
Y-161534D01*
X875631D01*
Y-161248D01*
Y-160961D01*
X875918D01*
Y-160675D01*
X876204D01*
Y-160389D01*
Y-160102D01*
X876490D01*
Y-159816D01*
X876777D01*
Y-159530D01*
Y-159244D01*
X877063D01*
Y-158957D01*
X877349D01*
Y-158671D01*
Y-158385D01*
X877635D01*
Y-158098D01*
X877922D01*
Y-157812D01*
Y-157526D01*
X878208D01*
Y-157239D01*
X878494D01*
Y-156953D01*
Y-156667D01*
X878781D01*
Y-156380D01*
X879067D01*
Y-156094D01*
Y-155808D01*
X879353D01*
Y-155521D01*
X895101D01*
Y-155808D01*
D02*
G37*
G36*
X851008D02*
Y-156094D01*
Y-156380D01*
Y-156667D01*
Y-156953D01*
Y-157239D01*
Y-157526D01*
Y-157812D01*
Y-158098D01*
Y-158385D01*
Y-158671D01*
Y-158957D01*
Y-159244D01*
Y-159530D01*
Y-159816D01*
Y-160102D01*
Y-160389D01*
Y-160675D01*
Y-160961D01*
Y-161248D01*
Y-161534D01*
X850722D01*
Y-161820D01*
Y-162107D01*
Y-162393D01*
Y-162679D01*
Y-162966D01*
X850436D01*
Y-163252D01*
Y-163538D01*
Y-163824D01*
Y-164111D01*
X850150D01*
Y-164397D01*
Y-164683D01*
Y-164970D01*
Y-165256D01*
X849863D01*
Y-165542D01*
Y-165829D01*
Y-166115D01*
X849577D01*
Y-166401D01*
Y-166688D01*
Y-166974D01*
X849290D01*
Y-167260D01*
Y-167547D01*
Y-167833D01*
X849004D01*
Y-168119D01*
Y-168405D01*
Y-168692D01*
X848718D01*
Y-168978D01*
Y-169264D01*
X848432D01*
Y-169551D01*
Y-169837D01*
X848145D01*
Y-170123D01*
Y-170410D01*
Y-170696D01*
X847859D01*
Y-170982D01*
Y-171269D01*
X847573D01*
Y-171555D01*
Y-171841D01*
Y-172127D01*
X847286D01*
Y-172414D01*
Y-172700D01*
X847000D01*
Y-172986D01*
Y-173273D01*
Y-173559D01*
X846714D01*
Y-173845D01*
Y-174132D01*
X846427D01*
Y-174418D01*
Y-174704D01*
Y-174991D01*
X846141D01*
Y-175277D01*
Y-175563D01*
X845855D01*
Y-175850D01*
Y-176136D01*
Y-176422D01*
X845568D01*
Y-176709D01*
Y-176995D01*
X845282D01*
Y-177281D01*
Y-177568D01*
Y-177854D01*
X844996D01*
Y-178140D01*
Y-178426D01*
X844709D01*
Y-178713D01*
Y-178999D01*
Y-179285D01*
X844423D01*
Y-179572D01*
Y-179858D01*
X844137D01*
Y-180144D01*
Y-180431D01*
Y-180717D01*
X843851D01*
Y-181003D01*
Y-181290D01*
X843564D01*
Y-181576D01*
Y-181862D01*
Y-182149D01*
X843278D01*
Y-182435D01*
Y-182721D01*
X842992D01*
Y-183007D01*
Y-183294D01*
Y-183580D01*
X842705D01*
Y-183866D01*
Y-184153D01*
X842419D01*
Y-184439D01*
Y-184725D01*
Y-185012D01*
X842133D01*
Y-185298D01*
Y-185584D01*
X841846D01*
Y-185871D01*
Y-186157D01*
Y-186443D01*
X841560D01*
Y-186730D01*
Y-187016D01*
X841274D01*
Y-187302D01*
Y-187588D01*
Y-187875D01*
X840987D01*
Y-188161D01*
Y-188447D01*
X840701D01*
Y-188734D01*
Y-189020D01*
Y-189306D01*
X840415D01*
Y-189593D01*
Y-189879D01*
X840129D01*
Y-190165D01*
Y-190452D01*
Y-190738D01*
X839842D01*
Y-191024D01*
Y-191311D01*
X839556D01*
Y-191597D01*
Y-191883D01*
Y-192169D01*
X839270D01*
Y-192456D01*
Y-192742D01*
X838983D01*
Y-193028D01*
Y-193315D01*
X838697D01*
Y-193601D01*
Y-193887D01*
X838411D01*
Y-194174D01*
Y-194460D01*
Y-194746D01*
X838124D01*
Y-195033D01*
X837838D01*
Y-195319D01*
Y-195605D01*
Y-195891D01*
X837552D01*
Y-196178D01*
X837265D01*
Y-196464D01*
Y-196750D01*
X836979D01*
Y-197037D01*
Y-197323D01*
X836693D01*
Y-197609D01*
Y-197896D01*
X836407D01*
Y-198182D01*
Y-198468D01*
X836120D01*
Y-198755D01*
X835834D01*
Y-199041D01*
Y-199327D01*
X835548D01*
Y-199614D01*
Y-199900D01*
X835261D01*
Y-200186D01*
X834975D01*
Y-200472D01*
X834689D01*
Y-200759D01*
Y-201045D01*
X834402D01*
Y-201331D01*
X834116D01*
Y-201618D01*
Y-201904D01*
X833830D01*
Y-202190D01*
X833543D01*
Y-202477D01*
X833257D01*
Y-202763D01*
Y-203049D01*
X832971D01*
Y-203336D01*
X832684D01*
Y-203622D01*
X832398D01*
Y-203908D01*
X832112D01*
Y-204195D01*
X831826D01*
Y-204481D01*
Y-204767D01*
X831539D01*
Y-205053D01*
X831253D01*
Y-205340D01*
X830966D01*
Y-205626D01*
X830680D01*
Y-205912D01*
X830394D01*
Y-206199D01*
X830108D01*
Y-206485D01*
X829821D01*
Y-206771D01*
X829249D01*
Y-207058D01*
X828962D01*
Y-207344D01*
X828676D01*
Y-207630D01*
X828390D01*
Y-207917D01*
X828103D01*
Y-208203D01*
X827531D01*
Y-208489D01*
X827244D01*
Y-208776D01*
X826672D01*
Y-209062D01*
X826385D01*
Y-209348D01*
X825813D01*
Y-209634D01*
X825527D01*
Y-209921D01*
X824954D01*
Y-210207D01*
X824381D01*
Y-210493D01*
X823809D01*
Y-210780D01*
X823236D01*
Y-211066D01*
X822663D01*
Y-211352D01*
X821805D01*
Y-211639D01*
X821232D01*
Y-211925D01*
X820373D01*
Y-212211D01*
X819228D01*
Y-212498D01*
X818082D01*
Y-212784D01*
X816365D01*
Y-213070D01*
X814360D01*
Y-213357D01*
X814074D01*
Y-213070D01*
Y-212784D01*
Y-212498D01*
Y-212211D01*
Y-211925D01*
Y-211639D01*
Y-211352D01*
Y-211066D01*
Y-210780D01*
Y-210493D01*
Y-210207D01*
Y-209921D01*
Y-209634D01*
Y-209348D01*
Y-209062D01*
Y-208776D01*
Y-208489D01*
Y-208203D01*
Y-207917D01*
Y-207630D01*
Y-207344D01*
Y-207058D01*
Y-206771D01*
Y-206485D01*
Y-206199D01*
Y-205912D01*
Y-205626D01*
Y-205340D01*
Y-205053D01*
Y-204767D01*
Y-204481D01*
Y-204195D01*
Y-203908D01*
X814647D01*
Y-203622D01*
X815219D01*
Y-203336D01*
X815792D01*
Y-203049D01*
X816365D01*
Y-202763D01*
X816937D01*
Y-202477D01*
X817510D01*
Y-202190D01*
X817796D01*
Y-201904D01*
X818369D01*
Y-201618D01*
X818655D01*
Y-201331D01*
X819228D01*
Y-201045D01*
X819514D01*
Y-200759D01*
X819800D01*
Y-200472D01*
X820373D01*
Y-200186D01*
X820659D01*
Y-199900D01*
X820946D01*
Y-199614D01*
X821232D01*
Y-199327D01*
X821518D01*
Y-199041D01*
X821805D01*
Y-198755D01*
X822091D01*
Y-198468D01*
X822377D01*
Y-198182D01*
X822663D01*
Y-197896D01*
X822950D01*
Y-197609D01*
X823236D01*
Y-197323D01*
X823522D01*
Y-197037D01*
Y-196750D01*
X823809D01*
Y-196464D01*
X824095D01*
Y-196178D01*
X824381D01*
Y-195891D01*
Y-195605D01*
X824668D01*
Y-195319D01*
X824954D01*
Y-195033D01*
Y-194746D01*
X825240D01*
Y-194460D01*
Y-194174D01*
X825527D01*
Y-193887D01*
X825813D01*
Y-193601D01*
Y-193315D01*
X826099D01*
Y-193028D01*
Y-192742D01*
X826385D01*
Y-192456D01*
Y-192169D01*
X824668D01*
Y-191883D01*
X822663D01*
Y-191597D01*
X821518D01*
Y-191311D01*
X820946D01*
Y-191024D01*
X820087D01*
Y-190738D01*
X819514D01*
Y-190452D01*
X819228D01*
Y-190165D01*
X818655D01*
Y-189879D01*
X818369D01*
Y-189593D01*
X818082D01*
Y-189306D01*
X817796D01*
Y-189020D01*
X817510D01*
Y-188734D01*
X817223D01*
Y-188447D01*
Y-188161D01*
X816937D01*
Y-187875D01*
X816651D01*
Y-187588D01*
Y-187302D01*
X816365D01*
Y-187016D01*
Y-186730D01*
X816078D01*
Y-186443D01*
Y-186157D01*
X815792D01*
Y-185871D01*
Y-185584D01*
Y-185298D01*
X815506D01*
Y-185012D01*
Y-184725D01*
Y-184439D01*
Y-184153D01*
X815219D01*
Y-183866D01*
Y-183580D01*
Y-183294D01*
Y-183007D01*
Y-182721D01*
Y-182435D01*
Y-182149D01*
X814933D01*
Y-181862D01*
Y-181576D01*
Y-181290D01*
Y-181003D01*
Y-180717D01*
Y-180431D01*
Y-180144D01*
Y-179858D01*
Y-179572D01*
Y-179285D01*
Y-178999D01*
Y-178713D01*
Y-178426D01*
Y-178140D01*
Y-177854D01*
X814647D01*
Y-177568D01*
Y-177281D01*
Y-176995D01*
Y-176709D01*
Y-176422D01*
Y-176136D01*
Y-175850D01*
Y-175563D01*
Y-175277D01*
Y-174991D01*
Y-174704D01*
Y-174418D01*
Y-174132D01*
Y-173845D01*
Y-173559D01*
X814360D01*
Y-173273D01*
Y-172986D01*
Y-172700D01*
Y-172414D01*
Y-172127D01*
Y-171841D01*
Y-171555D01*
Y-171269D01*
Y-170982D01*
Y-170696D01*
Y-170410D01*
Y-170123D01*
Y-169837D01*
Y-169551D01*
Y-169264D01*
Y-168978D01*
X814074D01*
Y-168692D01*
Y-168405D01*
Y-168119D01*
Y-167833D01*
Y-167547D01*
Y-167260D01*
Y-166974D01*
Y-166688D01*
Y-166401D01*
Y-166115D01*
Y-165829D01*
Y-165542D01*
Y-165256D01*
Y-164970D01*
Y-164683D01*
Y-164397D01*
X813788D01*
Y-164111D01*
Y-163824D01*
Y-163538D01*
Y-163252D01*
Y-162966D01*
Y-162679D01*
Y-162393D01*
Y-162107D01*
Y-161820D01*
Y-161534D01*
Y-161248D01*
Y-160961D01*
Y-160675D01*
Y-160389D01*
X813501D01*
Y-160102D01*
Y-159816D01*
Y-159530D01*
Y-159244D01*
Y-158957D01*
Y-158671D01*
Y-158385D01*
Y-158098D01*
Y-157812D01*
Y-157526D01*
Y-157239D01*
Y-156953D01*
Y-156667D01*
Y-156380D01*
Y-156094D01*
Y-155808D01*
X813215D01*
Y-155521D01*
X826958D01*
Y-155808D01*
Y-156094D01*
Y-156380D01*
Y-156667D01*
Y-156953D01*
Y-157239D01*
Y-157526D01*
Y-157812D01*
Y-158098D01*
Y-158385D01*
Y-158671D01*
Y-158957D01*
Y-159244D01*
Y-159530D01*
X827244D01*
Y-159816D01*
Y-160102D01*
Y-160389D01*
Y-160675D01*
Y-160961D01*
Y-161248D01*
Y-161534D01*
Y-161820D01*
Y-162107D01*
Y-162393D01*
Y-162679D01*
Y-162966D01*
Y-163252D01*
Y-163538D01*
Y-163824D01*
Y-164111D01*
Y-164397D01*
Y-164683D01*
Y-164970D01*
Y-165256D01*
Y-165542D01*
Y-165829D01*
Y-166115D01*
Y-166401D01*
Y-166688D01*
Y-166974D01*
Y-167260D01*
Y-167547D01*
Y-167833D01*
Y-168119D01*
Y-168405D01*
Y-168692D01*
Y-168978D01*
Y-169264D01*
Y-169551D01*
Y-169837D01*
Y-170123D01*
Y-170410D01*
Y-170696D01*
Y-170982D01*
Y-171269D01*
X827531D01*
Y-171555D01*
X827244D01*
Y-171841D01*
Y-172127D01*
X827531D01*
Y-172414D01*
Y-172700D01*
Y-172986D01*
Y-173273D01*
Y-173559D01*
Y-173845D01*
Y-174132D01*
Y-174418D01*
Y-174704D01*
Y-174991D01*
Y-175277D01*
Y-175563D01*
Y-175850D01*
Y-176136D01*
Y-176422D01*
Y-176709D01*
Y-176995D01*
Y-177281D01*
Y-177568D01*
Y-177854D01*
Y-178140D01*
Y-178426D01*
Y-178713D01*
Y-178999D01*
Y-179285D01*
Y-179572D01*
X827817D01*
Y-179858D01*
Y-180144D01*
Y-180431D01*
X828103D01*
Y-180717D01*
X828390D01*
Y-181003D01*
X828676D01*
Y-181290D01*
X829535D01*
Y-181576D01*
X830394D01*
Y-181290D01*
X830680D01*
Y-181003D01*
Y-180717D01*
Y-180431D01*
X830966D01*
Y-180144D01*
Y-179858D01*
X831253D01*
Y-179572D01*
Y-179285D01*
Y-178999D01*
X831539D01*
Y-178713D01*
Y-178426D01*
Y-178140D01*
X831826D01*
Y-177854D01*
Y-177568D01*
Y-177281D01*
X832112D01*
Y-176995D01*
Y-176709D01*
Y-176422D01*
X832398D01*
Y-176136D01*
Y-175850D01*
X832684D01*
Y-175563D01*
Y-175277D01*
Y-174991D01*
X832971D01*
Y-174704D01*
Y-174418D01*
Y-174132D01*
X833257D01*
Y-173845D01*
Y-173559D01*
Y-173273D01*
X833543D01*
Y-172986D01*
Y-172700D01*
X833830D01*
Y-172414D01*
Y-172127D01*
Y-171841D01*
X834116D01*
Y-171555D01*
Y-171269D01*
Y-170982D01*
X834402D01*
Y-170696D01*
Y-170410D01*
Y-170123D01*
X834689D01*
Y-169837D01*
Y-169551D01*
X834975D01*
Y-169264D01*
Y-168978D01*
Y-168692D01*
X835261D01*
Y-168405D01*
Y-168119D01*
Y-167833D01*
X835548D01*
Y-167547D01*
Y-167260D01*
Y-166974D01*
X835834D01*
Y-166688D01*
Y-166401D01*
X836120D01*
Y-166115D01*
Y-165829D01*
Y-165542D01*
X836407D01*
Y-165256D01*
Y-164970D01*
Y-164683D01*
X836693D01*
Y-164397D01*
Y-164111D01*
Y-163824D01*
X836979D01*
Y-163538D01*
Y-163252D01*
Y-162966D01*
Y-162679D01*
X837265D01*
Y-162393D01*
Y-162107D01*
Y-161820D01*
Y-161534D01*
X837552D01*
Y-161248D01*
Y-160961D01*
Y-160675D01*
Y-160389D01*
Y-160102D01*
X837838D01*
Y-159816D01*
Y-159530D01*
Y-159244D01*
Y-158957D01*
Y-158671D01*
Y-158385D01*
X838124D01*
Y-158098D01*
Y-157812D01*
Y-157526D01*
Y-157239D01*
Y-156953D01*
Y-156667D01*
Y-156380D01*
Y-156094D01*
Y-155808D01*
Y-155521D01*
X851008D01*
Y-155808D01*
D02*
G37*
%LPC*%
G36*
X757670Y-152658D02*
X749654D01*
Y-152945D01*
Y-153231D01*
Y-153517D01*
Y-153804D01*
Y-154090D01*
X749367D01*
Y-154376D01*
Y-154663D01*
Y-154949D01*
Y-155235D01*
Y-155521D01*
Y-155808D01*
X749081D01*
Y-156094D01*
Y-156380D01*
Y-156667D01*
Y-156953D01*
Y-157239D01*
Y-157526D01*
X748795D01*
Y-157812D01*
Y-158098D01*
Y-158385D01*
Y-158671D01*
Y-158957D01*
Y-159244D01*
X748508D01*
Y-159530D01*
Y-159816D01*
Y-160102D01*
Y-160389D01*
Y-160675D01*
Y-160961D01*
Y-161248D01*
X748222D01*
Y-161534D01*
Y-161820D01*
Y-162107D01*
Y-162393D01*
Y-162679D01*
Y-162966D01*
X747936D01*
Y-163252D01*
Y-163538D01*
Y-163824D01*
X755094D01*
Y-163538D01*
X756239D01*
Y-163252D01*
X756812D01*
Y-162966D01*
X757098D01*
Y-162679D01*
X757384D01*
Y-162393D01*
X757670D01*
Y-162107D01*
X757957D01*
Y-161820D01*
Y-161534D01*
X758243D01*
Y-161248D01*
Y-160961D01*
X758529D01*
Y-160675D01*
Y-160389D01*
X758816D01*
Y-160102D01*
Y-159816D01*
Y-159530D01*
Y-159244D01*
X759102D01*
Y-158957D01*
Y-158671D01*
Y-158385D01*
Y-158098D01*
Y-157812D01*
X759388D01*
Y-157526D01*
Y-157239D01*
Y-156953D01*
Y-156667D01*
Y-156380D01*
Y-156094D01*
Y-155808D01*
Y-155521D01*
Y-155235D01*
Y-154949D01*
Y-154663D01*
X759102D01*
Y-154376D01*
Y-154090D01*
X758816D01*
Y-153804D01*
Y-153517D01*
X758529D01*
Y-153231D01*
X758243D01*
Y-152945D01*
X757670D01*
Y-152658D01*
D02*
G37*
%LPD*%
D10*
X1068511Y-229571D02*
Y-190201D01*
X911031Y-150831D02*
X1186622D01*
X911031Y-190201D02*
X1186622D01*
X714181Y-229571D02*
X1186622D01*
X714181Y-111461D02*
X1186622D01*
X714181Y-268941D02*
Y-111461D01*
X911031Y-268941D02*
Y-111461D01*
X-466922Y900350D02*
X1186622D01*
Y-268941D02*
Y900350D01*
X-466922Y-268941D02*
Y900350D01*
Y-268941D02*
X1186622D01*
X920874Y-261067D02*
Y-255164D01*
X923825D01*
X924809Y-256147D01*
Y-258115D01*
X923825Y-259099D01*
X920874D01*
X926777Y-255164D02*
X928745D01*
X927761D01*
Y-261067D01*
X926777D01*
X928745D01*
X931697D02*
Y-257131D01*
X933665Y-255164D01*
X935633Y-257131D01*
Y-261067D01*
Y-258115D01*
X931697D01*
X937601Y-261067D02*
Y-255164D01*
X941536Y-261067D01*
Y-255164D01*
X946456D02*
X944488D01*
X943504Y-256147D01*
Y-260083D01*
X944488Y-261067D01*
X946456D01*
X947440Y-260083D01*
Y-256147D01*
X946456Y-255164D01*
X949408Y-262051D02*
X953343D01*
X959247Y-255164D02*
X955311D01*
Y-261067D01*
X959247D01*
X955311Y-258115D02*
X957279D01*
X961215Y-255164D02*
Y-261067D01*
X965151D01*
X967119Y-255164D02*
X969086D01*
X968102D01*
Y-261067D01*
X967119D01*
X969086D01*
X975974Y-256147D02*
X974990Y-255164D01*
X973022D01*
X972038Y-256147D01*
Y-257131D01*
X973022Y-258115D01*
X974990D01*
X975974Y-259099D01*
Y-260083D01*
X974990Y-261067D01*
X973022D01*
X972038Y-260083D01*
X981878Y-255164D02*
X977942D01*
Y-261067D01*
X981878D01*
X977942Y-258115D02*
X979910D01*
X983845Y-262051D02*
X987781D01*
X989749Y-256147D02*
X990733Y-255164D01*
X992701D01*
X993685Y-256147D01*
Y-260083D01*
X992701Y-261067D01*
X990733D01*
X989749Y-260083D01*
Y-256147D01*
X995653Y-261067D02*
X997620D01*
X996637D01*
Y-255164D01*
X995653Y-256147D01*
X1000572Y-261067D02*
Y-260083D01*
X1001556D01*
Y-261067D01*
X1000572D01*
X1005492D02*
Y-255164D01*
X1008444D01*
X1009428Y-256147D01*
Y-258115D01*
X1008444Y-259099D01*
X1005492D01*
X1015331Y-257131D02*
X1012379D01*
X1011396Y-258115D01*
Y-260083D01*
X1012379Y-261067D01*
X1015331D01*
X1017299Y-255164D02*
Y-261067D01*
X1020251D01*
X1021235Y-260083D01*
Y-259099D01*
Y-258115D01*
X1020251Y-257131D01*
X1017299D01*
X1023203Y-255164D02*
Y-261067D01*
X1026155D01*
X1027139Y-260083D01*
Y-256147D01*
X1026155Y-255164D01*
X1023203D01*
X1030090Y-261067D02*
X1032058D01*
X1033042Y-260083D01*
Y-258115D01*
X1032058Y-257131D01*
X1030090D01*
X1029106Y-258115D01*
Y-260083D01*
X1030090Y-261067D01*
X1038946Y-257131D02*
X1035994D01*
X1035010Y-258115D01*
Y-260083D01*
X1035994Y-261067D01*
X1038946D01*
D11*
X21654Y196850D02*
G03*
X-0Y175197I0J-21654D01*
G01*
X417323D02*
G03*
X395669Y196850I-21654J0D01*
G01*
X0Y0D02*
Y175197D01*
X21654Y196850D02*
X395669D01*
X417323Y175197D02*
X417323Y0D01*
X0D02*
X417323D01*
X362340Y670513D02*
G03*
X362340Y670513I-1750J0D01*
G01*
X361640Y662639D02*
G03*
X361640Y662639I-1050J0D01*
G01*
X362340D02*
G03*
X362340Y662639I-1750J0D01*
G01*
X355681Y682149D02*
X854967D01*
X355681Y627031D02*
X854967D01*
X355681Y619157D02*
X854967D01*
Y690023D01*
X355681D02*
X854967D01*
X355681Y619157D02*
Y690023D01*
X781130Y619157D02*
Y690023D01*
X735473Y619157D02*
Y690023D01*
X689685Y619157D02*
Y690023D01*
X650326Y619157D02*
Y690023D01*
X619153Y619157D02*
Y690023D01*
X540305Y619157D02*
Y690023D01*
X501575Y619157D02*
Y690023D01*
X474810Y619157D02*
Y690023D01*
X413279Y619157D02*
Y690023D01*
X384809Y619157D02*
Y690023D01*
X358841Y676637D02*
X360591Y677512D01*
X362340Y676637D01*
X361465Y678387D02*
X362340Y676637D01*
X361465Y678387D02*
X362340Y680137D01*
X360591Y679262D02*
X362340Y680137D01*
X358841D02*
X360591Y679262D01*
X358841Y680137D02*
X359716Y678387D01*
X358841Y676637D02*
X359716Y678387D01*
Y653890D02*
X360591Y653015D01*
X358841Y653890D02*
X359716D01*
X358841D02*
X359716Y654765D01*
X358841Y655640D02*
X359716Y654765D01*
X358841Y655640D02*
X359716D01*
X360591Y656515D01*
X361465Y655640D01*
X362340D01*
X361465Y654765D02*
X362340Y655640D01*
X361465Y654765D02*
X362340Y653890D01*
X361465D02*
X362340D01*
X360591Y653015D02*
X361465Y653890D01*
X358841Y646016D02*
X359716D01*
X358841D02*
Y647766D01*
X359716D01*
Y648641D01*
X361465D01*
Y647766D02*
Y648641D01*
Y647766D02*
X362340D01*
Y646016D02*
Y647766D01*
X361465Y646016D02*
X362340D01*
X361465Y645141D02*
Y646016D01*
X359716Y645141D02*
X361465D01*
X359716D02*
Y646016D01*
X358841Y637267D02*
X362340D01*
Y640767D01*
X358841D02*
X362340D01*
X358841Y637267D02*
Y640767D01*
X360591Y629393D02*
X362340Y632893D01*
X358841D02*
X362340D01*
X358841D02*
X360591Y629393D01*
X783492Y678211D02*
X785591D01*
X783492Y670337D02*
X785591D01*
X783492Y662463D02*
X785591D01*
X783492Y654589D02*
X785591D01*
X783492Y646715D02*
X785591D01*
X783492Y638841D02*
X785591D01*
X783492Y630967D02*
X785591D01*
X737835Y678211D02*
X739934D01*
X737835Y670337D02*
X739934D01*
X737835Y662463D02*
X739934D01*
X737835Y654589D02*
X739934D01*
X737835Y646715D02*
X739934D01*
X737835Y638841D02*
X739934D01*
X737835Y630967D02*
X739934D01*
X693097Y676637D02*
X692048Y677687D01*
Y678736D01*
X693097Y679786D01*
X694671Y676637D02*
Y679786D01*
X695721Y678736D01*
X696770Y679786D01*
Y676637D01*
X697820D02*
X698869D01*
X698345D01*
Y678736D01*
X697820D01*
X700444D02*
X702543Y676637D01*
X701493Y677687D01*
X702543Y678736D01*
X700444Y676637D01*
X705167D02*
X704117D01*
X703592Y677162D01*
Y678211D01*
X704117Y678736D01*
X705167D01*
X705691Y678211D01*
Y677687D01*
X703592D01*
X708840Y679786D02*
Y676637D01*
X707266D01*
X706741Y677162D01*
Y678211D01*
X707266Y678736D01*
X708840D01*
X709890Y676637D02*
X710939Y677687D01*
Y678736D01*
X709890Y679786D01*
X693097Y668763D02*
X692048Y669813D01*
Y670862D01*
X693097Y671912D01*
X694671Y668763D02*
Y671912D01*
X695721Y670862D01*
X696770Y671912D01*
Y668763D01*
X697820D02*
X698869D01*
X698345D01*
Y670862D01*
X697820D01*
X700444D02*
X702543Y668763D01*
X701493Y669813D01*
X702543Y670862D01*
X700444Y668763D01*
X705167D02*
X704117D01*
X703592Y669288D01*
Y670337D01*
X704117Y670862D01*
X705167D01*
X705691Y670337D01*
Y669813D01*
X703592D01*
X708840Y671912D02*
Y668763D01*
X707266D01*
X706741Y669288D01*
Y670337D01*
X707266Y670862D01*
X708840D01*
X709890Y668763D02*
X710939Y669813D01*
Y670862D01*
X709890Y671912D01*
X694146Y662988D02*
X692572D01*
X692048Y662463D01*
Y661414D01*
X692572Y660889D01*
X694146D01*
X695196Y663513D02*
X695721Y664038D01*
X696770D01*
X697295Y663513D01*
Y662988D01*
X696770Y662463D01*
X696246D01*
X696770D01*
X697295Y661938D01*
Y661414D01*
X696770Y660889D01*
X695721D01*
X695196Y661414D01*
X700444Y660889D02*
X698345D01*
X700444Y662988D01*
Y663513D01*
X699919Y664038D01*
X698869D01*
X698345Y663513D01*
X701493D02*
X702018Y664038D01*
X703068D01*
X703592Y663513D01*
Y661414D01*
X703068Y660889D01*
X702018D01*
X701493Y661414D01*
Y663513D01*
X704642Y664038D02*
Y660889D01*
Y662463D01*
X705167Y662988D01*
X706216D01*
X706741Y662463D01*
Y660889D01*
X707790D02*
Y662988D01*
X709365D01*
X709890Y662463D01*
Y660889D01*
X710939Y663513D02*
X711464Y664038D01*
X712513D01*
X713038Y663513D01*
Y662988D01*
X712513Y662463D01*
X711989D01*
X712513D01*
X713038Y661938D01*
Y661414D01*
X712513Y660889D01*
X711464D01*
X710939Y661414D01*
X716187Y660889D02*
X714088D01*
X716187Y662988D01*
Y663513D01*
X715662Y664038D01*
X714612D01*
X714088Y663513D01*
X717236D02*
X717761Y664038D01*
X718811D01*
X719335Y663513D01*
Y661414D01*
X718811Y660889D01*
X717761D01*
X717236Y661414D01*
Y663513D01*
X720385Y660889D02*
Y662988D01*
X720910D01*
X721434Y662463D01*
Y660889D01*
Y662463D01*
X721959Y662988D01*
X722484Y662463D01*
Y660889D01*
X725108D02*
Y664038D01*
X723533Y662463D01*
X725632D01*
X726682Y664038D02*
X728781D01*
Y663513D01*
X726682Y661414D01*
Y660889D01*
X729831Y663513D02*
X730355Y664038D01*
X731405D01*
X731930Y663513D01*
Y661414D01*
X731405Y660889D01*
X730355D01*
X729831Y661414D01*
Y663513D01*
X693097Y653015D02*
X692048Y654065D01*
Y655114D01*
X693097Y656164D01*
X694671Y653015D02*
Y656164D01*
X695721Y655114D01*
X696770Y656164D01*
Y653015D01*
X697820D02*
X698869D01*
X698345D01*
Y655114D01*
X697820D01*
X700444D02*
X702543Y653015D01*
X701493Y654065D01*
X702543Y655114D01*
X700444Y653015D01*
X705167D02*
X704117D01*
X703592Y653540D01*
Y654589D01*
X704117Y655114D01*
X705167D01*
X705691Y654589D01*
Y654065D01*
X703592D01*
X708840Y656164D02*
Y653015D01*
X707266D01*
X706741Y653540D01*
Y654589D01*
X707266Y655114D01*
X708840D01*
X709890Y653015D02*
X710939Y654065D01*
Y655114D01*
X709890Y656164D01*
X694146Y647240D02*
X692572D01*
X692048Y646715D01*
Y645666D01*
X692572Y645141D01*
X694146D01*
X697295D02*
X695196D01*
X697295Y647240D01*
Y647765D01*
X696770Y648290D01*
X695721D01*
X695196Y647765D01*
X698345D02*
X698869Y648290D01*
X699919D01*
X700444Y647765D01*
Y645666D01*
X699919Y645141D01*
X698869D01*
X698345Y645666D01*
Y647765D01*
X701493D02*
X702018Y648290D01*
X703068D01*
X703592Y647765D01*
Y645666D01*
X703068Y645141D01*
X702018D01*
X701493Y645666D01*
Y647765D01*
X704642Y648290D02*
Y645141D01*
Y646715D01*
X705167Y647240D01*
X706216D01*
X706741Y646715D01*
Y645141D01*
X707790D02*
X708840D01*
X708315D01*
Y648290D01*
X707790Y647765D01*
X710414Y645141D02*
X711464D01*
X710939D01*
Y648290D01*
X710414Y647765D01*
X713038D02*
X713563Y648290D01*
X714612D01*
X715137Y647765D01*
Y645666D01*
X714612Y645141D01*
X713563D01*
X713038Y645666D01*
Y647765D01*
X693097Y637267D02*
X692048Y638316D01*
Y639366D01*
X693097Y640416D01*
X694671Y637267D02*
Y640416D01*
X695721Y639366D01*
X696770Y640416D01*
Y637267D01*
X697820D02*
X698869D01*
X698345D01*
Y639366D01*
X697820D01*
X700444D02*
X702543Y637267D01*
X701493Y638316D01*
X702543Y639366D01*
X700444Y637267D01*
X705167D02*
X704117D01*
X703592Y637792D01*
Y638841D01*
X704117Y639366D01*
X705167D01*
X705691Y638841D01*
Y638316D01*
X703592D01*
X708840Y640416D02*
Y637267D01*
X707266D01*
X706741Y637792D01*
Y638841D01*
X707266Y639366D01*
X708840D01*
X709890Y637267D02*
X710939Y638316D01*
Y639366D01*
X709890Y640416D01*
X694146Y631492D02*
X692572D01*
X692048Y630967D01*
Y629918D01*
X692572Y629393D01*
X694146D01*
X695196D02*
X696246D01*
X695721D01*
Y632542D01*
X695196Y632017D01*
X697820D02*
X698345Y632542D01*
X699394D01*
X699919Y632017D01*
Y631492D01*
X699394Y630967D01*
X699919Y630442D01*
Y629918D01*
X699394Y629393D01*
X698345D01*
X697820Y629918D01*
Y630442D01*
X698345Y630967D01*
X697820Y631492D01*
Y632017D01*
X698345Y630967D02*
X699394D01*
X700969Y632017D02*
X701493Y632542D01*
X702543D01*
X703068Y632017D01*
Y629918D01*
X702543Y629393D01*
X701493D01*
X700969Y629918D01*
Y632017D01*
X704117Y632542D02*
Y629393D01*
Y630967D01*
X704642Y631492D01*
X705691D01*
X706216Y630967D01*
Y629393D01*
X707266D02*
X708315D01*
X707790D01*
Y632542D01*
X707266Y632017D01*
X711989Y629393D02*
X709890D01*
X711989Y631492D01*
Y632017D01*
X711464Y632542D01*
X710414D01*
X709890Y632017D01*
X713038D02*
X713563Y632542D01*
X714612D01*
X715137Y632017D01*
Y629918D01*
X714612Y629393D01*
X713563D01*
X713038Y629918D01*
Y632017D01*
X653737Y676637D02*
X652688Y677687D01*
Y678736D01*
X653737Y679786D01*
X655312Y676637D02*
Y679786D01*
X656361Y678736D01*
X657411Y679786D01*
Y676637D01*
X658460D02*
X659510D01*
X658985D01*
Y678736D01*
X658460D01*
X661084D02*
X663183Y676637D01*
X662134Y677687D01*
X663183Y678736D01*
X661084Y676637D01*
X665807D02*
X664758D01*
X664233Y677162D01*
Y678211D01*
X664758Y678736D01*
X665807D01*
X666332Y678211D01*
Y677687D01*
X664233D01*
X669481Y679786D02*
Y676637D01*
X667906D01*
X667381Y677162D01*
Y678211D01*
X667906Y678736D01*
X669481D01*
X670530Y676637D02*
X671580Y677687D01*
Y678736D01*
X670530Y679786D01*
X653737Y668763D02*
X652688Y669813D01*
Y670862D01*
X653737Y671912D01*
X655312Y668763D02*
Y671912D01*
X656361Y670862D01*
X657411Y671912D01*
Y668763D01*
X658460D02*
X659510D01*
X658985D01*
Y670862D01*
X658460D01*
X661084D02*
X663183Y668763D01*
X662134Y669813D01*
X663183Y670862D01*
X661084Y668763D01*
X665807D02*
X664758D01*
X664233Y669288D01*
Y670337D01*
X664758Y670862D01*
X665807D01*
X666332Y670337D01*
Y669813D01*
X664233D01*
X669481Y671912D02*
Y668763D01*
X667906D01*
X667381Y669288D01*
Y670337D01*
X667906Y670862D01*
X669481D01*
X670530Y668763D02*
X671580Y669813D01*
Y670862D01*
X670530Y671912D01*
X652688Y660889D02*
Y664038D01*
X654262D01*
X654787Y663513D01*
Y662463D01*
X654262Y661938D01*
X652688D01*
X653737D02*
X654787Y660889D01*
X656361D02*
X657411D01*
X657936Y661414D01*
Y662463D01*
X657411Y662988D01*
X656361D01*
X655837Y662463D01*
Y661414D01*
X656361Y660889D01*
X658985Y662988D02*
Y661414D01*
X659510Y660889D01*
X661084D01*
Y662988D01*
X662134Y660889D02*
Y662988D01*
X663708D01*
X664233Y662463D01*
Y660889D01*
X667381Y664038D02*
Y660889D01*
X665807D01*
X665282Y661414D01*
Y662463D01*
X665807Y662988D01*
X667381D01*
X670005Y660889D02*
X668956D01*
X668431Y661414D01*
Y662463D01*
X668956Y662988D01*
X670005D01*
X670530Y662463D01*
Y661938D01*
X668431D01*
X673679Y664038D02*
Y660889D01*
X672104D01*
X671580Y661414D01*
Y662463D01*
X672104Y662988D01*
X673679D01*
X652688Y653015D02*
Y656164D01*
X654262D01*
X654787Y655639D01*
Y654589D01*
X654262Y654065D01*
X652688D01*
X653737D02*
X654787Y653015D01*
X656361D02*
X657411D01*
X657936Y653540D01*
Y654589D01*
X657411Y655114D01*
X656361D01*
X655837Y654589D01*
Y653540D01*
X656361Y653015D01*
X658985Y655114D02*
Y653540D01*
X659510Y653015D01*
X661084D01*
Y655114D01*
X662134Y653015D02*
Y655114D01*
X663708D01*
X664233Y654589D01*
Y653015D01*
X667381Y656164D02*
Y653015D01*
X665807D01*
X665282Y653540D01*
Y654589D01*
X665807Y655114D01*
X667381D01*
X670005Y653015D02*
X668956D01*
X668431Y653540D01*
Y654589D01*
X668956Y655114D01*
X670005D01*
X670530Y654589D01*
Y654065D01*
X668431D01*
X673679Y656164D02*
Y653015D01*
X672104D01*
X671580Y653540D01*
Y654589D01*
X672104Y655114D01*
X673679D01*
X652688Y645141D02*
Y648290D01*
X654262D01*
X654787Y647765D01*
Y646715D01*
X654262Y646191D01*
X652688D01*
X653737D02*
X654787Y645141D01*
X656361D02*
X657411D01*
X657936Y645666D01*
Y646715D01*
X657411Y647240D01*
X656361D01*
X655837Y646715D01*
Y645666D01*
X656361Y645141D01*
X658985Y647240D02*
Y645666D01*
X659510Y645141D01*
X661084D01*
Y647240D01*
X662134Y645141D02*
Y647240D01*
X663708D01*
X664233Y646715D01*
Y645141D01*
X667381Y648290D02*
Y645141D01*
X665807D01*
X665282Y645666D01*
Y646715D01*
X665807Y647240D01*
X667381D01*
X670005Y645141D02*
X668956D01*
X668431Y645666D01*
Y646715D01*
X668956Y647240D01*
X670005D01*
X670530Y646715D01*
Y646191D01*
X668431D01*
X673679Y648290D02*
Y645141D01*
X672104D01*
X671580Y645666D01*
Y646715D01*
X672104Y647240D01*
X673679D01*
X652688Y637267D02*
Y640416D01*
X654262D01*
X654787Y639891D01*
Y638841D01*
X654262Y638316D01*
X652688D01*
X653737D02*
X654787Y637267D01*
X656361D02*
X657411D01*
X657936Y637792D01*
Y638841D01*
X657411Y639366D01*
X656361D01*
X655837Y638841D01*
Y637792D01*
X656361Y637267D01*
X658985Y639366D02*
Y637792D01*
X659510Y637267D01*
X661084D01*
Y639366D01*
X662134Y637267D02*
Y639366D01*
X663708D01*
X664233Y638841D01*
Y637267D01*
X667381Y640416D02*
Y637267D01*
X665807D01*
X665282Y637792D01*
Y638841D01*
X665807Y639366D01*
X667381D01*
X670005Y637267D02*
X668956D01*
X668431Y637792D01*
Y638841D01*
X668956Y639366D01*
X670005D01*
X670530Y638841D01*
Y638316D01*
X668431D01*
X673679Y640416D02*
Y637267D01*
X672104D01*
X671580Y637792D01*
Y638841D01*
X672104Y639366D01*
X673679D01*
X652688Y629393D02*
Y632542D01*
X654262D01*
X654787Y632017D01*
Y630967D01*
X654262Y630442D01*
X652688D01*
X653737D02*
X654787Y629393D01*
X656361D02*
X657411D01*
X657936Y629918D01*
Y630967D01*
X657411Y631492D01*
X656361D01*
X655837Y630967D01*
Y629918D01*
X656361Y629393D01*
X658985Y631492D02*
Y629918D01*
X659510Y629393D01*
X661084D01*
Y631492D01*
X662134Y629393D02*
Y631492D01*
X663708D01*
X664233Y630967D01*
Y629393D01*
X667381Y632542D02*
Y629393D01*
X665807D01*
X665282Y629918D01*
Y630967D01*
X665807Y631492D01*
X667381D01*
X670005Y629393D02*
X668956D01*
X668431Y629918D01*
Y630967D01*
X668956Y631492D01*
X670005D01*
X670530Y630967D01*
Y630442D01*
X668431D01*
X673679Y632542D02*
Y629393D01*
X672104D01*
X671580Y629918D01*
Y630967D01*
X672104Y631492D01*
X673679D01*
X621515Y676637D02*
Y679786D01*
X623089D01*
X623614Y679261D01*
Y678211D01*
X623089Y677687D01*
X621515D01*
X625188Y678736D02*
X626238D01*
X626762Y678211D01*
Y676637D01*
X625188D01*
X624663Y677162D01*
X625188Y677687D01*
X626762D01*
X629911Y679786D02*
Y676637D01*
X628337D01*
X627812Y677162D01*
Y678211D01*
X628337Y678736D01*
X629911D01*
X621515Y668763D02*
Y671912D01*
X623089D01*
X623614Y671387D01*
Y670337D01*
X623089Y669813D01*
X621515D01*
X625188Y670862D02*
X626238D01*
X626762Y670337D01*
Y668763D01*
X625188D01*
X624663Y669288D01*
X625188Y669813D01*
X626762D01*
X629911Y671912D02*
Y668763D01*
X628337D01*
X627812Y669288D01*
Y670337D01*
X628337Y670862D01*
X629911D01*
X621515Y660889D02*
Y664038D01*
X623089D01*
X623614Y663513D01*
Y662463D01*
X623089Y661938D01*
X621515D01*
X625188Y662988D02*
X626238D01*
X626762Y662463D01*
Y660889D01*
X625188D01*
X624663Y661414D01*
X625188Y661938D01*
X626762D01*
X629911Y664038D02*
Y660889D01*
X628337D01*
X627812Y661414D01*
Y662463D01*
X628337Y662988D01*
X629911D01*
X621515Y653015D02*
Y656164D01*
X623089D01*
X623614Y655639D01*
Y654589D01*
X623089Y654065D01*
X621515D01*
X625188Y655114D02*
X626238D01*
X626762Y654589D01*
Y653015D01*
X625188D01*
X624663Y653540D01*
X625188Y654065D01*
X626762D01*
X629911Y656164D02*
Y653015D01*
X628337D01*
X627812Y653540D01*
Y654589D01*
X628337Y655114D01*
X629911D01*
X621515Y645141D02*
Y648290D01*
X623089D01*
X623614Y647765D01*
Y646715D01*
X623089Y646191D01*
X621515D01*
X625188Y647240D02*
X626238D01*
X626762Y646715D01*
Y645141D01*
X625188D01*
X624663Y645666D01*
X625188Y646191D01*
X626762D01*
X629911Y648290D02*
Y645141D01*
X628337D01*
X627812Y645666D01*
Y646715D01*
X628337Y647240D01*
X629911D01*
X621515Y637267D02*
Y640416D01*
X623089D01*
X623614Y639891D01*
Y638841D01*
X623089Y638316D01*
X621515D01*
X625188Y639366D02*
X626238D01*
X626762Y638841D01*
Y637267D01*
X625188D01*
X624663Y637792D01*
X625188Y638316D01*
X626762D01*
X629911Y640416D02*
Y637267D01*
X628337D01*
X627812Y637792D01*
Y638841D01*
X628337Y639366D01*
X629911D01*
X621515Y629393D02*
Y632542D01*
X623089D01*
X623614Y632017D01*
Y630967D01*
X623089Y630442D01*
X621515D01*
X625188Y631492D02*
X626238D01*
X626762Y630967D01*
Y629393D01*
X625188D01*
X624663Y629918D01*
X625188Y630442D01*
X626762D01*
X629911Y632542D02*
Y629393D01*
X628337D01*
X627812Y629918D01*
Y630967D01*
X628337Y631492D01*
X629911D01*
X542667Y679786D02*
X544766D01*
X543716D01*
Y676637D01*
X546340D02*
X547390D01*
X547915Y677162D01*
Y678211D01*
X547390Y678736D01*
X546340D01*
X545816Y678211D01*
Y677162D01*
X546340Y676637D01*
X548964Y675588D02*
Y678736D01*
X550538D01*
X551063Y678211D01*
Y677162D01*
X550538Y676637D01*
X548964D01*
X555261Y679786D02*
Y676637D01*
X557360D01*
X558935Y678736D02*
X559984D01*
X560509Y678211D01*
Y676637D01*
X558935D01*
X558410Y677162D01*
X558935Y677687D01*
X560509D01*
X561558Y678736D02*
Y677162D01*
X562083Y676637D01*
X563658D01*
Y676112D01*
X563133Y675588D01*
X562608D01*
X563658Y676637D02*
Y678736D01*
X566281Y676637D02*
X565232D01*
X564707Y677162D01*
Y678211D01*
X565232Y678736D01*
X566281D01*
X566806Y678211D01*
Y677687D01*
X564707D01*
X567856Y678736D02*
Y676637D01*
Y677687D01*
X568380Y678211D01*
X568905Y678736D01*
X569430D01*
X574153Y678211D02*
X576252D01*
X580450Y679786D02*
Y676637D01*
X582024D01*
X582549Y677162D01*
Y677687D01*
X582024Y678211D01*
X580450D01*
X582024D01*
X582549Y678736D01*
Y679261D01*
X582024Y679786D01*
X580450D01*
X584123Y676637D02*
X585173D01*
X585698Y677162D01*
Y678211D01*
X585173Y678736D01*
X584123D01*
X583599Y678211D01*
Y677162D01*
X584123Y676637D01*
X587272Y679261D02*
Y678736D01*
X586747D01*
X587797D01*
X587272D01*
Y677162D01*
X587797Y676637D01*
X589896Y679261D02*
Y678736D01*
X589371D01*
X590421D01*
X589896D01*
Y677162D01*
X590421Y676637D01*
X592520D02*
X593569D01*
X594094Y677162D01*
Y678211D01*
X593569Y678736D01*
X592520D01*
X591995Y678211D01*
Y677162D01*
X592520Y676637D01*
X595144D02*
Y678736D01*
X595668D01*
X596193Y678211D01*
Y676637D01*
Y678211D01*
X596718Y678736D01*
X597242Y678211D01*
Y676637D01*
X601441Y679786D02*
Y676637D01*
X603540D01*
X605114Y678736D02*
X606164D01*
X606688Y678211D01*
Y676637D01*
X605114D01*
X604589Y677162D01*
X605114Y677687D01*
X606688D01*
X607738Y678736D02*
Y677162D01*
X608263Y676637D01*
X609837D01*
Y676112D01*
X609312Y675588D01*
X608787D01*
X609837Y676637D02*
Y678736D01*
X612461Y676637D02*
X611411D01*
X610886Y677162D01*
Y678211D01*
X611411Y678736D01*
X612461D01*
X612986Y678211D01*
Y677687D01*
X610886D01*
X614035Y678736D02*
Y676637D01*
Y677687D01*
X614560Y678211D01*
X615085Y678736D01*
X615609D01*
X542667Y671912D02*
X544766D01*
X543716D01*
Y668763D01*
X546340D02*
X547390D01*
X547915Y669288D01*
Y670337D01*
X547390Y670862D01*
X546340D01*
X545816Y670337D01*
Y669288D01*
X546340Y668763D01*
X548964Y667713D02*
Y670862D01*
X550538D01*
X551063Y670337D01*
Y669288D01*
X550538Y668763D01*
X548964D01*
X555261Y671912D02*
Y668763D01*
X557360D01*
X558935Y670862D02*
X559984D01*
X560509Y670337D01*
Y668763D01*
X558935D01*
X558410Y669288D01*
X558935Y669813D01*
X560509D01*
X561558Y670862D02*
Y669288D01*
X562083Y668763D01*
X563658D01*
Y668238D01*
X563133Y667713D01*
X562608D01*
X563658Y668763D02*
Y670862D01*
X566281Y668763D02*
X565232D01*
X564707Y669288D01*
Y670337D01*
X565232Y670862D01*
X566281D01*
X566806Y670337D01*
Y669813D01*
X564707D01*
X567856Y670862D02*
Y668763D01*
Y669813D01*
X568380Y670337D01*
X568905Y670862D01*
X569430D01*
X574153Y670337D02*
X576252D01*
X580450Y671912D02*
Y668763D01*
X582024D01*
X582549Y669288D01*
Y669813D01*
X582024Y670337D01*
X580450D01*
X582024D01*
X582549Y670862D01*
Y671387D01*
X582024Y671912D01*
X580450D01*
X584123Y668763D02*
X585173D01*
X585698Y669288D01*
Y670337D01*
X585173Y670862D01*
X584123D01*
X583599Y670337D01*
Y669288D01*
X584123Y668763D01*
X587272Y671387D02*
Y670862D01*
X586747D01*
X587797D01*
X587272D01*
Y669288D01*
X587797Y668763D01*
X589896Y671387D02*
Y670862D01*
X589371D01*
X590421D01*
X589896D01*
Y669288D01*
X590421Y668763D01*
X592520D02*
X593569D01*
X594094Y669288D01*
Y670337D01*
X593569Y670862D01*
X592520D01*
X591995Y670337D01*
Y669288D01*
X592520Y668763D01*
X595144D02*
Y670862D01*
X595668D01*
X596193Y670337D01*
Y668763D01*
Y670337D01*
X596718Y670862D01*
X597242Y670337D01*
Y668763D01*
X601441Y671912D02*
Y668763D01*
X603540D01*
X605114Y670862D02*
X606164D01*
X606688Y670337D01*
Y668763D01*
X605114D01*
X604589Y669288D01*
X605114Y669813D01*
X606688D01*
X607738Y670862D02*
Y669288D01*
X608263Y668763D01*
X609837D01*
Y668238D01*
X609312Y667713D01*
X608787D01*
X609837Y668763D02*
Y670862D01*
X612461Y668763D02*
X611411D01*
X610886Y669288D01*
Y670337D01*
X611411Y670862D01*
X612461D01*
X612986Y670337D01*
Y669813D01*
X610886D01*
X614035Y670862D02*
Y668763D01*
Y669813D01*
X614560Y670337D01*
X615085Y670862D01*
X615609D01*
X542667Y664038D02*
X544766D01*
X543716D01*
Y660889D01*
X546340D02*
X547390D01*
X547915Y661414D01*
Y662463D01*
X547390Y662988D01*
X546340D01*
X545816Y662463D01*
Y661414D01*
X546340Y660889D01*
X548964Y659839D02*
Y662988D01*
X550538D01*
X551063Y662463D01*
Y661414D01*
X550538Y660889D01*
X548964D01*
X555261Y664038D02*
Y660889D01*
X557360D01*
X558935Y662988D02*
X559984D01*
X560509Y662463D01*
Y660889D01*
X558935D01*
X558410Y661414D01*
X558935Y661938D01*
X560509D01*
X561558Y662988D02*
Y661414D01*
X562083Y660889D01*
X563658D01*
Y660364D01*
X563133Y659839D01*
X562608D01*
X563658Y660889D02*
Y662988D01*
X566281Y660889D02*
X565232D01*
X564707Y661414D01*
Y662463D01*
X565232Y662988D01*
X566281D01*
X566806Y662463D01*
Y661938D01*
X564707D01*
X567856Y662988D02*
Y660889D01*
Y661938D01*
X568380Y662463D01*
X568905Y662988D01*
X569430D01*
X574153Y662463D02*
X576252D01*
X580450Y664038D02*
Y660889D01*
X582024D01*
X582549Y661414D01*
Y661938D01*
X582024Y662463D01*
X580450D01*
X582024D01*
X582549Y662988D01*
Y663513D01*
X582024Y664038D01*
X580450D01*
X584123Y660889D02*
X585173D01*
X585698Y661414D01*
Y662463D01*
X585173Y662988D01*
X584123D01*
X583599Y662463D01*
Y661414D01*
X584123Y660889D01*
X587272Y663513D02*
Y662988D01*
X586747D01*
X587797D01*
X587272D01*
Y661414D01*
X587797Y660889D01*
X589896Y663513D02*
Y662988D01*
X589371D01*
X590421D01*
X589896D01*
Y661414D01*
X590421Y660889D01*
X592520D02*
X593569D01*
X594094Y661414D01*
Y662463D01*
X593569Y662988D01*
X592520D01*
X591995Y662463D01*
Y661414D01*
X592520Y660889D01*
X595144D02*
Y662988D01*
X595668D01*
X596193Y662463D01*
Y660889D01*
Y662463D01*
X596718Y662988D01*
X597242Y662463D01*
Y660889D01*
X601441Y664038D02*
Y660889D01*
X603540D01*
X605114Y662988D02*
X606164D01*
X606688Y662463D01*
Y660889D01*
X605114D01*
X604589Y661414D01*
X605114Y661938D01*
X606688D01*
X607738Y662988D02*
Y661414D01*
X608263Y660889D01*
X609837D01*
Y660364D01*
X609312Y659839D01*
X608787D01*
X609837Y660889D02*
Y662988D01*
X612461Y660889D02*
X611411D01*
X610886Y661414D01*
Y662463D01*
X611411Y662988D01*
X612461D01*
X612986Y662463D01*
Y661938D01*
X610886D01*
X614035Y662988D02*
Y660889D01*
Y661938D01*
X614560Y662463D01*
X615085Y662988D01*
X615609D01*
X542667Y656164D02*
X544766D01*
X543716D01*
Y653015D01*
X546340D02*
X547390D01*
X547915Y653540D01*
Y654589D01*
X547390Y655114D01*
X546340D01*
X545816Y654589D01*
Y653540D01*
X546340Y653015D01*
X548964Y651966D02*
Y655114D01*
X550538D01*
X551063Y654589D01*
Y653540D01*
X550538Y653015D01*
X548964D01*
X555261Y656164D02*
Y653015D01*
X557360D01*
X558935Y655114D02*
X559984D01*
X560509Y654589D01*
Y653015D01*
X558935D01*
X558410Y653540D01*
X558935Y654065D01*
X560509D01*
X561558Y655114D02*
Y653540D01*
X562083Y653015D01*
X563658D01*
Y652490D01*
X563133Y651966D01*
X562608D01*
X563658Y653015D02*
Y655114D01*
X566281Y653015D02*
X565232D01*
X564707Y653540D01*
Y654589D01*
X565232Y655114D01*
X566281D01*
X566806Y654589D01*
Y654065D01*
X564707D01*
X567856Y655114D02*
Y653015D01*
Y654065D01*
X568380Y654589D01*
X568905Y655114D01*
X569430D01*
X574153Y654589D02*
X576252D01*
X580450Y656164D02*
Y653015D01*
X582024D01*
X582549Y653540D01*
Y654065D01*
X582024Y654589D01*
X580450D01*
X582024D01*
X582549Y655114D01*
Y655639D01*
X582024Y656164D01*
X580450D01*
X584123Y653015D02*
X585173D01*
X585698Y653540D01*
Y654589D01*
X585173Y655114D01*
X584123D01*
X583599Y654589D01*
Y653540D01*
X584123Y653015D01*
X587272Y655639D02*
Y655114D01*
X586747D01*
X587797D01*
X587272D01*
Y653540D01*
X587797Y653015D01*
X589896Y655639D02*
Y655114D01*
X589371D01*
X590421D01*
X589896D01*
Y653540D01*
X590421Y653015D01*
X592520D02*
X593569D01*
X594094Y653540D01*
Y654589D01*
X593569Y655114D01*
X592520D01*
X591995Y654589D01*
Y653540D01*
X592520Y653015D01*
X595144D02*
Y655114D01*
X595668D01*
X596193Y654589D01*
Y653015D01*
Y654589D01*
X596718Y655114D01*
X597242Y654589D01*
Y653015D01*
X601441Y656164D02*
Y653015D01*
X603540D01*
X605114Y655114D02*
X606164D01*
X606688Y654589D01*
Y653015D01*
X605114D01*
X604589Y653540D01*
X605114Y654065D01*
X606688D01*
X607738Y655114D02*
Y653540D01*
X608263Y653015D01*
X609837D01*
Y652490D01*
X609312Y651966D01*
X608787D01*
X609837Y653015D02*
Y655114D01*
X612461Y653015D02*
X611411D01*
X610886Y653540D01*
Y654589D01*
X611411Y655114D01*
X612461D01*
X612986Y654589D01*
Y654065D01*
X610886D01*
X614035Y655114D02*
Y653015D01*
Y654065D01*
X614560Y654589D01*
X615085Y655114D01*
X615609D01*
X542667Y648290D02*
X544766D01*
X543716D01*
Y645141D01*
X546340D02*
X547390D01*
X547915Y645666D01*
Y646715D01*
X547390Y647240D01*
X546340D01*
X545816Y646715D01*
Y645666D01*
X546340Y645141D01*
X548964Y644092D02*
Y647240D01*
X550538D01*
X551063Y646715D01*
Y645666D01*
X550538Y645141D01*
X548964D01*
X555261Y648290D02*
Y645141D01*
X557360D01*
X558935Y647240D02*
X559984D01*
X560509Y646715D01*
Y645141D01*
X558935D01*
X558410Y645666D01*
X558935Y646191D01*
X560509D01*
X561558Y647240D02*
Y645666D01*
X562083Y645141D01*
X563658D01*
Y644616D01*
X563133Y644092D01*
X562608D01*
X563658Y645141D02*
Y647240D01*
X566281Y645141D02*
X565232D01*
X564707Y645666D01*
Y646715D01*
X565232Y647240D01*
X566281D01*
X566806Y646715D01*
Y646191D01*
X564707D01*
X567856Y647240D02*
Y645141D01*
Y646191D01*
X568380Y646715D01*
X568905Y647240D01*
X569430D01*
X574153Y646715D02*
X576252D01*
X580450Y648290D02*
Y645141D01*
X582024D01*
X582549Y645666D01*
Y646191D01*
X582024Y646715D01*
X580450D01*
X582024D01*
X582549Y647240D01*
Y647765D01*
X582024Y648290D01*
X580450D01*
X584123Y645141D02*
X585173D01*
X585698Y645666D01*
Y646715D01*
X585173Y647240D01*
X584123D01*
X583599Y646715D01*
Y645666D01*
X584123Y645141D01*
X587272Y647765D02*
Y647240D01*
X586747D01*
X587797D01*
X587272D01*
Y645666D01*
X587797Y645141D01*
X589896Y647765D02*
Y647240D01*
X589371D01*
X590421D01*
X589896D01*
Y645666D01*
X590421Y645141D01*
X592520D02*
X593569D01*
X594094Y645666D01*
Y646715D01*
X593569Y647240D01*
X592520D01*
X591995Y646715D01*
Y645666D01*
X592520Y645141D01*
X595144D02*
Y647240D01*
X595668D01*
X596193Y646715D01*
Y645141D01*
Y646715D01*
X596718Y647240D01*
X597242Y646715D01*
Y645141D01*
X601441Y648290D02*
Y645141D01*
X603540D01*
X605114Y647240D02*
X606164D01*
X606688Y646715D01*
Y645141D01*
X605114D01*
X604589Y645666D01*
X605114Y646191D01*
X606688D01*
X607738Y647240D02*
Y645666D01*
X608263Y645141D01*
X609837D01*
Y644616D01*
X609312Y644092D01*
X608787D01*
X609837Y645141D02*
Y647240D01*
X612461Y645141D02*
X611411D01*
X610886Y645666D01*
Y646715D01*
X611411Y647240D01*
X612461D01*
X612986Y646715D01*
Y646191D01*
X610886D01*
X614035Y647240D02*
Y645141D01*
Y646191D01*
X614560Y646715D01*
X615085Y647240D01*
X615609D01*
X542667Y640416D02*
X544766D01*
X543716D01*
Y637267D01*
X546340D02*
X547390D01*
X547915Y637792D01*
Y638841D01*
X547390Y639366D01*
X546340D01*
X545816Y638841D01*
Y637792D01*
X546340Y637267D01*
X548964Y636217D02*
Y639366D01*
X550538D01*
X551063Y638841D01*
Y637792D01*
X550538Y637267D01*
X548964D01*
X555261Y640416D02*
Y637267D01*
X557360D01*
X558935Y639366D02*
X559984D01*
X560509Y638841D01*
Y637267D01*
X558935D01*
X558410Y637792D01*
X558935Y638316D01*
X560509D01*
X561558Y639366D02*
Y637792D01*
X562083Y637267D01*
X563658D01*
Y636742D01*
X563133Y636217D01*
X562608D01*
X563658Y637267D02*
Y639366D01*
X566281Y637267D02*
X565232D01*
X564707Y637792D01*
Y638841D01*
X565232Y639366D01*
X566281D01*
X566806Y638841D01*
Y638316D01*
X564707D01*
X567856Y639366D02*
Y637267D01*
Y638316D01*
X568380Y638841D01*
X568905Y639366D01*
X569430D01*
X574153Y638841D02*
X576252D01*
X580450Y640416D02*
Y637267D01*
X582024D01*
X582549Y637792D01*
Y638316D01*
X582024Y638841D01*
X580450D01*
X582024D01*
X582549Y639366D01*
Y639891D01*
X582024Y640416D01*
X580450D01*
X584123Y637267D02*
X585173D01*
X585698Y637792D01*
Y638841D01*
X585173Y639366D01*
X584123D01*
X583599Y638841D01*
Y637792D01*
X584123Y637267D01*
X587272Y639891D02*
Y639366D01*
X586747D01*
X587797D01*
X587272D01*
Y637792D01*
X587797Y637267D01*
X589896Y639891D02*
Y639366D01*
X589371D01*
X590421D01*
X589896D01*
Y637792D01*
X590421Y637267D01*
X592520D02*
X593569D01*
X594094Y637792D01*
Y638841D01*
X593569Y639366D01*
X592520D01*
X591995Y638841D01*
Y637792D01*
X592520Y637267D01*
X595144D02*
Y639366D01*
X595668D01*
X596193Y638841D01*
Y637267D01*
Y638841D01*
X596718Y639366D01*
X597242Y638841D01*
Y637267D01*
X601441Y640416D02*
Y637267D01*
X603540D01*
X605114Y639366D02*
X606164D01*
X606688Y638841D01*
Y637267D01*
X605114D01*
X604589Y637792D01*
X605114Y638316D01*
X606688D01*
X607738Y639366D02*
Y637792D01*
X608263Y637267D01*
X609837D01*
Y636742D01*
X609312Y636217D01*
X608787D01*
X609837Y637267D02*
Y639366D01*
X612461Y637267D02*
X611411D01*
X610886Y637792D01*
Y638841D01*
X611411Y639366D01*
X612461D01*
X612986Y638841D01*
Y638316D01*
X610886D01*
X614035Y639366D02*
Y637267D01*
Y638316D01*
X614560Y638841D01*
X615085Y639366D01*
X615609D01*
X542667Y632542D02*
X544766D01*
X543716D01*
Y629393D01*
X546340D02*
X547390D01*
X547915Y629918D01*
Y630967D01*
X547390Y631492D01*
X546340D01*
X545816Y630967D01*
Y629918D01*
X546340Y629393D01*
X548964Y628343D02*
Y631492D01*
X550538D01*
X551063Y630967D01*
Y629918D01*
X550538Y629393D01*
X548964D01*
X555261Y632542D02*
Y629393D01*
X557360D01*
X558935Y631492D02*
X559984D01*
X560509Y630967D01*
Y629393D01*
X558935D01*
X558410Y629918D01*
X558935Y630442D01*
X560509D01*
X561558Y631492D02*
Y629918D01*
X562083Y629393D01*
X563658D01*
Y628868D01*
X563133Y628343D01*
X562608D01*
X563658Y629393D02*
Y631492D01*
X566281Y629393D02*
X565232D01*
X564707Y629918D01*
Y630967D01*
X565232Y631492D01*
X566281D01*
X566806Y630967D01*
Y630442D01*
X564707D01*
X567856Y631492D02*
Y629393D01*
Y630442D01*
X568380Y630967D01*
X568905Y631492D01*
X569430D01*
X574153Y630967D02*
X576252D01*
X580450Y632542D02*
Y629393D01*
X582024D01*
X582549Y629918D01*
Y630442D01*
X582024Y630967D01*
X580450D01*
X582024D01*
X582549Y631492D01*
Y632017D01*
X582024Y632542D01*
X580450D01*
X584123Y629393D02*
X585173D01*
X585698Y629918D01*
Y630967D01*
X585173Y631492D01*
X584123D01*
X583599Y630967D01*
Y629918D01*
X584123Y629393D01*
X587272Y632017D02*
Y631492D01*
X586747D01*
X587797D01*
X587272D01*
Y629918D01*
X587797Y629393D01*
X589896Y632017D02*
Y631492D01*
X589371D01*
X590421D01*
X589896D01*
Y629918D01*
X590421Y629393D01*
X592520D02*
X593569D01*
X594094Y629918D01*
Y630967D01*
X593569Y631492D01*
X592520D01*
X591995Y630967D01*
Y629918D01*
X592520Y629393D01*
X595144D02*
Y631492D01*
X595668D01*
X596193Y630967D01*
Y629393D01*
Y630967D01*
X596718Y631492D01*
X597242Y630967D01*
Y629393D01*
X601441Y632542D02*
Y629393D01*
X603540D01*
X605114Y631492D02*
X606164D01*
X606688Y630967D01*
Y629393D01*
X605114D01*
X604589Y629918D01*
X605114Y630442D01*
X606688D01*
X607738Y631492D02*
Y629918D01*
X608263Y629393D01*
X609837D01*
Y628868D01*
X609312Y628343D01*
X608787D01*
X609837Y629393D02*
Y631492D01*
X612461Y629393D02*
X611411D01*
X610886Y629918D01*
Y630967D01*
X611411Y631492D01*
X612461D01*
X612986Y630967D01*
Y630442D01*
X610886D01*
X614035Y631492D02*
Y629393D01*
Y630442D01*
X614560Y630967D01*
X615085Y631492D01*
X615609D01*
X503937Y676637D02*
Y679786D01*
X505512D01*
X506036Y679261D01*
Y678211D01*
X505512Y677687D01*
X503937D01*
X504987D02*
X506036Y676637D01*
X507611D02*
X508660D01*
X509185Y677162D01*
Y678211D01*
X508660Y678736D01*
X507611D01*
X507086Y678211D01*
Y677162D01*
X507611Y676637D01*
X510234Y678736D02*
Y677162D01*
X510759Y676637D01*
X512333D01*
Y678736D01*
X513383Y676637D02*
Y678736D01*
X514957D01*
X515482Y678211D01*
Y676637D01*
X518631Y679786D02*
Y676637D01*
X517056D01*
X516532Y677162D01*
Y678211D01*
X517056Y678736D01*
X518631D01*
X503937Y668763D02*
Y671912D01*
X505512D01*
X506036Y671387D01*
Y670337D01*
X505512Y669813D01*
X503937D01*
X504987D02*
X506036Y668763D01*
X507611D02*
X508660D01*
X509185Y669288D01*
Y670337D01*
X508660Y670862D01*
X507611D01*
X507086Y670337D01*
Y669288D01*
X507611Y668763D01*
X510234Y670862D02*
Y669288D01*
X510759Y668763D01*
X512333D01*
Y670862D01*
X513383Y668763D02*
Y670862D01*
X514957D01*
X515482Y670337D01*
Y668763D01*
X518631Y671912D02*
Y668763D01*
X517056D01*
X516532Y669288D01*
Y670337D01*
X517056Y670862D01*
X518631D01*
X503937Y660889D02*
Y664038D01*
X505512D01*
X506036Y663513D01*
Y662463D01*
X505512Y661938D01*
X503937D01*
X504987D02*
X506036Y660889D01*
X507611D02*
X508660D01*
X509185Y661414D01*
Y662463D01*
X508660Y662988D01*
X507611D01*
X507086Y662463D01*
Y661414D01*
X507611Y660889D01*
X510234Y662988D02*
Y661414D01*
X510759Y660889D01*
X512333D01*
Y662988D01*
X513383Y660889D02*
Y662988D01*
X514957D01*
X515482Y662463D01*
Y660889D01*
X518631Y664038D02*
Y660889D01*
X517056D01*
X516532Y661414D01*
Y662463D01*
X517056Y662988D01*
X518631D01*
X503937Y653015D02*
Y656164D01*
X505512D01*
X506036Y655639D01*
Y654589D01*
X505512Y654065D01*
X503937D01*
X504987D02*
X506036Y653015D01*
X507611D02*
X508660D01*
X509185Y653540D01*
Y654589D01*
X508660Y655114D01*
X507611D01*
X507086Y654589D01*
Y653540D01*
X507611Y653015D01*
X510234Y655114D02*
Y653540D01*
X510759Y653015D01*
X512333D01*
Y655114D01*
X513383Y653015D02*
Y655114D01*
X514957D01*
X515482Y654589D01*
Y653015D01*
X518631Y656164D02*
Y653015D01*
X517056D01*
X516532Y653540D01*
Y654589D01*
X517056Y655114D01*
X518631D01*
X503937Y645141D02*
Y648290D01*
X505512D01*
X506036Y647765D01*
Y646715D01*
X505512Y646191D01*
X503937D01*
X504987D02*
X506036Y645141D01*
X507611D02*
X508660D01*
X509185Y645666D01*
Y646715D01*
X508660Y647240D01*
X507611D01*
X507086Y646715D01*
Y645666D01*
X507611Y645141D01*
X510234Y647240D02*
Y645666D01*
X510759Y645141D01*
X512333D01*
Y647240D01*
X513383Y645141D02*
Y647240D01*
X514957D01*
X515482Y646715D01*
Y645141D01*
X518631Y648290D02*
Y645141D01*
X517056D01*
X516532Y645666D01*
Y646715D01*
X517056Y647240D01*
X518631D01*
X503937Y637267D02*
Y640416D01*
X505512D01*
X506036Y639891D01*
Y638841D01*
X505512Y638316D01*
X503937D01*
X504987D02*
X506036Y637267D01*
X507611D02*
X508660D01*
X509185Y637792D01*
Y638841D01*
X508660Y639366D01*
X507611D01*
X507086Y638841D01*
Y637792D01*
X507611Y637267D01*
X510234Y639366D02*
Y637792D01*
X510759Y637267D01*
X512333D01*
Y639366D01*
X513383Y637267D02*
Y639366D01*
X514957D01*
X515482Y638841D01*
Y637267D01*
X518631Y640416D02*
Y637267D01*
X517056D01*
X516532Y637792D01*
Y638841D01*
X517056Y639366D01*
X518631D01*
X503937Y629393D02*
Y632542D01*
X505512D01*
X506036Y632017D01*
Y630967D01*
X505512Y630442D01*
X503937D01*
X504987D02*
X506036Y629393D01*
X507611D02*
X508660D01*
X509185Y629918D01*
Y630967D01*
X508660Y631492D01*
X507611D01*
X507086Y630967D01*
Y629918D01*
X507611Y629393D01*
X510234Y631492D02*
Y629918D01*
X510759Y629393D01*
X512333D01*
Y631492D01*
X513383Y629393D02*
Y631492D01*
X514957D01*
X515482Y630967D01*
Y629393D01*
X518631Y632542D02*
Y629393D01*
X517056D01*
X516532Y629918D01*
Y630967D01*
X517056Y631492D01*
X518631D01*
X477172Y676637D02*
Y679786D01*
X478746D01*
X479271Y679261D01*
Y678211D01*
X478746Y677687D01*
X477172D01*
X480321Y679786D02*
X482420D01*
X481370D01*
Y676637D01*
X483469Y679786D02*
Y676637D01*
Y678211D01*
X485568D01*
Y679786D01*
Y676637D01*
X477172Y668763D02*
Y671912D01*
X478746D01*
X479271Y671387D01*
Y670337D01*
X478746Y669813D01*
X477172D01*
X480321Y671912D02*
X482420D01*
X481370D01*
Y668763D01*
X483469Y671912D02*
Y668763D01*
Y670337D01*
X485568D01*
Y671912D01*
Y668763D01*
X477172Y660889D02*
Y664038D01*
X479271Y660889D01*
Y664038D01*
X480321Y660889D02*
Y664038D01*
X481895D01*
X482420Y663513D01*
Y662463D01*
X481895Y661938D01*
X480321D01*
X483469Y664038D02*
X485568D01*
X484519D01*
Y660889D01*
X486618Y664038D02*
Y660889D01*
Y662463D01*
X488717D01*
Y664038D01*
Y660889D01*
X477172Y653015D02*
Y656164D01*
X478746D01*
X479271Y655639D01*
Y654589D01*
X478746Y654065D01*
X477172D01*
X480321Y656164D02*
X482420D01*
X481370D01*
Y653015D01*
X483469Y656164D02*
Y653015D01*
Y654589D01*
X485568D01*
Y656164D01*
Y653015D01*
X477172Y645141D02*
Y648290D01*
X478746D01*
X479271Y647765D01*
Y646715D01*
X478746Y646191D01*
X477172D01*
X480321Y648290D02*
X482420D01*
X481370D01*
Y645141D01*
X483469Y648290D02*
Y645141D01*
Y646715D01*
X485568D01*
Y648290D01*
Y645141D01*
X477172Y637267D02*
Y640416D01*
X478746D01*
X479271Y639891D01*
Y638841D01*
X478746Y638316D01*
X477172D01*
X480321Y640416D02*
X482420D01*
X481370D01*
Y637267D01*
X483469Y640416D02*
Y637267D01*
Y638841D01*
X485568D01*
Y640416D01*
Y637267D01*
X477172Y629393D02*
Y632542D01*
X478746D01*
X479271Y632017D01*
Y630967D01*
X478746Y630442D01*
X477172D01*
X480321Y632542D02*
X482420D01*
X481370D01*
Y629393D01*
X483469Y632542D02*
Y629393D01*
Y630967D01*
X485568D01*
Y632542D01*
Y629393D01*
X415641Y679261D02*
X416166Y679786D01*
X417216D01*
X417740Y679261D01*
Y677162D01*
X417216Y676637D01*
X416166D01*
X415641Y677162D01*
Y679261D01*
X419315Y676112D02*
X419840Y676637D01*
Y677162D01*
X419315D01*
Y676637D01*
X419840D01*
X419315Y676112D01*
X418790Y675588D01*
X424038Y679786D02*
X422988Y679261D01*
X421939Y678211D01*
Y677162D01*
X422463Y676637D01*
X423513D01*
X424038Y677162D01*
Y677687D01*
X423513Y678211D01*
X421939D01*
X427186Y679786D02*
X425087D01*
Y678211D01*
X426137Y678736D01*
X426661D01*
X427186Y678211D01*
Y677162D01*
X426661Y676637D01*
X425612D01*
X425087Y677162D01*
X428236Y679261D02*
X428761Y679786D01*
X429810D01*
X430335Y679261D01*
Y677162D01*
X429810Y676637D01*
X428761D01*
X428236Y677162D01*
Y679261D01*
X431384Y676637D02*
Y678736D01*
X431909D01*
X432434Y678211D01*
Y676637D01*
Y678211D01*
X432959Y678736D01*
X433484Y678211D01*
Y676637D01*
X434533D02*
Y678736D01*
X435058D01*
X435582Y678211D01*
Y676637D01*
Y678211D01*
X436107Y678736D01*
X436632Y678211D01*
Y676637D01*
X441880D02*
X440830Y677687D01*
Y678736D01*
X441880Y679786D01*
X445553Y676637D02*
X443454D01*
X445553Y678736D01*
Y679261D01*
X445028Y679786D01*
X443979D01*
X443454Y679261D01*
X448702Y679786D02*
X446603D01*
Y678211D01*
X447652Y678736D01*
X448177D01*
X448702Y678211D01*
Y677162D01*
X448177Y676637D01*
X447127D01*
X446603Y677162D01*
X450276Y676112D02*
X450801Y676637D01*
Y677162D01*
X450276D01*
Y676637D01*
X450801D01*
X450276Y676112D01*
X449751Y675588D01*
X454999Y679786D02*
X452900D01*
Y678211D01*
X453949Y678736D01*
X454474D01*
X454999Y678211D01*
Y677162D01*
X454474Y676637D01*
X453425D01*
X452900Y677162D01*
X456048D02*
X456573Y676637D01*
X457623D01*
X458147Y677162D01*
Y679261D01*
X457623Y679786D01*
X456573D01*
X456048Y679261D01*
Y678736D01*
X456573Y678211D01*
X458147D01*
X459197Y676637D02*
Y678736D01*
X459722D01*
X460247Y678211D01*
Y676637D01*
Y678211D01*
X460771Y678736D01*
X461296Y678211D01*
Y676637D01*
X462346D02*
X463395D01*
X462870D01*
Y678736D01*
X462346D01*
X464969Y676637D02*
X466019D01*
X465494D01*
Y679786D01*
X464969D01*
X467593Y676637D02*
X468643Y677687D01*
Y678736D01*
X467593Y679786D01*
X415641Y671387D02*
X416166Y671912D01*
X417216D01*
X417740Y671387D01*
Y669288D01*
X417216Y668763D01*
X416166D01*
X415641Y669288D01*
Y671387D01*
X419315Y668238D02*
X419840Y668763D01*
Y669288D01*
X419315D01*
Y668763D01*
X419840D01*
X419315Y668238D01*
X418790Y667713D01*
X421939Y669288D02*
X422463Y668763D01*
X423513D01*
X424038Y669288D01*
Y671387D01*
X423513Y671912D01*
X422463D01*
X421939Y671387D01*
Y670862D01*
X422463Y670337D01*
X424038D01*
X425087Y671387D02*
X425612Y671912D01*
X426661D01*
X427186Y671387D01*
Y669288D01*
X426661Y668763D01*
X425612D01*
X425087Y669288D01*
Y671387D01*
X428236D02*
X428761Y671912D01*
X429810D01*
X430335Y671387D01*
Y669288D01*
X429810Y668763D01*
X428761D01*
X428236Y669288D01*
Y671387D01*
X431384Y668763D02*
Y670862D01*
X431909D01*
X432434Y670337D01*
Y668763D01*
Y670337D01*
X432959Y670862D01*
X433484Y670337D01*
Y668763D01*
X434533D02*
Y670862D01*
X435058D01*
X435582Y670337D01*
Y668763D01*
Y670337D01*
X436107Y670862D01*
X436632Y670337D01*
Y668763D01*
X441880D02*
X440830Y669813D01*
Y670862D01*
X441880Y671912D01*
X443454Y671387D02*
X443979Y671912D01*
X445028D01*
X445553Y671387D01*
Y670862D01*
X445028Y670337D01*
X444503D01*
X445028D01*
X445553Y669813D01*
Y669288D01*
X445028Y668763D01*
X443979D01*
X443454Y669288D01*
X448702Y671912D02*
X446603D01*
Y670337D01*
X447652Y670862D01*
X448177D01*
X448702Y670337D01*
Y669288D01*
X448177Y668763D01*
X447127D01*
X446603Y669288D01*
X450276Y668238D02*
X450801Y668763D01*
Y669288D01*
X450276D01*
Y668763D01*
X450801D01*
X450276Y668238D01*
X449751Y667713D01*
X454474Y668763D02*
Y671912D01*
X452900Y670337D01*
X454999D01*
X456048Y671387D02*
X456573Y671912D01*
X457623D01*
X458147Y671387D01*
Y670862D01*
X457623Y670337D01*
X457098D01*
X457623D01*
X458147Y669813D01*
Y669288D01*
X457623Y668763D01*
X456573D01*
X456048Y669288D01*
X459197Y668763D02*
Y670862D01*
X459722D01*
X460247Y670337D01*
Y668763D01*
Y670337D01*
X460771Y670862D01*
X461296Y670337D01*
Y668763D01*
X462346D02*
X463395D01*
X462870D01*
Y670862D01*
X462346D01*
X464969Y668763D02*
X466019D01*
X465494D01*
Y671912D01*
X464969D01*
X467593Y668763D02*
X468643Y669813D01*
Y670862D01*
X467593Y671912D01*
X415641Y663513D02*
X416166Y664038D01*
X417216D01*
X417740Y663513D01*
Y662988D01*
X417216Y662463D01*
X416691D01*
X417216D01*
X417740Y661938D01*
Y661414D01*
X417216Y660889D01*
X416166D01*
X415641Y661414D01*
X419315Y660364D02*
X419840Y660889D01*
Y661414D01*
X419315D01*
Y660889D01*
X419840D01*
X419315Y660364D01*
X418790Y659839D01*
X424038Y660889D02*
X421939D01*
X424038Y662988D01*
Y663513D01*
X423513Y664038D01*
X422463D01*
X421939Y663513D01*
X425087D02*
X425612Y664038D01*
X426661D01*
X427186Y663513D01*
Y661414D01*
X426661Y660889D01*
X425612D01*
X425087Y661414D01*
Y663513D01*
X428236D02*
X428761Y664038D01*
X429810D01*
X430335Y663513D01*
Y661414D01*
X429810Y660889D01*
X428761D01*
X428236Y661414D01*
Y663513D01*
X431384Y660889D02*
Y662988D01*
X431909D01*
X432434Y662463D01*
Y660889D01*
Y662463D01*
X432959Y662988D01*
X433484Y662463D01*
Y660889D01*
X434533D02*
Y662988D01*
X435058D01*
X435582Y662463D01*
Y660889D01*
Y662463D01*
X436107Y662988D01*
X436632Y662463D01*
Y660889D01*
X441880D02*
X440830Y661938D01*
Y662988D01*
X441880Y664038D01*
X443454Y660889D02*
X444503D01*
X443979D01*
Y664038D01*
X443454Y663513D01*
X448177Y660889D02*
X446078D01*
X448177Y662988D01*
Y663513D01*
X447652Y664038D01*
X446603D01*
X446078Y663513D01*
X451326Y664038D02*
X449226D01*
Y662463D01*
X450276Y662988D01*
X450801D01*
X451326Y662463D01*
Y661414D01*
X450801Y660889D01*
X449751D01*
X449226Y661414D01*
X452900Y660364D02*
X453425Y660889D01*
Y661414D01*
X452900D01*
Y660889D01*
X453425D01*
X452900Y660364D01*
X452375Y659839D01*
X455524Y661414D02*
X456048Y660889D01*
X457098D01*
X457623Y661414D01*
Y663513D01*
X457098Y664038D01*
X456048D01*
X455524Y663513D01*
Y662988D01*
X456048Y662463D01*
X457623D01*
X458672Y663513D02*
X459197Y664038D01*
X460247D01*
X460771Y663513D01*
Y662988D01*
X460247Y662463D01*
X460771Y661938D01*
Y661414D01*
X460247Y660889D01*
X459197D01*
X458672Y661414D01*
Y661938D01*
X459197Y662463D01*
X458672Y662988D01*
Y663513D01*
X459197Y662463D02*
X460247D01*
X461821Y660889D02*
Y662988D01*
X462346D01*
X462870Y662463D01*
Y660889D01*
Y662463D01*
X463395Y662988D01*
X463920Y662463D01*
Y660889D01*
X464969D02*
X466019D01*
X465494D01*
Y662988D01*
X464969D01*
X467593Y660889D02*
X468643D01*
X468118D01*
Y664038D01*
X467593D01*
X470217Y660889D02*
X471267Y661938D01*
Y662988D01*
X470217Y664038D01*
X415641Y655639D02*
X416166Y656164D01*
X417216D01*
X417740Y655639D01*
Y653540D01*
X417216Y653015D01*
X416166D01*
X415641Y653540D01*
Y655639D01*
X419315Y652490D02*
X419840Y653015D01*
Y653540D01*
X419315D01*
Y653015D01*
X419840D01*
X419315Y652490D01*
X418790Y651966D01*
X424038Y656164D02*
X422988Y655639D01*
X421939Y654589D01*
Y653540D01*
X422463Y653015D01*
X423513D01*
X424038Y653540D01*
Y654065D01*
X423513Y654589D01*
X421939D01*
X425087Y655639D02*
X425612Y656164D01*
X426661D01*
X427186Y655639D01*
Y653540D01*
X426661Y653015D01*
X425612D01*
X425087Y653540D01*
Y655639D01*
X428236D02*
X428761Y656164D01*
X429810D01*
X430335Y655639D01*
Y653540D01*
X429810Y653015D01*
X428761D01*
X428236Y653540D01*
Y655639D01*
X431384Y653015D02*
Y655114D01*
X431909D01*
X432434Y654589D01*
Y653015D01*
Y654589D01*
X432959Y655114D01*
X433484Y654589D01*
Y653015D01*
X434533D02*
Y655114D01*
X435058D01*
X435582Y654589D01*
Y653015D01*
Y654589D01*
X436107Y655114D01*
X436632Y654589D01*
Y653015D01*
X441880D02*
X440830Y654065D01*
Y655114D01*
X441880Y656164D01*
X445553Y653015D02*
X443454D01*
X445553Y655114D01*
Y655639D01*
X445028Y656164D01*
X443979D01*
X443454Y655639D01*
X446603D02*
X447127Y656164D01*
X448177D01*
X448702Y655639D01*
Y655114D01*
X448177Y654589D01*
X447652D01*
X448177D01*
X448702Y654065D01*
Y653540D01*
X448177Y653015D01*
X447127D01*
X446603Y653540D01*
X450276Y652490D02*
X450801Y653015D01*
Y653540D01*
X450276D01*
Y653015D01*
X450801D01*
X450276Y652490D01*
X449751Y651966D01*
X454999Y656164D02*
X453949Y655639D01*
X452900Y654589D01*
Y653540D01*
X453425Y653015D01*
X454474D01*
X454999Y653540D01*
Y654065D01*
X454474Y654589D01*
X452900D01*
X458147Y653015D02*
X456048D01*
X458147Y655114D01*
Y655639D01*
X457623Y656164D01*
X456573D01*
X456048Y655639D01*
X459197Y653015D02*
Y655114D01*
X459722D01*
X460247Y654589D01*
Y653015D01*
Y654589D01*
X460771Y655114D01*
X461296Y654589D01*
Y653015D01*
X462346D02*
X463395D01*
X462870D01*
Y655114D01*
X462346D01*
X464969Y653015D02*
X466019D01*
X465494D01*
Y656164D01*
X464969D01*
X467593Y653015D02*
X468643Y654065D01*
Y655114D01*
X467593Y656164D01*
X415641Y645141D02*
X416691D01*
X416166D01*
Y648290D01*
X415641Y647765D01*
X418790Y644616D02*
X419315Y645141D01*
Y645666D01*
X418790D01*
Y645141D01*
X419315D01*
X418790Y644616D01*
X418265Y644092D01*
X421414Y645141D02*
X422463D01*
X421939D01*
Y648290D01*
X421414Y647765D01*
X424038D02*
X424563Y648290D01*
X425612D01*
X426137Y647765D01*
Y645666D01*
X425612Y645141D01*
X424563D01*
X424038Y645666D01*
Y647765D01*
X427186D02*
X427711Y648290D01*
X428761D01*
X429285Y647765D01*
Y645666D01*
X428761Y645141D01*
X427711D01*
X427186Y645666D01*
Y647765D01*
X430335Y645141D02*
Y647240D01*
X430860D01*
X431384Y646715D01*
Y645141D01*
Y646715D01*
X431909Y647240D01*
X432434Y646715D01*
Y645141D01*
X433484D02*
Y647240D01*
X434008D01*
X434533Y646715D01*
Y645141D01*
Y646715D01*
X435058Y647240D01*
X435582Y646715D01*
Y645141D01*
X440830D02*
X439781Y646191D01*
Y647240D01*
X440830Y648290D01*
X443979Y645141D02*
Y648290D01*
X442405Y646715D01*
X444503D01*
X445553Y647765D02*
X446078Y648290D01*
X447127D01*
X447652Y647765D01*
Y647240D01*
X447127Y646715D01*
X446603D01*
X447127D01*
X447652Y646191D01*
Y645666D01*
X447127Y645141D01*
X446078D01*
X445553Y645666D01*
X449226Y644616D02*
X449751Y645141D01*
Y645666D01*
X449226D01*
Y645141D01*
X449751D01*
X449226Y644616D01*
X448702Y644092D01*
X451850Y647765D02*
X452375Y648290D01*
X453425D01*
X453949Y647765D01*
Y647240D01*
X453425Y646715D01*
X452900D01*
X453425D01*
X453949Y646191D01*
Y645666D01*
X453425Y645141D01*
X452375D01*
X451850Y645666D01*
X454999Y645141D02*
X456048D01*
X455524D01*
Y648290D01*
X454999Y647765D01*
X457623Y645141D02*
Y647240D01*
X458147D01*
X458672Y646715D01*
Y645141D01*
Y646715D01*
X459197Y647240D01*
X459722Y646715D01*
Y645141D01*
X460771D02*
X461821D01*
X461296D01*
Y647240D01*
X460771D01*
X463395Y645141D02*
X464445D01*
X463920D01*
Y648290D01*
X463395D01*
X466019Y645141D02*
X467068Y646191D01*
Y647240D01*
X466019Y648290D01*
X415641Y639891D02*
X416166Y640416D01*
X417216D01*
X417740Y639891D01*
Y637792D01*
X417216Y637267D01*
X416166D01*
X415641Y637792D01*
Y639891D01*
X419315Y636742D02*
X419840Y637267D01*
Y637792D01*
X419315D01*
Y637267D01*
X419840D01*
X419315Y636742D01*
X418790Y636217D01*
X421939Y639891D02*
X422463Y640416D01*
X423513D01*
X424038Y639891D01*
Y639366D01*
X423513Y638841D01*
X424038Y638316D01*
Y637792D01*
X423513Y637267D01*
X422463D01*
X421939Y637792D01*
Y638316D01*
X422463Y638841D01*
X421939Y639366D01*
Y639891D01*
X422463Y638841D02*
X423513D01*
X425087Y639891D02*
X425612Y640416D01*
X426661D01*
X427186Y639891D01*
Y637792D01*
X426661Y637267D01*
X425612D01*
X425087Y637792D01*
Y639891D01*
X428236D02*
X428761Y640416D01*
X429810D01*
X430335Y639891D01*
Y637792D01*
X429810Y637267D01*
X428761D01*
X428236Y637792D01*
Y639891D01*
X431384Y637267D02*
Y639366D01*
X431909D01*
X432434Y638841D01*
Y637267D01*
Y638841D01*
X432959Y639366D01*
X433484Y638841D01*
Y637267D01*
X434533D02*
Y639366D01*
X435058D01*
X435582Y638841D01*
Y637267D01*
Y638841D01*
X436107Y639366D01*
X436632Y638841D01*
Y637267D01*
X441880D02*
X440830Y638316D01*
Y639366D01*
X441880Y640416D01*
X443454Y639891D02*
X443979Y640416D01*
X445028D01*
X445553Y639891D01*
Y639366D01*
X445028Y638841D01*
X444503D01*
X445028D01*
X445553Y638316D01*
Y637792D01*
X445028Y637267D01*
X443979D01*
X443454Y637792D01*
X446603Y637267D02*
X447652D01*
X447127D01*
Y640416D01*
X446603Y639891D01*
X449751Y636742D02*
X450276Y637267D01*
Y637792D01*
X449751D01*
Y637267D01*
X450276D01*
X449751Y636742D01*
X449226Y636217D01*
X454474Y640416D02*
X452375D01*
Y638841D01*
X453425Y639366D01*
X453949D01*
X454474Y638841D01*
Y637792D01*
X453949Y637267D01*
X452900D01*
X452375Y637792D01*
X455524Y639891D02*
X456048Y640416D01*
X457098D01*
X457623Y639891D01*
Y637792D01*
X457098Y637267D01*
X456048D01*
X455524Y637792D01*
Y639891D01*
X458672Y637267D02*
Y639366D01*
X459197D01*
X459722Y638841D01*
Y637267D01*
Y638841D01*
X460247Y639366D01*
X460771Y638841D01*
Y637267D01*
X461821D02*
X462870D01*
X462346D01*
Y639366D01*
X461821D01*
X464445Y637267D02*
X465494D01*
X464969D01*
Y640416D01*
X464445D01*
X467068Y637267D02*
X468118Y638316D01*
Y639366D01*
X467068Y640416D01*
X415641Y629393D02*
X416691D01*
X416166D01*
Y632542D01*
X415641Y632017D01*
X418790Y628868D02*
X419315Y629393D01*
Y629918D01*
X418790D01*
Y629393D01*
X419315D01*
X418790Y628868D01*
X418265Y628343D01*
X423513Y629393D02*
X421414D01*
X423513Y631492D01*
Y632017D01*
X422988Y632542D01*
X421939D01*
X421414Y632017D01*
X424563D02*
X425087Y632542D01*
X426137D01*
X426661Y632017D01*
Y629918D01*
X426137Y629393D01*
X425087D01*
X424563Y629918D01*
Y632017D01*
X427711D02*
X428236Y632542D01*
X429285D01*
X429810Y632017D01*
Y629918D01*
X429285Y629393D01*
X428236D01*
X427711Y629918D01*
Y632017D01*
X430860Y629393D02*
Y631492D01*
X431384D01*
X431909Y630967D01*
Y629393D01*
Y630967D01*
X432434Y631492D01*
X432959Y630967D01*
Y629393D01*
X434008D02*
Y631492D01*
X434533D01*
X435058Y630967D01*
Y629393D01*
Y630967D01*
X435582Y631492D01*
X436107Y630967D01*
Y629393D01*
X441355D02*
X440305Y630442D01*
Y631492D01*
X441355Y632542D01*
X444503Y629393D02*
Y632542D01*
X442929Y630967D01*
X445028D01*
X446078Y632542D02*
X448177D01*
Y632017D01*
X446078Y629918D01*
Y629393D01*
X449751Y628868D02*
X450276Y629393D01*
Y629918D01*
X449751D01*
Y629393D01*
X450276D01*
X449751Y628868D01*
X449226Y628343D01*
X454474Y629393D02*
X452375D01*
X454474Y631492D01*
Y632017D01*
X453949Y632542D01*
X452900D01*
X452375Y632017D01*
X457098Y629393D02*
Y632542D01*
X455524Y630967D01*
X457623D01*
X458672Y629393D02*
Y631492D01*
X459197D01*
X459722Y630967D01*
Y629393D01*
Y630967D01*
X460247Y631492D01*
X460771Y630967D01*
Y629393D01*
X461821D02*
X462870D01*
X462346D01*
Y631492D01*
X461821D01*
X464445Y629393D02*
X465494D01*
X464969D01*
Y632542D01*
X464445D01*
X467068Y629393D02*
X468118Y630442D01*
Y631492D01*
X467068Y632542D01*
X389270Y621519D02*
X387171D01*
X389270Y623618D01*
Y624143D01*
X388745Y624668D01*
X387696D01*
X387171Y624143D01*
X391894Y621519D02*
Y624668D01*
X390320Y623093D01*
X392419D01*
X396617Y624668D02*
X398716D01*
X397666D01*
Y621519D01*
X400290D02*
X401340D01*
X401864Y622044D01*
Y623093D01*
X401340Y623618D01*
X400290D01*
X399765Y623093D01*
Y622044D01*
X400290Y621519D01*
X403439Y624143D02*
Y623618D01*
X402914D01*
X403964D01*
X403439D01*
Y622044D01*
X403964Y621519D01*
X406063Y623618D02*
X407112D01*
X407637Y623093D01*
Y621519D01*
X406063D01*
X405538Y622044D01*
X406063Y622569D01*
X407637D01*
X408686Y621519D02*
X409736D01*
X409211D01*
Y624668D01*
X408686D01*
X389270Y676637D02*
X387171D01*
X389270Y678736D01*
Y679261D01*
X388745Y679786D01*
X387696D01*
X387171Y679261D01*
X389270Y668763D02*
X387171D01*
X389270Y670862D01*
Y671387D01*
X388745Y671912D01*
X387696D01*
X387171Y671387D01*
X389270Y660889D02*
X387171D01*
X389270Y662988D01*
Y663513D01*
X388745Y664038D01*
X387696D01*
X387171Y663513D01*
Y655639D02*
X387696Y656164D01*
X388745D01*
X389270Y655639D01*
Y655114D01*
X388745Y654589D01*
X388221D01*
X388745D01*
X389270Y654065D01*
Y653540D01*
X388745Y653015D01*
X387696D01*
X387171Y653540D01*
X388745Y645141D02*
Y648290D01*
X387171Y646715D01*
X389270D01*
Y640416D02*
X387171D01*
Y638841D01*
X388221Y639366D01*
X388745D01*
X389270Y638841D01*
Y637792D01*
X388745Y637267D01*
X387696D01*
X387171Y637792D01*
X389270Y632542D02*
X388221Y632017D01*
X387171Y630967D01*
Y629918D01*
X387696Y629393D01*
X388745D01*
X389270Y629918D01*
Y630442D01*
X388745Y630967D01*
X387171D01*
D15*
X735834Y-247293D02*
Y-263036D01*
X741082Y-257788D01*
X746330Y-263036D01*
Y-247293D01*
X751577Y-263036D02*
X756825D01*
X754201D01*
Y-252540D01*
X751577D01*
X764696Y-263036D02*
Y-252540D01*
X767320D01*
X769944Y-255164D01*
Y-263036D01*
Y-255164D01*
X772568Y-252540D01*
X775192Y-255164D01*
Y-263036D01*
X780439Y-247293D02*
Y-257788D01*
X785687Y-263036D01*
X790935Y-257788D01*
Y-247293D01*
X806678Y-249917D02*
X804054Y-247293D01*
X798806D01*
X796182Y-249917D01*
Y-260412D01*
X798806Y-263036D01*
X804054D01*
X806678Y-260412D01*
Y-255164D01*
X801430D01*
X1090165Y-210546D02*
X1092789Y-207923D01*
X1098036D01*
X1100660Y-210546D01*
Y-221042D01*
X1098036Y-223665D01*
X1092789D01*
X1090165Y-221042D01*
Y-210546D01*
X1105908Y-223665D02*
X1111156D01*
X1108532D01*
Y-207923D01*
X1105908Y-210546D01*
X926779Y-212186D02*
X929075Y-209890D01*
X933667D01*
X935963Y-212186D01*
Y-214482D01*
X933667Y-216778D01*
X931371D01*
X933667D01*
X935963Y-219074D01*
Y-221370D01*
X933667Y-223665D01*
X929075D01*
X926779Y-221370D01*
X940554Y-212186D02*
X942850Y-209890D01*
X947442D01*
X949738Y-212186D01*
Y-221370D01*
X947442Y-223665D01*
X942850D01*
X940554Y-221370D01*
Y-212186D01*
X954329Y-223665D02*
X963513Y-214482D01*
X968104Y-223665D02*
X972696D01*
X970400D01*
Y-209890D01*
X968104Y-212186D01*
X979584D02*
X981880Y-209890D01*
X986471D01*
X988767Y-212186D01*
Y-221370D01*
X986471Y-223665D01*
X981880D01*
X979584Y-221370D01*
Y-212186D01*
X993359Y-223665D02*
X1002542Y-214482D01*
X1016317Y-223665D02*
X1007134D01*
X1016317Y-214482D01*
Y-212186D01*
X1014021Y-209890D01*
X1009430D01*
X1007134Y-212186D01*
X1020909D02*
X1023205Y-209890D01*
X1027796D01*
X1030092Y-212186D01*
Y-221370D01*
X1027796Y-223665D01*
X1023205D01*
X1020909Y-221370D01*
Y-212186D01*
X1043867Y-223665D02*
X1034684D01*
X1043867Y-214482D01*
Y-212186D01*
X1041572Y-209890D01*
X1036980D01*
X1034684Y-212186D01*
X1057642Y-223665D02*
X1048459D01*
X1057642Y-214482D01*
Y-212186D01*
X1055347Y-209890D01*
X1050755D01*
X1048459Y-212186D01*
X920874Y-144925D02*
Y-132331D01*
X927171D01*
X929270Y-134430D01*
Y-138628D01*
X927171Y-140727D01*
X920874D01*
X933468Y-144925D02*
X937666D01*
X935567D01*
Y-136529D01*
X933468D01*
X946062D02*
X950261D01*
X952360Y-138628D01*
Y-144925D01*
X946062D01*
X943963Y-142826D01*
X946062Y-140727D01*
X952360D01*
X956558Y-144925D02*
Y-136529D01*
X962855D01*
X964954Y-138628D01*
Y-144925D01*
X971251D02*
X975449D01*
X977548Y-142826D01*
Y-138628D01*
X975449Y-136529D01*
X971251D01*
X969152Y-138628D01*
Y-142826D01*
X971251Y-144925D01*
X1002737Y-132331D02*
X994341D01*
Y-144925D01*
X1002737D01*
X994341Y-138628D02*
X998539D01*
X1006935Y-144925D02*
X1011133D01*
X1009034D01*
Y-132331D01*
X1006935D01*
X1017430Y-144925D02*
X1021629D01*
X1019530D01*
Y-136529D01*
X1017430D01*
X1027926Y-144925D02*
X1034223D01*
X1036322Y-142826D01*
X1034223Y-140727D01*
X1030025D01*
X1027926Y-138628D01*
X1030025Y-136529D01*
X1036322D01*
X1046817Y-144925D02*
X1042619D01*
X1040520Y-142826D01*
Y-138628D01*
X1042619Y-136529D01*
X1046817D01*
X1048916Y-138628D01*
Y-140727D01*
X1040520D01*
X932685Y-168552D02*
Y-182327D01*
X939572D01*
X941868Y-180031D01*
Y-170848D01*
X939572Y-168552D01*
X932685D01*
X946460Y-173143D02*
Y-182327D01*
Y-177735D01*
X948756Y-175439D01*
X951052Y-173143D01*
X953347D01*
X960235Y-182327D02*
X964827D01*
X962531D01*
Y-173143D01*
X960235D01*
X971714Y-182327D02*
X976306D01*
X974010D01*
Y-168552D01*
X971714D01*
X983193Y-182327D02*
X987785D01*
X985489D01*
Y-168552D01*
X983193D01*
X1008448D02*
Y-182327D01*
X1015335D01*
X1017631Y-180031D01*
Y-170848D01*
X1015335Y-168552D01*
X1008448D01*
X1022223Y-173143D02*
Y-182327D01*
Y-177735D01*
X1024519Y-175439D01*
X1026814Y-173143D01*
X1029110D01*
X1038294D02*
X1042885D01*
X1045181Y-175439D01*
Y-182327D01*
X1038294D01*
X1035998Y-180031D01*
X1038294Y-177735D01*
X1045181D01*
X1049773Y-173143D02*
Y-180031D01*
X1052069Y-182327D01*
X1054365Y-180031D01*
X1056660Y-182327D01*
X1058956Y-180031D01*
Y-173143D01*
X1063548Y-182327D02*
X1068140D01*
X1065844D01*
Y-173143D01*
X1063548D01*
X1075027Y-182327D02*
Y-173143D01*
X1081915D01*
X1084211Y-175439D01*
Y-182327D01*
X1093394Y-186919D02*
X1095690D01*
X1097986Y-184623D01*
Y-173143D01*
X1091098D01*
X1088802Y-175439D01*
Y-180031D01*
X1091098Y-182327D01*
X1097986D01*
D19*
X1072449Y-202012D02*
Y-194141D01*
X1076384D01*
X1077696Y-195452D01*
Y-198076D01*
X1076384Y-199388D01*
X1072449D01*
X1075072D02*
X1077696Y-202012D01*
X1084256D02*
X1081632D01*
X1080320Y-200700D01*
Y-198076D01*
X1081632Y-196764D01*
X1084256D01*
X1085568Y-198076D01*
Y-199388D01*
X1080320D01*
X1088192Y-196764D02*
X1090815Y-202012D01*
X1093439Y-196764D01*
X718118Y-233511D02*
Y-241382D01*
X722053D01*
X723365Y-240070D01*
Y-234823D01*
X722053Y-233511D01*
X718118D01*
X729925Y-241382D02*
X727301D01*
X725989Y-240070D01*
Y-237446D01*
X727301Y-236134D01*
X729925D01*
X731237Y-237446D01*
Y-238758D01*
X725989D01*
X733861Y-241382D02*
X737796D01*
X739108Y-240070D01*
X737796Y-238758D01*
X735173D01*
X733861Y-237446D01*
X735173Y-236134D01*
X739108D01*
X744356Y-244006D02*
X745668D01*
X746980Y-242694D01*
Y-236134D01*
X743044D01*
X741732Y-237446D01*
Y-240070D01*
X743044Y-241382D01*
X746980D01*
X749604D02*
X752227D01*
X750916D01*
Y-236134D01*
X749604D01*
X756163Y-241382D02*
Y-236134D01*
X760099D01*
X761411Y-237446D01*
Y-241382D01*
X767971D02*
X765347D01*
X764035Y-240070D01*
Y-237446D01*
X765347Y-236134D01*
X767971D01*
X769282Y-237446D01*
Y-238758D01*
X764035D01*
X771906Y-236134D02*
Y-241382D01*
Y-238758D01*
X773218Y-237446D01*
X774530Y-236134D01*
X775842D01*
X914968Y-115400D02*
Y-123272D01*
X918904D01*
X920216Y-121960D01*
Y-116712D01*
X918904Y-115400D01*
X914968D01*
X924152Y-123272D02*
X926775D01*
X928087Y-121960D01*
Y-119336D01*
X926775Y-118024D01*
X924152D01*
X922840Y-119336D01*
Y-121960D01*
X924152Y-123272D01*
X935959Y-118024D02*
X932023D01*
X930711Y-119336D01*
Y-121960D01*
X932023Y-123272D01*
X935959D01*
X938583Y-118024D02*
Y-121960D01*
X939894Y-123272D01*
X943830D01*
Y-118024D01*
X946454Y-123272D02*
Y-118024D01*
X947766D01*
X949078Y-119336D01*
Y-123272D01*
Y-119336D01*
X950390Y-118024D01*
X951702Y-119336D01*
Y-123272D01*
X958261D02*
X955637D01*
X954326Y-121960D01*
Y-119336D01*
X955637Y-118024D01*
X958261D01*
X959573Y-119336D01*
Y-120648D01*
X954326D01*
X962197Y-123272D02*
Y-118024D01*
X966133D01*
X967445Y-119336D01*
Y-123272D01*
X971381Y-116712D02*
Y-118024D01*
X970068D01*
X972692D01*
X971381D01*
Y-121960D01*
X972692Y-123272D01*
X914968Y-154770D02*
Y-162642D01*
X920216D01*
X924152Y-157394D02*
X926775D01*
X928087Y-158706D01*
Y-162642D01*
X924152D01*
X922840Y-161330D01*
X924152Y-160018D01*
X928087D01*
X930711Y-157394D02*
Y-161330D01*
X932023Y-162642D01*
X935959D01*
Y-163954D01*
X934647Y-165266D01*
X933335D01*
X935959Y-162642D02*
Y-157394D01*
X942518Y-162642D02*
X939894D01*
X938583Y-161330D01*
Y-158706D01*
X939894Y-157394D01*
X942518D01*
X943830Y-158706D01*
Y-160018D01*
X938583D01*
X946454Y-157394D02*
Y-162642D01*
Y-160018D01*
X947766Y-158706D01*
X949078Y-157394D01*
X950390D01*
X962197Y-162642D02*
Y-154770D01*
X967445Y-162642D01*
Y-154770D01*
X971381Y-157394D02*
X974004D01*
X975316Y-158706D01*
Y-162642D01*
X971381D01*
X970068Y-161330D01*
X971381Y-160018D01*
X975316D01*
X977940Y-162642D02*
Y-157394D01*
X979252D01*
X980564Y-158706D01*
Y-162642D01*
Y-158706D01*
X981876Y-157394D01*
X983188Y-158706D01*
Y-162642D01*
X989747D02*
X987123D01*
X985812Y-161330D01*
Y-158706D01*
X987123Y-157394D01*
X989747D01*
X991059Y-158706D01*
Y-160018D01*
X985812D01*
X914968Y-194141D02*
Y-202012D01*
X918904D01*
X920216Y-200700D01*
Y-195452D01*
X918904Y-194141D01*
X914968D01*
X924152Y-196764D02*
X926775D01*
X928087Y-198076D01*
Y-202012D01*
X924152D01*
X922840Y-200700D01*
X924152Y-199388D01*
X928087D01*
X932023Y-195452D02*
Y-196764D01*
X930711D01*
X933335D01*
X932023D01*
Y-200700D01*
X933335Y-202012D01*
X941206D02*
X938583D01*
X937271Y-200700D01*
Y-198076D01*
X938583Y-196764D01*
X941206D01*
X942518Y-198076D01*
Y-199388D01*
X937271D01*
X914968Y-233511D02*
Y-241382D01*
X918904D01*
X920216Y-240070D01*
Y-234823D01*
X918904Y-233511D01*
X914968D01*
X924152Y-241382D02*
X926775D01*
X928087Y-240070D01*
Y-237446D01*
X926775Y-236134D01*
X924152D01*
X922840Y-237446D01*
Y-240070D01*
X924152Y-241382D01*
X935959Y-236134D02*
X932023D01*
X930711Y-237446D01*
Y-240070D01*
X932023Y-241382D01*
X935959D01*
X938583Y-236134D02*
Y-240070D01*
X939894Y-241382D01*
X943830D01*
Y-236134D01*
X946454Y-241382D02*
Y-236134D01*
X947766D01*
X949078Y-237446D01*
Y-241382D01*
Y-237446D01*
X950390Y-236134D01*
X951702Y-237446D01*
Y-241382D01*
X958261D02*
X955637D01*
X954326Y-240070D01*
Y-237446D01*
X955637Y-236134D01*
X958261D01*
X959573Y-237446D01*
Y-238758D01*
X954326D01*
X962197Y-241382D02*
Y-236134D01*
X966133D01*
X967445Y-237446D01*
Y-241382D01*
X971381Y-234823D02*
Y-236134D01*
X970068D01*
X972692D01*
X971381D01*
Y-240070D01*
X972692Y-241382D01*
D51*
X307299Y163386D02*
G03*
X307299Y163386I-1000J0D01*
G01*
X277378D02*
G03*
X277378Y163386I-1000J0D01*
G01*
X16348Y181102D02*
G03*
X16348Y181102I-600J0D01*
G01*
X16748D02*
G03*
X16748Y181102I-1000J0D01*
G01*
X402175D02*
G03*
X402175Y181102I-600J0D01*
G01*
X402575D02*
G03*
X402575Y181102I-1000J0D01*
G01*
X286402Y123173D02*
X288402D01*
Y125173D01*
X286402D02*
X288402D01*
X286402Y123173D02*
Y125173D01*
Y113173D02*
X288402D01*
Y115173D01*
X286402D02*
X288402D01*
X286402Y113173D02*
Y115173D01*
Y103173D02*
X288402D01*
Y105173D01*
X286402D02*
X288402D01*
X286402Y103173D02*
Y105173D01*
X275091Y118673D02*
X275590Y118173D01*
X274590Y118673D02*
X275091D01*
X274590D02*
X275091Y119173D01*
X274590Y119673D02*
X275091Y119173D01*
X274590Y119673D02*
X275091D01*
X275590Y120173D01*
X276091Y119673D01*
X276590D01*
X276091Y119173D02*
X276590Y119673D01*
X276091Y119173D02*
X276590Y118673D01*
X276091D02*
X276590D01*
X275590Y118173D02*
X276091Y118673D01*
X275091Y113673D02*
X275590Y113173D01*
X274590Y113673D02*
X275091D01*
X274590D02*
X275091Y114173D01*
X274590Y114673D02*
X275091Y114173D01*
X274590Y114673D02*
X275091D01*
X275590Y115173D01*
X276091Y114673D01*
X276590D01*
X276091Y114173D02*
X276590Y114673D01*
X276091Y114173D02*
X276590Y113673D01*
X276091D02*
X276590D01*
X275590Y113173D02*
X276091Y113673D01*
X275091Y108673D02*
X275590Y108173D01*
X274590Y108673D02*
X275091D01*
X274590D02*
X275091Y109173D01*
X274590Y109673D02*
X275091Y109173D01*
X274590Y109673D02*
X275091D01*
X275590Y110173D01*
X276091Y109673D01*
X276590D01*
X276091Y109173D02*
X276590Y109673D01*
X276091Y109173D02*
X276590Y108673D01*
X276091D02*
X276590D01*
X275590Y108173D02*
X276091Y108673D01*
X89551Y144669D02*
X91551D01*
Y146669D01*
X89551D02*
X91551D01*
X89551Y144669D02*
Y146669D01*
X168291Y144669D02*
X170291D01*
Y146669D01*
X168291D02*
X170291D01*
X168291Y144669D02*
Y146669D01*
X313961Y107268D02*
X314961Y107768D01*
X315961Y107268D01*
X315461Y108268D02*
X315961Y107268D01*
X315461Y108268D02*
X315961Y109268D01*
X314961Y108768D02*
X315961Y109268D01*
X313961D02*
X314961Y108768D01*
X313961Y109268D02*
X314461Y108268D01*
X313961Y107268D02*
X314461Y108268D01*
X313961Y113173D02*
X314961Y113673D01*
X315961Y113173D01*
X315461Y114173D02*
X315961Y113173D01*
X315461Y114173D02*
X315961Y115173D01*
X314961Y114673D02*
X315961Y115173D01*
X313961D02*
X314961Y114673D01*
X313961Y115173D02*
X314461Y114173D01*
X313961Y113173D02*
X314461Y114173D01*
X346457Y116795D02*
X347457Y118795D01*
X345457D02*
X347457D01*
X345457D02*
X346457Y116795D01*
Y136795D02*
X347457Y138795D01*
X345457D02*
X347457D01*
X345457D02*
X346457Y136795D01*
Y156795D02*
X347457Y158795D01*
X345457D02*
X347457D01*
X345457D02*
X346457Y156795D01*
X358169Y116795D02*
X359169Y118795D01*
X357169D02*
X359169D01*
X357169D02*
X358169Y116795D01*
Y136795D02*
X359169Y138795D01*
X357169D02*
X359169D01*
X357169D02*
X358169Y136795D01*
Y156795D02*
X359169Y158795D01*
X357169D02*
X359169D01*
X357169D02*
X358169Y156795D01*
X236598Y109736D02*
X237098D01*
X236598D02*
Y110736D01*
X237098D01*
Y111236D01*
X238098D01*
Y110736D02*
Y111236D01*
Y110736D02*
X238598D01*
Y109736D02*
Y110736D01*
X238098Y109736D02*
X238598D01*
X238098Y109236D02*
Y109736D01*
X237098Y109236D02*
X238098D01*
X237098D02*
Y109736D01*
X60614D02*
X61114D01*
X60614D02*
Y110736D01*
X61114D01*
Y111236D01*
X62114D01*
Y110736D02*
Y111236D01*
Y110736D02*
X62614D01*
Y109736D02*
Y110736D01*
X62114Y109736D02*
X62614D01*
X62114Y109236D02*
Y109736D01*
X61114Y109236D02*
X62114D01*
X61114D02*
Y109736D01*
X60614Y164854D02*
X61114D01*
X60614D02*
Y165854D01*
X61114D01*
Y166354D01*
X62114D01*
Y165854D02*
Y166354D01*
Y165854D02*
X62614D01*
Y164854D02*
Y165854D01*
X62114Y164854D02*
X62614D01*
X62114Y164354D02*
Y164854D01*
X61114Y164354D02*
X62114D01*
X61114D02*
Y164854D01*
X236598D02*
X237098D01*
X236598D02*
Y165854D01*
X237098D01*
Y166354D01*
X238098D01*
Y165854D02*
Y166354D01*
Y165854D02*
X238598D01*
Y164854D02*
Y165854D01*
X238098Y164854D02*
X238598D01*
X238098Y164354D02*
Y164854D01*
X237098Y164354D02*
X238098D01*
X237098D02*
Y164854D01*
D52*
X783492Y684511D02*
Y688289D01*
X785381D01*
X786011Y687660D01*
Y686400D01*
X785381Y685771D01*
X783492D01*
X784751D02*
X786011Y684511D01*
X787900D02*
X789159D01*
X789789Y685141D01*
Y686400D01*
X789159Y687030D01*
X787900D01*
X787270Y686400D01*
Y685141D01*
X787900Y684511D01*
X791048Y687030D02*
Y685141D01*
X791678Y684511D01*
X793567D01*
Y687030D01*
X795456Y687660D02*
Y687030D01*
X794827D01*
X796086D01*
X795456D01*
Y685141D01*
X796086Y684511D01*
X799864D02*
X798605D01*
X797975Y685141D01*
Y686400D01*
X798605Y687030D01*
X799864D01*
X800494Y686400D01*
Y685771D01*
X797975D01*
X804272Y688289D02*
Y684511D01*
X802383D01*
X801754Y685141D01*
Y686400D01*
X802383Y687030D01*
X804272D01*
X809310Y684511D02*
Y688289D01*
X811199D01*
X811829Y687660D01*
Y686400D01*
X811199Y685771D01*
X809310D01*
X813718Y687030D02*
X814978D01*
X815607Y686400D01*
Y684511D01*
X813718D01*
X813089Y685141D01*
X813718Y685771D01*
X815607D01*
X817497Y687660D02*
Y687030D01*
X816867D01*
X818126D01*
X817497D01*
Y685141D01*
X818126Y684511D01*
X820016Y688289D02*
Y684511D01*
Y686400D01*
X820645Y687030D01*
X821905D01*
X822534Y686400D01*
Y684511D01*
X827572Y688289D02*
Y684511D01*
X830091D01*
X833239D02*
X831980D01*
X831350Y685141D01*
Y686400D01*
X831980Y687030D01*
X833239D01*
X833869Y686400D01*
Y685771D01*
X831350D01*
X835129Y684511D02*
Y687030D01*
X837018D01*
X837648Y686400D01*
Y684511D01*
X840166Y683252D02*
X840796D01*
X841426Y683881D01*
Y687030D01*
X839537D01*
X838907Y686400D01*
Y685141D01*
X839537Y684511D01*
X841426D01*
X843315Y687660D02*
Y687030D01*
X842685D01*
X843945D01*
X843315D01*
Y685141D01*
X843945Y684511D01*
X845834Y688289D02*
Y684511D01*
Y686400D01*
X846464Y687030D01*
X847723D01*
X848353Y686400D01*
Y684511D01*
X737835Y688289D02*
Y684511D01*
Y686400D01*
X740354D01*
Y688289D01*
Y684511D01*
X742243D02*
X743503D01*
X744132Y685141D01*
Y686400D01*
X743503Y687030D01*
X742243D01*
X741613Y686400D01*
Y685141D01*
X742243Y684511D01*
X745392D02*
X746651D01*
X746021D01*
Y688289D01*
X745392D01*
X750429Y684511D02*
X749170D01*
X748540Y685141D01*
Y686400D01*
X749170Y687030D01*
X750429D01*
X751059Y686400D01*
Y685771D01*
X748540D01*
X756097Y688289D02*
Y684511D01*
X758616D01*
X761764D02*
X760505D01*
X759875Y685141D01*
Y686400D01*
X760505Y687030D01*
X761764D01*
X762394Y686400D01*
Y685771D01*
X759875D01*
X763654Y684511D02*
Y687030D01*
X765543D01*
X766172Y686400D01*
Y684511D01*
X768691Y683252D02*
X769321D01*
X769951Y683881D01*
Y687030D01*
X768062D01*
X767432Y686400D01*
Y685141D01*
X768062Y684511D01*
X769951D01*
X771840Y687660D02*
Y687030D01*
X771210D01*
X772470D01*
X771840D01*
Y685141D01*
X772470Y684511D01*
X774359Y688289D02*
Y684511D01*
Y686400D01*
X774989Y687030D01*
X776248D01*
X776878Y686400D01*
Y684511D01*
X692048Y688289D02*
X694566D01*
X693307D01*
Y684511D01*
X697715D02*
X696455D01*
X695826Y685141D01*
Y686400D01*
X696455Y687030D01*
X697715D01*
X698345Y686400D01*
Y685771D01*
X695826D01*
X699604Y684511D02*
Y687030D01*
X700234D01*
X700864Y686400D01*
Y684511D01*
Y686400D01*
X701493Y687030D01*
X702123Y686400D01*
Y684511D01*
X703382Y683252D02*
Y687030D01*
X705272D01*
X705901Y686400D01*
Y685141D01*
X705272Y684511D01*
X703382D01*
X707161D02*
X708420D01*
X707790D01*
Y688289D01*
X707161D01*
X710939Y687030D02*
X712198D01*
X712828Y686400D01*
Y684511D01*
X710939D01*
X710309Y685141D01*
X710939Y685771D01*
X712828D01*
X714717Y687660D02*
Y687030D01*
X714088D01*
X715347D01*
X714717D01*
Y685141D01*
X715347Y684511D01*
X719125D02*
X717866D01*
X717236Y685141D01*
Y686400D01*
X717866Y687030D01*
X719125D01*
X719755Y686400D01*
Y685771D01*
X717236D01*
X652688Y684511D02*
Y688289D01*
X654577D01*
X655207Y687660D01*
Y686400D01*
X654577Y685771D01*
X652688D01*
X657096Y687030D02*
X658355D01*
X658985Y686400D01*
Y684511D01*
X657096D01*
X656466Y685141D01*
X657096Y685771D01*
X658985D01*
X662764Y688289D02*
Y684511D01*
X660874D01*
X660245Y685141D01*
Y686400D01*
X660874Y687030D01*
X662764D01*
X670320Y687660D02*
X669690Y688289D01*
X668431D01*
X667801Y687660D01*
Y687030D01*
X668431Y686400D01*
X669690D01*
X670320Y685771D01*
Y685141D01*
X669690Y684511D01*
X668431D01*
X667801Y685141D01*
X671580Y688289D02*
Y684511D01*
Y686400D01*
X672209Y687030D01*
X673469D01*
X674098Y686400D01*
Y684511D01*
X675988Y687030D02*
X677247D01*
X677877Y686400D01*
Y684511D01*
X675988D01*
X675358Y685141D01*
X675988Y685771D01*
X677877D01*
X679136Y683252D02*
Y687030D01*
X681025D01*
X681655Y686400D01*
Y685141D01*
X681025Y684511D01*
X679136D01*
X684804D02*
X683544D01*
X682914Y685141D01*
Y686400D01*
X683544Y687030D01*
X684804D01*
X685433Y686400D01*
Y685771D01*
X682914D01*
X621515Y688289D02*
Y685771D01*
X622774Y684511D01*
X624034Y685771D01*
Y688289D01*
X625293Y684511D02*
X626552D01*
X625923D01*
Y687030D01*
X625293D01*
X629071D02*
X630331D01*
X630961Y686400D01*
Y684511D01*
X629071D01*
X628442Y685141D01*
X629071Y685771D01*
X630961D01*
X632220Y684511D02*
X634739Y687030D01*
X635998Y684511D02*
Y688289D01*
X637887D01*
X638517Y687660D01*
Y686400D01*
X637887Y685771D01*
X635998D01*
X640406Y687030D02*
X641666D01*
X642296Y686400D01*
Y684511D01*
X640406D01*
X639777Y685141D01*
X640406Y685771D01*
X642296D01*
X646074Y688289D02*
Y684511D01*
X644185D01*
X643555Y685141D01*
Y686400D01*
X644185Y687030D01*
X646074D01*
X542667Y688289D02*
Y684511D01*
X544556D01*
X545186Y685141D01*
Y687660D01*
X544556Y688289D01*
X542667D01*
X546445Y687030D02*
Y684511D01*
Y685771D01*
X547075Y686400D01*
X547705Y687030D01*
X548334D01*
X550224Y684511D02*
X551483D01*
X550853D01*
Y687030D01*
X550224D01*
X553372Y684511D02*
X554632D01*
X554002D01*
Y688289D01*
X553372D01*
X556521Y684511D02*
X557780D01*
X557151D01*
Y688289D01*
X556521D01*
X563448D02*
Y684511D01*
X565967D01*
X567856Y687030D02*
X569115D01*
X569745Y686400D01*
Y684511D01*
X567856D01*
X567226Y685141D01*
X567856Y685771D01*
X569745D01*
X571004Y687030D02*
Y685141D01*
X571634Y684511D01*
X573523D01*
Y683881D01*
X572893Y683252D01*
X572264D01*
X573523Y684511D02*
Y687030D01*
X576672Y684511D02*
X575412D01*
X574783Y685141D01*
Y686400D01*
X575412Y687030D01*
X576672D01*
X577302Y686400D01*
Y685771D01*
X574783D01*
X578561Y687030D02*
Y684511D01*
Y685771D01*
X579191Y686400D01*
X579820Y687030D01*
X580450D01*
X586118Y684511D02*
Y688289D01*
X588007D01*
X588636Y687660D01*
Y686400D01*
X588007Y685771D01*
X586118D01*
X590526Y687030D02*
X591785D01*
X592415Y686400D01*
Y684511D01*
X590526D01*
X589896Y685141D01*
X590526Y685771D01*
X592415D01*
X593674Y684511D02*
X594934D01*
X594304D01*
Y687030D01*
X593674D01*
X596823D02*
Y684511D01*
Y685771D01*
X597452Y686400D01*
X598082Y687030D01*
X598712D01*
X503937Y688289D02*
Y684511D01*
Y686400D01*
X506456D01*
Y688289D01*
Y684511D01*
X508345D02*
X509605D01*
X510234Y685141D01*
Y686400D01*
X509605Y687030D01*
X508345D01*
X507716Y686400D01*
Y685141D01*
X508345Y684511D01*
X511494D02*
X512753D01*
X512123D01*
Y688289D01*
X511494D01*
X516532Y684511D02*
X515272D01*
X514642Y685141D01*
Y686400D01*
X515272Y687030D01*
X516532D01*
X517161Y686400D01*
Y685771D01*
X514642D01*
X522199Y688289D02*
X524718D01*
X523458D01*
Y684511D01*
X525977Y687030D02*
Y685141D01*
X526607Y684511D01*
X528496D01*
Y683881D01*
X527867Y683252D01*
X527237D01*
X528496Y684511D02*
Y687030D01*
X529756Y683252D02*
Y687030D01*
X531645D01*
X532274Y686400D01*
Y685141D01*
X531645Y684511D01*
X529756D01*
X535423D02*
X534164D01*
X533534Y685141D01*
Y686400D01*
X534164Y687030D01*
X535423D01*
X536053Y686400D01*
Y685771D01*
X533534D01*
X477172Y684511D02*
Y688289D01*
X479061D01*
X479691Y687660D01*
Y686400D01*
X479061Y685771D01*
X477172D01*
X480950Y684511D02*
X482210D01*
X481580D01*
Y688289D01*
X480950D01*
X484729Y687030D02*
X485988D01*
X486618Y686400D01*
Y684511D01*
X484729D01*
X484099Y685141D01*
X484729Y685771D01*
X486618D01*
X488507Y687660D02*
Y687030D01*
X487877D01*
X489137D01*
X488507D01*
Y685141D01*
X489137Y684511D01*
X492915D02*
X491656D01*
X491026Y685141D01*
Y686400D01*
X491656Y687030D01*
X492915D01*
X493545Y686400D01*
Y685771D01*
X491026D01*
X497323Y688289D02*
Y684511D01*
X495434D01*
X494804Y685141D01*
Y686400D01*
X495434Y687030D01*
X497323D01*
X415641Y688289D02*
Y684511D01*
Y686400D01*
X418160D01*
Y688289D01*
Y684511D01*
X420049D02*
X421309D01*
X421939Y685141D01*
Y686400D01*
X421309Y687030D01*
X420049D01*
X419420Y686400D01*
Y685141D01*
X420049Y684511D01*
X423198D02*
X424458D01*
X423828D01*
Y688289D01*
X423198D01*
X428236Y684511D02*
X426976D01*
X426347Y685141D01*
Y686400D01*
X426976Y687030D01*
X428236D01*
X428865Y686400D01*
Y685771D01*
X426347D01*
X436422Y687660D02*
X435792Y688289D01*
X434533D01*
X433903Y687660D01*
Y687030D01*
X434533Y686400D01*
X435792D01*
X436422Y685771D01*
Y685141D01*
X435792Y684511D01*
X434533D01*
X433903Y685141D01*
X437682Y684511D02*
X438941D01*
X438311D01*
Y687030D01*
X437682D01*
X440830D02*
X443349D01*
X440830Y684511D01*
X443349D01*
X446498D02*
X445238D01*
X444608Y685141D01*
Y686400D01*
X445238Y687030D01*
X446498D01*
X447127Y686400D01*
Y685771D01*
X444608D01*
X389690Y687660D02*
X389060Y688289D01*
X387801D01*
X387171Y687660D01*
Y685141D01*
X387801Y684511D01*
X389060D01*
X389690Y685141D01*
X391579Y684511D02*
X392839D01*
X393468Y685141D01*
Y686400D01*
X392839Y687030D01*
X391579D01*
X390949Y686400D01*
Y685141D01*
X391579Y684511D01*
X394728Y687030D02*
Y685141D01*
X395357Y684511D01*
X397247D01*
Y687030D01*
X398506Y684511D02*
Y687030D01*
X400395D01*
X401025Y686400D01*
Y684511D01*
X402914Y687660D02*
Y687030D01*
X402284D01*
X403544D01*
X402914D01*
Y685141D01*
X403544Y684511D01*
X362925Y687660D02*
X362295Y688289D01*
X361036D01*
X360406Y687660D01*
Y687030D01*
X361036Y686400D01*
X362295D01*
X362925Y685771D01*
Y685141D01*
X362295Y684511D01*
X361036D01*
X360406Y685141D01*
X364184Y687030D02*
Y685141D01*
X364814Y684511D01*
X366703D01*
Y683881D01*
X366073Y683252D01*
X365444D01*
X366703Y684511D02*
Y687030D01*
X367963Y684511D02*
Y687030D01*
X368592D01*
X369222Y686400D01*
Y684511D01*
Y686400D01*
X369852Y687030D01*
X370481Y686400D01*
Y684511D01*
X371741Y688289D02*
Y684511D01*
X373630D01*
X374260Y685141D01*
Y685771D01*
Y686400D01*
X373630Y687030D01*
X371741D01*
X376149Y684511D02*
X377408D01*
X378038Y685141D01*
Y686400D01*
X377408Y687030D01*
X376149D01*
X375519Y686400D01*
Y685141D01*
X376149Y684511D01*
X379297D02*
X380557D01*
X379927D01*
Y688289D01*
X379297D01*
M02*
