M48
;Layer_Color=9474304
;FILE_FORMAT=2:5
INCH,LZ
;TYPE=PLATED
T1F00S00C0.02362
T2F00S00C0.02559
T3F00S00C0.03150
T4F00S00C0.03543
T5F00S00C0.04331
T6F00S00C0.04724
;TYPE=NON_PLATED
T7F00S00C0.12598
%
T01
X027559Y0109173
Y0114173
Y0119173
T02
X0314961Y0108268
Y0114173
T03
X0090551Y0145669
X0169291
X0287402Y0124173
Y0114173
Y0104173
T04
X0276378Y0163386
X0306299
T05
X0061614Y0110236
Y0165354
X0237598
Y0110236
T06
X0346457Y0117795
X0358169
Y0137795
X0346457
Y0157795
X0358169
T07
X0015748Y0181102
X0401575
M30
