G04*
G04 #@! TF.GenerationSoftware,Altium Limited,Altium Designer,22.10.1 (41)*
G04*
G04 Layer_Color=16711935*
%FSLAX25Y25*%
%MOIN*%
G70*
G04*
G04 #@! TF.SameCoordinates,8BAF8B8E-E321-4B2E-8998-6E6DE7EF2018*
G04*
G04*
G04 #@! TF.FilePolarity,Negative*
G04*
G01*
G75*
%ADD10C,0.00787*%
%ADD11C,0.00591*%
%ADD15C,0.01575*%
%ADD19C,0.00984*%
%ADD26C,0.08268*%
%ADD27C,0.24410*%
%ADD28C,0.07480*%
%ADD29R,0.04331X0.04331*%
G04:AMPARAMS|DCode=30|XSize=43.31mil|YSize=43.31mil|CornerRadius=11.81mil|HoleSize=0mil|Usage=FLASHONLY|Rotation=270.000|XOffset=0mil|YOffset=0mil|HoleType=Round|Shape=RoundedRectangle|*
%AMROUNDEDRECTD30*
21,1,0.04331,0.01968,0,0,270.0*
21,1,0.01968,0.04331,0,0,270.0*
1,1,0.02362,-0.00984,-0.00984*
1,1,0.02362,-0.00984,0.00984*
1,1,0.02362,0.00984,0.00984*
1,1,0.02362,0.00984,-0.00984*
%
%ADD30ROUNDEDRECTD30*%
%ADD31C,0.06693*%
%ADD32O,0.08268X0.04331*%
%ADD33O,0.08268X0.04331*%
%ADD34O,0.08268X0.05906*%
%ADD35C,0.06299*%
%ADD36R,0.06299X0.06299*%
G36*
X73146Y164560D02*
X73155Y164560D01*
X73229Y164553D01*
X73238Y164551D01*
X73247Y164551D01*
X73320Y164538D01*
X73329Y164536D01*
X73337Y164534D01*
X73409Y164515D01*
X73417Y164512D01*
X73426Y164510D01*
X73496Y164484D01*
X73504Y164480D01*
X73512Y164478D01*
X73579Y164446D01*
X73587Y164442D01*
X73595Y164438D01*
X73659Y164401D01*
X73666Y164396D01*
X73674Y164391D01*
X73735Y164348D01*
X73742Y164343D01*
X73749Y164338D01*
X73806Y164290D01*
X73812Y164284D01*
X73819Y164278D01*
X73872Y164225D01*
X73877Y164219D01*
X73883Y164213D01*
X73931Y164156D01*
X73936Y164148D01*
X73942Y164142D01*
X73985Y164081D01*
X73989Y164073D01*
X73994Y164066D01*
X74031Y164001D01*
X74035Y163994D01*
X74039Y163986D01*
X74071Y163918D01*
X74074Y163910D01*
X74077Y163902D01*
X74103Y163832D01*
X74105Y163824D01*
X74108Y163816D01*
X74127Y163744D01*
X74129Y163735D01*
X74131Y163727D01*
X74144Y163653D01*
X74145Y163645D01*
X74146Y163636D01*
X74153Y163562D01*
X74153Y163553D01*
X74154Y163544D01*
Y163507D01*
X74154Y156096D01*
X74665Y157996D01*
X74665Y157996D01*
X74672Y158024D01*
X74676Y158035D01*
X74679Y158045D01*
X74700Y158099D01*
X74705Y158109D01*
X74709Y158119D01*
X74736Y158170D01*
X74743Y158179D01*
X74748Y158189D01*
X74781Y158237D01*
X74788Y158245D01*
X74794Y158254D01*
X74832Y158298D01*
X74840Y158306D01*
X74847Y158314D01*
X74889Y158353D01*
X74898Y158360D01*
X74907Y158367D01*
X74953Y158402D01*
X74963Y158407D01*
X74972Y158414D01*
X75022Y158442D01*
X75032Y158447D01*
X75041Y158452D01*
X75094Y158475D01*
X75105Y158479D01*
X75115Y158483D01*
X75170Y158500D01*
X75181Y158502D01*
X75192Y158505D01*
X75249Y158516D01*
X75260Y158517D01*
X75270Y158519D01*
X75328Y158523D01*
X75339Y158523D01*
X75350Y158524D01*
X75408Y158521D01*
X75419Y158520D01*
X75430Y158519D01*
X75487Y158511D01*
X75498Y158508D01*
X75509Y158506D01*
X75564Y158491D01*
X75575Y158487D01*
X75586Y158484D01*
X75639Y158463D01*
X75649Y158458D01*
X75659Y158454D01*
X75710Y158427D01*
X75720Y158421D01*
X75729Y158415D01*
X75777Y158383D01*
X75785Y158376D01*
X75795Y158369D01*
X75838Y158332D01*
X75846Y158324D01*
X75854Y158316D01*
X75893Y158274D01*
X75900Y158265D01*
X75908Y158257D01*
X75942Y158210D01*
X75947Y158201D01*
X75954Y158192D01*
X75983Y158142D01*
X75987Y158132D01*
X75993Y158122D01*
X76016Y158069D01*
X76019Y158058D01*
X76023Y158048D01*
X76040Y157993D01*
X76043Y157982D01*
X76046Y157972D01*
X76056Y157915D01*
X76057Y157904D01*
X76059Y157893D01*
X76064Y157835D01*
X76063Y157824D01*
X76064Y157813D01*
X76062Y157755D01*
X76060Y157744D01*
X76060Y157733D01*
X76051Y157676D01*
X76048Y157666D01*
X76046Y157655D01*
X76039Y157627D01*
X76039Y157627D01*
X75388Y155206D01*
X75423Y155192D01*
X77738Y159206D01*
Y159206D01*
X77755Y159236D01*
X77761Y159243D01*
X77766Y159252D01*
X77805Y159307D01*
X77811Y159314D01*
X77817Y159322D01*
X77861Y159372D01*
X77868Y159379D01*
X77875Y159386D01*
X77924Y159432D01*
X77932Y159438D01*
X77939Y159445D01*
X77992Y159486D01*
X78000Y159491D01*
X78008Y159497D01*
X78065Y159532D01*
X78074Y159537D01*
X78082Y159542D01*
X78142Y159572D01*
X78152Y159575D01*
X78160Y159579D01*
X78223Y159603D01*
X78233Y159606D01*
X78242Y159609D01*
X78307Y159626D01*
X78316Y159628D01*
X78326Y159631D01*
X78392Y159642D01*
X78402Y159642D01*
X78411Y159644D01*
X78478Y159648D01*
X78488Y159648D01*
X78498Y159649D01*
X78565Y159646D01*
X78575Y159645D01*
X78584Y159645D01*
X78651Y159636D01*
X78660Y159634D01*
X78670Y159633D01*
X78736Y159617D01*
X78745Y159614D01*
X78754Y159612D01*
X78818Y159590D01*
X78827Y159587D01*
X78836Y159583D01*
X78897Y159556D01*
X78906Y159551D01*
X78915Y159547D01*
X78973Y159513D01*
X78981Y159508D01*
X78989Y159503D01*
X79044Y159463D01*
X79051Y159457D01*
X79059Y159451D01*
X79110Y159407D01*
X79116Y159400D01*
X79124Y159394D01*
X79170Y159344D01*
X79176Y159337D01*
X79182Y159330D01*
X79223Y159276D01*
X79228Y159268D01*
X79234Y159260D01*
X79270Y159203D01*
X79274Y159195D01*
X79279Y159186D01*
X79309Y159126D01*
X79312Y159117D01*
X79317Y159108D01*
X79340Y159045D01*
X79343Y159036D01*
X79346Y159027D01*
X79364Y158962D01*
X79365Y158952D01*
X79368Y158943D01*
X79379Y158877D01*
X79380Y158867D01*
X79381Y158857D01*
X79386Y158790D01*
X79385Y158780D01*
X79386Y158771D01*
X79384Y158703D01*
X79382Y158694D01*
X79382Y158684D01*
X79373Y158617D01*
X79371Y158608D01*
X79370Y158598D01*
X79355Y158533D01*
X79352Y158524D01*
X79349Y158514D01*
X79328Y158450D01*
X79324Y158442D01*
X79321Y158432D01*
X79293Y158371D01*
X79288Y158363D01*
X79284Y158354D01*
X79267Y158325D01*
X79267Y158325D01*
X76952Y154309D01*
X76971Y154294D01*
X78737Y156057D01*
X78737Y156057D01*
X78737Y156057D01*
X78737Y156057D01*
X78757Y156078D01*
X78766Y156085D01*
X78774Y156092D01*
X78819Y156128D01*
X78828Y156134D01*
X78837Y156141D01*
X78886Y156172D01*
X78896Y156177D01*
X78905Y156183D01*
X78957Y156208D01*
X78968Y156211D01*
X78978Y156216D01*
X79032Y156235D01*
X79043Y156238D01*
X79054Y156241D01*
X79110Y156254D01*
X79121Y156255D01*
X79132Y156258D01*
X79189Y156264D01*
X79200Y156264D01*
X79211Y156265D01*
X79269Y156265D01*
X79280Y156264D01*
X79291Y156264D01*
X79348Y156257D01*
X79359Y156255D01*
X79370Y156254D01*
X79427Y156241D01*
X79437Y156237D01*
X79448Y156235D01*
X79502Y156216D01*
X79512Y156211D01*
X79523Y156207D01*
X79575Y156182D01*
X79584Y156176D01*
X79594Y156171D01*
X79643Y156140D01*
X79652Y156134D01*
X79661Y156128D01*
X79706Y156091D01*
X79714Y156084D01*
X79723Y156077D01*
X79764Y156036D01*
X79770Y156027D01*
X79778Y156019D01*
X79814Y155974D01*
X79820Y155965D01*
X79827Y155956D01*
X79858Y155907D01*
X79862Y155897D01*
X79868Y155888D01*
X79893Y155836D01*
X79897Y155825D01*
X79902Y155815D01*
X79921Y155761D01*
X79923Y155750D01*
X79927Y155739D01*
X79940Y155683D01*
X79941Y155672D01*
X79943Y155661D01*
X79950Y155604D01*
X79950Y155593D01*
X79951Y155582D01*
X79951Y155524D01*
X79950Y155513D01*
X79950Y155502D01*
X79943Y155445D01*
X79941Y155434D01*
X79939Y155423D01*
X79927Y155367D01*
X79923Y155356D01*
X79920Y155345D01*
X79901Y155291D01*
X79897Y155281D01*
X79893Y155270D01*
X79868Y155218D01*
X79862Y155209D01*
X79857Y155199D01*
X79826Y155150D01*
X79819Y155141D01*
X79813Y155132D01*
X79777Y155087D01*
X79770Y155079D01*
X79763Y155070D01*
X79742Y155050D01*
X78383Y153693D01*
X84751Y157376D01*
X84751Y157376D01*
X84752Y157376D01*
X84752Y157376D01*
X84753Y157376D01*
X84784Y157394D01*
X84791Y157398D01*
X84799Y157402D01*
X84867Y157434D01*
X84875Y157437D01*
X84882Y157440D01*
X84953Y157466D01*
X84961Y157468D01*
X84969Y157471D01*
X85041Y157491D01*
X85050Y157492D01*
X85058Y157494D01*
X85132Y157507D01*
X85140Y157508D01*
X85149Y157510D01*
X85223Y157516D01*
X85232Y157516D01*
X85240Y157517D01*
X85315Y157517D01*
X85324Y157516D01*
X85332Y157516D01*
X85407Y157510D01*
X85415Y157508D01*
X85424Y157508D01*
X85497Y157494D01*
X85506Y157492D01*
X85514Y157491D01*
X85587Y157472D01*
X85595Y157468D01*
X85603Y157466D01*
X85673Y157441D01*
X85681Y157437D01*
X85689Y157434D01*
X85757Y157403D01*
X85764Y157398D01*
X85772Y157395D01*
X85837Y157357D01*
X85844Y157352D01*
X85851Y157348D01*
X85913Y157305D01*
X85919Y157300D01*
X85926Y157295D01*
X85984Y157247D01*
X85990Y157241D01*
X85996Y157235D01*
X86049Y157183D01*
X86055Y157176D01*
X86061Y157170D01*
X86109Y157113D01*
X86114Y157106D01*
X86119Y157099D01*
X86162Y157038D01*
X86167Y157030D01*
X86172Y157023D01*
X86209Y156958D01*
X86212Y156951D01*
X86217Y156943D01*
X86248Y156876D01*
X86251Y156867D01*
X86255Y156860D01*
X86281Y156789D01*
X86283Y156781D01*
X86286Y156773D01*
X86305Y156701D01*
X86307Y156692D01*
X86309Y156684D01*
X86322Y156610D01*
X86323Y156602D01*
X86324Y156593D01*
X86331Y156519D01*
X86331Y156510D01*
X86332Y156502D01*
X86332Y156427D01*
X86331Y156418D01*
X86331Y156410D01*
X86325Y156335D01*
X86323Y156327D01*
X86322Y156318D01*
X86309Y156245D01*
X86307Y156236D01*
X86306Y156228D01*
X86286Y156156D01*
X86283Y156148D01*
X86281Y156139D01*
X86256Y156069D01*
X86252Y156061D01*
X86249Y156053D01*
X86217Y155985D01*
X86213Y155978D01*
X86210Y155970D01*
X86172Y155905D01*
X86167Y155898D01*
X86163Y155891D01*
X86120Y155830D01*
X86115Y155823D01*
X86110Y155816D01*
X86062Y155759D01*
X86056Y155753D01*
X86050Y155746D01*
X85997Y155693D01*
X85991Y155687D01*
X85985Y155681D01*
X85927Y155633D01*
X85920Y155628D01*
X85914Y155623D01*
X85852Y155580D01*
X85845Y155576D01*
X85838Y155570D01*
X85806Y155552D01*
X85806Y155552D01*
X79381Y151837D01*
X81314Y152353D01*
X81315Y152353D01*
X81343Y152361D01*
X81353Y152363D01*
X81364Y152365D01*
X81421Y152374D01*
X81432Y152374D01*
X81443Y152376D01*
X81501Y152378D01*
X81512Y152377D01*
X81523Y152378D01*
X81581Y152373D01*
X81592Y152371D01*
X81603Y152370D01*
X81659Y152360D01*
X81670Y152356D01*
X81681Y152354D01*
X81736Y152337D01*
X81746Y152333D01*
X81757Y152329D01*
X81810Y152306D01*
X81819Y152301D01*
X81830Y152296D01*
X81879Y152267D01*
X81889Y152261D01*
X81898Y152255D01*
X81944Y152221D01*
X81953Y152213D01*
X81961Y152207D01*
X82004Y152167D01*
X82011Y152159D01*
X82019Y152152D01*
X82057Y152108D01*
X82063Y152099D01*
X82070Y152090D01*
X82103Y152042D01*
X82108Y152033D01*
X82114Y152023D01*
X82141Y151972D01*
X82145Y151962D01*
X82150Y151952D01*
X82171Y151898D01*
X82174Y151888D01*
X82178Y151877D01*
X82193Y151822D01*
X82195Y151811D01*
X82197Y151800D01*
X82206Y151743D01*
X82207Y151732D01*
X82208Y151721D01*
X82210Y151663D01*
X82209Y151652D01*
X82210Y151641D01*
X82205Y151583D01*
X82204Y151572D01*
X82203Y151561D01*
X82192Y151505D01*
X82189Y151494D01*
X82186Y151483D01*
X82169Y151428D01*
X82165Y151418D01*
X82162Y151407D01*
X82139Y151354D01*
X82133Y151345D01*
X82128Y151335D01*
X82099Y151285D01*
X82093Y151276D01*
X82087Y151266D01*
X82053Y151220D01*
X82046Y151211D01*
X82039Y151203D01*
X82000Y151160D01*
X81991Y151153D01*
X81984Y151145D01*
X81940Y151107D01*
X81931Y151101D01*
X81922Y151094D01*
X81875Y151061D01*
X81865Y151056D01*
X81855Y151050D01*
X81805Y151023D01*
X81794Y151019D01*
X81784Y151014D01*
X81731Y150993D01*
X81720Y150990D01*
X81709Y150986D01*
X81682Y150979D01*
X81682D01*
X79245Y150328D01*
X79251Y150291D01*
X83909Y150294D01*
X83909Y150294D01*
X83943Y150294D01*
X83952Y150293D01*
X83962Y150293D01*
X84029Y150286D01*
X84039Y150284D01*
X84048Y150283D01*
X84114Y150270D01*
X84123Y150267D01*
X84133Y150265D01*
X84197Y150246D01*
X84206Y150242D01*
X84216Y150239D01*
X84278Y150214D01*
X84286Y150209D01*
X84295Y150205D01*
X84355Y150174D01*
X84363Y150168D01*
X84371Y150164D01*
X84427Y150126D01*
X84435Y150120D01*
X84443Y150115D01*
X84495Y150072D01*
X84502Y150065D01*
X84509Y150059D01*
X84557Y150012D01*
X84563Y150004D01*
X84570Y149997D01*
X84613Y149945D01*
X84618Y149937D01*
X84624Y149930D01*
X84662Y149874D01*
X84666Y149865D01*
X84672Y149857D01*
X84703Y149798D01*
X84707Y149789D01*
X84712Y149780D01*
X84737Y149718D01*
X84740Y149709D01*
X84744Y149700D01*
X84763Y149635D01*
X84765Y149626D01*
X84768Y149617D01*
X84781Y149551D01*
X84782Y149541D01*
X84784Y149531D01*
X84791Y149464D01*
X84791Y149455D01*
X84792Y149445D01*
X84792Y149378D01*
X84791Y149368D01*
X84791Y149358D01*
X84784Y149292D01*
X84782Y149282D01*
X84781Y149272D01*
X84768Y149206D01*
X84766Y149197D01*
X84764Y149188D01*
X84744Y149123D01*
X84741Y149114D01*
X84738Y149105D01*
X84712Y149043D01*
X84707Y149034D01*
X84704Y149025D01*
X84672Y148966D01*
X84667Y148958D01*
X84662Y148949D01*
X84625Y148893D01*
X84619Y148886D01*
X84613Y148878D01*
X84570Y148826D01*
X84564Y148819D01*
X84557Y148811D01*
X84510Y148764D01*
X84502Y148758D01*
X84496Y148751D01*
X84444Y148708D01*
X84436Y148703D01*
X84428Y148696D01*
X84372Y148659D01*
X84364Y148654D01*
X84355Y148649D01*
X84296Y148617D01*
X84287Y148614D01*
X84279Y148609D01*
X84216Y148583D01*
X84207Y148580D01*
X84198Y148577D01*
X84134Y148557D01*
X84124Y148555D01*
X84115Y148552D01*
X84049Y148539D01*
X84039Y148538D01*
X84030Y148536D01*
X83963Y148530D01*
X83953Y148530D01*
X83943Y148529D01*
X83910Y148529D01*
D01*
X79237Y148527D01*
X79234Y148512D01*
X81679Y147854D01*
X81679Y147854D01*
X81707Y147847D01*
X81717Y147843D01*
X81728Y147840D01*
X81781Y147819D01*
X81791Y147814D01*
X81801Y147810D01*
X81853Y147783D01*
X81862Y147776D01*
X81871Y147771D01*
X81919Y147739D01*
X81928Y147731D01*
X81937Y147725D01*
X81980Y147687D01*
X81988Y147679D01*
X81996Y147672D01*
X82036Y147630D01*
X82042Y147621D01*
X82050Y147613D01*
X82084Y147566D01*
X82090Y147557D01*
X82096Y147547D01*
X82125Y147497D01*
X82129Y147487D01*
X82135Y147478D01*
X82158Y147425D01*
X82161Y147414D01*
X82166Y147404D01*
X82183Y147349D01*
X82185Y147338D01*
X82188Y147327D01*
X82199Y147271D01*
X82200Y147259D01*
X82201Y147249D01*
X82206Y147191D01*
X82205Y147180D01*
X82206Y147169D01*
X82204Y147111D01*
X82202Y147100D01*
X82202Y147089D01*
X82193Y147032D01*
X82190Y147021D01*
X82189Y147010D01*
X82174Y146955D01*
X82170Y146944D01*
X82167Y146934D01*
X82146Y146880D01*
X82140Y146870D01*
X82136Y146860D01*
X82109Y146809D01*
X82103Y146800D01*
X82098Y146790D01*
X82065Y146742D01*
X82058Y146734D01*
X82052Y146724D01*
X82014Y146681D01*
X82006Y146673D01*
X81999Y146665D01*
X81956Y146626D01*
X81947Y146619D01*
X81939Y146611D01*
X81893Y146577D01*
X81883Y146572D01*
X81874Y146565D01*
X81824Y146536D01*
X81814Y146532D01*
X81804Y146526D01*
X81751Y146503D01*
X81741Y146500D01*
X81731Y146496D01*
X81675Y146479D01*
X81665Y146476D01*
X81654Y146473D01*
X81597Y146463D01*
X81586Y146462D01*
X81575Y146460D01*
X81518Y146456D01*
X81507Y146456D01*
X81495Y146455D01*
X81438Y146457D01*
X81427Y146459D01*
X81416Y146459D01*
X81359Y146468D01*
X81348Y146471D01*
X81337Y146473D01*
X81309Y146480D01*
X81309Y146480D01*
X79344Y147009D01*
X85779Y143289D01*
X85779Y143289D01*
X85811Y143271D01*
X85818Y143266D01*
X85826Y143261D01*
X85887Y143218D01*
X85893Y143213D01*
X85901Y143208D01*
X85958Y143160D01*
X85964Y143154D01*
X85970Y143148D01*
X86023Y143095D01*
X86029Y143089D01*
X86035Y143083D01*
X86083Y143025D01*
X86088Y143018D01*
X86093Y143012D01*
X86136Y142950D01*
X86140Y142943D01*
X86146Y142936D01*
X86183Y142871D01*
X86186Y142863D01*
X86191Y142856D01*
X86222Y142788D01*
X86225Y142780D01*
X86229Y142772D01*
X86254Y142702D01*
X86257Y142694D01*
X86260Y142685D01*
X86279Y142613D01*
X86280Y142605D01*
X86283Y142597D01*
X86295Y142523D01*
X86296Y142514D01*
X86298Y142506D01*
X86304Y142431D01*
X86304Y142423D01*
X86305Y142414D01*
X86305Y142340D01*
X86304Y142331D01*
X86304Y142322D01*
X86298Y142248D01*
X86296Y142239D01*
X86295Y142231D01*
X86282Y142157D01*
X86280Y142149D01*
X86279Y142140D01*
X86259Y142068D01*
X86256Y142060D01*
X86254Y142052D01*
X86229Y141982D01*
X86225Y141974D01*
X86222Y141966D01*
X86190Y141898D01*
X86186Y141891D01*
X86182Y141883D01*
X86145Y141818D01*
X86140Y141811D01*
X86136Y141803D01*
X86093Y141742D01*
X86087Y141736D01*
X86082Y141729D01*
X86034Y141671D01*
X86028Y141665D01*
X86023Y141659D01*
X85970Y141606D01*
X85963Y141600D01*
X85957Y141594D01*
X85900Y141546D01*
X85893Y141541D01*
X85886Y141536D01*
X85825Y141493D01*
X85817Y141489D01*
X85810Y141484D01*
X85746Y141446D01*
X85738Y141443D01*
X85730Y141438D01*
X85663Y141407D01*
X85654Y141404D01*
X85647Y141400D01*
X85576Y141375D01*
X85568Y141373D01*
X85560Y141369D01*
X85488Y141350D01*
X85479Y141349D01*
X85471Y141347D01*
X85397Y141334D01*
X85389Y141333D01*
X85380Y141331D01*
X85306Y141325D01*
X85297Y141325D01*
X85289Y141324D01*
X85214Y141324D01*
X85205Y141325D01*
X85197Y141325D01*
X85122Y141332D01*
X85114Y141333D01*
X85105Y141334D01*
X85031Y141347D01*
X85023Y141349D01*
X85015Y141350D01*
X84943Y141370D01*
X84935Y141373D01*
X84926Y141375D01*
X84856Y141401D01*
X84848Y141404D01*
X84840Y141407D01*
X84772Y141439D01*
X84765Y141443D01*
X84757Y141447D01*
X84725Y141465D01*
X84725Y141465D01*
X78370Y145139D01*
X79748Y143758D01*
X79748Y143758D01*
X79769Y143737D01*
X79776Y143729D01*
X79783Y143721D01*
X79819Y143676D01*
X79825Y143666D01*
X79832Y143658D01*
X79863Y143609D01*
X79868Y143599D01*
X79874Y143589D01*
X79898Y143537D01*
X79902Y143527D01*
X79907Y143517D01*
X79926Y143462D01*
X79928Y143451D01*
X79932Y143441D01*
X79945Y143385D01*
X79946Y143374D01*
X79949Y143363D01*
X79955Y143305D01*
X79955Y143294D01*
X79956Y143283D01*
X79956Y143226D01*
X79955Y143214D01*
X79955Y143203D01*
X79948Y143146D01*
X79946Y143135D01*
X79945Y143124D01*
X79932Y143068D01*
X79928Y143058D01*
X79926Y143047D01*
X79906Y142992D01*
X79902Y142982D01*
X79898Y142972D01*
X79873Y142920D01*
X79867Y142910D01*
X79862Y142900D01*
X79831Y142852D01*
X79825Y142843D01*
X79818Y142833D01*
X79782Y142788D01*
X79775Y142780D01*
X79768Y142772D01*
X79727Y142731D01*
X79718Y142724D01*
X79710Y142716D01*
X79665Y142680D01*
X79656Y142674D01*
X79647Y142668D01*
X79598Y142637D01*
X79588Y142632D01*
X79579Y142626D01*
X79527Y142601D01*
X79516Y142597D01*
X79506Y142593D01*
X79452Y142574D01*
X79441Y142571D01*
X79430Y142568D01*
X79374Y142555D01*
X79363Y142553D01*
X79352Y142551D01*
X79295Y142545D01*
X79284Y142545D01*
X79273Y142544D01*
X79215Y142544D01*
X79204Y142545D01*
X79193Y142545D01*
X79136Y142551D01*
X79125Y142554D01*
X79114Y142555D01*
X79058Y142568D01*
X79047Y142571D01*
X79036Y142574D01*
X78982Y142593D01*
X78972Y142598D01*
X78961Y142602D01*
X78909Y142627D01*
X78900Y142633D01*
X78890Y142638D01*
X78841Y142668D01*
X78832Y142675D01*
X78823Y142681D01*
X78778Y142717D01*
X78770Y142725D01*
X78761Y142732D01*
X78741Y142752D01*
X78741Y142752D01*
X76918Y144579D01*
X76915Y144577D01*
X79275Y140494D01*
X79276Y140493D01*
X79292Y140464D01*
X79296Y140455D01*
X79301Y140447D01*
X79329Y140386D01*
X79332Y140376D01*
X79336Y140367D01*
X79358Y140304D01*
X79360Y140294D01*
X79363Y140285D01*
X79378Y140220D01*
X79380Y140210D01*
X79382Y140201D01*
X79391Y140134D01*
X79391Y140124D01*
X79392Y140114D01*
X79395Y140047D01*
X79394Y140038D01*
X79394Y140028D01*
X79390Y139961D01*
X79388Y139951D01*
X79388Y139942D01*
X79377Y139875D01*
X79374Y139866D01*
X79373Y139856D01*
X79355Y139791D01*
X79352Y139782D01*
X79349Y139773D01*
X79326Y139710D01*
X79321Y139701D01*
X79318Y139692D01*
X79288Y139632D01*
X79283Y139623D01*
X79279Y139615D01*
X79243Y139558D01*
X79238Y139550D01*
X79232Y139541D01*
X79191Y139488D01*
X79185Y139481D01*
X79179Y139473D01*
X79133Y139424D01*
X79126Y139418D01*
X79119Y139411D01*
X79068Y139366D01*
X79061Y139361D01*
X79053Y139354D01*
X78999Y139315D01*
X78990Y139310D01*
X78982Y139304D01*
X78924Y139271D01*
X78915Y139267D01*
X78907Y139262D01*
X78846Y139234D01*
X78836Y139231D01*
X78827Y139227D01*
X78764Y139205D01*
X78754Y139203D01*
X78745Y139200D01*
X78680Y139185D01*
X78670Y139183D01*
X78661Y139181D01*
X78594Y139172D01*
X78584Y139172D01*
X78575Y139171D01*
X78507Y139169D01*
X78497Y139169D01*
X78488Y139169D01*
X78421Y139173D01*
X78411Y139175D01*
X78401Y139175D01*
X78335Y139186D01*
X78326Y139189D01*
X78316Y139190D01*
X78251Y139208D01*
X78242Y139211D01*
X78233Y139214D01*
X78170Y139237D01*
X78161Y139242D01*
X78152Y139245D01*
X78092Y139275D01*
X78083Y139280D01*
X78075Y139284D01*
X78017Y139320D01*
X78010Y139326D01*
X78001Y139331D01*
X77948Y139372D01*
X77941Y139378D01*
X77933Y139384D01*
X77884Y139430D01*
X77878Y139438D01*
X77871Y139444D01*
X77826Y139495D01*
X77821Y139503D01*
X77814Y139510D01*
X77775Y139565D01*
X77770Y139573D01*
X77764Y139581D01*
X77748Y139610D01*
X77747Y139610D01*
X75380Y143706D01*
X75359Y143697D01*
X76024Y141206D01*
X76024Y141206D01*
X76031Y141178D01*
X76033Y141167D01*
X76036Y141156D01*
X76044Y141099D01*
X76045Y141088D01*
X76046Y141077D01*
X76048Y141019D01*
X76048Y141008D01*
X76048Y140997D01*
X76043Y140940D01*
X76042Y140929D01*
X76041Y140918D01*
X76030Y140861D01*
X76027Y140850D01*
X76024Y140840D01*
X76007Y140784D01*
X76003Y140774D01*
X76000Y140764D01*
X75977Y140711D01*
X75971Y140701D01*
X75967Y140691D01*
X75938Y140641D01*
X75931Y140632D01*
X75925Y140622D01*
X75891Y140576D01*
X75884Y140568D01*
X75877Y140559D01*
X75838Y140517D01*
X75829Y140509D01*
X75822Y140501D01*
X75778Y140464D01*
X75769Y140457D01*
X75760Y140450D01*
X75713Y140418D01*
X75703Y140412D01*
X75694Y140406D01*
X75643Y140380D01*
X75632Y140375D01*
X75622Y140370D01*
X75569Y140349D01*
X75558Y140346D01*
X75548Y140342D01*
X75492Y140327D01*
X75481Y140326D01*
X75470Y140323D01*
X75413Y140314D01*
X75402Y140314D01*
X75391Y140312D01*
X75333Y140310D01*
X75322Y140311D01*
X75311Y140311D01*
X75254Y140315D01*
X75243Y140317D01*
X75232Y140318D01*
X75175Y140329D01*
X75164Y140332D01*
X75153Y140334D01*
X75098Y140351D01*
X75088Y140355D01*
X75077Y140359D01*
X75025Y140382D01*
X75015Y140387D01*
X75005Y140392D01*
X74955Y140421D01*
X74946Y140427D01*
X74936Y140433D01*
X74890Y140467D01*
X74882Y140475D01*
X74873Y140481D01*
X74831Y140521D01*
X74823Y140529D01*
X74815Y140537D01*
X74778Y140581D01*
X74771Y140590D01*
X74764Y140598D01*
X74732Y140646D01*
X74726Y140656D01*
X74720Y140665D01*
X74693Y140716D01*
X74689Y140726D01*
X74684Y140736D01*
X74663Y140790D01*
X74660Y140800D01*
X74656Y140811D01*
X74649Y140839D01*
Y140839D01*
X74154Y142693D01*
X74154Y94302D01*
X74154Y94301D01*
Y94264D01*
X74153Y94256D01*
X74153Y94247D01*
X74146Y94173D01*
X74145Y94164D01*
X74144Y94156D01*
X74131Y94082D01*
X74129Y94074D01*
X74127Y94065D01*
X74108Y93993D01*
X74105Y93985D01*
X74103Y93976D01*
X74077Y93906D01*
X74074Y93898D01*
X74071Y93890D01*
X74039Y93823D01*
X74035Y93815D01*
X74031Y93807D01*
X73994Y93743D01*
X73989Y93736D01*
X73985Y93728D01*
X73942Y93667D01*
X73936Y93660D01*
X73931Y93653D01*
X73883Y93596D01*
X73877Y93590D01*
X73872Y93583D01*
X73819Y93530D01*
X73812Y93525D01*
X73806Y93519D01*
X73749Y93471D01*
X73742Y93466D01*
X73735Y93460D01*
X73674Y93417D01*
X73666Y93413D01*
X73659Y93408D01*
X73595Y93371D01*
X73587Y93367D01*
X73579Y93363D01*
X73512Y93331D01*
X73504Y93328D01*
X73496Y93325D01*
X73426Y93299D01*
X73417Y93297D01*
X73409Y93294D01*
X73337Y93275D01*
X73328Y93273D01*
X73320Y93271D01*
X73247Y93258D01*
X73238Y93257D01*
X73229Y93256D01*
X73155Y93249D01*
X73146Y93249D01*
X73138Y93248D01*
X73063D01*
X73054Y93249D01*
X73046Y93249D01*
X72971Y93256D01*
X72963Y93257D01*
X72954Y93258D01*
X72881Y93271D01*
X72872Y93273D01*
X72864Y93275D01*
X72792Y93294D01*
X72784Y93297D01*
X72775Y93299D01*
X72705Y93325D01*
X72697Y93328D01*
X72689Y93331D01*
X72621Y93363D01*
X72614Y93367D01*
X72606Y93371D01*
X72541Y93408D01*
X72534Y93413D01*
X72527Y93417D01*
X72466Y93460D01*
X72459Y93466D01*
X72452Y93471D01*
X72395Y93519D01*
X72389Y93525D01*
X72382Y93530D01*
X72329Y93583D01*
X72324Y93590D01*
X72318Y93596D01*
X72270Y93653D01*
X72265Y93660D01*
X72259Y93667D01*
X72216Y93728D01*
X72212Y93736D01*
X72207Y93743D01*
X72170Y93807D01*
X72166Y93815D01*
X72162Y93823D01*
X72130Y93890D01*
X72127Y93898D01*
X72123Y93906D01*
X72098Y93976D01*
X72096Y93985D01*
X72093Y93993D01*
X72073Y94065D01*
X72072Y94074D01*
X72070Y94082D01*
X72057Y94156D01*
X72056Y94164D01*
X72054Y94173D01*
X72048Y94247D01*
X72048Y94256D01*
X72047Y94264D01*
Y94302D01*
X72047Y142785D01*
X71525Y140842D01*
X71525Y140842D01*
X71517Y140812D01*
X71512Y140801D01*
X71509Y140789D01*
X71486Y140732D01*
X71481Y140722D01*
X71476Y140711D01*
X71446Y140657D01*
X71439Y140647D01*
X71434Y140637D01*
X71398Y140586D01*
X71390Y140578D01*
X71383Y140568D01*
X71341Y140523D01*
X71332Y140515D01*
X71324Y140506D01*
X71277Y140466D01*
X71267Y140459D01*
X71258Y140452D01*
X71207Y140418D01*
X71196Y140412D01*
X71186Y140405D01*
X71131Y140378D01*
X71120Y140373D01*
X71109Y140368D01*
X71052Y140347D01*
X71040Y140344D01*
X71029Y140340D01*
X70969Y140326D01*
X70957Y140325D01*
X70945Y140322D01*
X70884Y140316D01*
X70872Y140316D01*
X70860Y140315D01*
X70799Y140315D01*
X70787Y140317D01*
X70775Y140317D01*
X70714Y140325D01*
X70702Y140328D01*
X70691Y140330D01*
X70631Y140345D01*
X70619Y140349D01*
X70608Y140352D01*
X70551Y140375D01*
X70540Y140380D01*
X70529Y140384D01*
X70475Y140414D01*
X70465Y140420D01*
X70455Y140426D01*
X70404Y140461D01*
X70395Y140469D01*
X70385Y140476D01*
X70340Y140517D01*
X70332Y140526D01*
X70323Y140534D01*
X70282Y140581D01*
X70275Y140590D01*
X70268Y140599D01*
X70233Y140650D01*
X70227Y140661D01*
X70221Y140671D01*
X70192Y140725D01*
X70188Y140736D01*
X70182Y140747D01*
X70161Y140805D01*
X70158Y140816D01*
X70154Y140827D01*
X70139Y140887D01*
X70137Y140899D01*
X70135Y140911D01*
X70127Y140972D01*
X70127Y140984D01*
X70126Y140996D01*
Y141026D01*
Y141043D01*
X70127Y141050D01*
X70126Y141056D01*
X70129Y141090D01*
X70130Y141096D01*
X70130Y141103D01*
X70134Y141136D01*
X70136Y141143D01*
X70136Y141149D01*
X70143Y141182D01*
X70145Y141189D01*
X70146Y141195D01*
X70150Y141211D01*
X70150Y141211D01*
X70809Y143658D01*
X68471Y139606D01*
X68471Y139606D01*
X68455Y139578D01*
X68450Y139570D01*
X68445Y139562D01*
X68408Y139510D01*
X68402Y139503D01*
X68397Y139496D01*
X68355Y139447D01*
X68349Y139441D01*
X68343Y139434D01*
X68296Y139389D01*
X68289Y139383D01*
X68283Y139377D01*
X68233Y139337D01*
X68225Y139332D01*
X68217Y139326D01*
X68164Y139291D01*
X68156Y139287D01*
X68148Y139282D01*
X68091Y139252D01*
X68083Y139248D01*
X68075Y139244D01*
X68015Y139219D01*
X68007Y139216D01*
X67998Y139213D01*
X67937Y139194D01*
X67928Y139192D01*
X67919Y139189D01*
X67856Y139176D01*
X67847Y139175D01*
X67838Y139173D01*
X67774Y139166D01*
X67765Y139166D01*
X67756Y139165D01*
X67692Y139164D01*
X67683Y139164D01*
X67673Y139164D01*
X67609Y139169D01*
X67600Y139171D01*
X67591Y139171D01*
X67528Y139182D01*
X67519Y139184D01*
X67510Y139186D01*
X67448Y139202D01*
X67439Y139206D01*
X67430Y139208D01*
X67370Y139230D01*
X67362Y139234D01*
X67353Y139238D01*
X67295Y139265D01*
X67288Y139270D01*
X67279Y139274D01*
X67224Y139307D01*
X67217Y139313D01*
X67209Y139318D01*
X67157Y139356D01*
X67150Y139362D01*
X67143Y139367D01*
X67095Y139410D01*
X67089Y139417D01*
X67082Y139423D01*
X67039Y139470D01*
X67033Y139477D01*
X67027Y139484D01*
X66988Y139535D01*
X66983Y139543D01*
X66977Y139550D01*
X66943Y139604D01*
X66939Y139612D01*
X66934Y139620D01*
X66905Y139678D01*
X66902Y139686D01*
X66897Y139694D01*
X66874Y139754D01*
X66872Y139763D01*
X66868Y139771D01*
X66850Y139833D01*
X66849Y139842D01*
X66846Y139851D01*
X66834Y139914D01*
X66833Y139923D01*
X66831Y139932D01*
X66825Y139996D01*
X66826Y140005D01*
X66825Y140015D01*
Y140047D01*
Y140069D01*
X66825Y140075D01*
X66825Y140082D01*
X66828Y140127D01*
X66829Y140133D01*
X66829Y140139D01*
X66835Y140184D01*
X66837Y140190D01*
X66837Y140197D01*
X66846Y140241D01*
X66848Y140247D01*
X66849Y140253D01*
X66861Y140296D01*
X66863Y140303D01*
X66864Y140309D01*
X66879Y140351D01*
X66881Y140357D01*
X66883Y140363D01*
X66900Y140405D01*
X66903Y140410D01*
X66906Y140417D01*
X66925Y140457D01*
X66929Y140462D01*
X66931Y140468D01*
X66943Y140488D01*
X66943Y140488D01*
X69316Y144602D01*
X69293Y144620D01*
X67440Y142771D01*
X67440Y142771D01*
X67440Y142771D01*
X67440Y142771D01*
X67440Y142771D01*
X67419Y142750D01*
X67410Y142742D01*
X67401Y142734D01*
X67354Y142697D01*
X67344Y142690D01*
X67335Y142683D01*
X67283Y142652D01*
X67273Y142647D01*
X67262Y142641D01*
X67207Y142615D01*
X67196Y142612D01*
X67186Y142607D01*
X67128Y142588D01*
X67117Y142586D01*
X67106Y142582D01*
X67046Y142571D01*
X67035Y142569D01*
X67023Y142568D01*
X66963Y142563D01*
X66951Y142563D01*
X66939Y142562D01*
X66879Y142565D01*
X66867Y142566D01*
X66856Y142567D01*
X66796Y142577D01*
X66785Y142579D01*
X66773Y142581D01*
X66715Y142598D01*
X66704Y142602D01*
X66693Y142606D01*
X66637Y142629D01*
X66627Y142634D01*
X66616Y142639D01*
X66563Y142669D01*
X66554Y142675D01*
X66544Y142681D01*
X66495Y142717D01*
X66486Y142725D01*
X66477Y142732D01*
X66432Y142773D01*
X66424Y142781D01*
X66416Y142789D01*
X66377Y142836D01*
X66370Y142845D01*
X66363Y142854D01*
X66329Y142904D01*
X66324Y142915D01*
X66317Y142925D01*
X66290Y142979D01*
X66286Y142989D01*
X66280Y143000D01*
X66259Y143057D01*
X66256Y143068D01*
X66253Y143079D01*
X66239Y143138D01*
X66237Y143149D01*
X66234Y143161D01*
X66227Y143221D01*
X66227Y143233D01*
X66226Y143244D01*
Y143274D01*
Y143300D01*
X66227Y143309D01*
Y143319D01*
X66232Y143369D01*
X66234Y143379D01*
X66235Y143389D01*
X66245Y143438D01*
X66247Y143447D01*
X66249Y143457D01*
X66264Y143506D01*
X66268Y143515D01*
X66271Y143524D01*
X66290Y143570D01*
X66295Y143579D01*
X66298Y143588D01*
X66322Y143633D01*
X66328Y143641D01*
X66332Y143649D01*
X66360Y143691D01*
X66366Y143699D01*
X66372Y143707D01*
X66404Y143746D01*
X66411Y143753D01*
X66417Y143760D01*
X66435Y143778D01*
X66435D01*
Y143778D01*
X67801Y145141D01*
X61438Y141463D01*
X61438Y141462D01*
X61406Y141444D01*
X61398Y141440D01*
X61390Y141436D01*
X61323Y141404D01*
X61315Y141401D01*
X61307Y141398D01*
X61237Y141372D01*
X61228Y141370D01*
X61220Y141367D01*
X61148Y141348D01*
X61139Y141346D01*
X61131Y141344D01*
X61058Y141331D01*
X61049Y141330D01*
X61040Y141328D01*
X60966Y141322D01*
X60957Y141322D01*
X60949Y141321D01*
X60874Y141321D01*
X60865Y141322D01*
X60857Y141322D01*
X60782Y141328D01*
X60774Y141330D01*
X60765Y141331D01*
X60692Y141343D01*
X60683Y141346D01*
X60675Y141347D01*
X60603Y141367D01*
X60594Y141370D01*
X60586Y141372D01*
X60516Y141397D01*
X60508Y141401D01*
X60500Y141404D01*
X60432Y141435D01*
X60425Y141440D01*
X60417Y141443D01*
X60352Y141481D01*
X60345Y141486D01*
X60338Y141490D01*
X60276Y141533D01*
X60270Y141538D01*
X60263Y141543D01*
X60206Y141591D01*
X60199Y141597D01*
X60193Y141603D01*
X60140Y141656D01*
X60134Y141663D01*
X60128Y141669D01*
X60080Y141726D01*
X60075Y141733D01*
X60070Y141739D01*
X60027Y141801D01*
X60023Y141808D01*
X60018Y141815D01*
X59980Y141880D01*
X59977Y141888D01*
X59972Y141895D01*
X59941Y141963D01*
X59938Y141971D01*
X59934Y141979D01*
X59908Y142049D01*
X59906Y142058D01*
X59903Y142066D01*
X59884Y142138D01*
X59882Y142146D01*
X59880Y142155D01*
X59867Y142228D01*
X59866Y142237D01*
X59865Y142245D01*
X59858Y142320D01*
X59859Y142328D01*
X59858Y142337D01*
Y142374D01*
Y142412D01*
X59859Y142420D01*
X59858Y142429D01*
X59865Y142503D01*
X59866Y142512D01*
X59867Y142520D01*
X59880Y142594D01*
X59882Y142602D01*
X59884Y142611D01*
X59903Y142683D01*
X59906Y142691D01*
X59908Y142699D01*
X59934Y142770D01*
X59938Y142777D01*
X59940Y142785D01*
X59972Y142853D01*
X59976Y142860D01*
X59980Y142868D01*
X60017Y142933D01*
X60022Y142940D01*
X60027Y142948D01*
X60069Y143009D01*
X60075Y143015D01*
X60080Y143022D01*
X60128Y143080D01*
X60134Y143086D01*
X60139Y143092D01*
X60192Y143145D01*
X60199Y143151D01*
X60205Y143157D01*
X60262Y143205D01*
X60269Y143210D01*
X60276Y143215D01*
X60337Y143258D01*
X60344Y143263D01*
X60351Y143268D01*
X60384Y143286D01*
X60384Y143286D01*
X66831Y147014D01*
X64888Y146495D01*
X64888Y146495D01*
X64860Y146488D01*
X64849Y146486D01*
X64838Y146483D01*
X64779Y146475D01*
X64768Y146474D01*
X64757Y146473D01*
X64698Y146471D01*
X64687Y146472D01*
X64675Y146471D01*
X64617Y146476D01*
X64605Y146478D01*
X64594Y146479D01*
X64536Y146491D01*
X64526Y146494D01*
X64515Y146497D01*
X64459Y146515D01*
X64448Y146519D01*
X64438Y146523D01*
X64384Y146547D01*
X64374Y146553D01*
X64364Y146558D01*
X64313Y146588D01*
X64304Y146595D01*
X64295Y146601D01*
X64248Y146636D01*
X64240Y146644D01*
X64231Y146651D01*
X64188Y146692D01*
X64181Y146701D01*
X64173Y146709D01*
X64136Y146754D01*
X64130Y146764D01*
X64122Y146773D01*
X64091Y146822D01*
X64086Y146832D01*
X64079Y146842D01*
X64053Y146895D01*
X64050Y146905D01*
X64045Y146916D01*
X64025Y146971D01*
X64022Y146982D01*
X64018Y146993D01*
X64005Y147050D01*
X64004Y147061D01*
X64001Y147072D01*
X63994Y147131D01*
X63994Y147142D01*
X63993Y147153D01*
Y147183D01*
Y147211D01*
X63994Y147222D01*
X63994Y147232D01*
X64000Y147288D01*
X64003Y147299D01*
X64004Y147310D01*
X64016Y147364D01*
X64020Y147375D01*
X64022Y147385D01*
X64040Y147438D01*
X64044Y147448D01*
X64048Y147458D01*
X64072Y147509D01*
X64077Y147519D01*
X64082Y147528D01*
X64111Y147576D01*
X64118Y147585D01*
X64123Y147594D01*
X64157Y147638D01*
X64165Y147646D01*
X64172Y147655D01*
X64210Y147696D01*
X64218Y147702D01*
X64226Y147710D01*
X64269Y147746D01*
X64278Y147752D01*
X64287Y147759D01*
X64333Y147790D01*
X64343Y147795D01*
X64352Y147801D01*
X64402Y147827D01*
X64412Y147831D01*
X64421Y147836D01*
X64474Y147856D01*
X64484Y147859D01*
X64494Y147863D01*
X64521Y147870D01*
X64521Y147870D01*
X66958Y148521D01*
X62301Y148519D01*
X62301D01*
X62301D01*
X62267Y148519D01*
X62258Y148520D01*
X62248D01*
X62181Y148526D01*
X62171Y148528D01*
X62162Y148529D01*
X62096Y148542D01*
X62086Y148545D01*
X62077Y148547D01*
X62012Y148566D01*
X62003Y148570D01*
X61994Y148573D01*
X61932Y148599D01*
X61923Y148603D01*
X61914Y148607D01*
X61855Y148639D01*
X61847Y148644D01*
X61839Y148649D01*
X61782Y148686D01*
X61775Y148692D01*
X61767Y148697D01*
X61715Y148740D01*
X61708Y148747D01*
X61700Y148753D01*
X61653Y148801D01*
X61647Y148808D01*
X61640Y148815D01*
X61597Y148867D01*
X61592Y148875D01*
X61586Y148883D01*
X61548Y148939D01*
X61544Y148947D01*
X61538Y148955D01*
X61506Y149015D01*
X61503Y149024D01*
X61498Y149032D01*
X61472Y149094D01*
X61470Y149104D01*
X61466Y149113D01*
X61446Y149177D01*
X61444Y149187D01*
X61442Y149196D01*
X61428Y149262D01*
X61427Y149272D01*
X61426Y149281D01*
X61419Y149348D01*
Y149358D01*
X61418Y149367D01*
Y149401D01*
Y149435D01*
X61419Y149444D01*
Y149454D01*
X61426Y149521D01*
X61427Y149530D01*
X61428Y149540D01*
X61442Y149606D01*
X61444Y149616D01*
X61446Y149625D01*
X61466Y149689D01*
X61470Y149698D01*
X61472Y149708D01*
X61498Y149770D01*
X61503Y149778D01*
X61506Y149787D01*
X61538Y149847D01*
X61544Y149855D01*
X61548Y149863D01*
X61585Y149919D01*
X61592Y149927D01*
X61597Y149935D01*
X61640Y149987D01*
X61646Y149994D01*
X61653Y150001D01*
X61700Y150049D01*
X61708Y150055D01*
X61715Y150062D01*
X61766Y150104D01*
X61775Y150110D01*
X61782Y150116D01*
X61838Y150153D01*
X61847Y150158D01*
X61855Y150163D01*
X61914Y150195D01*
X61923Y150199D01*
X61932Y150203D01*
X61994Y150229D01*
X62003Y150232D01*
X62012Y150236D01*
X62076Y150255D01*
X62086Y150257D01*
X62095Y150260D01*
X62161Y150273D01*
X62171Y150274D01*
X62180Y150276D01*
X62247Y150283D01*
X62257Y150283D01*
X62266Y150284D01*
X62300Y150284D01*
D01*
X67012Y150286D01*
X67017Y150324D01*
X64524Y150994D01*
X64524Y150994D01*
X64523Y150995D01*
X64523Y150995D01*
X64523Y150995D01*
X64497Y151002D01*
X64487Y151005D01*
X64477Y151008D01*
X64424Y151029D01*
X64415Y151034D01*
X64405Y151038D01*
X64355Y151064D01*
X64346Y151069D01*
X64337Y151075D01*
X64290Y151106D01*
X64282Y151113D01*
X64273Y151119D01*
X64230Y151155D01*
X64222Y151163D01*
X64214Y151170D01*
X64175Y151210D01*
X64169Y151218D01*
X64161Y151226D01*
X64127Y151271D01*
X64122Y151280D01*
X64115Y151289D01*
X64086Y151337D01*
X64081Y151346D01*
X64076Y151356D01*
X64052Y151406D01*
X64048Y151417D01*
X64044Y151426D01*
X64026Y151479D01*
X64024Y151490D01*
X64020Y151500D01*
X64008Y151555D01*
X64007Y151566D01*
X64005Y151576D01*
X63999Y151632D01*
X63999Y151643D01*
X63997Y151654D01*
Y151681D01*
Y151711D01*
X63999Y151722D01*
X63999Y151734D01*
X64005Y151792D01*
X64008Y151803D01*
X64009Y151814D01*
X64023Y151872D01*
X64026Y151883D01*
X64029Y151894D01*
X64049Y151949D01*
X64054Y151959D01*
X64058Y151970D01*
X64084Y152023D01*
X64090Y152032D01*
X64095Y152042D01*
X64127Y152092D01*
X64134Y152101D01*
X64140Y152110D01*
X64178Y152156D01*
X64186Y152164D01*
X64193Y152173D01*
X64236Y152214D01*
X64244Y152220D01*
X64253Y152228D01*
X64299Y152264D01*
X64309Y152270D01*
X64318Y152277D01*
X64369Y152307D01*
X64379Y152312D01*
X64389Y152318D01*
X64442Y152342D01*
X64453Y152346D01*
X64464Y152350D01*
X64520Y152368D01*
X64531Y152371D01*
X64542Y152374D01*
X64600Y152385D01*
X64611Y152386D01*
X64622Y152388D01*
X64681Y152393D01*
X64692Y152393D01*
X64703Y152394D01*
X64762Y152392D01*
X64773Y152390D01*
X64785Y152390D01*
X64843Y152381D01*
X64854Y152378D01*
X64865Y152376D01*
X64894Y152369D01*
X64894D01*
X66704Y151882D01*
X60355Y155552D01*
X60355Y155552D01*
X60322Y155570D01*
X60315Y155576D01*
X60308Y155580D01*
X60247Y155623D01*
X60240Y155628D01*
X60233Y155633D01*
X60176Y155681D01*
X60170Y155687D01*
X60163Y155693D01*
X60110Y155746D01*
X60105Y155752D01*
X60099Y155758D01*
X60051Y155815D01*
X60046Y155823D01*
X60040Y155829D01*
X59997Y155890D01*
X59993Y155898D01*
X59988Y155905D01*
X59951Y155970D01*
X59947Y155977D01*
X59943Y155985D01*
X59911Y156052D01*
X59908Y156061D01*
X59905Y156069D01*
X59879Y156139D01*
X59877Y156147D01*
X59874Y156155D01*
X59855Y156227D01*
X59853Y156236D01*
X59851Y156244D01*
X59838Y156318D01*
X59837Y156326D01*
X59836Y156335D01*
X59829Y156409D01*
X59829Y156418D01*
X59829Y156426D01*
Y156464D01*
Y156501D01*
X59829Y156510D01*
X59829Y156518D01*
X59836Y156593D01*
X59837Y156601D01*
X59838Y156610D01*
X59851Y156683D01*
X59853Y156692D01*
X59855Y156700D01*
X59874Y156772D01*
X59877Y156781D01*
X59879Y156789D01*
X59905Y156859D01*
X59909Y156867D01*
X59911Y156875D01*
X59943Y156943D01*
X59947Y156950D01*
X59951Y156958D01*
X59988Y157023D01*
X59993Y157030D01*
X59998Y157037D01*
X60040Y157098D01*
X60046Y157105D01*
X60051Y157112D01*
X60099Y157169D01*
X60105Y157176D01*
X60111Y157182D01*
X60163Y157235D01*
X60170Y157240D01*
X60176Y157247D01*
X60233Y157295D01*
X60241Y157299D01*
X60247Y157305D01*
X60308Y157348D01*
X60316Y157352D01*
X60323Y157357D01*
X60388Y157395D01*
X60396Y157398D01*
X60403Y157403D01*
X60471Y157434D01*
X60479Y157437D01*
X60487Y157441D01*
X60557Y157466D01*
X60565Y157468D01*
X60573Y157471D01*
X60646Y157491D01*
X60654Y157492D01*
X60662Y157494D01*
X60736Y157507D01*
X60745Y157508D01*
X60753Y157510D01*
X60827Y157516D01*
X60836Y157516D01*
X60845Y157517D01*
X60919Y157517D01*
X60928Y157516D01*
X60937Y157516D01*
X61011Y157510D01*
X61020Y157508D01*
X61028Y157507D01*
X61102Y157494D01*
X61110Y157492D01*
X61119Y157491D01*
X61191Y157471D01*
X61199Y157468D01*
X61207Y157466D01*
X61278Y157440D01*
X61285Y157437D01*
X61294Y157434D01*
X61361Y157402D01*
X61369Y157398D01*
X61377Y157394D01*
X61409Y157376D01*
X61409Y157376D01*
X67877Y153637D01*
X66462Y155054D01*
X66462Y155054D01*
X66462Y155054D01*
D01*
D01*
X66444Y155072D01*
X66438Y155080D01*
X66431Y155087D01*
X66399Y155126D01*
X66394Y155134D01*
X66387Y155141D01*
X66360Y155183D01*
X66355Y155192D01*
X66350Y155200D01*
X66326Y155244D01*
X66322Y155253D01*
X66318Y155262D01*
X66298Y155308D01*
X66295Y155318D01*
X66292Y155327D01*
X66277Y155375D01*
X66275Y155384D01*
X66272Y155394D01*
X66263Y155443D01*
X66262Y155453D01*
X66260Y155462D01*
X66255Y155513D01*
Y155522D01*
X66254Y155532D01*
Y155557D01*
Y155587D01*
X66255Y155599D01*
X66255Y155611D01*
X66262Y155671D01*
X66265Y155682D01*
X66267Y155694D01*
X66281Y155753D01*
X66285Y155764D01*
X66287Y155775D01*
X66308Y155832D01*
X66313Y155842D01*
X66318Y155853D01*
X66345Y155907D01*
X66352Y155917D01*
X66357Y155927D01*
X66391Y155978D01*
X66398Y155987D01*
X66405Y155996D01*
X66444Y156042D01*
X66453Y156051D01*
X66460Y156059D01*
X66505Y156100D01*
X66514Y156107D01*
X66523Y156115D01*
X66572Y156151D01*
X66582Y156157D01*
X66592Y156163D01*
X66644Y156193D01*
X66655Y156198D01*
X66665Y156203D01*
X66721Y156226D01*
X66733Y156230D01*
X66743Y156234D01*
X66802Y156250D01*
X66813Y156252D01*
X66825Y156255D01*
X66884Y156265D01*
X66896Y156265D01*
X66908Y156267D01*
X66968Y156269D01*
X66980Y156269D01*
X66992Y156269D01*
X67052Y156264D01*
X67063Y156262D01*
X67075Y156261D01*
X67134Y156249D01*
X67146Y156246D01*
X67157Y156243D01*
X67215Y156224D01*
X67225Y156220D01*
X67236Y156216D01*
X67291Y156190D01*
X67301Y156184D01*
X67312Y156179D01*
X67364Y156148D01*
X67373Y156140D01*
X67383Y156134D01*
X67430Y156097D01*
X67439Y156089D01*
X67448Y156081D01*
X67469Y156060D01*
X67469Y156060D01*
X69258Y154267D01*
X69271Y154277D01*
X66935Y158319D01*
X66934Y158319D01*
X66923Y158338D01*
X66921Y158344D01*
X66917Y158350D01*
X66897Y158390D01*
X66895Y158396D01*
X66892Y158402D01*
X66875Y158443D01*
X66873Y158449D01*
X66870Y158455D01*
X66856Y158498D01*
X66854Y158504D01*
X66852Y158510D01*
X66840Y158554D01*
X66839Y158560D01*
X66837Y158566D01*
X66829Y158610D01*
X66828Y158617D01*
X66826Y158623D01*
X66821Y158668D01*
X66821Y158674D01*
X66819Y158680D01*
X66817Y158725D01*
X66817Y158732D01*
X66816Y158738D01*
Y158760D01*
Y158793D01*
X66817Y158802D01*
X66817Y158811D01*
X66823Y158875D01*
X66825Y158884D01*
X66825Y158893D01*
X66837Y158956D01*
X66840Y158965D01*
X66842Y158974D01*
X66859Y159036D01*
X66863Y159044D01*
X66865Y159053D01*
X66889Y159113D01*
X66893Y159121D01*
X66896Y159130D01*
X66925Y159187D01*
X66930Y159195D01*
X66934Y159203D01*
X66968Y159257D01*
X66974Y159264D01*
X66979Y159272D01*
X67018Y159323D01*
X67024Y159330D01*
X67030Y159337D01*
X67073Y159384D01*
X67080Y159390D01*
X67086Y159397D01*
X67134Y159440D01*
X67142Y159445D01*
X67149Y159451D01*
X67200Y159490D01*
X67208Y159494D01*
X67216Y159500D01*
X67270Y159533D01*
X67279Y159537D01*
X67287Y159542D01*
X67344Y159569D01*
X67353Y159573D01*
X67361Y159577D01*
X67421Y159599D01*
X67430Y159601D01*
X67439Y159605D01*
X67501Y159621D01*
X67510Y159623D01*
X67519Y159625D01*
X67582Y159636D01*
X67591Y159636D01*
X67600Y159638D01*
X67664Y159643D01*
X67673Y159643D01*
X67683Y159643D01*
X67747Y159642D01*
X67756Y159641D01*
X67765Y159641D01*
X67829Y159634D01*
X67838Y159632D01*
X67847Y159631D01*
X67910Y159618D01*
X67918Y159615D01*
X67928Y159613D01*
X67989Y159594D01*
X67997Y159591D01*
X68006Y159588D01*
X68065Y159564D01*
X68074Y159559D01*
X68082Y159556D01*
X68139Y159526D01*
X68147Y159521D01*
X68155Y159517D01*
X68208Y159481D01*
X68216Y159476D01*
X68223Y159471D01*
X68273Y159431D01*
X68280Y159424D01*
X68287Y159418D01*
X68333Y159374D01*
X68339Y159367D01*
X68346Y159361D01*
X68388Y159312D01*
X68393Y159304D01*
X68399Y159298D01*
X68436Y159245D01*
X68441Y159237D01*
X68446Y159230D01*
X68462Y159202D01*
X68463Y159202D01*
X70792Y155172D01*
X70819Y155183D01*
X70166Y157632D01*
X70166Y157632D01*
X70161Y157648D01*
X70160Y157655D01*
X70158Y157661D01*
X70152Y157694D01*
X70151Y157700D01*
X70150Y157707D01*
X70145Y157740D01*
X70145Y157746D01*
X70144Y157753D01*
X70142Y157786D01*
X70142Y157793D01*
X70142Y157799D01*
Y157816D01*
Y157847D01*
X70143Y157858D01*
X70143Y157870D01*
X70150Y157932D01*
X70153Y157943D01*
X70155Y157955D01*
X70169Y158015D01*
X70173Y158026D01*
X70176Y158037D01*
X70198Y158095D01*
X70203Y158106D01*
X70208Y158117D01*
X70236Y158172D01*
X70243Y158182D01*
X70249Y158192D01*
X70283Y158243D01*
X70291Y158252D01*
X70298Y158262D01*
X70339Y158308D01*
X70347Y158316D01*
X70355Y158325D01*
X70401Y158366D01*
X70411Y158373D01*
X70420Y158381D01*
X70470Y158416D01*
X70481Y158422D01*
X70491Y158429D01*
X70545Y158458D01*
X70556Y158462D01*
X70567Y158468D01*
X70624Y158490D01*
X70636Y158493D01*
X70647Y158497D01*
X70707Y158513D01*
X70718Y158514D01*
X70730Y158517D01*
X70791Y158525D01*
X70803Y158526D01*
X70815Y158527D01*
X70877Y158528D01*
X70888Y158527D01*
X70900Y158526D01*
X70962Y158520D01*
X70973Y158517D01*
X70985Y158516D01*
X71045Y158502D01*
X71056Y158498D01*
X71068Y158495D01*
X71126Y158474D01*
X71137Y158468D01*
X71148Y158464D01*
X71203Y158436D01*
X71213Y158430D01*
X71223Y158424D01*
X71275Y158390D01*
X71284Y158382D01*
X71293Y158376D01*
X71340Y158335D01*
X71348Y158327D01*
X71357Y158319D01*
X71399Y158273D01*
X71406Y158264D01*
X71414Y158255D01*
X71450Y158205D01*
X71456Y158194D01*
X71462Y158185D01*
X71492Y158130D01*
X71497Y158119D01*
X71502Y158109D01*
X71525Y158052D01*
X71528Y158040D01*
X71533Y158029D01*
X71541Y157999D01*
X72047Y156102D01*
X72047Y163507D01*
X72047Y163507D01*
Y163544D01*
X72048Y163553D01*
X72048Y163562D01*
X72054Y163636D01*
X72056Y163645D01*
X72057Y163653D01*
X72070Y163727D01*
X72072Y163735D01*
X72073Y163744D01*
X72093Y163816D01*
X72096Y163824D01*
X72098Y163832D01*
X72123Y163902D01*
X72127Y163910D01*
X72130Y163918D01*
X72162Y163986D01*
X72166Y163994D01*
X72170Y164001D01*
X72207Y164066D01*
X72212Y164073D01*
X72216Y164081D01*
X72259Y164142D01*
X72265Y164148D01*
X72270Y164156D01*
X72318Y164213D01*
X72324Y164219D01*
X72329Y164225D01*
X72382Y164278D01*
X72389Y164284D01*
X72395Y164290D01*
X72452Y164338D01*
X72459Y164343D01*
X72466Y164348D01*
X72527Y164391D01*
X72535Y164396D01*
X72541Y164401D01*
X72606Y164438D01*
X72614Y164442D01*
X72622Y164446D01*
X72689Y164478D01*
X72697Y164480D01*
X72705Y164484D01*
X72775Y164510D01*
X72784Y164512D01*
X72792Y164515D01*
X72864Y164534D01*
X72872Y164536D01*
X72881Y164538D01*
X72954Y164551D01*
X72963Y164551D01*
X72971Y164553D01*
X73046Y164560D01*
X73054Y164560D01*
X73063Y164560D01*
X73138D01*
X73146Y164560D01*
D02*
G37*
G36*
X895101Y-155808D02*
X894814D01*
Y-156094D01*
X894528D01*
Y-156380D01*
Y-156667D01*
X894242D01*
Y-156953D01*
X893955D01*
Y-157239D01*
X893669D01*
Y-157526D01*
Y-157812D01*
X893383D01*
Y-158098D01*
X893096D01*
Y-158385D01*
X892810D01*
Y-158671D01*
X892524D01*
Y-158957D01*
Y-159244D01*
X892237D01*
Y-159530D01*
X891951D01*
Y-159816D01*
X891665D01*
Y-160102D01*
Y-160389D01*
X891378D01*
Y-160675D01*
X891092D01*
Y-160961D01*
X890806D01*
Y-161248D01*
X890520D01*
Y-161534D01*
Y-161820D01*
X890233D01*
Y-162107D01*
X889947D01*
Y-162393D01*
X889661D01*
Y-162679D01*
Y-162966D01*
X889374D01*
Y-163252D01*
X889088D01*
Y-163538D01*
X888802D01*
Y-163824D01*
Y-164111D01*
X888515D01*
Y-164397D01*
X888229D01*
Y-164683D01*
X887943D01*
Y-164970D01*
X887656D01*
Y-165256D01*
Y-165542D01*
X887370D01*
Y-165829D01*
X887084D01*
Y-166115D01*
X886798D01*
Y-166401D01*
Y-166688D01*
X886511D01*
Y-166974D01*
X886225D01*
Y-167260D01*
X885939D01*
Y-167547D01*
Y-167833D01*
X885652D01*
Y-168119D01*
X885366D01*
Y-168405D01*
X885080D01*
Y-168692D01*
X884793D01*
Y-168978D01*
Y-169264D01*
X884507D01*
Y-169551D01*
X884221D01*
Y-169837D01*
X883934D01*
Y-170123D01*
Y-170410D01*
X883648D01*
Y-170696D01*
X883362D01*
Y-170982D01*
X883076D01*
Y-171269D01*
Y-171555D01*
X882789D01*
Y-171841D01*
X882503D01*
Y-172127D01*
X882216D01*
Y-172414D01*
X881930D01*
Y-172700D01*
Y-172986D01*
X881644D01*
Y-173273D01*
X881358D01*
Y-173559D01*
X881071D01*
Y-173845D01*
Y-174132D01*
X880785D01*
Y-174418D01*
X880499D01*
Y-174704D01*
X880212D01*
Y-174991D01*
X879926D01*
Y-175277D01*
Y-175563D01*
X880212D01*
Y-175850D01*
Y-176136D01*
X880499D01*
Y-176422D01*
Y-176709D01*
X880785D01*
Y-176995D01*
X881071D01*
Y-177281D01*
Y-177568D01*
X881358D01*
Y-177854D01*
Y-178140D01*
X881644D01*
Y-178426D01*
Y-178713D01*
X881930D01*
Y-178999D01*
Y-179285D01*
X882216D01*
Y-179572D01*
Y-179858D01*
X882503D01*
Y-180144D01*
Y-180431D01*
X882789D01*
Y-180717D01*
Y-181003D01*
X883076D01*
Y-181290D01*
Y-181576D01*
X883362D01*
Y-181862D01*
X883648D01*
Y-182149D01*
Y-182435D01*
X883934D01*
Y-182721D01*
Y-183007D01*
X884221D01*
Y-183294D01*
Y-183580D01*
X884507D01*
Y-183866D01*
Y-184153D01*
X884793D01*
Y-184439D01*
Y-184725D01*
X885080D01*
Y-185012D01*
Y-185298D01*
X885366D01*
Y-185584D01*
Y-185871D01*
X885652D01*
Y-186157D01*
X885939D01*
Y-186443D01*
Y-186730D01*
X886225D01*
Y-187016D01*
Y-187302D01*
X886511D01*
Y-187588D01*
Y-187875D01*
X886798D01*
Y-188161D01*
Y-188447D01*
X887084D01*
Y-188734D01*
Y-189020D01*
X887370D01*
Y-189306D01*
Y-189593D01*
X887656D01*
Y-189879D01*
Y-190165D01*
X887943D01*
Y-190452D01*
X888229D01*
Y-190738D01*
Y-191024D01*
X888515D01*
Y-191311D01*
Y-191597D01*
X888802D01*
Y-191883D01*
X873627D01*
Y-191597D01*
X873341D01*
Y-191311D01*
Y-191024D01*
Y-190738D01*
X873055D01*
Y-190452D01*
Y-190165D01*
Y-189879D01*
X872768D01*
Y-189593D01*
Y-189306D01*
X872482D01*
Y-189020D01*
Y-188734D01*
Y-188447D01*
X872196D01*
Y-188161D01*
Y-187875D01*
Y-187588D01*
X871909D01*
Y-187302D01*
Y-187016D01*
X871623D01*
Y-186730D01*
Y-186443D01*
Y-186157D01*
X871337D01*
Y-185871D01*
Y-185584D01*
Y-185298D01*
X871050D01*
Y-185012D01*
Y-184725D01*
Y-184439D01*
X870764D01*
Y-184153D01*
X870191D01*
Y-184439D01*
Y-184725D01*
X869905D01*
Y-185012D01*
X869619D01*
Y-185298D01*
Y-185584D01*
X869332D01*
Y-185871D01*
X869046D01*
Y-186157D01*
Y-186443D01*
X868760D01*
Y-186730D01*
X868474D01*
Y-187016D01*
Y-187302D01*
X868187D01*
Y-187588D01*
X867901D01*
Y-187875D01*
X867615D01*
Y-188161D01*
Y-188447D01*
X867328D01*
Y-188734D01*
X867042D01*
Y-189020D01*
Y-189306D01*
X866756D01*
Y-189593D01*
X866469D01*
Y-189879D01*
Y-190165D01*
X866183D01*
Y-190452D01*
X865897D01*
Y-190738D01*
Y-191024D01*
X865610D01*
Y-191311D01*
X865324D01*
Y-191597D01*
Y-191883D01*
X849290D01*
Y-191597D01*
X849577D01*
Y-191311D01*
X849863D01*
Y-191024D01*
X850150D01*
Y-190738D01*
X850436D01*
Y-190452D01*
Y-190165D01*
X850722D01*
Y-189879D01*
X851008D01*
Y-189593D01*
X851295D01*
Y-189306D01*
X851581D01*
Y-189020D01*
Y-188734D01*
X851867D01*
Y-188447D01*
X852154D01*
Y-188161D01*
X852440D01*
Y-187875D01*
Y-187588D01*
X852726D01*
Y-187302D01*
X853013D01*
Y-187016D01*
X853299D01*
Y-186730D01*
X853585D01*
Y-186443D01*
Y-186157D01*
X853872D01*
Y-185871D01*
X854158D01*
Y-185584D01*
X854444D01*
Y-185298D01*
X854731D01*
Y-185012D01*
Y-184725D01*
X855017D01*
Y-184439D01*
X855303D01*
Y-184153D01*
X855589D01*
Y-183866D01*
Y-183580D01*
X855876D01*
Y-183294D01*
X856162D01*
Y-183007D01*
X856448D01*
Y-182721D01*
X856735D01*
Y-182435D01*
Y-182149D01*
X857021D01*
Y-181862D01*
X857307D01*
Y-181576D01*
X857594D01*
Y-181290D01*
Y-181003D01*
X857880D01*
Y-180717D01*
X858166D01*
Y-180431D01*
X858453D01*
Y-180144D01*
X858739D01*
Y-179858D01*
Y-179572D01*
X859025D01*
Y-179285D01*
X859311D01*
Y-178999D01*
X859598D01*
Y-178713D01*
Y-178426D01*
X859884D01*
Y-178140D01*
X860170D01*
Y-177854D01*
X860457D01*
Y-177568D01*
X860743D01*
Y-177281D01*
Y-176995D01*
X861029D01*
Y-176709D01*
X861316D01*
Y-176422D01*
X861602D01*
Y-176136D01*
X861888D01*
Y-175850D01*
Y-175563D01*
X862175D01*
Y-175277D01*
X862461D01*
Y-174991D01*
X862747D01*
Y-174704D01*
Y-174418D01*
X863034D01*
Y-174132D01*
X863320D01*
Y-173845D01*
X863606D01*
Y-173559D01*
X863892D01*
Y-173273D01*
Y-172986D01*
X864179D01*
Y-172700D01*
Y-172414D01*
Y-172127D01*
X863892D01*
Y-171841D01*
X863606D01*
Y-171555D01*
Y-171269D01*
X863320D01*
Y-170982D01*
Y-170696D01*
X863034D01*
Y-170410D01*
Y-170123D01*
X862747D01*
Y-169837D01*
Y-169551D01*
X862461D01*
Y-169264D01*
Y-168978D01*
X862175D01*
Y-168692D01*
Y-168405D01*
X861888D01*
Y-168119D01*
X861602D01*
Y-167833D01*
Y-167547D01*
X861316D01*
Y-167260D01*
Y-166974D01*
X861029D01*
Y-166688D01*
Y-166401D01*
X860743D01*
Y-166115D01*
Y-165829D01*
X860457D01*
Y-165542D01*
Y-165256D01*
X860170D01*
Y-164970D01*
Y-164683D01*
X859884D01*
Y-164397D01*
X859598D01*
Y-164111D01*
Y-163824D01*
X859311D01*
Y-163538D01*
Y-163252D01*
X859025D01*
Y-162966D01*
Y-162679D01*
X858739D01*
Y-162393D01*
Y-162107D01*
X858453D01*
Y-161820D01*
Y-161534D01*
X858166D01*
Y-161248D01*
Y-160961D01*
X857880D01*
Y-160675D01*
Y-160389D01*
X857594D01*
Y-160102D01*
X857307D01*
Y-159816D01*
Y-159530D01*
X857021D01*
Y-159244D01*
Y-158957D01*
X856735D01*
Y-158671D01*
Y-158385D01*
X856448D01*
Y-158098D01*
Y-157812D01*
X856162D01*
Y-157526D01*
Y-157239D01*
X855876D01*
Y-156953D01*
Y-156667D01*
X855589D01*
Y-156380D01*
X855303D01*
Y-156094D01*
Y-155808D01*
X855017D01*
Y-155521D01*
X870764D01*
Y-155808D01*
X871050D01*
Y-156094D01*
Y-156380D01*
Y-156667D01*
X871337D01*
Y-156953D01*
Y-157239D01*
Y-157526D01*
X871623D01*
Y-157812D01*
Y-158098D01*
Y-158385D01*
X871909D01*
Y-158671D01*
Y-158957D01*
Y-159244D01*
X872196D01*
Y-159530D01*
Y-159816D01*
Y-160102D01*
X872482D01*
Y-160389D01*
Y-160675D01*
Y-160961D01*
X872768D01*
Y-161248D01*
Y-161534D01*
Y-161820D01*
X873055D01*
Y-162107D01*
Y-162393D01*
Y-162679D01*
X873341D01*
Y-162966D01*
Y-163252D01*
Y-163538D01*
Y-163824D01*
X873913D01*
Y-163538D01*
X874200D01*
Y-163252D01*
X874486D01*
Y-162966D01*
Y-162679D01*
X874772D01*
Y-162393D01*
X875059D01*
Y-162107D01*
Y-161820D01*
X875345D01*
Y-161534D01*
X875631D01*
Y-161248D01*
Y-160961D01*
X875918D01*
Y-160675D01*
X876204D01*
Y-160389D01*
Y-160102D01*
X876490D01*
Y-159816D01*
X876777D01*
Y-159530D01*
Y-159244D01*
X877063D01*
Y-158957D01*
X877349D01*
Y-158671D01*
Y-158385D01*
X877635D01*
Y-158098D01*
X877922D01*
Y-157812D01*
Y-157526D01*
X878208D01*
Y-157239D01*
X878494D01*
Y-156953D01*
Y-156667D01*
X878781D01*
Y-156380D01*
X879067D01*
Y-156094D01*
Y-155808D01*
X879353D01*
Y-155521D01*
X895101D01*
Y-155808D01*
D02*
G37*
G36*
X761965Y-141778D02*
X763683D01*
Y-142065D01*
X764542D01*
Y-142351D01*
X765401D01*
Y-142637D01*
X766260D01*
Y-142924D01*
X766832D01*
Y-143210D01*
X767119D01*
Y-143496D01*
X767691D01*
Y-143783D01*
X767978D01*
Y-144069D01*
X768550D01*
Y-144355D01*
X768837D01*
Y-144641D01*
X769123D01*
Y-144928D01*
X769409D01*
Y-145214D01*
X769696D01*
Y-145501D01*
X769982D01*
Y-145787D01*
X770268D01*
Y-146073D01*
Y-146359D01*
X770554D01*
Y-146646D01*
X770841D01*
Y-146932D01*
Y-147218D01*
X771127D01*
Y-147505D01*
X771414D01*
Y-147791D01*
Y-148077D01*
X771700D01*
Y-148364D01*
Y-148650D01*
Y-148936D01*
X771986D01*
Y-149223D01*
Y-149509D01*
Y-149795D01*
X772272D01*
Y-150082D01*
Y-150368D01*
Y-150654D01*
Y-150940D01*
X772559D01*
Y-151227D01*
Y-151513D01*
Y-151799D01*
Y-152086D01*
Y-152372D01*
X772845D01*
Y-152658D01*
Y-152945D01*
Y-153231D01*
Y-153517D01*
Y-153804D01*
Y-154090D01*
Y-154376D01*
Y-154663D01*
Y-154949D01*
Y-155235D01*
Y-155521D01*
Y-155808D01*
Y-156094D01*
Y-156380D01*
Y-156667D01*
Y-156953D01*
Y-157239D01*
Y-157526D01*
Y-157812D01*
Y-158098D01*
X772559D01*
Y-158385D01*
Y-158671D01*
Y-158957D01*
Y-159244D01*
Y-159530D01*
Y-159816D01*
Y-160102D01*
X772272D01*
Y-160389D01*
Y-160675D01*
Y-160961D01*
Y-161248D01*
Y-161534D01*
X771986D01*
Y-161820D01*
Y-162107D01*
Y-162393D01*
Y-162679D01*
Y-162966D01*
X771700D01*
Y-163252D01*
Y-163538D01*
Y-163824D01*
X771414D01*
Y-164111D01*
Y-164397D01*
Y-164683D01*
Y-164970D01*
X771127D01*
Y-165256D01*
Y-165542D01*
Y-165829D01*
X770841D01*
Y-166115D01*
Y-166401D01*
X770554D01*
Y-166688D01*
Y-166974D01*
Y-167260D01*
X770268D01*
Y-167547D01*
Y-167833D01*
X769982D01*
Y-168119D01*
Y-168405D01*
X769696D01*
Y-168692D01*
Y-168978D01*
X769409D01*
Y-169264D01*
X769123D01*
Y-169551D01*
Y-169837D01*
X768837D01*
Y-170123D01*
X768550D01*
Y-170410D01*
X768264D01*
Y-170696D01*
Y-170982D01*
X767978D01*
Y-171269D01*
X767691D01*
Y-171555D01*
X767405D01*
Y-171841D01*
X767119D01*
Y-172127D01*
X766832D01*
Y-172414D01*
X766260D01*
Y-172700D01*
X765974D01*
Y-172986D01*
X765401D01*
Y-173273D01*
X765115D01*
Y-173559D01*
X764542D01*
Y-173845D01*
X763683D01*
Y-174132D01*
X762824D01*
Y-174418D01*
X761965D01*
Y-174704D01*
X760247D01*
Y-174991D01*
X755094D01*
Y-174704D01*
X752517D01*
Y-174418D01*
X750513D01*
Y-174132D01*
X749081D01*
Y-173845D01*
X747649D01*
Y-173559D01*
X746218D01*
Y-173845D01*
Y-174132D01*
Y-174418D01*
Y-174704D01*
Y-174991D01*
Y-175277D01*
Y-175563D01*
X745932D01*
Y-175850D01*
Y-176136D01*
Y-176422D01*
Y-176709D01*
Y-176995D01*
Y-177281D01*
X745645D01*
Y-177568D01*
Y-177854D01*
Y-178140D01*
Y-178426D01*
Y-178713D01*
Y-178999D01*
X745359D01*
Y-179285D01*
Y-179572D01*
Y-179858D01*
Y-180144D01*
Y-180431D01*
Y-180717D01*
Y-181003D01*
X745073D01*
Y-181290D01*
Y-181576D01*
Y-181862D01*
Y-182149D01*
Y-182435D01*
Y-182721D01*
X744786D01*
Y-183007D01*
Y-183294D01*
Y-183580D01*
Y-183866D01*
Y-184153D01*
Y-184439D01*
X744500D01*
Y-184725D01*
Y-185012D01*
Y-185298D01*
Y-185584D01*
Y-185871D01*
Y-186157D01*
Y-186443D01*
X744214D01*
Y-186730D01*
Y-187016D01*
Y-187302D01*
Y-187588D01*
Y-187875D01*
Y-188161D01*
X743927D01*
Y-188447D01*
Y-188734D01*
Y-189020D01*
Y-189306D01*
Y-189593D01*
Y-189879D01*
X743641D01*
Y-190165D01*
Y-190452D01*
Y-190738D01*
Y-191024D01*
Y-191311D01*
Y-191597D01*
Y-191883D01*
X730184D01*
Y-191597D01*
X730471D01*
Y-191311D01*
Y-191024D01*
Y-190738D01*
Y-190452D01*
Y-190165D01*
X730757D01*
Y-189879D01*
Y-189593D01*
Y-189306D01*
Y-189020D01*
Y-188734D01*
Y-188447D01*
Y-188161D01*
X731043D01*
Y-187875D01*
Y-187588D01*
Y-187302D01*
Y-187016D01*
Y-186730D01*
Y-186443D01*
X731330D01*
Y-186157D01*
Y-185871D01*
Y-185584D01*
Y-185298D01*
Y-185012D01*
Y-184725D01*
X731616D01*
Y-184439D01*
Y-184153D01*
Y-183866D01*
Y-183580D01*
Y-183294D01*
Y-183007D01*
Y-182721D01*
X731902D01*
Y-182435D01*
Y-182149D01*
Y-181862D01*
Y-181576D01*
Y-181290D01*
Y-181003D01*
X732189D01*
Y-180717D01*
Y-180431D01*
Y-180144D01*
Y-179858D01*
Y-179572D01*
Y-179285D01*
X732475D01*
Y-178999D01*
Y-178713D01*
Y-178426D01*
Y-178140D01*
Y-177854D01*
Y-177568D01*
X732761D01*
Y-177281D01*
Y-176995D01*
Y-176709D01*
Y-176422D01*
Y-176136D01*
Y-175850D01*
Y-175563D01*
X733047D01*
Y-175277D01*
Y-174991D01*
Y-174704D01*
Y-174418D01*
Y-174132D01*
Y-173845D01*
X733334D01*
Y-173559D01*
Y-173273D01*
Y-172986D01*
Y-172700D01*
Y-172414D01*
Y-172127D01*
X733620D01*
Y-171841D01*
Y-171555D01*
Y-171269D01*
Y-170982D01*
Y-170696D01*
Y-170410D01*
X733907D01*
Y-170123D01*
Y-169837D01*
Y-169551D01*
Y-169264D01*
Y-168978D01*
Y-168692D01*
Y-168405D01*
X734193D01*
Y-168119D01*
Y-167833D01*
Y-167547D01*
Y-167260D01*
Y-166974D01*
Y-166688D01*
X734479D01*
Y-166401D01*
Y-166115D01*
Y-165829D01*
Y-165542D01*
Y-165256D01*
Y-164970D01*
X734765D01*
Y-164683D01*
Y-164397D01*
Y-164111D01*
Y-163824D01*
Y-163538D01*
Y-163252D01*
Y-162966D01*
X735052D01*
Y-162679D01*
Y-162393D01*
Y-162107D01*
Y-161820D01*
Y-161534D01*
Y-161248D01*
X735338D01*
Y-160961D01*
Y-160675D01*
Y-160389D01*
Y-160102D01*
Y-159816D01*
Y-159530D01*
X735624D01*
Y-159244D01*
Y-158957D01*
Y-158671D01*
Y-158385D01*
Y-158098D01*
Y-157812D01*
X735911D01*
Y-157526D01*
Y-157239D01*
Y-156953D01*
Y-156667D01*
Y-156380D01*
Y-156094D01*
Y-155808D01*
X736197D01*
Y-155521D01*
Y-155235D01*
Y-154949D01*
Y-154663D01*
Y-154376D01*
Y-154090D01*
X736483D01*
Y-153804D01*
Y-153517D01*
Y-153231D01*
Y-152945D01*
Y-152658D01*
Y-152372D01*
X736770D01*
Y-152086D01*
Y-151799D01*
Y-151513D01*
Y-151227D01*
Y-150940D01*
Y-150654D01*
Y-150368D01*
X737056D01*
Y-150082D01*
Y-149795D01*
Y-149509D01*
Y-149223D01*
Y-148936D01*
Y-148650D01*
X737342D01*
Y-148364D01*
Y-148077D01*
Y-147791D01*
Y-147505D01*
Y-147218D01*
Y-146932D01*
X737629D01*
Y-146646D01*
Y-146359D01*
Y-146073D01*
Y-145787D01*
Y-145501D01*
Y-145214D01*
Y-144928D01*
X737915D01*
Y-144641D01*
Y-144355D01*
Y-144069D01*
Y-143783D01*
Y-143496D01*
Y-143210D01*
X738201D01*
Y-142924D01*
Y-142637D01*
Y-142351D01*
Y-142065D01*
Y-141778D01*
Y-141492D01*
X761965D01*
Y-141778D01*
D02*
G37*
G36*
X851008Y-155808D02*
Y-156094D01*
Y-156380D01*
Y-156667D01*
Y-156953D01*
Y-157239D01*
Y-157526D01*
Y-157812D01*
Y-158098D01*
Y-158385D01*
Y-158671D01*
Y-158957D01*
Y-159244D01*
Y-159530D01*
Y-159816D01*
Y-160102D01*
Y-160389D01*
Y-160675D01*
Y-160961D01*
Y-161248D01*
Y-161534D01*
X850722D01*
Y-161820D01*
Y-162107D01*
Y-162393D01*
Y-162679D01*
Y-162966D01*
X850436D01*
Y-163252D01*
Y-163538D01*
Y-163824D01*
Y-164111D01*
X850150D01*
Y-164397D01*
Y-164683D01*
Y-164970D01*
Y-165256D01*
X849863D01*
Y-165542D01*
Y-165829D01*
Y-166115D01*
X849577D01*
Y-166401D01*
Y-166688D01*
Y-166974D01*
X849290D01*
Y-167260D01*
Y-167547D01*
Y-167833D01*
X849004D01*
Y-168119D01*
Y-168405D01*
Y-168692D01*
X848718D01*
Y-168978D01*
Y-169264D01*
X848432D01*
Y-169551D01*
Y-169837D01*
X848145D01*
Y-170123D01*
Y-170410D01*
Y-170696D01*
X847859D01*
Y-170982D01*
Y-171269D01*
X847573D01*
Y-171555D01*
Y-171841D01*
Y-172127D01*
X847286D01*
Y-172414D01*
Y-172700D01*
X847000D01*
Y-172986D01*
Y-173273D01*
Y-173559D01*
X846714D01*
Y-173845D01*
Y-174132D01*
X846427D01*
Y-174418D01*
Y-174704D01*
Y-174991D01*
X846141D01*
Y-175277D01*
Y-175563D01*
X845855D01*
Y-175850D01*
Y-176136D01*
Y-176422D01*
X845568D01*
Y-176709D01*
Y-176995D01*
X845282D01*
Y-177281D01*
Y-177568D01*
Y-177854D01*
X844996D01*
Y-178140D01*
Y-178426D01*
X844709D01*
Y-178713D01*
Y-178999D01*
Y-179285D01*
X844423D01*
Y-179572D01*
Y-179858D01*
X844137D01*
Y-180144D01*
Y-180431D01*
Y-180717D01*
X843851D01*
Y-181003D01*
Y-181290D01*
X843564D01*
Y-181576D01*
Y-181862D01*
Y-182149D01*
X843278D01*
Y-182435D01*
Y-182721D01*
X842992D01*
Y-183007D01*
Y-183294D01*
Y-183580D01*
X842705D01*
Y-183866D01*
Y-184153D01*
X842419D01*
Y-184439D01*
Y-184725D01*
Y-185012D01*
X842133D01*
Y-185298D01*
Y-185584D01*
X841846D01*
Y-185871D01*
Y-186157D01*
Y-186443D01*
X841560D01*
Y-186730D01*
Y-187016D01*
X841274D01*
Y-187302D01*
Y-187588D01*
Y-187875D01*
X840987D01*
Y-188161D01*
Y-188447D01*
X840701D01*
Y-188734D01*
Y-189020D01*
Y-189306D01*
X840415D01*
Y-189593D01*
Y-189879D01*
X840129D01*
Y-190165D01*
Y-190452D01*
Y-190738D01*
X839842D01*
Y-191024D01*
Y-191311D01*
X839556D01*
Y-191597D01*
Y-191883D01*
Y-192169D01*
X839270D01*
Y-192456D01*
Y-192742D01*
X838983D01*
Y-193028D01*
Y-193315D01*
X838697D01*
Y-193601D01*
Y-193887D01*
X838411D01*
Y-194174D01*
Y-194460D01*
Y-194746D01*
X838124D01*
Y-195033D01*
X837838D01*
Y-195319D01*
Y-195605D01*
Y-195891D01*
X837552D01*
Y-196178D01*
X837265D01*
Y-196464D01*
Y-196750D01*
X836979D01*
Y-197037D01*
Y-197323D01*
X836693D01*
Y-197609D01*
Y-197896D01*
X836407D01*
Y-198182D01*
Y-198468D01*
X836120D01*
Y-198755D01*
X835834D01*
Y-199041D01*
Y-199327D01*
X835548D01*
Y-199614D01*
Y-199900D01*
X835261D01*
Y-200186D01*
X834975D01*
Y-200472D01*
X834689D01*
Y-200759D01*
Y-201045D01*
X834402D01*
Y-201331D01*
X834116D01*
Y-201618D01*
Y-201904D01*
X833830D01*
Y-202190D01*
X833543D01*
Y-202477D01*
X833257D01*
Y-202763D01*
Y-203049D01*
X832971D01*
Y-203336D01*
X832684D01*
Y-203622D01*
X832398D01*
Y-203908D01*
X832112D01*
Y-204195D01*
X831826D01*
Y-204481D01*
Y-204767D01*
X831539D01*
Y-205053D01*
X831253D01*
Y-205340D01*
X830966D01*
Y-205626D01*
X830680D01*
Y-205912D01*
X830394D01*
Y-206199D01*
X830108D01*
Y-206485D01*
X829821D01*
Y-206771D01*
X829249D01*
Y-207058D01*
X828962D01*
Y-207344D01*
X828676D01*
Y-207630D01*
X828390D01*
Y-207917D01*
X828103D01*
Y-208203D01*
X827531D01*
Y-208489D01*
X827244D01*
Y-208776D01*
X826672D01*
Y-209062D01*
X826385D01*
Y-209348D01*
X825813D01*
Y-209634D01*
X825527D01*
Y-209921D01*
X824954D01*
Y-210207D01*
X824381D01*
Y-210493D01*
X823809D01*
Y-210780D01*
X823236D01*
Y-211066D01*
X822663D01*
Y-211352D01*
X821805D01*
Y-211639D01*
X821232D01*
Y-211925D01*
X820373D01*
Y-212211D01*
X819228D01*
Y-212498D01*
X818082D01*
Y-212784D01*
X816365D01*
Y-213070D01*
X814360D01*
Y-213357D01*
X814074D01*
Y-213070D01*
Y-212784D01*
Y-212498D01*
Y-212211D01*
Y-211925D01*
Y-211639D01*
Y-211352D01*
Y-211066D01*
Y-210780D01*
Y-210493D01*
Y-210207D01*
Y-209921D01*
Y-209634D01*
Y-209348D01*
Y-209062D01*
Y-208776D01*
Y-208489D01*
Y-208203D01*
Y-207917D01*
Y-207630D01*
Y-207344D01*
Y-207058D01*
Y-206771D01*
Y-206485D01*
Y-206199D01*
Y-205912D01*
Y-205626D01*
Y-205340D01*
Y-205053D01*
Y-204767D01*
Y-204481D01*
Y-204195D01*
Y-203908D01*
X814647D01*
Y-203622D01*
X815219D01*
Y-203336D01*
X815792D01*
Y-203049D01*
X816365D01*
Y-202763D01*
X816937D01*
Y-202477D01*
X817510D01*
Y-202190D01*
X817796D01*
Y-201904D01*
X818369D01*
Y-201618D01*
X818655D01*
Y-201331D01*
X819228D01*
Y-201045D01*
X819514D01*
Y-200759D01*
X819800D01*
Y-200472D01*
X820373D01*
Y-200186D01*
X820659D01*
Y-199900D01*
X820946D01*
Y-199614D01*
X821232D01*
Y-199327D01*
X821518D01*
Y-199041D01*
X821805D01*
Y-198755D01*
X822091D01*
Y-198468D01*
X822377D01*
Y-198182D01*
X822663D01*
Y-197896D01*
X822950D01*
Y-197609D01*
X823236D01*
Y-197323D01*
X823522D01*
Y-197037D01*
Y-196750D01*
X823809D01*
Y-196464D01*
X824095D01*
Y-196178D01*
X824381D01*
Y-195891D01*
Y-195605D01*
X824668D01*
Y-195319D01*
X824954D01*
Y-195033D01*
Y-194746D01*
X825240D01*
Y-194460D01*
Y-194174D01*
X825527D01*
Y-193887D01*
X825813D01*
Y-193601D01*
Y-193315D01*
X826099D01*
Y-193028D01*
Y-192742D01*
X826385D01*
Y-192456D01*
Y-192169D01*
X824668D01*
Y-191883D01*
X822663D01*
Y-191597D01*
X821518D01*
Y-191311D01*
X820946D01*
Y-191024D01*
X820087D01*
Y-190738D01*
X819514D01*
Y-190452D01*
X819228D01*
Y-190165D01*
X818655D01*
Y-189879D01*
X818369D01*
Y-189593D01*
X818082D01*
Y-189306D01*
X817796D01*
Y-189020D01*
X817510D01*
Y-188734D01*
X817223D01*
Y-188447D01*
Y-188161D01*
X816937D01*
Y-187875D01*
X816651D01*
Y-187588D01*
Y-187302D01*
X816365D01*
Y-187016D01*
Y-186730D01*
X816078D01*
Y-186443D01*
Y-186157D01*
X815792D01*
Y-185871D01*
Y-185584D01*
Y-185298D01*
X815506D01*
Y-185012D01*
Y-184725D01*
Y-184439D01*
Y-184153D01*
X815219D01*
Y-183866D01*
Y-183580D01*
Y-183294D01*
Y-183007D01*
Y-182721D01*
Y-182435D01*
Y-182149D01*
X814933D01*
Y-181862D01*
Y-181576D01*
Y-181290D01*
Y-181003D01*
Y-180717D01*
Y-180431D01*
Y-180144D01*
Y-179858D01*
Y-179572D01*
Y-179285D01*
Y-178999D01*
Y-178713D01*
Y-178426D01*
Y-178140D01*
Y-177854D01*
X814647D01*
Y-177568D01*
Y-177281D01*
Y-176995D01*
Y-176709D01*
Y-176422D01*
Y-176136D01*
Y-175850D01*
Y-175563D01*
Y-175277D01*
Y-174991D01*
Y-174704D01*
Y-174418D01*
Y-174132D01*
Y-173845D01*
Y-173559D01*
X814360D01*
Y-173273D01*
Y-172986D01*
Y-172700D01*
Y-172414D01*
Y-172127D01*
Y-171841D01*
Y-171555D01*
Y-171269D01*
Y-170982D01*
Y-170696D01*
Y-170410D01*
Y-170123D01*
Y-169837D01*
Y-169551D01*
Y-169264D01*
Y-168978D01*
X814074D01*
Y-168692D01*
Y-168405D01*
Y-168119D01*
Y-167833D01*
Y-167547D01*
Y-167260D01*
Y-166974D01*
Y-166688D01*
Y-166401D01*
Y-166115D01*
Y-165829D01*
Y-165542D01*
Y-165256D01*
Y-164970D01*
Y-164683D01*
Y-164397D01*
X813788D01*
Y-164111D01*
Y-163824D01*
Y-163538D01*
Y-163252D01*
Y-162966D01*
Y-162679D01*
Y-162393D01*
Y-162107D01*
Y-161820D01*
Y-161534D01*
Y-161248D01*
Y-160961D01*
Y-160675D01*
Y-160389D01*
X813501D01*
Y-160102D01*
Y-159816D01*
Y-159530D01*
Y-159244D01*
Y-158957D01*
Y-158671D01*
Y-158385D01*
Y-158098D01*
Y-157812D01*
Y-157526D01*
Y-157239D01*
Y-156953D01*
Y-156667D01*
Y-156380D01*
Y-156094D01*
Y-155808D01*
X813215D01*
Y-155521D01*
X826958D01*
Y-155808D01*
Y-156094D01*
Y-156380D01*
Y-156667D01*
Y-156953D01*
Y-157239D01*
Y-157526D01*
Y-157812D01*
Y-158098D01*
Y-158385D01*
Y-158671D01*
Y-158957D01*
Y-159244D01*
Y-159530D01*
X827244D01*
Y-159816D01*
Y-160102D01*
Y-160389D01*
Y-160675D01*
Y-160961D01*
Y-161248D01*
Y-161534D01*
Y-161820D01*
Y-162107D01*
Y-162393D01*
Y-162679D01*
Y-162966D01*
Y-163252D01*
Y-163538D01*
Y-163824D01*
Y-164111D01*
Y-164397D01*
Y-164683D01*
Y-164970D01*
Y-165256D01*
Y-165542D01*
Y-165829D01*
Y-166115D01*
Y-166401D01*
Y-166688D01*
Y-166974D01*
Y-167260D01*
Y-167547D01*
Y-167833D01*
Y-168119D01*
Y-168405D01*
Y-168692D01*
Y-168978D01*
Y-169264D01*
Y-169551D01*
Y-169837D01*
Y-170123D01*
Y-170410D01*
Y-170696D01*
Y-170982D01*
Y-171269D01*
X827531D01*
Y-171555D01*
X827244D01*
Y-171841D01*
Y-172127D01*
X827531D01*
Y-172414D01*
Y-172700D01*
Y-172986D01*
Y-173273D01*
Y-173559D01*
Y-173845D01*
Y-174132D01*
Y-174418D01*
Y-174704D01*
Y-174991D01*
Y-175277D01*
Y-175563D01*
Y-175850D01*
Y-176136D01*
Y-176422D01*
Y-176709D01*
Y-176995D01*
Y-177281D01*
Y-177568D01*
Y-177854D01*
Y-178140D01*
Y-178426D01*
Y-178713D01*
Y-178999D01*
Y-179285D01*
Y-179572D01*
X827817D01*
Y-179858D01*
Y-180144D01*
Y-180431D01*
X828103D01*
Y-180717D01*
X828390D01*
Y-181003D01*
X828676D01*
Y-181290D01*
X829535D01*
Y-181576D01*
X830394D01*
Y-181290D01*
X830680D01*
Y-181003D01*
Y-180717D01*
Y-180431D01*
X830966D01*
Y-180144D01*
Y-179858D01*
X831253D01*
Y-179572D01*
Y-179285D01*
Y-178999D01*
X831539D01*
Y-178713D01*
Y-178426D01*
Y-178140D01*
X831826D01*
Y-177854D01*
Y-177568D01*
Y-177281D01*
X832112D01*
Y-176995D01*
Y-176709D01*
Y-176422D01*
X832398D01*
Y-176136D01*
Y-175850D01*
X832684D01*
Y-175563D01*
Y-175277D01*
Y-174991D01*
X832971D01*
Y-174704D01*
Y-174418D01*
Y-174132D01*
X833257D01*
Y-173845D01*
Y-173559D01*
Y-173273D01*
X833543D01*
Y-172986D01*
Y-172700D01*
X833830D01*
Y-172414D01*
Y-172127D01*
Y-171841D01*
X834116D01*
Y-171555D01*
Y-171269D01*
Y-170982D01*
X834402D01*
Y-170696D01*
Y-170410D01*
Y-170123D01*
X834689D01*
Y-169837D01*
Y-169551D01*
X834975D01*
Y-169264D01*
Y-168978D01*
Y-168692D01*
X835261D01*
Y-168405D01*
Y-168119D01*
Y-167833D01*
X835548D01*
Y-167547D01*
Y-167260D01*
Y-166974D01*
X835834D01*
Y-166688D01*
Y-166401D01*
X836120D01*
Y-166115D01*
Y-165829D01*
Y-165542D01*
X836407D01*
Y-165256D01*
Y-164970D01*
Y-164683D01*
X836693D01*
Y-164397D01*
Y-164111D01*
Y-163824D01*
X836979D01*
Y-163538D01*
Y-163252D01*
Y-162966D01*
Y-162679D01*
X837265D01*
Y-162393D01*
Y-162107D01*
Y-161820D01*
Y-161534D01*
X837552D01*
Y-161248D01*
Y-160961D01*
Y-160675D01*
Y-160389D01*
Y-160102D01*
X837838D01*
Y-159816D01*
Y-159530D01*
Y-159244D01*
Y-158957D01*
Y-158671D01*
Y-158385D01*
X838124D01*
Y-158098D01*
Y-157812D01*
Y-157526D01*
Y-157239D01*
Y-156953D01*
Y-156667D01*
Y-156380D01*
Y-156094D01*
Y-155808D01*
Y-155521D01*
X851008D01*
Y-155808D01*
D02*
G37*
G36*
X793173Y-138343D02*
Y-138629D01*
X792887D01*
Y-138915D01*
Y-139202D01*
Y-139488D01*
Y-139774D01*
Y-140060D01*
Y-140347D01*
X792601D01*
Y-140633D01*
Y-140919D01*
Y-141206D01*
Y-141492D01*
Y-141778D01*
Y-142065D01*
X792314D01*
Y-142351D01*
Y-142637D01*
Y-142924D01*
Y-143210D01*
Y-143496D01*
Y-143783D01*
Y-144069D01*
X792028D01*
Y-144355D01*
Y-144641D01*
Y-144928D01*
Y-145214D01*
Y-145501D01*
Y-145787D01*
X791742D01*
Y-146073D01*
Y-146359D01*
Y-146646D01*
Y-146932D01*
Y-147218D01*
Y-147505D01*
X791455D01*
Y-147791D01*
Y-148077D01*
Y-148364D01*
Y-148650D01*
Y-148936D01*
Y-149223D01*
Y-149509D01*
X791169D01*
Y-149795D01*
Y-150082D01*
Y-150368D01*
Y-150654D01*
Y-150940D01*
Y-151227D01*
X790883D01*
Y-151513D01*
Y-151799D01*
Y-152086D01*
Y-152372D01*
Y-152658D01*
Y-152945D01*
X790596D01*
Y-153231D01*
Y-153517D01*
Y-153804D01*
Y-154090D01*
Y-154376D01*
Y-154663D01*
X790310D01*
Y-154949D01*
Y-155235D01*
Y-155521D01*
Y-155808D01*
Y-156094D01*
Y-156380D01*
Y-156667D01*
X790024D01*
Y-156953D01*
Y-157239D01*
Y-157526D01*
Y-157812D01*
Y-158098D01*
Y-158385D01*
X789738D01*
Y-158671D01*
Y-158957D01*
X790310D01*
Y-158671D01*
X790596D01*
Y-158385D01*
X790883D01*
Y-158098D01*
X791455D01*
Y-157812D01*
X791742D01*
Y-157526D01*
X792028D01*
Y-157239D01*
X792601D01*
Y-156953D01*
X793173D01*
Y-156667D01*
X793460D01*
Y-156380D01*
X794032D01*
Y-156094D01*
X794891D01*
Y-155808D01*
X795464D01*
Y-155521D01*
X796323D01*
Y-155235D01*
X797754D01*
Y-154949D01*
X804053D01*
Y-155235D01*
X805198D01*
Y-155521D01*
X806057D01*
Y-155808D01*
X806630D01*
Y-156094D01*
X806916D01*
Y-156380D01*
X807489D01*
Y-156667D01*
X807775D01*
Y-156953D01*
X808062D01*
Y-157239D01*
X808348D01*
Y-157526D01*
X808634D01*
Y-157812D01*
Y-158098D01*
X808920D01*
Y-158385D01*
Y-158671D01*
X809207D01*
Y-158957D01*
Y-159244D01*
Y-159530D01*
X809493D01*
Y-159816D01*
Y-160102D01*
Y-160389D01*
Y-160675D01*
X809779D01*
Y-160961D01*
Y-161248D01*
Y-161534D01*
Y-161820D01*
Y-162107D01*
Y-162393D01*
Y-162679D01*
Y-162966D01*
Y-163252D01*
Y-163538D01*
Y-163824D01*
Y-164111D01*
Y-164397D01*
Y-164683D01*
Y-164970D01*
Y-165256D01*
Y-165542D01*
Y-165829D01*
X809493D01*
Y-166115D01*
Y-166401D01*
Y-166688D01*
Y-166974D01*
Y-167260D01*
Y-167547D01*
Y-167833D01*
X809207D01*
Y-168119D01*
Y-168405D01*
Y-168692D01*
Y-168978D01*
Y-169264D01*
Y-169551D01*
Y-169837D01*
X808920D01*
Y-170123D01*
Y-170410D01*
Y-170696D01*
Y-170982D01*
Y-171269D01*
Y-171555D01*
X808634D01*
Y-171841D01*
Y-172127D01*
Y-172414D01*
Y-172700D01*
Y-172986D01*
Y-173273D01*
X808348D01*
Y-173559D01*
Y-173845D01*
Y-174132D01*
Y-174418D01*
Y-174704D01*
Y-174991D01*
X808062D01*
Y-175277D01*
Y-175563D01*
Y-175850D01*
Y-176136D01*
Y-176422D01*
Y-176709D01*
Y-176995D01*
X807775D01*
Y-177281D01*
Y-177568D01*
Y-177854D01*
Y-178140D01*
Y-178426D01*
Y-178713D01*
X807489D01*
Y-178999D01*
Y-179285D01*
Y-179572D01*
Y-179858D01*
Y-180144D01*
Y-180431D01*
X807203D01*
Y-180717D01*
Y-181003D01*
Y-181290D01*
Y-181576D01*
Y-181862D01*
Y-182149D01*
Y-182435D01*
X806916D01*
Y-182721D01*
Y-183007D01*
Y-183294D01*
Y-183580D01*
Y-183866D01*
Y-184153D01*
X806630D01*
Y-184439D01*
Y-184725D01*
Y-185012D01*
Y-185298D01*
Y-185584D01*
Y-185871D01*
X806344D01*
Y-186157D01*
Y-186443D01*
Y-186730D01*
Y-187016D01*
Y-187302D01*
Y-187588D01*
X806057D01*
Y-187875D01*
Y-188161D01*
Y-188447D01*
Y-188734D01*
Y-189020D01*
Y-189306D01*
Y-189593D01*
X805771D01*
Y-189879D01*
Y-190165D01*
Y-190452D01*
Y-190738D01*
Y-191024D01*
Y-191311D01*
X805485D01*
Y-191597D01*
Y-191883D01*
X792314D01*
Y-191597D01*
Y-191311D01*
X792601D01*
Y-191024D01*
Y-190738D01*
Y-190452D01*
Y-190165D01*
Y-189879D01*
Y-189593D01*
X792887D01*
Y-189306D01*
Y-189020D01*
Y-188734D01*
Y-188447D01*
Y-188161D01*
Y-187875D01*
Y-187588D01*
X793173D01*
Y-187302D01*
Y-187016D01*
Y-186730D01*
Y-186443D01*
Y-186157D01*
Y-185871D01*
X793460D01*
Y-185584D01*
Y-185298D01*
Y-185012D01*
Y-184725D01*
Y-184439D01*
Y-184153D01*
X793746D01*
Y-183866D01*
Y-183580D01*
Y-183294D01*
Y-183007D01*
Y-182721D01*
Y-182435D01*
Y-182149D01*
X794032D01*
Y-181862D01*
Y-181576D01*
Y-181290D01*
Y-181003D01*
Y-180717D01*
Y-180431D01*
X794318D01*
Y-180144D01*
Y-179858D01*
Y-179572D01*
Y-179285D01*
Y-178999D01*
Y-178713D01*
Y-178426D01*
X794605D01*
Y-178140D01*
Y-177854D01*
Y-177568D01*
Y-177281D01*
Y-176995D01*
Y-176709D01*
X794891D01*
Y-176422D01*
Y-176136D01*
Y-175850D01*
Y-175563D01*
Y-175277D01*
Y-174991D01*
X795177D01*
Y-174704D01*
Y-174418D01*
Y-174132D01*
Y-173845D01*
Y-173559D01*
Y-173273D01*
X795464D01*
Y-172986D01*
Y-172700D01*
Y-172414D01*
Y-172127D01*
Y-171841D01*
Y-171555D01*
Y-171269D01*
X795750D01*
Y-170982D01*
Y-170696D01*
Y-170410D01*
Y-170123D01*
Y-169837D01*
Y-169551D01*
X796036D01*
Y-169264D01*
Y-168978D01*
Y-168692D01*
Y-168405D01*
Y-168119D01*
Y-167833D01*
Y-167547D01*
X796323D01*
Y-167260D01*
Y-166974D01*
Y-166688D01*
Y-166401D01*
Y-166115D01*
Y-165829D01*
X796036D01*
Y-165542D01*
Y-165256D01*
X795750D01*
Y-164970D01*
X795464D01*
Y-164683D01*
X794891D01*
Y-164397D01*
X793173D01*
Y-164683D01*
X791742D01*
Y-164970D01*
X790883D01*
Y-165256D01*
X790310D01*
Y-165542D01*
X790024D01*
Y-165829D01*
X789451D01*
Y-166115D01*
X789165D01*
Y-166401D01*
X788878D01*
Y-166688D01*
Y-166974D01*
X788592D01*
Y-167260D01*
Y-167547D01*
Y-167833D01*
X788306D01*
Y-168119D01*
Y-168405D01*
Y-168692D01*
Y-168978D01*
Y-169264D01*
Y-169551D01*
X788020D01*
Y-169837D01*
Y-170123D01*
Y-170410D01*
Y-170696D01*
Y-170982D01*
Y-171269D01*
Y-171555D01*
X787733D01*
Y-171841D01*
Y-172127D01*
Y-172414D01*
Y-172700D01*
Y-172986D01*
Y-173273D01*
X787447D01*
Y-173559D01*
Y-173845D01*
Y-174132D01*
Y-174418D01*
Y-174704D01*
Y-174991D01*
X787161D01*
Y-175277D01*
Y-175563D01*
Y-175850D01*
Y-176136D01*
Y-176422D01*
Y-176709D01*
X786874D01*
Y-176995D01*
Y-177281D01*
Y-177568D01*
Y-177854D01*
Y-178140D01*
Y-178426D01*
Y-178713D01*
X786588D01*
Y-178999D01*
Y-179285D01*
Y-179572D01*
Y-179858D01*
Y-180144D01*
Y-180431D01*
X786302D01*
Y-180717D01*
Y-181003D01*
Y-181290D01*
Y-181576D01*
Y-181862D01*
Y-182149D01*
X786015D01*
Y-182435D01*
Y-182721D01*
Y-183007D01*
Y-183294D01*
Y-183580D01*
Y-183866D01*
Y-184153D01*
X785729D01*
Y-184439D01*
Y-184725D01*
Y-185012D01*
Y-185298D01*
Y-185584D01*
Y-185871D01*
X785443D01*
Y-186157D01*
Y-186443D01*
Y-186730D01*
Y-187016D01*
Y-187302D01*
Y-187588D01*
X785156D01*
Y-187875D01*
Y-188161D01*
Y-188447D01*
Y-188734D01*
Y-189020D01*
Y-189306D01*
X784870D01*
Y-189593D01*
Y-189879D01*
Y-190165D01*
Y-190452D01*
Y-190738D01*
Y-191024D01*
Y-191311D01*
X784584D01*
Y-191597D01*
Y-191883D01*
X771414D01*
Y-191597D01*
Y-191311D01*
X771700D01*
Y-191024D01*
Y-190738D01*
Y-190452D01*
Y-190165D01*
Y-189879D01*
Y-189593D01*
Y-189306D01*
X771986D01*
Y-189020D01*
Y-188734D01*
Y-188447D01*
Y-188161D01*
Y-187875D01*
Y-187588D01*
X772272D01*
Y-187302D01*
Y-187016D01*
Y-186730D01*
Y-186443D01*
Y-186157D01*
Y-185871D01*
X772559D01*
Y-185584D01*
Y-185298D01*
Y-185012D01*
Y-184725D01*
Y-184439D01*
Y-184153D01*
Y-183866D01*
X772845D01*
Y-183580D01*
Y-183294D01*
Y-183007D01*
Y-182721D01*
Y-182435D01*
Y-182149D01*
X773131D01*
Y-181862D01*
Y-181576D01*
Y-181290D01*
Y-181003D01*
Y-180717D01*
Y-180431D01*
X773418D01*
Y-180144D01*
Y-179858D01*
Y-179572D01*
Y-179285D01*
Y-178999D01*
Y-178713D01*
X773704D01*
Y-178426D01*
Y-178140D01*
Y-177854D01*
Y-177568D01*
Y-177281D01*
Y-176995D01*
Y-176709D01*
X773990D01*
Y-176422D01*
Y-176136D01*
Y-175850D01*
Y-175563D01*
Y-175277D01*
Y-174991D01*
X774277D01*
Y-174704D01*
Y-174418D01*
Y-174132D01*
Y-173845D01*
Y-173559D01*
Y-173273D01*
X774563D01*
Y-172986D01*
Y-172700D01*
Y-172414D01*
Y-172127D01*
Y-171841D01*
Y-171555D01*
Y-171269D01*
X774849D01*
Y-170982D01*
Y-170696D01*
Y-170410D01*
Y-170123D01*
Y-169837D01*
Y-169551D01*
X775136D01*
Y-169264D01*
Y-168978D01*
Y-168692D01*
Y-168405D01*
Y-168119D01*
Y-167833D01*
X775422D01*
Y-167547D01*
Y-167260D01*
Y-166974D01*
Y-166688D01*
Y-166401D01*
Y-166115D01*
X775708D01*
Y-165829D01*
Y-165542D01*
Y-165256D01*
Y-164970D01*
Y-164683D01*
Y-164397D01*
Y-164111D01*
X775994D01*
Y-163824D01*
Y-163538D01*
Y-163252D01*
Y-162966D01*
Y-162679D01*
Y-162393D01*
X776281D01*
Y-162107D01*
Y-161820D01*
Y-161534D01*
Y-161248D01*
Y-160961D01*
Y-160675D01*
X776567D01*
Y-160389D01*
Y-160102D01*
Y-159816D01*
Y-159530D01*
Y-159244D01*
Y-158957D01*
X776853D01*
Y-158671D01*
Y-158385D01*
Y-158098D01*
Y-157812D01*
Y-157526D01*
Y-157239D01*
Y-156953D01*
X777140D01*
Y-156667D01*
Y-156380D01*
Y-156094D01*
Y-155808D01*
Y-155521D01*
Y-155235D01*
X777426D01*
Y-154949D01*
Y-154663D01*
Y-154376D01*
Y-154090D01*
Y-153804D01*
Y-153517D01*
X777712D01*
Y-153231D01*
Y-152945D01*
Y-152658D01*
Y-152372D01*
Y-152086D01*
Y-151799D01*
Y-151513D01*
X777999D01*
Y-151227D01*
Y-150940D01*
Y-150654D01*
Y-150368D01*
Y-150082D01*
Y-149795D01*
X778285D01*
Y-149509D01*
Y-149223D01*
Y-148936D01*
Y-148650D01*
Y-148364D01*
Y-148077D01*
X778571D01*
Y-147791D01*
Y-147505D01*
Y-147218D01*
Y-146932D01*
Y-146646D01*
Y-146359D01*
X778858D01*
Y-146073D01*
Y-145787D01*
Y-145501D01*
Y-145214D01*
Y-144928D01*
Y-144641D01*
Y-144355D01*
X779144D01*
Y-144069D01*
Y-143783D01*
Y-143496D01*
Y-143210D01*
Y-142924D01*
Y-142637D01*
X779430D01*
Y-142351D01*
Y-142065D01*
Y-141778D01*
Y-141492D01*
Y-141206D01*
Y-140919D01*
X779716D01*
Y-140633D01*
Y-140347D01*
Y-140060D01*
Y-139774D01*
Y-139488D01*
Y-139202D01*
Y-138915D01*
X780003D01*
Y-138629D01*
Y-138343D01*
Y-138056D01*
X793173D01*
Y-138343D01*
D02*
G37*
%LPC*%
G36*
X757670Y-152658D02*
X749654D01*
Y-152945D01*
Y-153231D01*
Y-153517D01*
Y-153804D01*
Y-154090D01*
X749367D01*
Y-154376D01*
Y-154663D01*
Y-154949D01*
Y-155235D01*
Y-155521D01*
Y-155808D01*
X749081D01*
Y-156094D01*
Y-156380D01*
Y-156667D01*
Y-156953D01*
Y-157239D01*
Y-157526D01*
X748795D01*
Y-157812D01*
Y-158098D01*
Y-158385D01*
Y-158671D01*
Y-158957D01*
Y-159244D01*
X748508D01*
Y-159530D01*
Y-159816D01*
Y-160102D01*
Y-160389D01*
Y-160675D01*
Y-160961D01*
Y-161248D01*
X748222D01*
Y-161534D01*
Y-161820D01*
Y-162107D01*
Y-162393D01*
Y-162679D01*
Y-162966D01*
X747936D01*
Y-163252D01*
Y-163538D01*
Y-163824D01*
X755094D01*
Y-163538D01*
X756239D01*
Y-163252D01*
X756812D01*
Y-162966D01*
X757098D01*
Y-162679D01*
X757384D01*
Y-162393D01*
X757670D01*
Y-162107D01*
X757957D01*
Y-161820D01*
Y-161534D01*
X758243D01*
Y-161248D01*
Y-160961D01*
X758529D01*
Y-160675D01*
Y-160389D01*
X758816D01*
Y-160102D01*
Y-159816D01*
Y-159530D01*
Y-159244D01*
X759102D01*
Y-158957D01*
Y-158671D01*
Y-158385D01*
Y-158098D01*
Y-157812D01*
X759388D01*
Y-157526D01*
Y-157239D01*
Y-156953D01*
Y-156667D01*
Y-156380D01*
Y-156094D01*
Y-155808D01*
Y-155521D01*
Y-155235D01*
Y-154949D01*
Y-154663D01*
X759102D01*
Y-154376D01*
Y-154090D01*
X758816D01*
Y-153804D01*
Y-153517D01*
X758529D01*
Y-153231D01*
X758243D01*
Y-152945D01*
X757670D01*
Y-152658D01*
D02*
G37*
%LPD*%
D10*
X1068511Y-229571D02*
Y-190201D01*
X911031Y-150831D02*
X1186622D01*
X911031Y-190201D02*
X1186622D01*
X714181Y-229571D02*
X1186622D01*
X714181Y-111461D02*
X1186622D01*
X714181Y-268941D02*
Y-111461D01*
X911031Y-268941D02*
Y-111461D01*
X-466922Y900350D02*
X1186622D01*
Y-268941D02*
Y900350D01*
X-466922Y-268941D02*
Y900350D01*
Y-268941D02*
X1186622D01*
X920874Y-261067D02*
Y-255164D01*
X923825D01*
X924809Y-256147D01*
Y-258115D01*
X923825Y-259099D01*
X920874D01*
X926777Y-255164D02*
X928745D01*
X927761D01*
Y-261067D01*
X926777D01*
X928745D01*
X931697D02*
Y-257131D01*
X933665Y-255164D01*
X935633Y-257131D01*
Y-261067D01*
Y-258115D01*
X931697D01*
X937601Y-261067D02*
Y-255164D01*
X941536Y-261067D01*
Y-255164D01*
X946456D02*
X944488D01*
X943504Y-256147D01*
Y-260083D01*
X944488Y-261067D01*
X946456D01*
X947440Y-260083D01*
Y-256147D01*
X946456Y-255164D01*
X949408Y-262051D02*
X953343D01*
X959247Y-255164D02*
X955311D01*
Y-261067D01*
X959247D01*
X955311Y-258115D02*
X957279D01*
X961215Y-255164D02*
Y-261067D01*
X965151D01*
X967119Y-255164D02*
X969086D01*
X968102D01*
Y-261067D01*
X967119D01*
X969086D01*
X975974Y-256147D02*
X974990Y-255164D01*
X973022D01*
X972038Y-256147D01*
Y-257131D01*
X973022Y-258115D01*
X974990D01*
X975974Y-259099D01*
Y-260083D01*
X974990Y-261067D01*
X973022D01*
X972038Y-260083D01*
X981878Y-255164D02*
X977942D01*
Y-261067D01*
X981878D01*
X977942Y-258115D02*
X979910D01*
X983845Y-262051D02*
X987781D01*
X989749Y-256147D02*
X990733Y-255164D01*
X992701D01*
X993685Y-256147D01*
Y-260083D01*
X992701Y-261067D01*
X990733D01*
X989749Y-260083D01*
Y-256147D01*
X995653Y-261067D02*
X997620D01*
X996637D01*
Y-255164D01*
X995653Y-256147D01*
X1000572Y-261067D02*
Y-260083D01*
X1001556D01*
Y-261067D01*
X1000572D01*
X1005492D02*
Y-255164D01*
X1008444D01*
X1009428Y-256147D01*
Y-258115D01*
X1008444Y-259099D01*
X1005492D01*
X1015331Y-257131D02*
X1012379D01*
X1011396Y-258115D01*
Y-260083D01*
X1012379Y-261067D01*
X1015331D01*
X1017299Y-255164D02*
Y-261067D01*
X1020251D01*
X1021235Y-260083D01*
Y-259099D01*
Y-258115D01*
X1020251Y-257131D01*
X1017299D01*
X1023203Y-255164D02*
Y-261067D01*
X1026155D01*
X1027139Y-260083D01*
Y-256147D01*
X1026155Y-255164D01*
X1023203D01*
X1030090Y-261067D02*
X1032058D01*
X1033042Y-260083D01*
Y-258115D01*
X1032058Y-257131D01*
X1030090D01*
X1029106Y-258115D01*
Y-260083D01*
X1030090Y-261067D01*
X1038946Y-257131D02*
X1035994D01*
X1035010Y-258115D01*
Y-260083D01*
X1035994Y-261067D01*
X1038946D01*
D11*
X21654Y196850D02*
G03*
X-0Y175197I0J-21654D01*
G01*
X417323D02*
G03*
X395669Y196850I-21654J0D01*
G01*
X0Y0D02*
Y175197D01*
X21654Y196850D02*
X395669D01*
X417323Y175197D02*
X417323Y0D01*
X0D02*
X417323D01*
D15*
X932685Y-168552D02*
Y-182327D01*
X939572D01*
X941868Y-180031D01*
Y-177735D01*
X939572Y-175439D01*
X932685D01*
X939572D01*
X941868Y-173144D01*
Y-170848D01*
X939572Y-168552D01*
X932685D01*
X948756Y-182327D02*
X953347D01*
X955643Y-180031D01*
Y-175439D01*
X953347Y-173144D01*
X948756D01*
X946460Y-175439D01*
Y-180031D01*
X948756Y-182327D01*
X962531Y-170848D02*
Y-173144D01*
X960235D01*
X964827D01*
X962531D01*
Y-180031D01*
X964827Y-182327D01*
X974010Y-170848D02*
Y-173144D01*
X971714D01*
X976306D01*
X974010D01*
Y-180031D01*
X976306Y-182327D01*
X985489D02*
X990081D01*
X992377Y-180031D01*
Y-175439D01*
X990081Y-173144D01*
X985489D01*
X983193Y-175439D01*
Y-180031D01*
X985489Y-182327D01*
X996968D02*
Y-173144D01*
X999264D01*
X1001560Y-175439D01*
Y-182327D01*
Y-175439D01*
X1003856Y-173144D01*
X1006152Y-175439D01*
Y-182327D01*
X1033702Y-170848D02*
X1031406Y-168552D01*
X1026814D01*
X1024519Y-170848D01*
Y-173144D01*
X1026814Y-175439D01*
X1031406D01*
X1033702Y-177735D01*
Y-180031D01*
X1031406Y-182327D01*
X1026814D01*
X1024519Y-180031D01*
X1040590Y-182327D02*
X1045181D01*
X1047477Y-180031D01*
Y-175439D01*
X1045181Y-173144D01*
X1040590D01*
X1038294Y-175439D01*
Y-180031D01*
X1040590Y-182327D01*
X1052069D02*
X1056660D01*
X1054365D01*
Y-168552D01*
X1052069D01*
X1072731D02*
Y-182327D01*
X1065844D01*
X1063548Y-180031D01*
Y-175439D01*
X1065844Y-173144D01*
X1072731D01*
X1084211Y-182327D02*
X1079619D01*
X1077323Y-180031D01*
Y-175439D01*
X1079619Y-173144D01*
X1084211D01*
X1086506Y-175439D01*
Y-177735D01*
X1077323D01*
X1091098Y-173144D02*
Y-182327D01*
Y-177735D01*
X1093394Y-175439D01*
X1095690Y-173144D01*
X1097986D01*
X735834Y-247293D02*
Y-263036D01*
X741082Y-257788D01*
X746330Y-263036D01*
Y-247293D01*
X751577Y-263036D02*
X756825D01*
X754201D01*
Y-252540D01*
X751577D01*
X764696Y-263036D02*
Y-252540D01*
X767320D01*
X769944Y-255164D01*
Y-263036D01*
Y-255164D01*
X772568Y-252540D01*
X775192Y-255164D01*
Y-263036D01*
X780439Y-247293D02*
Y-257788D01*
X785687Y-263036D01*
X790935Y-257788D01*
Y-247293D01*
X806678Y-249917D02*
X804054Y-247293D01*
X798806D01*
X796182Y-249917D01*
Y-260412D01*
X798806Y-263036D01*
X804054D01*
X806678Y-260412D01*
Y-255164D01*
X801430D01*
X1090165Y-210546D02*
X1092789Y-207923D01*
X1098036D01*
X1100660Y-210546D01*
Y-221042D01*
X1098036Y-223665D01*
X1092789D01*
X1090165Y-221042D01*
Y-210546D01*
X1105908Y-223665D02*
X1111156D01*
X1108532D01*
Y-207923D01*
X1105908Y-210546D01*
X926779Y-212186D02*
X929075Y-209890D01*
X933667D01*
X935963Y-212186D01*
Y-214482D01*
X933667Y-216778D01*
X931371D01*
X933667D01*
X935963Y-219074D01*
Y-221370D01*
X933667Y-223665D01*
X929075D01*
X926779Y-221370D01*
X940554Y-212186D02*
X942850Y-209890D01*
X947442D01*
X949738Y-212186D01*
Y-221370D01*
X947442Y-223665D01*
X942850D01*
X940554Y-221370D01*
Y-212186D01*
X954329Y-223665D02*
X963513Y-214482D01*
X968104Y-223665D02*
X972696D01*
X970400D01*
Y-209890D01*
X968104Y-212186D01*
X979584D02*
X981880Y-209890D01*
X986471D01*
X988767Y-212186D01*
Y-221370D01*
X986471Y-223665D01*
X981880D01*
X979584Y-221370D01*
Y-212186D01*
X993359Y-223665D02*
X1002542Y-214482D01*
X1016317Y-223665D02*
X1007134D01*
X1016317Y-214482D01*
Y-212186D01*
X1014021Y-209890D01*
X1009430D01*
X1007134Y-212186D01*
X1020909D02*
X1023205Y-209890D01*
X1027796D01*
X1030092Y-212186D01*
Y-221370D01*
X1027796Y-223665D01*
X1023205D01*
X1020909Y-221370D01*
Y-212186D01*
X1043867Y-223665D02*
X1034684D01*
X1043867Y-214482D01*
Y-212186D01*
X1041572Y-209890D01*
X1036980D01*
X1034684Y-212186D01*
X1057642Y-223665D02*
X1048459D01*
X1057642Y-214482D01*
Y-212186D01*
X1055347Y-209890D01*
X1050755D01*
X1048459Y-212186D01*
X920874Y-144925D02*
Y-132331D01*
X927171D01*
X929270Y-134430D01*
Y-138628D01*
X927171Y-140727D01*
X920874D01*
X933468Y-144925D02*
X937666D01*
X935567D01*
Y-136529D01*
X933468D01*
X946062D02*
X950261D01*
X952360Y-138628D01*
Y-144925D01*
X946062D01*
X943963Y-142826D01*
X946062Y-140727D01*
X952360D01*
X956558Y-144925D02*
Y-136529D01*
X962855D01*
X964954Y-138628D01*
Y-144925D01*
X971251D02*
X975449D01*
X977548Y-142826D01*
Y-138628D01*
X975449Y-136529D01*
X971251D01*
X969152Y-138628D01*
Y-142826D01*
X971251Y-144925D01*
X1002737Y-132331D02*
X994341D01*
Y-144925D01*
X1002737D01*
X994341Y-138628D02*
X998539D01*
X1006935Y-144925D02*
X1011133D01*
X1009034D01*
Y-132331D01*
X1006935D01*
X1017430Y-144925D02*
X1021629D01*
X1019530D01*
Y-136529D01*
X1017430D01*
X1027926Y-144925D02*
X1034223D01*
X1036322Y-142826D01*
X1034223Y-140727D01*
X1030025D01*
X1027926Y-138628D01*
X1030025Y-136529D01*
X1036322D01*
X1046817Y-144925D02*
X1042619D01*
X1040520Y-142826D01*
Y-138628D01*
X1042619Y-136529D01*
X1046817D01*
X1048916Y-138628D01*
Y-140727D01*
X1040520D01*
D19*
X1072449Y-202012D02*
Y-194141D01*
X1076384D01*
X1077696Y-195452D01*
Y-198076D01*
X1076384Y-199388D01*
X1072449D01*
X1075072D02*
X1077696Y-202012D01*
X1084256D02*
X1081632D01*
X1080320Y-200700D01*
Y-198076D01*
X1081632Y-196764D01*
X1084256D01*
X1085568Y-198076D01*
Y-199388D01*
X1080320D01*
X1088192Y-196764D02*
X1090815Y-202012D01*
X1093439Y-196764D01*
X718118Y-233511D02*
Y-241382D01*
X722053D01*
X723365Y-240070D01*
Y-234823D01*
X722053Y-233511D01*
X718118D01*
X729925Y-241382D02*
X727301D01*
X725989Y-240070D01*
Y-237446D01*
X727301Y-236134D01*
X729925D01*
X731237Y-237446D01*
Y-238758D01*
X725989D01*
X733861Y-241382D02*
X737796D01*
X739108Y-240070D01*
X737796Y-238758D01*
X735173D01*
X733861Y-237446D01*
X735173Y-236134D01*
X739108D01*
X744356Y-244006D02*
X745668D01*
X746980Y-242694D01*
Y-236134D01*
X743044D01*
X741732Y-237446D01*
Y-240070D01*
X743044Y-241382D01*
X746980D01*
X749604D02*
X752227D01*
X750916D01*
Y-236134D01*
X749604D01*
X756163Y-241382D02*
Y-236134D01*
X760099D01*
X761411Y-237446D01*
Y-241382D01*
X767971D02*
X765347D01*
X764035Y-240070D01*
Y-237446D01*
X765347Y-236134D01*
X767971D01*
X769282Y-237446D01*
Y-238758D01*
X764035D01*
X771906Y-236134D02*
Y-241382D01*
Y-238758D01*
X773218Y-237446D01*
X774530Y-236134D01*
X775842D01*
X914968Y-115400D02*
Y-123272D01*
X918904D01*
X920216Y-121960D01*
Y-116712D01*
X918904Y-115400D01*
X914968D01*
X924152Y-123272D02*
X926775D01*
X928087Y-121960D01*
Y-119336D01*
X926775Y-118024D01*
X924152D01*
X922840Y-119336D01*
Y-121960D01*
X924152Y-123272D01*
X935959Y-118024D02*
X932023D01*
X930711Y-119336D01*
Y-121960D01*
X932023Y-123272D01*
X935959D01*
X938583Y-118024D02*
Y-121960D01*
X939894Y-123272D01*
X943830D01*
Y-118024D01*
X946454Y-123272D02*
Y-118024D01*
X947766D01*
X949078Y-119336D01*
Y-123272D01*
Y-119336D01*
X950390Y-118024D01*
X951702Y-119336D01*
Y-123272D01*
X958261D02*
X955637D01*
X954326Y-121960D01*
Y-119336D01*
X955637Y-118024D01*
X958261D01*
X959573Y-119336D01*
Y-120648D01*
X954326D01*
X962197Y-123272D02*
Y-118024D01*
X966133D01*
X967445Y-119336D01*
Y-123272D01*
X971381Y-116712D02*
Y-118024D01*
X970068D01*
X972692D01*
X971381D01*
Y-121960D01*
X972692Y-123272D01*
X914968Y-154770D02*
Y-162642D01*
X920216D01*
X924152Y-157394D02*
X926775D01*
X928087Y-158706D01*
Y-162642D01*
X924152D01*
X922840Y-161330D01*
X924152Y-160018D01*
X928087D01*
X930711Y-157394D02*
Y-161330D01*
X932023Y-162642D01*
X935959D01*
Y-163954D01*
X934647Y-165266D01*
X933335D01*
X935959Y-162642D02*
Y-157394D01*
X942518Y-162642D02*
X939894D01*
X938583Y-161330D01*
Y-158706D01*
X939894Y-157394D01*
X942518D01*
X943830Y-158706D01*
Y-160018D01*
X938583D01*
X946454Y-157394D02*
Y-162642D01*
Y-160018D01*
X947766Y-158706D01*
X949078Y-157394D01*
X950390D01*
X962197Y-162642D02*
Y-154770D01*
X967445Y-162642D01*
Y-154770D01*
X971381Y-157394D02*
X974004D01*
X975316Y-158706D01*
Y-162642D01*
X971381D01*
X970068Y-161330D01*
X971381Y-160018D01*
X975316D01*
X977940Y-162642D02*
Y-157394D01*
X979252D01*
X980564Y-158706D01*
Y-162642D01*
Y-158706D01*
X981876Y-157394D01*
X983188Y-158706D01*
Y-162642D01*
X989747D02*
X987123D01*
X985812Y-161330D01*
Y-158706D01*
X987123Y-157394D01*
X989747D01*
X991059Y-158706D01*
Y-160018D01*
X985812D01*
X914968Y-194141D02*
Y-202012D01*
X918904D01*
X920216Y-200700D01*
Y-195452D01*
X918904Y-194141D01*
X914968D01*
X924152Y-196764D02*
X926775D01*
X928087Y-198076D01*
Y-202012D01*
X924152D01*
X922840Y-200700D01*
X924152Y-199388D01*
X928087D01*
X932023Y-195452D02*
Y-196764D01*
X930711D01*
X933335D01*
X932023D01*
Y-200700D01*
X933335Y-202012D01*
X941206D02*
X938583D01*
X937271Y-200700D01*
Y-198076D01*
X938583Y-196764D01*
X941206D01*
X942518Y-198076D01*
Y-199388D01*
X937271D01*
X914968Y-233511D02*
Y-241382D01*
X918904D01*
X920216Y-240070D01*
Y-234823D01*
X918904Y-233511D01*
X914968D01*
X924152Y-241382D02*
X926775D01*
X928087Y-240070D01*
Y-237446D01*
X926775Y-236134D01*
X924152D01*
X922840Y-237446D01*
Y-240070D01*
X924152Y-241382D01*
X935959Y-236134D02*
X932023D01*
X930711Y-237446D01*
Y-240070D01*
X932023Y-241382D01*
X935959D01*
X938583Y-236134D02*
Y-240070D01*
X939894Y-241382D01*
X943830D01*
Y-236134D01*
X946454Y-241382D02*
Y-236134D01*
X947766D01*
X949078Y-237446D01*
Y-241382D01*
Y-237446D01*
X950390Y-236134D01*
X951702Y-237446D01*
Y-241382D01*
X958261D02*
X955637D01*
X954326Y-240070D01*
Y-237446D01*
X955637Y-236134D01*
X958261D01*
X959573Y-237446D01*
Y-238758D01*
X954326D01*
X962197Y-241382D02*
Y-236134D01*
X966133D01*
X967445Y-237446D01*
Y-241382D01*
X971381Y-234823D02*
Y-236134D01*
X970068D01*
X972692D01*
X971381D01*
Y-240070D01*
X972692Y-241382D01*
D26*
X237598Y165354D02*
D03*
X61614D02*
D03*
Y110236D02*
D03*
X237598D02*
D03*
D27*
X401575Y181102D02*
D03*
X15748D02*
D03*
D28*
X358169Y157795D02*
D03*
Y137795D02*
D03*
Y117795D02*
D03*
X346457Y157795D02*
D03*
Y137795D02*
D03*
Y117795D02*
D03*
D29*
X314961Y114173D02*
D03*
D30*
Y108268D02*
D03*
D31*
X169291Y145669D02*
D03*
X90551D02*
D03*
D32*
X275590Y109173D02*
D03*
Y119173D02*
D03*
D33*
Y114173D02*
D03*
D34*
X287402Y104173D02*
D03*
Y114173D02*
D03*
Y124173D02*
D03*
D35*
X276378Y163386D02*
D03*
D36*
X306299D02*
D03*
M02*
