G04*
G04 #@! TF.GenerationSoftware,Altium Limited,Altium Designer,22.10.1 (41)*
G04*
G04 Layer_Physical_Order=2*
G04 Layer_Color=3381759*
%FSLAX25Y25*%
%MOIN*%
G70*
G04*
G04 #@! TF.SameCoordinates,8BAF8B8E-E321-4B2E-8998-6E6DE7EF2018*
G04*
G04*
G04 #@! TF.FilePolarity,Positive*
G04*
G01*
G75*
%ADD10C,0.00787*%
%ADD11C,0.00591*%
%ADD14C,0.01000*%
%ADD15C,0.01575*%
%ADD19C,0.00984*%
%ADD39C,0.07874*%
%ADD40C,0.12598*%
%ADD41C,0.07087*%
%ADD42R,0.03937X0.03937*%
G04:AMPARAMS|DCode=43|XSize=39.37mil|YSize=39.37mil|CornerRadius=9.84mil|HoleSize=0mil|Usage=FLASHONLY|Rotation=270.000|XOffset=0mil|YOffset=0mil|HoleType=Round|Shape=RoundedRectangle|*
%AMROUNDEDRECTD43*
21,1,0.03937,0.01968,0,0,270.0*
21,1,0.01968,0.03937,0,0,270.0*
1,1,0.01968,-0.00984,-0.00984*
1,1,0.01968,-0.00984,0.00984*
1,1,0.01968,0.00984,0.00984*
1,1,0.01968,0.00984,-0.00984*
%
%ADD43ROUNDEDRECTD43*%
%ADD44C,0.06299*%
%ADD45O,0.07874X0.03937*%
%ADD46O,0.07874X0.03937*%
%ADD47O,0.07874X0.05512*%
%ADD48C,0.05906*%
%ADD49R,0.05906X0.05906*%
G36*
X73212Y164356D02*
X73286Y164343D01*
X73358Y164324D01*
X73428Y164298D01*
X73496Y164267D01*
X73561Y164229D01*
X73622Y164187D01*
X73679Y164138D01*
X73732Y164086D01*
X73780Y164028D01*
X73823Y163967D01*
X73860Y163902D01*
X73892Y163835D01*
X73917Y163765D01*
X73936Y163692D01*
X73949Y163619D01*
X73956Y163544D01*
Y163507D01*
X73956Y155378D01*
X73956Y155378D01*
X73981Y155374D01*
X74031Y155367D01*
X74082Y155359D01*
X74132Y155351D01*
X74157Y155346D01*
X74856Y157945D01*
X74856D01*
X74863Y157973D01*
X74884Y158027D01*
X74911Y158078D01*
X74944Y158125D01*
X74982Y158169D01*
X75024Y158208D01*
X75070Y158242D01*
X75120Y158271D01*
X75173Y158294D01*
X75228Y158311D01*
X75285Y158322D01*
X75343Y158326D01*
X75400Y158324D01*
X75457Y158315D01*
X75513Y158300D01*
X75567Y158279D01*
X75618Y158252D01*
X75665Y158220D01*
X75709Y158182D01*
X75748Y158139D01*
X75783Y158093D01*
X75811Y158043D01*
X75834Y157990D01*
X75851Y157935D01*
X75862Y157878D01*
X75866Y157821D01*
X75864Y157763D01*
X75855Y157706D01*
X75848Y157678D01*
X75150Y155084D01*
X75150Y155084D01*
X75195Y155068D01*
X75285Y155034D01*
X75375Y154998D01*
X75463Y154961D01*
X75508Y154942D01*
X77910Y159108D01*
X77910Y159108D01*
X77927Y159137D01*
X77966Y159191D01*
X78010Y159242D01*
X78059Y159288D01*
X78113Y159329D01*
X78170Y159364D01*
X78230Y159394D01*
X78293Y159418D01*
X78358Y159435D01*
X78424Y159447D01*
X78491Y159451D01*
X78559Y159449D01*
X78625Y159440D01*
X78691Y159425D01*
X78755Y159403D01*
X78816Y159375D01*
X78874Y159342D01*
X78929Y159303D01*
X78979Y159258D01*
X79025Y159209D01*
X79066Y159156D01*
X79102Y159099D01*
X79132Y159038D01*
X79155Y158976D01*
X79173Y158911D01*
X79184Y158844D01*
X79188Y158777D01*
X79186Y158710D01*
X79177Y158643D01*
X79162Y158578D01*
X79140Y158514D01*
X79113Y158453D01*
X79096Y158423D01*
X76693Y154258D01*
X76693D01*
X76731Y154230D01*
X76804Y154174D01*
X76877Y154116D01*
X76948Y154058D01*
X76984Y154028D01*
X78877Y155917D01*
X78877D01*
X78897Y155938D01*
X78942Y155974D01*
X78991Y156004D01*
X79043Y156029D01*
X79097Y156048D01*
X79154Y156061D01*
X79211Y156067D01*
X79269Y156067D01*
X79326Y156061D01*
X79382Y156048D01*
X79437Y156029D01*
X79489Y156004D01*
X79538Y155973D01*
X79583Y155937D01*
X79624Y155896D01*
X79659Y155851D01*
X79690Y155802D01*
X79715Y155750D01*
X79734Y155696D01*
X79747Y155639D01*
X79753Y155582D01*
X79753Y155524D01*
X79747Y155467D01*
X79734Y155411D01*
X79715Y155356D01*
X79690Y155304D01*
X79659Y155255D01*
X79623Y155210D01*
X79602Y155190D01*
X77710Y153301D01*
X77710D01*
X77725Y153282D01*
X77757Y153244D01*
X77788Y153206D01*
X77819Y153167D01*
X77834Y153147D01*
X84850Y157204D01*
X84850Y157204D01*
X84883Y157223D01*
X84950Y157255D01*
X85020Y157280D01*
X85093Y157299D01*
X85166Y157313D01*
X85241Y157319D01*
X85315Y157319D01*
X85390Y157313D01*
X85463Y157300D01*
X85535Y157280D01*
X85606Y157255D01*
X85673Y157223D01*
X85738Y157186D01*
X85799Y157143D01*
X85856Y157095D01*
X85909Y157043D01*
X85957Y156985D01*
X86000Y156924D01*
X86038Y156860D01*
X86069Y156792D01*
X86095Y156722D01*
X86114Y156649D01*
X86127Y156576D01*
X86134Y156501D01*
X86134Y156427D01*
X86128Y156352D01*
X86115Y156279D01*
X86095Y156207D01*
X86070Y156137D01*
X86038Y156069D01*
X86001Y156004D01*
X85958Y155943D01*
X85910Y155886D01*
X85857Y155833D01*
X85800Y155785D01*
X85739Y155742D01*
X85707Y155723D01*
X78687Y151664D01*
X78687Y151664D01*
X78697Y151640D01*
X78716Y151591D01*
X78734Y151541D01*
X78752Y151492D01*
X78761Y151467D01*
X81366Y152162D01*
X81366Y152162D01*
X81393Y152170D01*
X81451Y152178D01*
X81508Y152180D01*
X81566Y152176D01*
X81622Y152165D01*
X81678Y152148D01*
X81730Y152125D01*
X81780Y152096D01*
X81827Y152062D01*
X81869Y152023D01*
X81907Y151979D01*
X81939Y151931D01*
X81966Y151880D01*
X81987Y151826D01*
X82002Y151771D01*
X82011Y151714D01*
X82013Y151656D01*
X82008Y151598D01*
X81997Y151542D01*
X81980Y151487D01*
X81957Y151434D01*
X81928Y151384D01*
X81894Y151337D01*
X81855Y151295D01*
X81811Y151258D01*
X81763Y151225D01*
X81712Y151198D01*
X81659Y151177D01*
X81631Y151170D01*
X79022Y150473D01*
Y150473D01*
X79022Y150473D01*
X79022D01*
X79030Y150426D01*
X79045Y150331D01*
X79058Y150236D01*
X79070Y150141D01*
X79075Y150093D01*
X83909Y150096D01*
Y150096D01*
X83943Y150096D01*
X84010Y150089D01*
X84076Y150076D01*
X84140Y150057D01*
X84202Y150031D01*
X84262Y149999D01*
X84317Y149962D01*
X84369Y149919D01*
X84417Y149872D01*
X84460Y149820D01*
X84497Y149764D01*
X84529Y149704D01*
X84555Y149642D01*
X84574Y149578D01*
X84587Y149512D01*
X84594Y149445D01*
X84594Y149378D01*
X84588Y149311D01*
X84574Y149245D01*
X84555Y149180D01*
X84529Y149118D01*
X84497Y149059D01*
X84460Y149003D01*
X84417Y148951D01*
X84370Y148903D01*
X84318Y148861D01*
X84262Y148823D01*
X84203Y148792D01*
X84141Y148766D01*
X84076Y148746D01*
X84010Y148733D01*
X83943Y148726D01*
X83910Y148726D01*
X79064Y148724D01*
Y148724D01*
X79064Y148724D01*
X79064D01*
X79059Y148679D01*
X79046Y148590D01*
X79032Y148501D01*
X79017Y148412D01*
X79009Y148368D01*
X81627Y147663D01*
X81627Y147663D01*
X81655Y147656D01*
X81709Y147635D01*
X81760Y147608D01*
X81808Y147575D01*
X81851Y147538D01*
X81890Y147495D01*
X81925Y147449D01*
X81954Y147399D01*
X81976Y147346D01*
X81994Y147291D01*
X82004Y147234D01*
X82008Y147176D01*
X82006Y147119D01*
X81998Y147062D01*
X81983Y147006D01*
X81961Y146952D01*
X81934Y146901D01*
X81902Y146854D01*
X81864Y146810D01*
X81822Y146771D01*
X81775Y146737D01*
X81725Y146708D01*
X81673Y146685D01*
X81617Y146668D01*
X81561Y146657D01*
X81503Y146653D01*
X81445Y146655D01*
X81388Y146664D01*
X81361Y146671D01*
X78736Y147377D01*
X78726Y147352D01*
X78707Y147302D01*
X78688Y147252D01*
X78668Y147202D01*
X78657Y147177D01*
X85680Y143118D01*
X85680Y143118D01*
X85712Y143099D01*
X85773Y143056D01*
X85830Y143008D01*
X85883Y142956D01*
X85931Y142898D01*
X85974Y142837D01*
X86011Y142772D01*
X86043Y142705D01*
X86068Y142634D01*
X86088Y142562D01*
X86101Y142489D01*
X86107Y142414D01*
X86107Y142340D01*
X86101Y142265D01*
X86088Y142192D01*
X86068Y142120D01*
X86043Y142049D01*
X86011Y141982D01*
X85974Y141917D01*
X85931Y141856D01*
X85883Y141799D01*
X85830Y141746D01*
X85773Y141698D01*
X85711Y141655D01*
X85647Y141618D01*
X85579Y141586D01*
X85509Y141561D01*
X85437Y141541D01*
X85363Y141528D01*
X85289Y141522D01*
X85214Y141522D01*
X85140Y141528D01*
X85066Y141542D01*
X84994Y141561D01*
X84924Y141586D01*
X84856Y141618D01*
X84824Y141637D01*
X77785Y145705D01*
X77771Y145687D01*
X77741Y145651D01*
X77712Y145616D01*
X77682Y145581D01*
X77667Y145563D01*
X79608Y143618D01*
X79608Y143618D01*
X79629Y143598D01*
X79664Y143552D01*
X79695Y143504D01*
X79720Y143452D01*
X79739Y143397D01*
X79752Y143341D01*
X79758Y143283D01*
X79758Y143226D01*
X79752Y143168D01*
X79739Y143112D01*
X79720Y143058D01*
X79695Y143006D01*
X79664Y142957D01*
X79628Y142912D01*
X79587Y142871D01*
X79542Y142835D01*
X79493Y142805D01*
X79441Y142780D01*
X79387Y142761D01*
X79330Y142748D01*
X79273Y142741D01*
X79215Y142741D01*
X79158Y142748D01*
X79102Y142761D01*
X79047Y142780D01*
X78995Y142805D01*
X78947Y142836D01*
X78901Y142872D01*
X78881Y142892D01*
X76933Y144844D01*
X76899Y144816D01*
X76831Y144762D01*
X76762Y144708D01*
X76692Y144655D01*
X76657Y144629D01*
X79104Y140394D01*
X79104D01*
X79121Y140365D01*
X79149Y140304D01*
X79171Y140240D01*
X79186Y140175D01*
X79195Y140108D01*
X79197Y140041D01*
X79193Y139974D01*
X79182Y139907D01*
X79164Y139842D01*
X79141Y139779D01*
X79111Y139719D01*
X79075Y139662D01*
X79034Y139608D01*
X78988Y139559D01*
X78938Y139515D01*
X78883Y139476D01*
X78825Y139442D01*
X78764Y139414D01*
X78700Y139393D01*
X78635Y139377D01*
X78568Y139368D01*
X78501Y139366D01*
X78434Y139371D01*
X78367Y139382D01*
X78302Y139399D01*
X78239Y139423D01*
X78179Y139452D01*
X78122Y139488D01*
X78068Y139529D01*
X78019Y139575D01*
X77975Y139625D01*
X77936Y139680D01*
X77919Y139709D01*
X77919Y139709D01*
X75465Y143954D01*
X75423Y143936D01*
X75337Y143901D01*
X75251Y143868D01*
X75165Y143836D01*
X75121Y143820D01*
X75832Y141155D01*
Y141155D01*
X75840Y141127D01*
X75849Y141070D01*
X75851Y141012D01*
X75846Y140955D01*
X75836Y140898D01*
X75818Y140843D01*
X75795Y140790D01*
X75766Y140740D01*
X75732Y140694D01*
X75693Y140651D01*
X75649Y140614D01*
X75601Y140581D01*
X75550Y140554D01*
X75497Y140533D01*
X75441Y140518D01*
X75384Y140510D01*
X75326Y140508D01*
X75269Y140512D01*
X75212Y140523D01*
X75157Y140540D01*
X75104Y140563D01*
X75054Y140592D01*
X75008Y140626D01*
X74965Y140666D01*
X74928Y140709D01*
X74895Y140757D01*
X74868Y140808D01*
X74847Y140862D01*
X74840Y140890D01*
X74126Y143563D01*
X74126Y143563D01*
X74105Y143559D01*
X74063Y143552D01*
X74020Y143546D01*
X73977Y143540D01*
X73956Y143537D01*
X73956Y94302D01*
X73956D01*
Y94264D01*
X73949Y94190D01*
X73936Y94116D01*
X73917Y94044D01*
X73892Y93974D01*
X73860Y93906D01*
X73823Y93841D01*
X73780Y93780D01*
X73732Y93723D01*
X73679Y93670D01*
X73622Y93622D01*
X73561Y93580D01*
X73496Y93542D01*
X73428Y93511D01*
X73358Y93485D01*
X73286Y93466D01*
X73212Y93453D01*
X73138Y93446D01*
X73063D01*
X72989Y93453D01*
X72915Y93466D01*
X72843Y93485D01*
X72773Y93511D01*
X72705Y93542D01*
X72640Y93580D01*
X72579Y93622D01*
X72522Y93670D01*
X72469Y93723D01*
X72421Y93780D01*
X72378Y93841D01*
X72341Y93906D01*
X72309Y93974D01*
X72284Y94044D01*
X72264Y94116D01*
X72251Y94190D01*
X72245Y94264D01*
Y94302D01*
X72245Y143546D01*
X72245Y143546D01*
X72221Y143549D01*
X72174Y143557D01*
X72126Y143565D01*
X72079Y143573D01*
X72056Y143577D01*
X71334Y140893D01*
Y140893D01*
X71326Y140863D01*
X71303Y140806D01*
X71273Y140752D01*
X71237Y140702D01*
X71195Y140656D01*
X71148Y140616D01*
X71097Y140582D01*
X71042Y140554D01*
X70984Y140533D01*
X70924Y140519D01*
X70863Y140512D01*
X70801Y140513D01*
X70740Y140521D01*
X70680Y140537D01*
X70622Y140559D01*
X70568Y140588D01*
X70517Y140623D01*
X70472Y140665D01*
X70431Y140711D01*
X70396Y140762D01*
X70368Y140817D01*
X70346Y140874D01*
X70331Y140934D01*
X70324Y140996D01*
Y141026D01*
Y141043D01*
X70326Y141077D01*
X70330Y141111D01*
X70337Y141144D01*
X70341Y141160D01*
X71065Y143848D01*
Y143848D01*
X71026Y143863D01*
X70950Y143892D01*
X70873Y143922D01*
X70798Y143954D01*
X70760Y143970D01*
X68300Y139705D01*
X68300Y139705D01*
X68284Y139677D01*
X68247Y139625D01*
X68205Y139576D01*
X68159Y139532D01*
X68109Y139492D01*
X68055Y139456D01*
X67999Y139427D01*
X67940Y139402D01*
X67879Y139383D01*
X67816Y139370D01*
X67752Y139363D01*
X67688Y139362D01*
X67624Y139366D01*
X67561Y139377D01*
X67499Y139394D01*
X67439Y139416D01*
X67381Y139444D01*
X67326Y139477D01*
X67275Y139515D01*
X67227Y139557D01*
X67184Y139604D01*
X67145Y139655D01*
X67110Y139709D01*
X67081Y139767D01*
X67058Y139826D01*
X67040Y139888D01*
X67028Y139951D01*
X67023Y140015D01*
Y140047D01*
Y140069D01*
X67025Y140114D01*
X67031Y140158D01*
X67040Y140202D01*
X67052Y140245D01*
X67066Y140288D01*
X67083Y140329D01*
X67103Y140369D01*
X67114Y140389D01*
X69574Y144654D01*
X69536Y144682D01*
X69462Y144739D01*
X69388Y144797D01*
X69315Y144856D01*
X69279Y144886D01*
X67300Y142911D01*
X67279Y142889D01*
X67231Y142852D01*
X67180Y142821D01*
X67125Y142795D01*
X67067Y142777D01*
X67008Y142765D01*
X66947Y142760D01*
X66887Y142762D01*
X66827Y142772D01*
X66769Y142788D01*
X66713Y142812D01*
X66660Y142841D01*
X66611Y142877D01*
X66566Y142918D01*
X66527Y142964D01*
X66493Y143014D01*
X66466Y143068D01*
X66445Y143125D01*
X66431Y143184D01*
X66424Y143244D01*
Y143274D01*
Y143300D01*
X66429Y143350D01*
X66439Y143400D01*
X66453Y143448D01*
X66473Y143495D01*
X66496Y143539D01*
X66525Y143581D01*
X66557Y143620D01*
X66575Y143638D01*
X68554Y145614D01*
X68554Y145614D01*
X68540Y145630D01*
X68513Y145662D01*
X68487Y145695D01*
X68461Y145727D01*
X68448Y145744D01*
X61339Y141634D01*
X61339Y141634D01*
X61307Y141615D01*
X61239Y141584D01*
X61169Y141558D01*
X61097Y141539D01*
X61023Y141525D01*
X60949Y141519D01*
X60874Y141519D01*
X60799Y141525D01*
X60726Y141538D01*
X60654Y141558D01*
X60584Y141583D01*
X60516Y141615D01*
X60451Y141652D01*
X60390Y141695D01*
X60333Y141743D01*
X60280Y141796D01*
X60232Y141853D01*
X60189Y141914D01*
X60151Y141979D01*
X60120Y142047D01*
X60094Y142117D01*
X60075Y142189D01*
X60062Y142263D01*
X60055Y142337D01*
Y142374D01*
Y142412D01*
X60062Y142486D01*
X60075Y142560D01*
X60094Y142632D01*
X60120Y142702D01*
X60151Y142770D01*
X60189Y142834D01*
X60231Y142895D01*
X60279Y142953D01*
X60332Y143005D01*
X60389Y143053D01*
X60450Y143096D01*
X60483Y143115D01*
X67587Y147223D01*
Y147223D01*
Y147223D01*
D01*
X67578Y147245D01*
X67561Y147290D01*
X67544Y147335D01*
X67527Y147380D01*
X67518Y147402D01*
X64837Y146686D01*
X64837Y146686D01*
X64809Y146679D01*
X64750Y146670D01*
X64692Y146669D01*
X64633Y146673D01*
X64575Y146685D01*
X64519Y146703D01*
X64466Y146727D01*
X64415Y146757D01*
X64368Y146793D01*
X64326Y146834D01*
X64289Y146880D01*
X64257Y146929D01*
X64231Y146982D01*
X64211Y147038D01*
X64198Y147095D01*
X64191Y147153D01*
Y147183D01*
Y147211D01*
X64197Y147267D01*
X64209Y147321D01*
X64227Y147375D01*
X64251Y147426D01*
X64280Y147474D01*
X64314Y147518D01*
X64353Y147559D01*
X64396Y147595D01*
X64443Y147626D01*
X64493Y147652D01*
X64545Y147672D01*
X64572Y147679D01*
X67250Y148394D01*
Y148394D01*
X67250Y148394D01*
X67250Y148394D01*
X67242Y148434D01*
X67229Y148515D01*
X67216Y148597D01*
X67205Y148678D01*
X67200Y148719D01*
X62301Y148716D01*
X62301D01*
X62267Y148716D01*
X62200Y148723D01*
X62134Y148736D01*
X62070Y148756D01*
X62008Y148781D01*
X61948Y148813D01*
X61892Y148850D01*
X61840Y148893D01*
X61793Y148941D01*
X61750Y148993D01*
X61713Y149049D01*
X61681Y149108D01*
X61655Y149170D01*
X61636Y149234D01*
X61623Y149301D01*
X61616Y149367D01*
Y149401D01*
Y149435D01*
X61623Y149502D01*
X61636Y149568D01*
X61655Y149632D01*
X61681Y149694D01*
X61712Y149753D01*
X61750Y149809D01*
X61792Y149861D01*
X61840Y149909D01*
X61892Y149952D01*
X61948Y149989D01*
X62007Y150021D01*
X62069Y150046D01*
X62134Y150066D01*
X62200Y150079D01*
X62266Y150086D01*
X62300Y150086D01*
X67188Y150088D01*
Y150088D01*
X67188Y150088D01*
X67188D01*
X67193Y150136D01*
X67204Y150231D01*
X67217Y150326D01*
X67232Y150421D01*
X67240Y150469D01*
X64575Y151185D01*
X64575Y151185D01*
X64548Y151193D01*
X64496Y151213D01*
X64447Y151239D01*
X64400Y151270D01*
X64357Y151306D01*
X64318Y151347D01*
X64284Y151391D01*
X64255Y151439D01*
X64231Y151490D01*
X64213Y151543D01*
X64201Y151598D01*
X64195Y151654D01*
Y151681D01*
Y151711D01*
X64202Y151769D01*
X64215Y151827D01*
X64235Y151882D01*
X64261Y151935D01*
X64293Y151985D01*
X64331Y152030D01*
X64373Y152071D01*
X64420Y152107D01*
X64470Y152137D01*
X64524Y152162D01*
X64580Y152180D01*
X64638Y152191D01*
X64697Y152196D01*
X64756Y152194D01*
X64814Y152185D01*
X64842Y152178D01*
X67501Y151463D01*
X67507Y151482D01*
X67522Y151521D01*
X67536Y151559D01*
X67550Y151597D01*
X67558Y151617D01*
X60454Y155723D01*
X60421Y155742D01*
X60360Y155784D01*
X60303Y155833D01*
X60250Y155885D01*
X60202Y155943D01*
X60159Y156004D01*
X60122Y156068D01*
X60091Y156136D01*
X60065Y156206D01*
X60046Y156278D01*
X60033Y156352D01*
X60026Y156426D01*
Y156464D01*
Y156501D01*
X60033Y156575D01*
X60046Y156649D01*
X60065Y156721D01*
X60091Y156791D01*
X60122Y156859D01*
X60160Y156924D01*
X60202Y156985D01*
X60251Y157042D01*
X60303Y157095D01*
X60361Y157143D01*
X60422Y157186D01*
X60487Y157223D01*
X60554Y157255D01*
X60624Y157280D01*
X60697Y157300D01*
X60770Y157313D01*
X60845Y157319D01*
X60919Y157319D01*
X60994Y157313D01*
X61067Y157299D01*
X61140Y157280D01*
X61210Y157255D01*
X61278Y157223D01*
X61310Y157204D01*
X68398Y153107D01*
Y153107D01*
X68414Y153128D01*
X68445Y153168D01*
X68477Y153208D01*
X68509Y153247D01*
X68525Y153267D01*
X66602Y155194D01*
X66602Y155194D01*
X66584Y155212D01*
X66552Y155251D01*
X66524Y155293D01*
X66500Y155337D01*
X66481Y155384D01*
X66466Y155432D01*
X66457Y155482D01*
X66452Y155532D01*
Y155557D01*
Y155587D01*
X66459Y155648D01*
X66473Y155707D01*
X66494Y155763D01*
X66522Y155817D01*
X66555Y155868D01*
X66595Y155914D01*
X66639Y155955D01*
X66688Y155991D01*
X66741Y156020D01*
X66797Y156043D01*
X66855Y156060D01*
X66915Y156069D01*
X66976Y156072D01*
X67036Y156067D01*
X67096Y156055D01*
X67153Y156036D01*
X67208Y156011D01*
X67260Y155979D01*
X67308Y155941D01*
X67329Y155920D01*
X69246Y153999D01*
X69246Y153999D01*
X69280Y154029D01*
X69350Y154087D01*
X69421Y154144D01*
X69492Y154199D01*
X69528Y154227D01*
X67106Y158418D01*
Y158418D01*
X67094Y158437D01*
X67075Y158478D01*
X67057Y158519D01*
X67043Y158562D01*
X67031Y158605D01*
X67023Y158649D01*
X67017Y158693D01*
X67014Y158738D01*
Y158760D01*
Y158793D01*
X67020Y158856D01*
X67032Y158919D01*
X67049Y158981D01*
X67073Y159040D01*
X67102Y159098D01*
X67136Y159152D01*
X67175Y159203D01*
X67218Y159250D01*
X67266Y159292D01*
X67318Y159330D01*
X67372Y159363D01*
X67430Y159391D01*
X67490Y159414D01*
X67552Y159430D01*
X67615Y159441D01*
X67679Y159446D01*
X67743Y159444D01*
X67807Y159437D01*
X67869Y159424D01*
X67931Y159405D01*
X67990Y159381D01*
X68046Y159351D01*
X68100Y159316D01*
X68150Y159276D01*
X68196Y159232D01*
X68238Y159183D01*
X68275Y159131D01*
X68291Y159103D01*
X68291D01*
X70708Y154921D01*
X70708Y154921D01*
X70751Y154940D01*
X70837Y154977D01*
X70925Y155013D01*
X71012Y155047D01*
X71056Y155063D01*
X70357Y157683D01*
X70357Y157683D01*
X70353Y157699D01*
X70346Y157732D01*
X70342Y157765D01*
X70339Y157799D01*
Y157816D01*
Y157847D01*
X70347Y157908D01*
X70362Y157968D01*
X70383Y158026D01*
X70412Y158080D01*
X70447Y158131D01*
X70487Y158178D01*
X70533Y158219D01*
X70584Y158254D01*
X70638Y158283D01*
X70696Y158306D01*
X70756Y158321D01*
X70817Y158329D01*
X70879Y158330D01*
X70940Y158323D01*
X71000Y158309D01*
X71058Y158288D01*
X71113Y158260D01*
X71165Y158226D01*
X71211Y158185D01*
X71253Y158140D01*
X71289Y158089D01*
X71319Y158035D01*
X71342Y157978D01*
X71350Y157948D01*
X72047Y155335D01*
X72047Y155335D01*
X72072Y155340D01*
X72121Y155349D01*
X72171Y155357D01*
X72220Y155365D01*
X72245Y155369D01*
X72245Y163507D01*
X72245D01*
Y163544D01*
X72251Y163619D01*
X72264Y163692D01*
X72284Y163765D01*
X72309Y163835D01*
X72341Y163902D01*
X72378Y163967D01*
X72421Y164028D01*
X72469Y164086D01*
X72522Y164138D01*
X72579Y164187D01*
X72640Y164229D01*
X72705Y164267D01*
X72773Y164298D01*
X72843Y164324D01*
X72915Y164343D01*
X72989Y164356D01*
X73063Y164363D01*
X73138D01*
X73212Y164356D01*
D02*
G37*
G36*
X895101Y-155808D02*
X894814D01*
Y-156094D01*
X894528D01*
Y-156380D01*
Y-156667D01*
X894242D01*
Y-156953D01*
X893955D01*
Y-157239D01*
X893669D01*
Y-157526D01*
Y-157812D01*
X893383D01*
Y-158098D01*
X893096D01*
Y-158385D01*
X892810D01*
Y-158671D01*
X892524D01*
Y-158957D01*
Y-159244D01*
X892237D01*
Y-159530D01*
X891951D01*
Y-159816D01*
X891665D01*
Y-160102D01*
Y-160389D01*
X891378D01*
Y-160675D01*
X891092D01*
Y-160961D01*
X890806D01*
Y-161248D01*
X890520D01*
Y-161534D01*
Y-161820D01*
X890233D01*
Y-162107D01*
X889947D01*
Y-162393D01*
X889661D01*
Y-162679D01*
Y-162966D01*
X889374D01*
Y-163252D01*
X889088D01*
Y-163538D01*
X888802D01*
Y-163824D01*
Y-164111D01*
X888515D01*
Y-164397D01*
X888229D01*
Y-164683D01*
X887943D01*
Y-164970D01*
X887656D01*
Y-165256D01*
Y-165542D01*
X887370D01*
Y-165829D01*
X887084D01*
Y-166115D01*
X886798D01*
Y-166401D01*
Y-166688D01*
X886511D01*
Y-166974D01*
X886225D01*
Y-167260D01*
X885939D01*
Y-167547D01*
Y-167833D01*
X885652D01*
Y-168119D01*
X885366D01*
Y-168405D01*
X885080D01*
Y-168692D01*
X884793D01*
Y-168978D01*
Y-169264D01*
X884507D01*
Y-169551D01*
X884221D01*
Y-169837D01*
X883934D01*
Y-170123D01*
Y-170410D01*
X883648D01*
Y-170696D01*
X883362D01*
Y-170982D01*
X883076D01*
Y-171269D01*
Y-171555D01*
X882789D01*
Y-171841D01*
X882503D01*
Y-172127D01*
X882216D01*
Y-172414D01*
X881930D01*
Y-172700D01*
Y-172986D01*
X881644D01*
Y-173273D01*
X881358D01*
Y-173559D01*
X881071D01*
Y-173845D01*
Y-174132D01*
X880785D01*
Y-174418D01*
X880499D01*
Y-174704D01*
X880212D01*
Y-174991D01*
X879926D01*
Y-175277D01*
Y-175563D01*
X880212D01*
Y-175850D01*
Y-176136D01*
X880499D01*
Y-176422D01*
Y-176709D01*
X880785D01*
Y-176995D01*
X881071D01*
Y-177281D01*
Y-177568D01*
X881358D01*
Y-177854D01*
Y-178140D01*
X881644D01*
Y-178426D01*
Y-178713D01*
X881930D01*
Y-178999D01*
Y-179285D01*
X882216D01*
Y-179572D01*
Y-179858D01*
X882503D01*
Y-180144D01*
Y-180431D01*
X882789D01*
Y-180717D01*
Y-181003D01*
X883076D01*
Y-181290D01*
Y-181576D01*
X883362D01*
Y-181862D01*
X883648D01*
Y-182149D01*
Y-182435D01*
X883934D01*
Y-182721D01*
Y-183007D01*
X884221D01*
Y-183294D01*
Y-183580D01*
X884507D01*
Y-183866D01*
Y-184153D01*
X884793D01*
Y-184439D01*
Y-184725D01*
X885080D01*
Y-185012D01*
Y-185298D01*
X885366D01*
Y-185584D01*
Y-185871D01*
X885652D01*
Y-186157D01*
X885939D01*
Y-186443D01*
Y-186730D01*
X886225D01*
Y-187016D01*
Y-187302D01*
X886511D01*
Y-187588D01*
Y-187875D01*
X886798D01*
Y-188161D01*
Y-188447D01*
X887084D01*
Y-188734D01*
Y-189020D01*
X887370D01*
Y-189306D01*
Y-189593D01*
X887656D01*
Y-189879D01*
Y-190165D01*
X887943D01*
Y-190452D01*
X888229D01*
Y-190738D01*
Y-191024D01*
X888515D01*
Y-191311D01*
Y-191597D01*
X888802D01*
Y-191883D01*
X873627D01*
Y-191597D01*
X873341D01*
Y-191311D01*
Y-191024D01*
Y-190738D01*
X873055D01*
Y-190452D01*
Y-190165D01*
Y-189879D01*
X872768D01*
Y-189593D01*
Y-189306D01*
X872482D01*
Y-189020D01*
Y-188734D01*
Y-188447D01*
X872196D01*
Y-188161D01*
Y-187875D01*
Y-187588D01*
X871909D01*
Y-187302D01*
Y-187016D01*
X871623D01*
Y-186730D01*
Y-186443D01*
Y-186157D01*
X871337D01*
Y-185871D01*
Y-185584D01*
Y-185298D01*
X871050D01*
Y-185012D01*
Y-184725D01*
Y-184439D01*
X870764D01*
Y-184153D01*
X870191D01*
Y-184439D01*
Y-184725D01*
X869905D01*
Y-185012D01*
X869619D01*
Y-185298D01*
Y-185584D01*
X869332D01*
Y-185871D01*
X869046D01*
Y-186157D01*
Y-186443D01*
X868760D01*
Y-186730D01*
X868474D01*
Y-187016D01*
Y-187302D01*
X868187D01*
Y-187588D01*
X867901D01*
Y-187875D01*
X867615D01*
Y-188161D01*
Y-188447D01*
X867328D01*
Y-188734D01*
X867042D01*
Y-189020D01*
Y-189306D01*
X866756D01*
Y-189593D01*
X866469D01*
Y-189879D01*
Y-190165D01*
X866183D01*
Y-190452D01*
X865897D01*
Y-190738D01*
Y-191024D01*
X865610D01*
Y-191311D01*
X865324D01*
Y-191597D01*
Y-191883D01*
X849290D01*
Y-191597D01*
X849577D01*
Y-191311D01*
X849863D01*
Y-191024D01*
X850150D01*
Y-190738D01*
X850436D01*
Y-190452D01*
Y-190165D01*
X850722D01*
Y-189879D01*
X851008D01*
Y-189593D01*
X851295D01*
Y-189306D01*
X851581D01*
Y-189020D01*
Y-188734D01*
X851867D01*
Y-188447D01*
X852154D01*
Y-188161D01*
X852440D01*
Y-187875D01*
Y-187588D01*
X852726D01*
Y-187302D01*
X853013D01*
Y-187016D01*
X853299D01*
Y-186730D01*
X853585D01*
Y-186443D01*
Y-186157D01*
X853872D01*
Y-185871D01*
X854158D01*
Y-185584D01*
X854444D01*
Y-185298D01*
X854731D01*
Y-185012D01*
Y-184725D01*
X855017D01*
Y-184439D01*
X855303D01*
Y-184153D01*
X855589D01*
Y-183866D01*
Y-183580D01*
X855876D01*
Y-183294D01*
X856162D01*
Y-183007D01*
X856448D01*
Y-182721D01*
X856735D01*
Y-182435D01*
Y-182149D01*
X857021D01*
Y-181862D01*
X857307D01*
Y-181576D01*
X857594D01*
Y-181290D01*
Y-181003D01*
X857880D01*
Y-180717D01*
X858166D01*
Y-180431D01*
X858453D01*
Y-180144D01*
X858739D01*
Y-179858D01*
Y-179572D01*
X859025D01*
Y-179285D01*
X859311D01*
Y-178999D01*
X859598D01*
Y-178713D01*
Y-178426D01*
X859884D01*
Y-178140D01*
X860170D01*
Y-177854D01*
X860457D01*
Y-177568D01*
X860743D01*
Y-177281D01*
Y-176995D01*
X861029D01*
Y-176709D01*
X861316D01*
Y-176422D01*
X861602D01*
Y-176136D01*
X861888D01*
Y-175850D01*
Y-175563D01*
X862175D01*
Y-175277D01*
X862461D01*
Y-174991D01*
X862747D01*
Y-174704D01*
Y-174418D01*
X863034D01*
Y-174132D01*
X863320D01*
Y-173845D01*
X863606D01*
Y-173559D01*
X863892D01*
Y-173273D01*
Y-172986D01*
X864179D01*
Y-172700D01*
Y-172414D01*
Y-172127D01*
X863892D01*
Y-171841D01*
X863606D01*
Y-171555D01*
Y-171269D01*
X863320D01*
Y-170982D01*
Y-170696D01*
X863034D01*
Y-170410D01*
Y-170123D01*
X862747D01*
Y-169837D01*
Y-169551D01*
X862461D01*
Y-169264D01*
Y-168978D01*
X862175D01*
Y-168692D01*
Y-168405D01*
X861888D01*
Y-168119D01*
X861602D01*
Y-167833D01*
Y-167547D01*
X861316D01*
Y-167260D01*
Y-166974D01*
X861029D01*
Y-166688D01*
Y-166401D01*
X860743D01*
Y-166115D01*
Y-165829D01*
X860457D01*
Y-165542D01*
Y-165256D01*
X860170D01*
Y-164970D01*
Y-164683D01*
X859884D01*
Y-164397D01*
X859598D01*
Y-164111D01*
Y-163824D01*
X859311D01*
Y-163538D01*
Y-163252D01*
X859025D01*
Y-162966D01*
Y-162679D01*
X858739D01*
Y-162393D01*
Y-162107D01*
X858453D01*
Y-161820D01*
Y-161534D01*
X858166D01*
Y-161248D01*
Y-160961D01*
X857880D01*
Y-160675D01*
Y-160389D01*
X857594D01*
Y-160102D01*
X857307D01*
Y-159816D01*
Y-159530D01*
X857021D01*
Y-159244D01*
Y-158957D01*
X856735D01*
Y-158671D01*
Y-158385D01*
X856448D01*
Y-158098D01*
Y-157812D01*
X856162D01*
Y-157526D01*
Y-157239D01*
X855876D01*
Y-156953D01*
Y-156667D01*
X855589D01*
Y-156380D01*
X855303D01*
Y-156094D01*
Y-155808D01*
X855017D01*
Y-155521D01*
X870764D01*
Y-155808D01*
X871050D01*
Y-156094D01*
Y-156380D01*
Y-156667D01*
X871337D01*
Y-156953D01*
Y-157239D01*
Y-157526D01*
X871623D01*
Y-157812D01*
Y-158098D01*
Y-158385D01*
X871909D01*
Y-158671D01*
Y-158957D01*
Y-159244D01*
X872196D01*
Y-159530D01*
Y-159816D01*
Y-160102D01*
X872482D01*
Y-160389D01*
Y-160675D01*
Y-160961D01*
X872768D01*
Y-161248D01*
Y-161534D01*
Y-161820D01*
X873055D01*
Y-162107D01*
Y-162393D01*
Y-162679D01*
X873341D01*
Y-162966D01*
Y-163252D01*
Y-163538D01*
Y-163824D01*
X873913D01*
Y-163538D01*
X874200D01*
Y-163252D01*
X874486D01*
Y-162966D01*
Y-162679D01*
X874772D01*
Y-162393D01*
X875059D01*
Y-162107D01*
Y-161820D01*
X875345D01*
Y-161534D01*
X875631D01*
Y-161248D01*
Y-160961D01*
X875918D01*
Y-160675D01*
X876204D01*
Y-160389D01*
Y-160102D01*
X876490D01*
Y-159816D01*
X876777D01*
Y-159530D01*
Y-159244D01*
X877063D01*
Y-158957D01*
X877349D01*
Y-158671D01*
Y-158385D01*
X877635D01*
Y-158098D01*
X877922D01*
Y-157812D01*
Y-157526D01*
X878208D01*
Y-157239D01*
X878494D01*
Y-156953D01*
Y-156667D01*
X878781D01*
Y-156380D01*
X879067D01*
Y-156094D01*
Y-155808D01*
X879353D01*
Y-155521D01*
X895101D01*
Y-155808D01*
D02*
G37*
G36*
X761965Y-141778D02*
X763683D01*
Y-142065D01*
X764542D01*
Y-142351D01*
X765401D01*
Y-142637D01*
X766260D01*
Y-142924D01*
X766832D01*
Y-143210D01*
X767119D01*
Y-143496D01*
X767691D01*
Y-143783D01*
X767978D01*
Y-144069D01*
X768550D01*
Y-144355D01*
X768837D01*
Y-144641D01*
X769123D01*
Y-144928D01*
X769409D01*
Y-145214D01*
X769696D01*
Y-145501D01*
X769982D01*
Y-145787D01*
X770268D01*
Y-146073D01*
Y-146359D01*
X770554D01*
Y-146646D01*
X770841D01*
Y-146932D01*
Y-147218D01*
X771127D01*
Y-147505D01*
X771414D01*
Y-147791D01*
Y-148077D01*
X771700D01*
Y-148364D01*
Y-148650D01*
Y-148936D01*
X771986D01*
Y-149223D01*
Y-149509D01*
Y-149795D01*
X772272D01*
Y-150082D01*
Y-150368D01*
Y-150654D01*
Y-150940D01*
X772559D01*
Y-151227D01*
Y-151513D01*
Y-151799D01*
Y-152086D01*
Y-152372D01*
X772845D01*
Y-152658D01*
Y-152945D01*
Y-153231D01*
Y-153517D01*
Y-153804D01*
Y-154090D01*
Y-154376D01*
Y-154663D01*
Y-154949D01*
Y-155235D01*
Y-155521D01*
Y-155808D01*
Y-156094D01*
Y-156380D01*
Y-156667D01*
Y-156953D01*
Y-157239D01*
Y-157526D01*
Y-157812D01*
Y-158098D01*
X772559D01*
Y-158385D01*
Y-158671D01*
Y-158957D01*
Y-159244D01*
Y-159530D01*
Y-159816D01*
Y-160102D01*
X772272D01*
Y-160389D01*
Y-160675D01*
Y-160961D01*
Y-161248D01*
Y-161534D01*
X771986D01*
Y-161820D01*
Y-162107D01*
Y-162393D01*
Y-162679D01*
Y-162966D01*
X771700D01*
Y-163252D01*
Y-163538D01*
Y-163824D01*
X771414D01*
Y-164111D01*
Y-164397D01*
Y-164683D01*
Y-164970D01*
X771127D01*
Y-165256D01*
Y-165542D01*
Y-165829D01*
X770841D01*
Y-166115D01*
Y-166401D01*
X770554D01*
Y-166688D01*
Y-166974D01*
Y-167260D01*
X770268D01*
Y-167547D01*
Y-167833D01*
X769982D01*
Y-168119D01*
Y-168405D01*
X769696D01*
Y-168692D01*
Y-168978D01*
X769409D01*
Y-169264D01*
X769123D01*
Y-169551D01*
Y-169837D01*
X768837D01*
Y-170123D01*
X768550D01*
Y-170410D01*
X768264D01*
Y-170696D01*
Y-170982D01*
X767978D01*
Y-171269D01*
X767691D01*
Y-171555D01*
X767405D01*
Y-171841D01*
X767119D01*
Y-172127D01*
X766832D01*
Y-172414D01*
X766260D01*
Y-172700D01*
X765974D01*
Y-172986D01*
X765401D01*
Y-173273D01*
X765115D01*
Y-173559D01*
X764542D01*
Y-173845D01*
X763683D01*
Y-174132D01*
X762824D01*
Y-174418D01*
X761965D01*
Y-174704D01*
X760247D01*
Y-174991D01*
X755094D01*
Y-174704D01*
X752517D01*
Y-174418D01*
X750513D01*
Y-174132D01*
X749081D01*
Y-173845D01*
X747649D01*
Y-173559D01*
X746218D01*
Y-173845D01*
Y-174132D01*
Y-174418D01*
Y-174704D01*
Y-174991D01*
Y-175277D01*
Y-175563D01*
X745932D01*
Y-175850D01*
Y-176136D01*
Y-176422D01*
Y-176709D01*
Y-176995D01*
Y-177281D01*
X745645D01*
Y-177568D01*
Y-177854D01*
Y-178140D01*
Y-178426D01*
Y-178713D01*
Y-178999D01*
X745359D01*
Y-179285D01*
Y-179572D01*
Y-179858D01*
Y-180144D01*
Y-180431D01*
Y-180717D01*
Y-181003D01*
X745073D01*
Y-181290D01*
Y-181576D01*
Y-181862D01*
Y-182149D01*
Y-182435D01*
Y-182721D01*
X744786D01*
Y-183007D01*
Y-183294D01*
Y-183580D01*
Y-183866D01*
Y-184153D01*
Y-184439D01*
X744500D01*
Y-184725D01*
Y-185012D01*
Y-185298D01*
Y-185584D01*
Y-185871D01*
Y-186157D01*
Y-186443D01*
X744214D01*
Y-186730D01*
Y-187016D01*
Y-187302D01*
Y-187588D01*
Y-187875D01*
Y-188161D01*
X743927D01*
Y-188447D01*
Y-188734D01*
Y-189020D01*
Y-189306D01*
Y-189593D01*
Y-189879D01*
X743641D01*
Y-190165D01*
Y-190452D01*
Y-190738D01*
Y-191024D01*
Y-191311D01*
Y-191597D01*
Y-191883D01*
X730184D01*
Y-191597D01*
X730471D01*
Y-191311D01*
Y-191024D01*
Y-190738D01*
Y-190452D01*
Y-190165D01*
X730757D01*
Y-189879D01*
Y-189593D01*
Y-189306D01*
Y-189020D01*
Y-188734D01*
Y-188447D01*
Y-188161D01*
X731043D01*
Y-187875D01*
Y-187588D01*
Y-187302D01*
Y-187016D01*
Y-186730D01*
Y-186443D01*
X731330D01*
Y-186157D01*
Y-185871D01*
Y-185584D01*
Y-185298D01*
Y-185012D01*
Y-184725D01*
X731616D01*
Y-184439D01*
Y-184153D01*
Y-183866D01*
Y-183580D01*
Y-183294D01*
Y-183007D01*
Y-182721D01*
X731902D01*
Y-182435D01*
Y-182149D01*
Y-181862D01*
Y-181576D01*
Y-181290D01*
Y-181003D01*
X732189D01*
Y-180717D01*
Y-180431D01*
Y-180144D01*
Y-179858D01*
Y-179572D01*
Y-179285D01*
X732475D01*
Y-178999D01*
Y-178713D01*
Y-178426D01*
Y-178140D01*
Y-177854D01*
Y-177568D01*
X732761D01*
Y-177281D01*
Y-176995D01*
Y-176709D01*
Y-176422D01*
Y-176136D01*
Y-175850D01*
Y-175563D01*
X733047D01*
Y-175277D01*
Y-174991D01*
Y-174704D01*
Y-174418D01*
Y-174132D01*
Y-173845D01*
X733334D01*
Y-173559D01*
Y-173273D01*
Y-172986D01*
Y-172700D01*
Y-172414D01*
Y-172127D01*
X733620D01*
Y-171841D01*
Y-171555D01*
Y-171269D01*
Y-170982D01*
Y-170696D01*
Y-170410D01*
X733907D01*
Y-170123D01*
Y-169837D01*
Y-169551D01*
Y-169264D01*
Y-168978D01*
Y-168692D01*
Y-168405D01*
X734193D01*
Y-168119D01*
Y-167833D01*
Y-167547D01*
Y-167260D01*
Y-166974D01*
Y-166688D01*
X734479D01*
Y-166401D01*
Y-166115D01*
Y-165829D01*
Y-165542D01*
Y-165256D01*
Y-164970D01*
X734765D01*
Y-164683D01*
Y-164397D01*
Y-164111D01*
Y-163824D01*
Y-163538D01*
Y-163252D01*
Y-162966D01*
X735052D01*
Y-162679D01*
Y-162393D01*
Y-162107D01*
Y-161820D01*
Y-161534D01*
Y-161248D01*
X735338D01*
Y-160961D01*
Y-160675D01*
Y-160389D01*
Y-160102D01*
Y-159816D01*
Y-159530D01*
X735624D01*
Y-159244D01*
Y-158957D01*
Y-158671D01*
Y-158385D01*
Y-158098D01*
Y-157812D01*
X735911D01*
Y-157526D01*
Y-157239D01*
Y-156953D01*
Y-156667D01*
Y-156380D01*
Y-156094D01*
Y-155808D01*
X736197D01*
Y-155521D01*
Y-155235D01*
Y-154949D01*
Y-154663D01*
Y-154376D01*
Y-154090D01*
X736483D01*
Y-153804D01*
Y-153517D01*
Y-153231D01*
Y-152945D01*
Y-152658D01*
Y-152372D01*
X736770D01*
Y-152086D01*
Y-151799D01*
Y-151513D01*
Y-151227D01*
Y-150940D01*
Y-150654D01*
Y-150368D01*
X737056D01*
Y-150082D01*
Y-149795D01*
Y-149509D01*
Y-149223D01*
Y-148936D01*
Y-148650D01*
X737342D01*
Y-148364D01*
Y-148077D01*
Y-147791D01*
Y-147505D01*
Y-147218D01*
Y-146932D01*
X737629D01*
Y-146646D01*
Y-146359D01*
Y-146073D01*
Y-145787D01*
Y-145501D01*
Y-145214D01*
Y-144928D01*
X737915D01*
Y-144641D01*
Y-144355D01*
Y-144069D01*
Y-143783D01*
Y-143496D01*
Y-143210D01*
X738201D01*
Y-142924D01*
Y-142637D01*
Y-142351D01*
Y-142065D01*
Y-141778D01*
Y-141492D01*
X761965D01*
Y-141778D01*
D02*
G37*
G36*
X851008Y-155808D02*
Y-156094D01*
Y-156380D01*
Y-156667D01*
Y-156953D01*
Y-157239D01*
Y-157526D01*
Y-157812D01*
Y-158098D01*
Y-158385D01*
Y-158671D01*
Y-158957D01*
Y-159244D01*
Y-159530D01*
Y-159816D01*
Y-160102D01*
Y-160389D01*
Y-160675D01*
Y-160961D01*
Y-161248D01*
Y-161534D01*
X850722D01*
Y-161820D01*
Y-162107D01*
Y-162393D01*
Y-162679D01*
Y-162966D01*
X850436D01*
Y-163252D01*
Y-163538D01*
Y-163824D01*
Y-164111D01*
X850150D01*
Y-164397D01*
Y-164683D01*
Y-164970D01*
Y-165256D01*
X849863D01*
Y-165542D01*
Y-165829D01*
Y-166115D01*
X849577D01*
Y-166401D01*
Y-166688D01*
Y-166974D01*
X849290D01*
Y-167260D01*
Y-167547D01*
Y-167833D01*
X849004D01*
Y-168119D01*
Y-168405D01*
Y-168692D01*
X848718D01*
Y-168978D01*
Y-169264D01*
X848432D01*
Y-169551D01*
Y-169837D01*
X848145D01*
Y-170123D01*
Y-170410D01*
Y-170696D01*
X847859D01*
Y-170982D01*
Y-171269D01*
X847573D01*
Y-171555D01*
Y-171841D01*
Y-172127D01*
X847286D01*
Y-172414D01*
Y-172700D01*
X847000D01*
Y-172986D01*
Y-173273D01*
Y-173559D01*
X846714D01*
Y-173845D01*
Y-174132D01*
X846427D01*
Y-174418D01*
Y-174704D01*
Y-174991D01*
X846141D01*
Y-175277D01*
Y-175563D01*
X845855D01*
Y-175850D01*
Y-176136D01*
Y-176422D01*
X845568D01*
Y-176709D01*
Y-176995D01*
X845282D01*
Y-177281D01*
Y-177568D01*
Y-177854D01*
X844996D01*
Y-178140D01*
Y-178426D01*
X844709D01*
Y-178713D01*
Y-178999D01*
Y-179285D01*
X844423D01*
Y-179572D01*
Y-179858D01*
X844137D01*
Y-180144D01*
Y-180431D01*
Y-180717D01*
X843851D01*
Y-181003D01*
Y-181290D01*
X843564D01*
Y-181576D01*
Y-181862D01*
Y-182149D01*
X843278D01*
Y-182435D01*
Y-182721D01*
X842992D01*
Y-183007D01*
Y-183294D01*
Y-183580D01*
X842705D01*
Y-183866D01*
Y-184153D01*
X842419D01*
Y-184439D01*
Y-184725D01*
Y-185012D01*
X842133D01*
Y-185298D01*
Y-185584D01*
X841846D01*
Y-185871D01*
Y-186157D01*
Y-186443D01*
X841560D01*
Y-186730D01*
Y-187016D01*
X841274D01*
Y-187302D01*
Y-187588D01*
Y-187875D01*
X840987D01*
Y-188161D01*
Y-188447D01*
X840701D01*
Y-188734D01*
Y-189020D01*
Y-189306D01*
X840415D01*
Y-189593D01*
Y-189879D01*
X840129D01*
Y-190165D01*
Y-190452D01*
Y-190738D01*
X839842D01*
Y-191024D01*
Y-191311D01*
X839556D01*
Y-191597D01*
Y-191883D01*
Y-192169D01*
X839270D01*
Y-192456D01*
Y-192742D01*
X838983D01*
Y-193028D01*
Y-193315D01*
X838697D01*
Y-193601D01*
Y-193887D01*
X838411D01*
Y-194174D01*
Y-194460D01*
Y-194746D01*
X838124D01*
Y-195033D01*
X837838D01*
Y-195319D01*
Y-195605D01*
Y-195891D01*
X837552D01*
Y-196178D01*
X837265D01*
Y-196464D01*
Y-196750D01*
X836979D01*
Y-197037D01*
Y-197323D01*
X836693D01*
Y-197609D01*
Y-197896D01*
X836407D01*
Y-198182D01*
Y-198468D01*
X836120D01*
Y-198755D01*
X835834D01*
Y-199041D01*
Y-199327D01*
X835548D01*
Y-199614D01*
Y-199900D01*
X835261D01*
Y-200186D01*
X834975D01*
Y-200472D01*
X834689D01*
Y-200759D01*
Y-201045D01*
X834402D01*
Y-201331D01*
X834116D01*
Y-201618D01*
Y-201904D01*
X833830D01*
Y-202190D01*
X833543D01*
Y-202477D01*
X833257D01*
Y-202763D01*
Y-203049D01*
X832971D01*
Y-203336D01*
X832684D01*
Y-203622D01*
X832398D01*
Y-203908D01*
X832112D01*
Y-204195D01*
X831826D01*
Y-204481D01*
Y-204767D01*
X831539D01*
Y-205053D01*
X831253D01*
Y-205340D01*
X830966D01*
Y-205626D01*
X830680D01*
Y-205912D01*
X830394D01*
Y-206199D01*
X830108D01*
Y-206485D01*
X829821D01*
Y-206771D01*
X829249D01*
Y-207058D01*
X828962D01*
Y-207344D01*
X828676D01*
Y-207630D01*
X828390D01*
Y-207917D01*
X828103D01*
Y-208203D01*
X827531D01*
Y-208489D01*
X827244D01*
Y-208776D01*
X826672D01*
Y-209062D01*
X826385D01*
Y-209348D01*
X825813D01*
Y-209634D01*
X825527D01*
Y-209921D01*
X824954D01*
Y-210207D01*
X824381D01*
Y-210493D01*
X823809D01*
Y-210780D01*
X823236D01*
Y-211066D01*
X822663D01*
Y-211352D01*
X821805D01*
Y-211639D01*
X821232D01*
Y-211925D01*
X820373D01*
Y-212211D01*
X819228D01*
Y-212498D01*
X818082D01*
Y-212784D01*
X816365D01*
Y-213070D01*
X814360D01*
Y-213357D01*
X814074D01*
Y-213070D01*
Y-212784D01*
Y-212498D01*
Y-212211D01*
Y-211925D01*
Y-211639D01*
Y-211352D01*
Y-211066D01*
Y-210780D01*
Y-210493D01*
Y-210207D01*
Y-209921D01*
Y-209634D01*
Y-209348D01*
Y-209062D01*
Y-208776D01*
Y-208489D01*
Y-208203D01*
Y-207917D01*
Y-207630D01*
Y-207344D01*
Y-207058D01*
Y-206771D01*
Y-206485D01*
Y-206199D01*
Y-205912D01*
Y-205626D01*
Y-205340D01*
Y-205053D01*
Y-204767D01*
Y-204481D01*
Y-204195D01*
Y-203908D01*
X814647D01*
Y-203622D01*
X815219D01*
Y-203336D01*
X815792D01*
Y-203049D01*
X816365D01*
Y-202763D01*
X816937D01*
Y-202477D01*
X817510D01*
Y-202190D01*
X817796D01*
Y-201904D01*
X818369D01*
Y-201618D01*
X818655D01*
Y-201331D01*
X819228D01*
Y-201045D01*
X819514D01*
Y-200759D01*
X819800D01*
Y-200472D01*
X820373D01*
Y-200186D01*
X820659D01*
Y-199900D01*
X820946D01*
Y-199614D01*
X821232D01*
Y-199327D01*
X821518D01*
Y-199041D01*
X821805D01*
Y-198755D01*
X822091D01*
Y-198468D01*
X822377D01*
Y-198182D01*
X822663D01*
Y-197896D01*
X822950D01*
Y-197609D01*
X823236D01*
Y-197323D01*
X823522D01*
Y-197037D01*
Y-196750D01*
X823809D01*
Y-196464D01*
X824095D01*
Y-196178D01*
X824381D01*
Y-195891D01*
Y-195605D01*
X824668D01*
Y-195319D01*
X824954D01*
Y-195033D01*
Y-194746D01*
X825240D01*
Y-194460D01*
Y-194174D01*
X825527D01*
Y-193887D01*
X825813D01*
Y-193601D01*
Y-193315D01*
X826099D01*
Y-193028D01*
Y-192742D01*
X826385D01*
Y-192456D01*
Y-192169D01*
X824668D01*
Y-191883D01*
X822663D01*
Y-191597D01*
X821518D01*
Y-191311D01*
X820946D01*
Y-191024D01*
X820087D01*
Y-190738D01*
X819514D01*
Y-190452D01*
X819228D01*
Y-190165D01*
X818655D01*
Y-189879D01*
X818369D01*
Y-189593D01*
X818082D01*
Y-189306D01*
X817796D01*
Y-189020D01*
X817510D01*
Y-188734D01*
X817223D01*
Y-188447D01*
Y-188161D01*
X816937D01*
Y-187875D01*
X816651D01*
Y-187588D01*
Y-187302D01*
X816365D01*
Y-187016D01*
Y-186730D01*
X816078D01*
Y-186443D01*
Y-186157D01*
X815792D01*
Y-185871D01*
Y-185584D01*
Y-185298D01*
X815506D01*
Y-185012D01*
Y-184725D01*
Y-184439D01*
Y-184153D01*
X815219D01*
Y-183866D01*
Y-183580D01*
Y-183294D01*
Y-183007D01*
Y-182721D01*
Y-182435D01*
Y-182149D01*
X814933D01*
Y-181862D01*
Y-181576D01*
Y-181290D01*
Y-181003D01*
Y-180717D01*
Y-180431D01*
Y-180144D01*
Y-179858D01*
Y-179572D01*
Y-179285D01*
Y-178999D01*
Y-178713D01*
Y-178426D01*
Y-178140D01*
Y-177854D01*
X814647D01*
Y-177568D01*
Y-177281D01*
Y-176995D01*
Y-176709D01*
Y-176422D01*
Y-176136D01*
Y-175850D01*
Y-175563D01*
Y-175277D01*
Y-174991D01*
Y-174704D01*
Y-174418D01*
Y-174132D01*
Y-173845D01*
Y-173559D01*
X814360D01*
Y-173273D01*
Y-172986D01*
Y-172700D01*
Y-172414D01*
Y-172127D01*
Y-171841D01*
Y-171555D01*
Y-171269D01*
Y-170982D01*
Y-170696D01*
Y-170410D01*
Y-170123D01*
Y-169837D01*
Y-169551D01*
Y-169264D01*
Y-168978D01*
X814074D01*
Y-168692D01*
Y-168405D01*
Y-168119D01*
Y-167833D01*
Y-167547D01*
Y-167260D01*
Y-166974D01*
Y-166688D01*
Y-166401D01*
Y-166115D01*
Y-165829D01*
Y-165542D01*
Y-165256D01*
Y-164970D01*
Y-164683D01*
Y-164397D01*
X813788D01*
Y-164111D01*
Y-163824D01*
Y-163538D01*
Y-163252D01*
Y-162966D01*
Y-162679D01*
Y-162393D01*
Y-162107D01*
Y-161820D01*
Y-161534D01*
Y-161248D01*
Y-160961D01*
Y-160675D01*
Y-160389D01*
X813501D01*
Y-160102D01*
Y-159816D01*
Y-159530D01*
Y-159244D01*
Y-158957D01*
Y-158671D01*
Y-158385D01*
Y-158098D01*
Y-157812D01*
Y-157526D01*
Y-157239D01*
Y-156953D01*
Y-156667D01*
Y-156380D01*
Y-156094D01*
Y-155808D01*
X813215D01*
Y-155521D01*
X826958D01*
Y-155808D01*
Y-156094D01*
Y-156380D01*
Y-156667D01*
Y-156953D01*
Y-157239D01*
Y-157526D01*
Y-157812D01*
Y-158098D01*
Y-158385D01*
Y-158671D01*
Y-158957D01*
Y-159244D01*
Y-159530D01*
X827244D01*
Y-159816D01*
Y-160102D01*
Y-160389D01*
Y-160675D01*
Y-160961D01*
Y-161248D01*
Y-161534D01*
Y-161820D01*
Y-162107D01*
Y-162393D01*
Y-162679D01*
Y-162966D01*
Y-163252D01*
Y-163538D01*
Y-163824D01*
Y-164111D01*
Y-164397D01*
Y-164683D01*
Y-164970D01*
Y-165256D01*
Y-165542D01*
Y-165829D01*
Y-166115D01*
Y-166401D01*
Y-166688D01*
Y-166974D01*
Y-167260D01*
Y-167547D01*
Y-167833D01*
Y-168119D01*
Y-168405D01*
Y-168692D01*
Y-168978D01*
Y-169264D01*
Y-169551D01*
Y-169837D01*
Y-170123D01*
Y-170410D01*
Y-170696D01*
Y-170982D01*
Y-171269D01*
X827531D01*
Y-171555D01*
X827244D01*
Y-171841D01*
Y-172127D01*
X827531D01*
Y-172414D01*
Y-172700D01*
Y-172986D01*
Y-173273D01*
Y-173559D01*
Y-173845D01*
Y-174132D01*
Y-174418D01*
Y-174704D01*
Y-174991D01*
Y-175277D01*
Y-175563D01*
Y-175850D01*
Y-176136D01*
Y-176422D01*
Y-176709D01*
Y-176995D01*
Y-177281D01*
Y-177568D01*
Y-177854D01*
Y-178140D01*
Y-178426D01*
Y-178713D01*
Y-178999D01*
Y-179285D01*
Y-179572D01*
X827817D01*
Y-179858D01*
Y-180144D01*
Y-180431D01*
X828103D01*
Y-180717D01*
X828390D01*
Y-181003D01*
X828676D01*
Y-181290D01*
X829535D01*
Y-181576D01*
X830394D01*
Y-181290D01*
X830680D01*
Y-181003D01*
Y-180717D01*
Y-180431D01*
X830966D01*
Y-180144D01*
Y-179858D01*
X831253D01*
Y-179572D01*
Y-179285D01*
Y-178999D01*
X831539D01*
Y-178713D01*
Y-178426D01*
Y-178140D01*
X831826D01*
Y-177854D01*
Y-177568D01*
Y-177281D01*
X832112D01*
Y-176995D01*
Y-176709D01*
Y-176422D01*
X832398D01*
Y-176136D01*
Y-175850D01*
X832684D01*
Y-175563D01*
Y-175277D01*
Y-174991D01*
X832971D01*
Y-174704D01*
Y-174418D01*
Y-174132D01*
X833257D01*
Y-173845D01*
Y-173559D01*
Y-173273D01*
X833543D01*
Y-172986D01*
Y-172700D01*
X833830D01*
Y-172414D01*
Y-172127D01*
Y-171841D01*
X834116D01*
Y-171555D01*
Y-171269D01*
Y-170982D01*
X834402D01*
Y-170696D01*
Y-170410D01*
Y-170123D01*
X834689D01*
Y-169837D01*
Y-169551D01*
X834975D01*
Y-169264D01*
Y-168978D01*
Y-168692D01*
X835261D01*
Y-168405D01*
Y-168119D01*
Y-167833D01*
X835548D01*
Y-167547D01*
Y-167260D01*
Y-166974D01*
X835834D01*
Y-166688D01*
Y-166401D01*
X836120D01*
Y-166115D01*
Y-165829D01*
Y-165542D01*
X836407D01*
Y-165256D01*
Y-164970D01*
Y-164683D01*
X836693D01*
Y-164397D01*
Y-164111D01*
Y-163824D01*
X836979D01*
Y-163538D01*
Y-163252D01*
Y-162966D01*
Y-162679D01*
X837265D01*
Y-162393D01*
Y-162107D01*
Y-161820D01*
Y-161534D01*
X837552D01*
Y-161248D01*
Y-160961D01*
Y-160675D01*
Y-160389D01*
Y-160102D01*
X837838D01*
Y-159816D01*
Y-159530D01*
Y-159244D01*
Y-158957D01*
Y-158671D01*
Y-158385D01*
X838124D01*
Y-158098D01*
Y-157812D01*
Y-157526D01*
Y-157239D01*
Y-156953D01*
Y-156667D01*
Y-156380D01*
Y-156094D01*
Y-155808D01*
Y-155521D01*
X851008D01*
Y-155808D01*
D02*
G37*
G36*
X793173Y-138343D02*
Y-138629D01*
X792887D01*
Y-138915D01*
Y-139202D01*
Y-139488D01*
Y-139774D01*
Y-140060D01*
Y-140347D01*
X792601D01*
Y-140633D01*
Y-140919D01*
Y-141206D01*
Y-141492D01*
Y-141778D01*
Y-142065D01*
X792314D01*
Y-142351D01*
Y-142637D01*
Y-142924D01*
Y-143210D01*
Y-143496D01*
Y-143783D01*
Y-144069D01*
X792028D01*
Y-144355D01*
Y-144641D01*
Y-144928D01*
Y-145214D01*
Y-145501D01*
Y-145787D01*
X791742D01*
Y-146073D01*
Y-146359D01*
Y-146646D01*
Y-146932D01*
Y-147218D01*
Y-147505D01*
X791455D01*
Y-147791D01*
Y-148077D01*
Y-148364D01*
Y-148650D01*
Y-148936D01*
Y-149223D01*
Y-149509D01*
X791169D01*
Y-149795D01*
Y-150082D01*
Y-150368D01*
Y-150654D01*
Y-150940D01*
Y-151227D01*
X790883D01*
Y-151513D01*
Y-151799D01*
Y-152086D01*
Y-152372D01*
Y-152658D01*
Y-152945D01*
X790596D01*
Y-153231D01*
Y-153517D01*
Y-153804D01*
Y-154090D01*
Y-154376D01*
Y-154663D01*
X790310D01*
Y-154949D01*
Y-155235D01*
Y-155521D01*
Y-155808D01*
Y-156094D01*
Y-156380D01*
Y-156667D01*
X790024D01*
Y-156953D01*
Y-157239D01*
Y-157526D01*
Y-157812D01*
Y-158098D01*
Y-158385D01*
X789738D01*
Y-158671D01*
Y-158957D01*
X790310D01*
Y-158671D01*
X790596D01*
Y-158385D01*
X790883D01*
Y-158098D01*
X791455D01*
Y-157812D01*
X791742D01*
Y-157526D01*
X792028D01*
Y-157239D01*
X792601D01*
Y-156953D01*
X793173D01*
Y-156667D01*
X793460D01*
Y-156380D01*
X794032D01*
Y-156094D01*
X794891D01*
Y-155808D01*
X795464D01*
Y-155521D01*
X796323D01*
Y-155235D01*
X797754D01*
Y-154949D01*
X804053D01*
Y-155235D01*
X805198D01*
Y-155521D01*
X806057D01*
Y-155808D01*
X806630D01*
Y-156094D01*
X806916D01*
Y-156380D01*
X807489D01*
Y-156667D01*
X807775D01*
Y-156953D01*
X808062D01*
Y-157239D01*
X808348D01*
Y-157526D01*
X808634D01*
Y-157812D01*
Y-158098D01*
X808920D01*
Y-158385D01*
Y-158671D01*
X809207D01*
Y-158957D01*
Y-159244D01*
Y-159530D01*
X809493D01*
Y-159816D01*
Y-160102D01*
Y-160389D01*
Y-160675D01*
X809779D01*
Y-160961D01*
Y-161248D01*
Y-161534D01*
Y-161820D01*
Y-162107D01*
Y-162393D01*
Y-162679D01*
Y-162966D01*
Y-163252D01*
Y-163538D01*
Y-163824D01*
Y-164111D01*
Y-164397D01*
Y-164683D01*
Y-164970D01*
Y-165256D01*
Y-165542D01*
Y-165829D01*
X809493D01*
Y-166115D01*
Y-166401D01*
Y-166688D01*
Y-166974D01*
Y-167260D01*
Y-167547D01*
Y-167833D01*
X809207D01*
Y-168119D01*
Y-168405D01*
Y-168692D01*
Y-168978D01*
Y-169264D01*
Y-169551D01*
Y-169837D01*
X808920D01*
Y-170123D01*
Y-170410D01*
Y-170696D01*
Y-170982D01*
Y-171269D01*
Y-171555D01*
X808634D01*
Y-171841D01*
Y-172127D01*
Y-172414D01*
Y-172700D01*
Y-172986D01*
Y-173273D01*
X808348D01*
Y-173559D01*
Y-173845D01*
Y-174132D01*
Y-174418D01*
Y-174704D01*
Y-174991D01*
X808062D01*
Y-175277D01*
Y-175563D01*
Y-175850D01*
Y-176136D01*
Y-176422D01*
Y-176709D01*
Y-176995D01*
X807775D01*
Y-177281D01*
Y-177568D01*
Y-177854D01*
Y-178140D01*
Y-178426D01*
Y-178713D01*
X807489D01*
Y-178999D01*
Y-179285D01*
Y-179572D01*
Y-179858D01*
Y-180144D01*
Y-180431D01*
X807203D01*
Y-180717D01*
Y-181003D01*
Y-181290D01*
Y-181576D01*
Y-181862D01*
Y-182149D01*
Y-182435D01*
X806916D01*
Y-182721D01*
Y-183007D01*
Y-183294D01*
Y-183580D01*
Y-183866D01*
Y-184153D01*
X806630D01*
Y-184439D01*
Y-184725D01*
Y-185012D01*
Y-185298D01*
Y-185584D01*
Y-185871D01*
X806344D01*
Y-186157D01*
Y-186443D01*
Y-186730D01*
Y-187016D01*
Y-187302D01*
Y-187588D01*
X806057D01*
Y-187875D01*
Y-188161D01*
Y-188447D01*
Y-188734D01*
Y-189020D01*
Y-189306D01*
Y-189593D01*
X805771D01*
Y-189879D01*
Y-190165D01*
Y-190452D01*
Y-190738D01*
Y-191024D01*
Y-191311D01*
X805485D01*
Y-191597D01*
Y-191883D01*
X792314D01*
Y-191597D01*
Y-191311D01*
X792601D01*
Y-191024D01*
Y-190738D01*
Y-190452D01*
Y-190165D01*
Y-189879D01*
Y-189593D01*
X792887D01*
Y-189306D01*
Y-189020D01*
Y-188734D01*
Y-188447D01*
Y-188161D01*
Y-187875D01*
Y-187588D01*
X793173D01*
Y-187302D01*
Y-187016D01*
Y-186730D01*
Y-186443D01*
Y-186157D01*
Y-185871D01*
X793460D01*
Y-185584D01*
Y-185298D01*
Y-185012D01*
Y-184725D01*
Y-184439D01*
Y-184153D01*
X793746D01*
Y-183866D01*
Y-183580D01*
Y-183294D01*
Y-183007D01*
Y-182721D01*
Y-182435D01*
Y-182149D01*
X794032D01*
Y-181862D01*
Y-181576D01*
Y-181290D01*
Y-181003D01*
Y-180717D01*
Y-180431D01*
X794318D01*
Y-180144D01*
Y-179858D01*
Y-179572D01*
Y-179285D01*
Y-178999D01*
Y-178713D01*
Y-178426D01*
X794605D01*
Y-178140D01*
Y-177854D01*
Y-177568D01*
Y-177281D01*
Y-176995D01*
Y-176709D01*
X794891D01*
Y-176422D01*
Y-176136D01*
Y-175850D01*
Y-175563D01*
Y-175277D01*
Y-174991D01*
X795177D01*
Y-174704D01*
Y-174418D01*
Y-174132D01*
Y-173845D01*
Y-173559D01*
Y-173273D01*
X795464D01*
Y-172986D01*
Y-172700D01*
Y-172414D01*
Y-172127D01*
Y-171841D01*
Y-171555D01*
Y-171269D01*
X795750D01*
Y-170982D01*
Y-170696D01*
Y-170410D01*
Y-170123D01*
Y-169837D01*
Y-169551D01*
X796036D01*
Y-169264D01*
Y-168978D01*
Y-168692D01*
Y-168405D01*
Y-168119D01*
Y-167833D01*
Y-167547D01*
X796323D01*
Y-167260D01*
Y-166974D01*
Y-166688D01*
Y-166401D01*
Y-166115D01*
Y-165829D01*
X796036D01*
Y-165542D01*
Y-165256D01*
X795750D01*
Y-164970D01*
X795464D01*
Y-164683D01*
X794891D01*
Y-164397D01*
X793173D01*
Y-164683D01*
X791742D01*
Y-164970D01*
X790883D01*
Y-165256D01*
X790310D01*
Y-165542D01*
X790024D01*
Y-165829D01*
X789451D01*
Y-166115D01*
X789165D01*
Y-166401D01*
X788878D01*
Y-166688D01*
Y-166974D01*
X788592D01*
Y-167260D01*
Y-167547D01*
Y-167833D01*
X788306D01*
Y-168119D01*
Y-168405D01*
Y-168692D01*
Y-168978D01*
Y-169264D01*
Y-169551D01*
X788020D01*
Y-169837D01*
Y-170123D01*
Y-170410D01*
Y-170696D01*
Y-170982D01*
Y-171269D01*
Y-171555D01*
X787733D01*
Y-171841D01*
Y-172127D01*
Y-172414D01*
Y-172700D01*
Y-172986D01*
Y-173273D01*
X787447D01*
Y-173559D01*
Y-173845D01*
Y-174132D01*
Y-174418D01*
Y-174704D01*
Y-174991D01*
X787161D01*
Y-175277D01*
Y-175563D01*
Y-175850D01*
Y-176136D01*
Y-176422D01*
Y-176709D01*
X786874D01*
Y-176995D01*
Y-177281D01*
Y-177568D01*
Y-177854D01*
Y-178140D01*
Y-178426D01*
Y-178713D01*
X786588D01*
Y-178999D01*
Y-179285D01*
Y-179572D01*
Y-179858D01*
Y-180144D01*
Y-180431D01*
X786302D01*
Y-180717D01*
Y-181003D01*
Y-181290D01*
Y-181576D01*
Y-181862D01*
Y-182149D01*
X786015D01*
Y-182435D01*
Y-182721D01*
Y-183007D01*
Y-183294D01*
Y-183580D01*
Y-183866D01*
Y-184153D01*
X785729D01*
Y-184439D01*
Y-184725D01*
Y-185012D01*
Y-185298D01*
Y-185584D01*
Y-185871D01*
X785443D01*
Y-186157D01*
Y-186443D01*
Y-186730D01*
Y-187016D01*
Y-187302D01*
Y-187588D01*
X785156D01*
Y-187875D01*
Y-188161D01*
Y-188447D01*
Y-188734D01*
Y-189020D01*
Y-189306D01*
X784870D01*
Y-189593D01*
Y-189879D01*
Y-190165D01*
Y-190452D01*
Y-190738D01*
Y-191024D01*
Y-191311D01*
X784584D01*
Y-191597D01*
Y-191883D01*
X771414D01*
Y-191597D01*
Y-191311D01*
X771700D01*
Y-191024D01*
Y-190738D01*
Y-190452D01*
Y-190165D01*
Y-189879D01*
Y-189593D01*
Y-189306D01*
X771986D01*
Y-189020D01*
Y-188734D01*
Y-188447D01*
Y-188161D01*
Y-187875D01*
Y-187588D01*
X772272D01*
Y-187302D01*
Y-187016D01*
Y-186730D01*
Y-186443D01*
Y-186157D01*
Y-185871D01*
X772559D01*
Y-185584D01*
Y-185298D01*
Y-185012D01*
Y-184725D01*
Y-184439D01*
Y-184153D01*
Y-183866D01*
X772845D01*
Y-183580D01*
Y-183294D01*
Y-183007D01*
Y-182721D01*
Y-182435D01*
Y-182149D01*
X773131D01*
Y-181862D01*
Y-181576D01*
Y-181290D01*
Y-181003D01*
Y-180717D01*
Y-180431D01*
X773418D01*
Y-180144D01*
Y-179858D01*
Y-179572D01*
Y-179285D01*
Y-178999D01*
Y-178713D01*
X773704D01*
Y-178426D01*
Y-178140D01*
Y-177854D01*
Y-177568D01*
Y-177281D01*
Y-176995D01*
Y-176709D01*
X773990D01*
Y-176422D01*
Y-176136D01*
Y-175850D01*
Y-175563D01*
Y-175277D01*
Y-174991D01*
X774277D01*
Y-174704D01*
Y-174418D01*
Y-174132D01*
Y-173845D01*
Y-173559D01*
Y-173273D01*
X774563D01*
Y-172986D01*
Y-172700D01*
Y-172414D01*
Y-172127D01*
Y-171841D01*
Y-171555D01*
Y-171269D01*
X774849D01*
Y-170982D01*
Y-170696D01*
Y-170410D01*
Y-170123D01*
Y-169837D01*
Y-169551D01*
X775136D01*
Y-169264D01*
Y-168978D01*
Y-168692D01*
Y-168405D01*
Y-168119D01*
Y-167833D01*
X775422D01*
Y-167547D01*
Y-167260D01*
Y-166974D01*
Y-166688D01*
Y-166401D01*
Y-166115D01*
X775708D01*
Y-165829D01*
Y-165542D01*
Y-165256D01*
Y-164970D01*
Y-164683D01*
Y-164397D01*
Y-164111D01*
X775994D01*
Y-163824D01*
Y-163538D01*
Y-163252D01*
Y-162966D01*
Y-162679D01*
Y-162393D01*
X776281D01*
Y-162107D01*
Y-161820D01*
Y-161534D01*
Y-161248D01*
Y-160961D01*
Y-160675D01*
X776567D01*
Y-160389D01*
Y-160102D01*
Y-159816D01*
Y-159530D01*
Y-159244D01*
Y-158957D01*
X776853D01*
Y-158671D01*
Y-158385D01*
Y-158098D01*
Y-157812D01*
Y-157526D01*
Y-157239D01*
Y-156953D01*
X777140D01*
Y-156667D01*
Y-156380D01*
Y-156094D01*
Y-155808D01*
Y-155521D01*
Y-155235D01*
X777426D01*
Y-154949D01*
Y-154663D01*
Y-154376D01*
Y-154090D01*
Y-153804D01*
Y-153517D01*
X777712D01*
Y-153231D01*
Y-152945D01*
Y-152658D01*
Y-152372D01*
Y-152086D01*
Y-151799D01*
Y-151513D01*
X777999D01*
Y-151227D01*
Y-150940D01*
Y-150654D01*
Y-150368D01*
Y-150082D01*
Y-149795D01*
X778285D01*
Y-149509D01*
Y-149223D01*
Y-148936D01*
Y-148650D01*
Y-148364D01*
Y-148077D01*
X778571D01*
Y-147791D01*
Y-147505D01*
Y-147218D01*
Y-146932D01*
Y-146646D01*
Y-146359D01*
X778858D01*
Y-146073D01*
Y-145787D01*
Y-145501D01*
Y-145214D01*
Y-144928D01*
Y-144641D01*
Y-144355D01*
X779144D01*
Y-144069D01*
Y-143783D01*
Y-143496D01*
Y-143210D01*
Y-142924D01*
Y-142637D01*
X779430D01*
Y-142351D01*
Y-142065D01*
Y-141778D01*
Y-141492D01*
Y-141206D01*
Y-140919D01*
X779716D01*
Y-140633D01*
Y-140347D01*
Y-140060D01*
Y-139774D01*
Y-139488D01*
Y-139202D01*
Y-138915D01*
X780003D01*
Y-138629D01*
Y-138343D01*
Y-138056D01*
X793173D01*
Y-138343D01*
D02*
G37*
%LPC*%
G36*
X67501Y151463D02*
D01*
X67501D01*
X67501D01*
D02*
G37*
G36*
X78736Y147377D02*
X78736D01*
X78736D01*
D01*
D02*
G37*
G36*
X77785Y145705D02*
X77785Y145705D01*
X77785Y145705D01*
X77785Y145705D01*
D02*
G37*
G36*
X76933Y144844D02*
X76933Y144844D01*
X76933D01*
X76933Y144844D01*
D02*
G37*
G36*
X75465Y143954D02*
X75465D01*
Y143954D01*
X75465Y143954D01*
D02*
G37*
G36*
X757670Y-152658D02*
X749654D01*
Y-152945D01*
Y-153231D01*
Y-153517D01*
Y-153804D01*
Y-154090D01*
X749367D01*
Y-154376D01*
Y-154663D01*
Y-154949D01*
Y-155235D01*
Y-155521D01*
Y-155808D01*
X749081D01*
Y-156094D01*
Y-156380D01*
Y-156667D01*
Y-156953D01*
Y-157239D01*
Y-157526D01*
X748795D01*
Y-157812D01*
Y-158098D01*
Y-158385D01*
Y-158671D01*
Y-158957D01*
Y-159244D01*
X748508D01*
Y-159530D01*
Y-159816D01*
Y-160102D01*
Y-160389D01*
Y-160675D01*
Y-160961D01*
Y-161248D01*
X748222D01*
Y-161534D01*
Y-161820D01*
Y-162107D01*
Y-162393D01*
Y-162679D01*
Y-162966D01*
X747936D01*
Y-163252D01*
Y-163538D01*
Y-163824D01*
X755094D01*
Y-163538D01*
X756239D01*
Y-163252D01*
X756812D01*
Y-162966D01*
X757098D01*
Y-162679D01*
X757384D01*
Y-162393D01*
X757670D01*
Y-162107D01*
X757957D01*
Y-161820D01*
Y-161534D01*
X758243D01*
Y-161248D01*
Y-160961D01*
X758529D01*
Y-160675D01*
Y-160389D01*
X758816D01*
Y-160102D01*
Y-159816D01*
Y-159530D01*
Y-159244D01*
X759102D01*
Y-158957D01*
Y-158671D01*
Y-158385D01*
Y-158098D01*
Y-157812D01*
X759388D01*
Y-157526D01*
Y-157239D01*
Y-156953D01*
Y-156667D01*
Y-156380D01*
Y-156094D01*
Y-155808D01*
Y-155521D01*
Y-155235D01*
Y-154949D01*
Y-154663D01*
X759102D01*
Y-154376D01*
Y-154090D01*
X758816D01*
Y-153804D01*
Y-153517D01*
X758529D01*
Y-153231D01*
X758243D01*
Y-152945D01*
X757670D01*
Y-152658D01*
D02*
G37*
%LPD*%
D10*
X1068511Y-229571D02*
Y-190201D01*
X911031Y-150831D02*
X1186622D01*
X911031Y-190201D02*
X1186622D01*
X714181Y-229571D02*
X1186622D01*
X714181Y-111461D02*
X1186622D01*
X714181Y-268941D02*
Y-111461D01*
X911031Y-268941D02*
Y-111461D01*
X-466922Y900350D02*
X1186622D01*
Y-268941D02*
Y900350D01*
X-466922Y-268941D02*
Y900350D01*
Y-268941D02*
X1186622D01*
X920874Y-261067D02*
Y-255164D01*
X923825D01*
X924809Y-256147D01*
Y-258115D01*
X923825Y-259099D01*
X920874D01*
X926777Y-255164D02*
X928745D01*
X927761D01*
Y-261067D01*
X926777D01*
X928745D01*
X931697D02*
Y-257131D01*
X933665Y-255164D01*
X935633Y-257131D01*
Y-261067D01*
Y-258115D01*
X931697D01*
X937601Y-261067D02*
Y-255164D01*
X941536Y-261067D01*
Y-255164D01*
X946456D02*
X944488D01*
X943504Y-256147D01*
Y-260083D01*
X944488Y-261067D01*
X946456D01*
X947440Y-260083D01*
Y-256147D01*
X946456Y-255164D01*
X949408Y-262051D02*
X953343D01*
X959247Y-255164D02*
X955311D01*
Y-261067D01*
X959247D01*
X955311Y-258115D02*
X957279D01*
X961215Y-255164D02*
Y-261067D01*
X965151D01*
X967119Y-255164D02*
X969086D01*
X968102D01*
Y-261067D01*
X967119D01*
X969086D01*
X975974Y-256147D02*
X974990Y-255164D01*
X973022D01*
X972038Y-256147D01*
Y-257131D01*
X973022Y-258115D01*
X974990D01*
X975974Y-259099D01*
Y-260083D01*
X974990Y-261067D01*
X973022D01*
X972038Y-260083D01*
X981878Y-255164D02*
X977942D01*
Y-261067D01*
X981878D01*
X977942Y-258115D02*
X979910D01*
X983845Y-262051D02*
X987781D01*
X989749Y-256147D02*
X990733Y-255164D01*
X992701D01*
X993685Y-256147D01*
Y-260083D01*
X992701Y-261067D01*
X990733D01*
X989749Y-260083D01*
Y-256147D01*
X995653Y-261067D02*
X997620D01*
X996637D01*
Y-255164D01*
X995653Y-256147D01*
X1000572Y-261067D02*
Y-260083D01*
X1001556D01*
Y-261067D01*
X1000572D01*
X1005492D02*
Y-255164D01*
X1008444D01*
X1009428Y-256147D01*
Y-258115D01*
X1008444Y-259099D01*
X1005492D01*
X1015331Y-257131D02*
X1012379D01*
X1011396Y-258115D01*
Y-260083D01*
X1012379Y-261067D01*
X1015331D01*
X1017299Y-255164D02*
Y-261067D01*
X1020251D01*
X1021235Y-260083D01*
Y-259099D01*
Y-258115D01*
X1020251Y-257131D01*
X1017299D01*
X1023203Y-255164D02*
Y-261067D01*
X1026155D01*
X1027139Y-260083D01*
Y-256147D01*
X1026155Y-255164D01*
X1023203D01*
X1030090Y-261067D02*
X1032058D01*
X1033042Y-260083D01*
Y-258115D01*
X1032058Y-257131D01*
X1030090D01*
X1029106Y-258115D01*
Y-260083D01*
X1030090Y-261067D01*
X1038946Y-257131D02*
X1035994D01*
X1035010Y-258115D01*
Y-260083D01*
X1035994Y-261067D01*
X1038946D01*
D11*
X21654Y196850D02*
G03*
X-0Y175197I0J-21654D01*
G01*
X417323D02*
G03*
X395669Y196850I-21654J0D01*
G01*
X0Y0D02*
Y175197D01*
X21654Y196850D02*
X395669D01*
X417323Y175197D02*
X417323Y0D01*
X0D02*
X417323D01*
D14*
X276378Y163386D02*
X280331D01*
X276378D02*
Y167339D01*
X272425Y163386D02*
X276378D01*
Y159433D02*
Y163386D01*
X237598Y110236D02*
Y115173D01*
X232661Y110236D02*
X237598D01*
X242535D01*
X314961Y105299D02*
Y108268D01*
X317929D01*
X311992D02*
X314961D01*
X287402Y104173D02*
X292339D01*
X287402Y100417D02*
Y104173D01*
Y107929D01*
X275590Y109173D02*
X280528D01*
X275590Y106205D02*
Y109173D01*
X270654D02*
X275590D01*
X237598Y105299D02*
Y110236D01*
X282465Y104173D02*
X287402D01*
X90551Y145669D02*
Y149819D01*
X86402Y145669D02*
X90551D01*
X94701D01*
X90551Y141520D02*
Y145669D01*
D15*
X932685Y-168552D02*
Y-182327D01*
X939572D01*
X941868Y-180031D01*
Y-177735D01*
X939572Y-175439D01*
X932685D01*
X939572D01*
X941868Y-173144D01*
Y-170848D01*
X939572Y-168552D01*
X932685D01*
X948756Y-182327D02*
X953347D01*
X955643Y-180031D01*
Y-175439D01*
X953347Y-173144D01*
X948756D01*
X946460Y-175439D01*
Y-180031D01*
X948756Y-182327D01*
X962531Y-170848D02*
Y-173144D01*
X960235D01*
X964827D01*
X962531D01*
Y-180031D01*
X964827Y-182327D01*
X974010Y-170848D02*
Y-173144D01*
X971714D01*
X976306D01*
X974010D01*
Y-180031D01*
X976306Y-182327D01*
X985489D02*
X990081D01*
X992377Y-180031D01*
Y-175439D01*
X990081Y-173144D01*
X985489D01*
X983193Y-175439D01*
Y-180031D01*
X985489Y-182327D01*
X996968D02*
Y-173144D01*
X999264D01*
X1001560Y-175439D01*
Y-182327D01*
Y-175439D01*
X1003856Y-173144D01*
X1006152Y-175439D01*
Y-182327D01*
X1024519Y-168552D02*
Y-182327D01*
X1033702D01*
X1040590Y-173144D02*
X1045181D01*
X1047477Y-175439D01*
Y-182327D01*
X1040590D01*
X1038294Y-180031D01*
X1040590Y-177735D01*
X1047477D01*
X1052069Y-173144D02*
Y-180031D01*
X1054365Y-182327D01*
X1061252D01*
Y-184623D01*
X1058956Y-186919D01*
X1056660D01*
X1061252Y-182327D02*
Y-173144D01*
X1072731Y-182327D02*
X1068140D01*
X1065844Y-180031D01*
Y-175439D01*
X1068140Y-173144D01*
X1072731D01*
X1075027Y-175439D01*
Y-177735D01*
X1065844D01*
X1079619Y-173144D02*
Y-182327D01*
Y-177735D01*
X1081915Y-175439D01*
X1084211Y-173144D01*
X1086506D01*
X735834Y-247293D02*
Y-263036D01*
X741082Y-257788D01*
X746330Y-263036D01*
Y-247293D01*
X751577Y-263036D02*
X756825D01*
X754201D01*
Y-252540D01*
X751577D01*
X764696Y-263036D02*
Y-252540D01*
X767320D01*
X769944Y-255164D01*
Y-263036D01*
Y-255164D01*
X772568Y-252540D01*
X775192Y-255164D01*
Y-263036D01*
X780439Y-247293D02*
Y-257788D01*
X785687Y-263036D01*
X790935Y-257788D01*
Y-247293D01*
X806678Y-249917D02*
X804054Y-247293D01*
X798806D01*
X796182Y-249917D01*
Y-260412D01*
X798806Y-263036D01*
X804054D01*
X806678Y-260412D01*
Y-255164D01*
X801430D01*
X1090165Y-210546D02*
X1092789Y-207923D01*
X1098036D01*
X1100660Y-210546D01*
Y-221042D01*
X1098036Y-223665D01*
X1092789D01*
X1090165Y-221042D01*
Y-210546D01*
X1105908Y-223665D02*
X1111156D01*
X1108532D01*
Y-207923D01*
X1105908Y-210546D01*
X926779Y-212186D02*
X929075Y-209890D01*
X933667D01*
X935963Y-212186D01*
Y-214482D01*
X933667Y-216778D01*
X931371D01*
X933667D01*
X935963Y-219074D01*
Y-221370D01*
X933667Y-223665D01*
X929075D01*
X926779Y-221370D01*
X940554Y-212186D02*
X942850Y-209890D01*
X947442D01*
X949738Y-212186D01*
Y-221370D01*
X947442Y-223665D01*
X942850D01*
X940554Y-221370D01*
Y-212186D01*
X954329Y-223665D02*
X963513Y-214482D01*
X968104Y-223665D02*
X972696D01*
X970400D01*
Y-209890D01*
X968104Y-212186D01*
X979584D02*
X981880Y-209890D01*
X986471D01*
X988767Y-212186D01*
Y-221370D01*
X986471Y-223665D01*
X981880D01*
X979584Y-221370D01*
Y-212186D01*
X993359Y-223665D02*
X1002542Y-214482D01*
X1016317Y-223665D02*
X1007134D01*
X1016317Y-214482D01*
Y-212186D01*
X1014021Y-209890D01*
X1009430D01*
X1007134Y-212186D01*
X1020909D02*
X1023205Y-209890D01*
X1027796D01*
X1030092Y-212186D01*
Y-221370D01*
X1027796Y-223665D01*
X1023205D01*
X1020909Y-221370D01*
Y-212186D01*
X1043867Y-223665D02*
X1034684D01*
X1043867Y-214482D01*
Y-212186D01*
X1041572Y-209890D01*
X1036980D01*
X1034684Y-212186D01*
X1057642Y-223665D02*
X1048459D01*
X1057642Y-214482D01*
Y-212186D01*
X1055347Y-209890D01*
X1050755D01*
X1048459Y-212186D01*
X920874Y-144925D02*
Y-132331D01*
X927171D01*
X929270Y-134430D01*
Y-138628D01*
X927171Y-140727D01*
X920874D01*
X933468Y-144925D02*
X937666D01*
X935567D01*
Y-136529D01*
X933468D01*
X946062D02*
X950261D01*
X952360Y-138628D01*
Y-144925D01*
X946062D01*
X943963Y-142826D01*
X946062Y-140727D01*
X952360D01*
X956558Y-144925D02*
Y-136529D01*
X962855D01*
X964954Y-138628D01*
Y-144925D01*
X971251D02*
X975449D01*
X977548Y-142826D01*
Y-138628D01*
X975449Y-136529D01*
X971251D01*
X969152Y-138628D01*
Y-142826D01*
X971251Y-144925D01*
X1002737Y-132331D02*
X994341D01*
Y-144925D01*
X1002737D01*
X994341Y-138628D02*
X998539D01*
X1006935Y-144925D02*
X1011133D01*
X1009034D01*
Y-132331D01*
X1006935D01*
X1017430Y-144925D02*
X1021629D01*
X1019530D01*
Y-136529D01*
X1017430D01*
X1027926Y-144925D02*
X1034223D01*
X1036322Y-142826D01*
X1034223Y-140727D01*
X1030025D01*
X1027926Y-138628D01*
X1030025Y-136529D01*
X1036322D01*
X1046817Y-144925D02*
X1042619D01*
X1040520Y-142826D01*
Y-138628D01*
X1042619Y-136529D01*
X1046817D01*
X1048916Y-138628D01*
Y-140727D01*
X1040520D01*
D19*
X397316Y194216D02*
G03*
X414688Y176843I4259J-13113D01*
G01*
X363189Y157795D02*
G03*
X363189Y157795I-5020J0D01*
G01*
Y137795D02*
G03*
X363189Y137795I-5020J0D01*
G01*
Y117795D02*
G03*
X363189Y117795I-5020J0D01*
G01*
X351476Y157795D02*
G03*
X351476Y157795I-5020J0D01*
G01*
Y137795D02*
G03*
X351476Y137795I-5020J0D01*
G01*
Y117795D02*
G03*
X351476Y117795I-5020J0D01*
G01*
X280823Y163386D02*
G03*
X280823Y163386I-4445J0D01*
G01*
X243012Y165354D02*
G03*
X243012Y165354I-5413J0D01*
G01*
X288583Y119941D02*
G03*
X292815Y124173I0J4232D01*
G01*
X286221Y128405D02*
G03*
X286221Y119941I0J-4232D01*
G01*
X292815Y124173D02*
G03*
X288583Y128405I-4232J0D01*
G01*
X292815Y114173D02*
G03*
X288583Y118405I-4232J0D01*
G01*
X279929Y116673D02*
G03*
X281004Y119173I-2370J2500D01*
G01*
D02*
G03*
X277559Y122618I-3445J0D01*
G01*
X273622D02*
G03*
X271252Y116673I0J-3445D01*
G01*
X281004Y114173D02*
G03*
X279929Y116673I-3445J0D01*
G01*
X288583Y109941D02*
G03*
X292815Y114173I0J4232D01*
G01*
X286221Y118405D02*
G03*
X286221Y109941I0J-4232D01*
G01*
X271252Y116673D02*
G03*
X271240Y111684I2370J-2500D01*
G01*
X279941D02*
G03*
X281004Y114173I-2382J2489D01*
G01*
X318421Y109252D02*
G03*
X317933Y110728I-2476J0D01*
G01*
X311988D02*
G03*
X311500Y109252I1988J-1476D01*
G01*
X271240Y111684D02*
G03*
X273622Y105713I2382J-2511D01*
G01*
X281020Y109173D02*
G03*
X279941Y111684I-3461J0D01*
G01*
X243028Y110236D02*
G03*
X243028Y110236I-5429J0D01*
G01*
X311500Y107283D02*
G03*
X313976Y104807I2476J0D01*
G01*
X315945D02*
G03*
X318421Y107283I0J2476D01*
G01*
X292831Y104173D02*
G03*
X288583Y108421I-4248J0D01*
G01*
Y99925D02*
G03*
X292831Y104173I0J4248D01*
G01*
X277559Y105713D02*
G03*
X281020Y109173I0J3461D01*
G01*
X286221Y108421D02*
G03*
X286221Y99925I0J-4248D01*
G01*
X173917Y145669D02*
G03*
X173917Y145669I-4626J0D01*
G01*
X95193D02*
G03*
X86182Y144103I-4642J0D01*
G01*
X87203Y142454D02*
G03*
X95193Y145669I3348J3215D01*
G01*
X67028Y165354D02*
G03*
X67028Y165354I-5413J0D01*
G01*
X29535Y181102D02*
G03*
X20007Y194216I-13787J0D01*
G01*
X2635Y176843D02*
G03*
X29535Y181102I13113J4259D01*
G01*
X67028Y110236D02*
G03*
X67028Y110236I-5413J0D01*
G01*
X395669Y194268D02*
X396919Y194268D01*
X389065Y194268D02*
X392159Y191174D01*
X394632Y194268D02*
X395447Y193453D01*
X377929Y194268D02*
X388113Y184083D01*
X372361Y194268D02*
X388014Y178615D01*
X383497Y194268D02*
X389684Y188081D01*
X359855Y162523D02*
X391599Y194268D01*
X366793D02*
X414740Y146321D01*
X361226Y194268D02*
X414740Y140753D01*
X355658Y194268D02*
X414740Y135185D01*
X350090Y194268D02*
X414740Y129618D01*
X351200Y159437D02*
X386031Y194268D01*
X348552Y162357D02*
X380464Y194268D01*
X362749Y159850D02*
X388564Y185665D01*
X322251Y194268D02*
X354908Y161611D01*
X299980Y194268D02*
X353867Y140381D01*
X327819Y194268D02*
X359434Y162653D01*
X286762Y128405D02*
X352625Y194268D01*
X311116Y194268D02*
X343518Y161865D01*
X294412Y194268D02*
X345897Y142784D01*
X316683Y194268D02*
X348632Y162319D01*
X344522Y194268D02*
X414740Y124050D01*
X291883Y116823D02*
X369328Y194268D01*
X338954D02*
X414740Y118482D01*
X333387Y194268D02*
X414740Y112914D01*
X291323Y127399D02*
X358192Y194268D01*
X275407Y122618D02*
X347057Y194268D01*
X292704Y123212D02*
X363760Y194268D01*
X411646Y171686D02*
X414740Y168592D01*
X408553Y169211D02*
X414740Y163024D01*
X404556Y167641D02*
X414740Y157457D01*
X399088Y167541D02*
X414740Y151889D01*
X414740Y176447D02*
X414740Y175197D01*
X356597Y142562D02*
X389154Y175119D01*
X413926Y174974D02*
X414740Y174160D01*
X363184Y138014D02*
X394462Y169291D01*
X362388Y120515D02*
X414740Y172867D01*
X362038Y114597D02*
X414740Y167299D01*
X359044Y122738D02*
X403802Y167496D01*
X361312Y141709D02*
X391400Y171798D01*
X349907Y141441D02*
X387890Y179423D01*
X345649Y142750D02*
X356115Y153215D01*
X351463Y137428D02*
X353402Y139368D01*
X347009Y152806D02*
X357113Y142703D01*
X350980Y159971D02*
X353150Y157801D01*
X350889Y120151D02*
X398419Y167681D01*
X314949Y117618D02*
X353441Y156110D01*
X347802Y122631D02*
X357950Y132780D01*
X344265Y133279D02*
X355499Y122046D01*
X310728Y161248D02*
X353239Y118738D01*
X307452Y158957D02*
X344154Y122255D01*
X283277Y194268D02*
X309729Y167815D01*
X279905Y166091D02*
X308083Y194268D01*
X309469Y167815D02*
X335921Y194268D01*
X303901Y167815D02*
X330353Y194268D01*
X272141D02*
X301870Y164539D01*
X249870Y194268D02*
X276307Y167831D01*
X277709Y194268D02*
X304162Y167815D01*
X276067Y167820D02*
X302515Y194268D01*
X305548D02*
X341467Y158348D01*
X288845Y194268D02*
X342383Y140729D01*
X310728Y158957D02*
Y167815D01*
Y163507D02*
X341489Y194268D01*
X266574Y194268D02*
X301870Y158971D01*
Y158957D02*
Y167815D01*
X242498Y167657D02*
X269108Y194268D01*
X239640Y170368D02*
X263540Y194268D01*
X244302D02*
X272695Y165875D01*
X222031Y194268D02*
X287893Y128405D01*
X210896Y194268D02*
X235039Y170124D01*
X205328Y194268D02*
X232480Y167116D01*
X238735Y194268D02*
X315384Y117618D01*
X233167Y194268D02*
X311516Y115919D01*
X242676Y112158D02*
X324786Y194268D01*
X240037Y115087D02*
X319218Y194268D01*
X216463D02*
X283401Y127330D01*
X199760Y194268D02*
X271882Y122146D01*
X222031Y194268D02*
X287894Y128405D01*
X310728Y166816D02*
X341940Y135604D01*
X301870Y167815D02*
X310728D01*
X301870Y158957D02*
X310728D01*
X286221Y128405D02*
X288583D01*
X286221Y119941D02*
X288583D01*
X318406Y115506D02*
X341502Y138603D01*
X301884Y158957D02*
X341638Y119203D01*
X311516Y117618D02*
X318406D01*
X287898Y118405D02*
X289544Y120052D01*
X285060Y120103D02*
X286758Y118405D01*
X286221D02*
X288583D01*
X242369Y162795D02*
X282150Y123013D01*
X273622Y122618D02*
X277559D01*
X239360Y160236D02*
X276977Y122618D01*
X280249Y116325D02*
X284317Y120393D01*
X279980Y121624D02*
X282019Y123662D01*
X280961Y118634D02*
X282855Y116740D01*
X363027Y159060D02*
X414740Y107346D01*
X350526Y154857D02*
X414740Y90643D01*
X361985Y154534D02*
X414740Y101779D01*
X358176Y152776D02*
X414740Y96211D01*
X363077Y136739D02*
X414740Y85075D01*
X351445Y137235D02*
X414740Y73940D01*
X360755Y133493D02*
X414740Y79508D01*
X349390Y133722D02*
X414740Y68372D01*
Y2583D02*
X414740Y175197D01*
X294566Y2583D02*
X414740Y122757D01*
X318406Y114597D02*
X414740Y18262D01*
X300134Y2583D02*
X414740Y117189D01*
X350917Y115492D02*
X414740Y51669D01*
X292766Y123533D02*
X413716Y2583D01*
X362420Y115125D02*
X414740Y62804D01*
X280822Y163316D02*
X414740Y29398D01*
X255592Y2583D02*
X414740Y161731D01*
X278867Y159703D02*
X414740Y23830D01*
X261159Y2583D02*
X414740Y156163D01*
X261006Y194268D02*
X414740Y40533D01*
X255438Y194268D02*
X414740Y34966D01*
X289026Y108398D02*
X374896Y194268D01*
X277863Y2583D02*
X414740Y139460D01*
X272295Y2583D02*
X414740Y145028D01*
X288998Y2583D02*
X414740Y128324D01*
X283431Y2583D02*
X414740Y133892D01*
X292766Y123533D02*
X413716Y2583D01*
X266727D02*
X414740Y150596D01*
X290387Y120345D02*
X408148Y2583D01*
X361379D02*
X414740Y55944D01*
X355812Y2583D02*
X414740Y61511D01*
X372515Y2583D02*
X414740Y44808D01*
X366947Y2583D02*
X414740Y50376D01*
X359112Y112865D02*
X414740Y57237D01*
X347864Y112977D02*
X414740Y46101D01*
X350244Y2583D02*
X414740Y67079D01*
X344676Y2583D02*
X414740Y72647D01*
X400354Y2583D02*
X414740Y16969D01*
X394786Y2583D02*
X414740Y22537D01*
X411489Y2583D02*
X414740Y5834D01*
X405922Y2583D02*
X414740Y11401D01*
X383650Y2583D02*
X414740Y33672D01*
X378083Y2583D02*
X414740Y39240D01*
X389218Y2583D02*
X414740Y28105D01*
X292526Y112637D02*
X402581Y2583D01*
X289544Y110052D02*
X397013Y2583D01*
X318421Y109013D02*
X414740Y12695D01*
X316878Y104989D02*
X414740Y7127D01*
X292154Y101873D02*
X391445Y2583D01*
X277180Y105713D02*
X380310Y2583D01*
X288535Y99925D02*
X385877Y2583D01*
X316837D02*
X414740Y100486D01*
X311269Y2583D02*
X414740Y106053D01*
X327973Y2583D02*
X414740Y89350D01*
X322405Y2583D02*
X414740Y94918D01*
X333541Y2583D02*
X414740Y83782D01*
X305702Y2583D02*
X414740Y111621D01*
X339108Y2583D02*
X414740Y78215D01*
X318342Y109875D02*
X342811Y134344D01*
X311516Y110728D02*
Y117618D01*
X318406Y110728D02*
Y117618D01*
X280496Y111004D02*
X282237Y112744D01*
X292344Y106148D02*
X341895Y155700D01*
X250024Y2583D02*
X361368Y113926D01*
X280855Y113172D02*
X285646Y108382D01*
X227599Y194268D02*
X311682Y110185D01*
X194346Y2583D02*
X344815Y153052D01*
X199914Y2583D02*
X311516Y114184D01*
X238888Y2583D02*
X353226Y116921D01*
X222185Y2583D02*
X354255Y134653D01*
X244456Y2583D02*
X355450Y113576D01*
X242516Y112538D02*
X352471Y2583D01*
X227753D02*
X341620Y116450D01*
X216617Y2583D02*
X346824Y132789D01*
X233321Y2583D02*
X344101Y113363D01*
X318421Y107283D02*
Y109252D01*
X313976Y104807D02*
X315945D01*
X311500Y107283D02*
Y109252D01*
X286221Y108421D02*
X288583D01*
X286221Y99925D02*
X288583D01*
X286221Y109941D02*
X288583D01*
X280712Y107748D02*
X282410Y106050D01*
X273622Y105713D02*
X277559D01*
X242173Y107313D02*
X346903Y2583D01*
X205482D02*
X311500Y108601D01*
X238942Y104976D02*
X341335Y2583D01*
X211050D02*
X313353Y104887D01*
X94643Y147861D02*
X141049Y194268D01*
X91439Y150225D02*
X135482Y194268D01*
X121811D02*
X166628Y149451D01*
X116244Y194268D02*
X164669Y145843D01*
X80716Y156205D02*
X118778Y194268D01*
X79302Y160359D02*
X113210Y194268D01*
X87138Y157060D02*
X124346Y194268D01*
X85610Y149964D02*
X129914Y194268D01*
X160786D02*
X239900Y115153D01*
X155218Y194268D02*
X234675Y114811D01*
X194192Y194268D02*
X270343Y118117D01*
X188625Y194268D02*
X271224Y111668D01*
X75060Y122710D02*
X146617Y194268D01*
X75060Y111575D02*
X157753Y194268D01*
X149650D02*
X232338Y111580D01*
X66994Y164755D02*
X96507Y194268D01*
X21654Y194268D02*
X395669Y194268D01*
X75060Y161685D02*
X107643Y194268D01*
X73267Y165459D02*
X102075Y194268D01*
X61866Y170762D02*
X85372Y194268D01*
X43863Y194268D02*
X72707Y165424D01*
X65642Y168971D02*
X90939Y194268D01*
X75060Y117143D02*
X152185Y194268D01*
X75060Y106007D02*
X163320Y194268D01*
X75060Y100439D02*
X168888Y194268D01*
X75060Y94871D02*
X174456Y194268D01*
X2583Y117046D02*
X79804Y194268D01*
X2583Y122614D02*
X74236Y194268D01*
X49430D02*
X85275Y158423D01*
X173069Y148339D02*
X218998Y194268D01*
X169455Y150292D02*
X213430Y194268D01*
X84424Y153706D02*
X88366Y149764D01*
X82723Y152723D02*
X86259Y154767D01*
X84737Y147826D02*
X85997Y146566D01*
X83046Y147622D02*
X83910Y147623D01*
X82715Y146107D02*
X86182Y144103D01*
X80766Y142707D02*
X84271Y140681D01*
X80758Y156113D02*
X84298Y158160D01*
X75060Y163070D02*
X77745Y160385D01*
X80123Y158007D02*
X81556Y156574D01*
X79622Y157126D02*
X80052Y157872D01*
X75060Y159403D02*
X75060Y163507D01*
X71141Y159400D02*
X71141Y163507D01*
X68263Y160456D02*
X71141Y163334D01*
X79633Y141685D02*
X80060Y140947D01*
X75060Y128278D02*
X88359Y141578D01*
X76521Y139921D02*
X76963Y139157D01*
X75060Y133846D02*
X82765Y141551D01*
X71141Y94302D02*
X71141Y139443D01*
X63256Y141467D02*
X71141Y133582D01*
X75060Y94302D02*
X75060Y139428D01*
X29423Y182861D02*
X40830Y194268D01*
X28806Y176676D02*
X46397Y194268D01*
X38295D02*
X61798Y170765D01*
X32727Y194268D02*
X57799Y169195D01*
X22805Y192947D02*
X24126Y194268D01*
X21591D02*
X23081Y192778D01*
X28140Y187146D02*
X35262Y194268D01*
X25880Y190453D02*
X29694Y194268D01*
X29531Y180760D02*
X60545Y149746D01*
X26581Y172574D02*
X71141Y128015D01*
X23729Y169859D02*
X71141Y122447D01*
X27423Y188436D02*
X58975Y156884D01*
X27159Y194268D02*
X56202Y165225D01*
X28604Y176120D02*
X60388Y144335D01*
X20403Y194268D02*
X21654Y194268D01*
X2583Y161589D02*
X9704Y168710D01*
X2583Y172724D02*
X3904Y174045D01*
X2583Y175197D02*
Y176447D01*
Y167156D02*
X6397Y170971D01*
X2583Y133750D02*
X63101Y194268D01*
X2583Y139318D02*
X57533Y194268D01*
X2583Y174302D02*
X61248Y115637D01*
X2583Y128182D02*
X68668Y194268D01*
X2583Y168734D02*
X57529Y113788D01*
X2583Y144885D02*
X51965Y194268D01*
X2583Y150453D02*
X20174Y168045D01*
X67024Y165538D02*
X71141Y161421D01*
X65455Y161540D02*
X66733Y160262D01*
X66158Y140940D02*
X66597Y141702D01*
X66150Y157866D02*
X66579Y157124D01*
X64464Y156656D02*
X66002Y158195D01*
X61484Y159942D02*
X65191Y156236D01*
X62723Y153136D02*
X63331Y152528D01*
X61862Y158160D02*
X65439Y156093D01*
X65897Y113547D02*
X71141Y118792D01*
X62377Y115596D02*
X71141Y124359D01*
X67015Y109870D02*
X71141Y105744D01*
X66874Y108957D02*
X71141Y113224D01*
X65166Y106151D02*
X71141Y100176D01*
X61892Y140678D02*
X65419Y142718D01*
X60876Y104873D02*
X71141Y94608D01*
X20025Y167995D02*
X71141Y116879D01*
X15123Y167329D02*
X71141Y111311D01*
X59930Y144071D02*
X63484Y146125D01*
X59901Y154767D02*
X63460Y152710D01*
X2583Y111479D02*
X56207Y165103D01*
X2583Y156021D02*
X13989Y167428D01*
X60643Y158403D02*
X62214Y159974D01*
X2583Y89208D02*
X61296Y147921D01*
X2583Y94775D02*
X61595Y153788D01*
X2583Y83640D02*
X59745Y140803D01*
X2583Y105911D02*
X57998Y161326D01*
X2583Y163166D02*
X56251Y109498D01*
X2583Y100343D02*
X58942Y156703D01*
X127379Y194268D02*
X319064Y2583D01*
X110676Y194268D02*
X302361Y2583D01*
X121965D02*
X313650Y194268D01*
X105262Y2583D02*
X296947Y194268D01*
X93972Y194268D02*
X285658Y2583D01*
X88405Y194268D02*
X280090Y2583D01*
X105108Y194268D02*
X296793Y2583D01*
X99540Y194268D02*
X291225Y2583D01*
X171921Y194268D02*
X363606Y2583D01*
X166353Y194268D02*
X358038Y2583D01*
X183057Y194268D02*
X374742Y2583D01*
X177489Y194268D02*
X369174Y2583D01*
X138515Y194268D02*
X330200Y2583D01*
X132947Y194268D02*
X324632Y2583D01*
X144082Y194268D02*
X335767Y2583D01*
X54998Y194268D02*
X246683Y2583D01*
X44016D02*
X235701Y194268D01*
X55152Y2583D02*
X246837Y194268D01*
X49584Y2583D02*
X241269Y194268D01*
X32881Y2583D02*
X224566Y194268D01*
X16178Y2583D02*
X207863Y194268D01*
X38449Y2583D02*
X230134Y194268D01*
X77269Y194268D02*
X268954Y2583D01*
X71701Y194268D02*
X263386Y2583D01*
X82837Y194268D02*
X274522Y2583D01*
X66287D02*
X257973Y194268D01*
X66134Y194268D02*
X257819Y2583D01*
X60566Y194268D02*
X252251Y2583D01*
X60720D02*
X252405Y194268D01*
X144236Y2583D02*
X301870Y160216D01*
X138669Y2583D02*
X301870Y165784D01*
X149804Y2583D02*
X306178Y158957D01*
X116397Y2583D02*
X273674Y159859D01*
X160940Y2583D02*
X270702Y112345D01*
X155372Y2583D02*
X270502Y117713D01*
X133101Y2583D02*
X235677Y105159D01*
X127533Y2583D02*
X232748Y107798D01*
X173073Y143006D02*
X313496Y2583D01*
X169465Y141047D02*
X307928Y2583D01*
X188778D02*
X286122Y99926D01*
X177643Y2583D02*
X285141Y110081D01*
X172075Y2583D02*
X275205Y105713D01*
X166507Y2583D02*
X270927Y107002D01*
X183211Y2583D02*
X282592Y101964D01*
X82991Y2583D02*
X274676Y194268D01*
X71855Y2583D02*
X232585Y163312D01*
X77423Y2583D02*
X235296Y160455D01*
X2583Y2583D02*
X414740D01*
X86281Y140714D02*
X224412Y2583D01*
X79714Y141713D02*
X218844Y2583D01*
X76200Y139659D02*
X213276Y2583D01*
X94126D02*
X285811Y194268D01*
X88559Y2583D02*
X280244Y194268D01*
X110830Y2583D02*
X271944Y163697D01*
X99694Y2583D02*
X291379Y194268D01*
X94646Y143484D02*
X235547Y2583D01*
X87238Y156460D02*
X241115Y2583D01*
X91448Y141115D02*
X229980Y2583D01*
X10610D02*
X202295Y194268D01*
X5042Y2583D02*
X196727Y194268D01*
X2583Y135328D02*
X135328Y2583D01*
X2583Y140895D02*
X140895Y2583D01*
X2583Y124192D02*
X124192Y2583D01*
X2583Y129760D02*
X129760Y2583D01*
X2583Y113057D02*
X113057Y2583D01*
X2583Y118624D02*
X118624Y2583D01*
X75060Y135232D02*
X207709Y2583D01*
X75060Y129664D02*
X202141Y2583D01*
X75060Y124096D02*
X196573Y2583D01*
X75060Y118528D02*
X191005Y2583D01*
X27313D02*
X166622Y141891D01*
X21745Y2583D02*
X164668Y145506D01*
X75060Y112961D02*
X185438Y2583D01*
X2583Y66937D02*
X71141Y135495D01*
X2583Y16827D02*
X180024Y194268D01*
X2583Y39098D02*
X71141Y107656D01*
X2583Y61369D02*
X71141Y129927D01*
X2583Y72504D02*
X68545Y138467D01*
X2583Y78072D02*
X66299Y141788D01*
X2583Y55801D02*
X56255Y109473D01*
X2583Y5691D02*
X191159Y194268D01*
X2583Y11259D02*
X185591Y194268D01*
X2583Y157599D02*
X157599Y2583D01*
X2583Y5691D02*
X191159Y194268D01*
X2583Y152031D02*
X152031Y2583D01*
X2583D02*
X2583Y175197D01*
Y146463D02*
X146463Y2583D01*
X2583Y107489D02*
X107489Y2583D01*
X2583Y35108D02*
X35108Y2583D01*
X2583Y23972D02*
X23972Y2583D01*
X2583Y29540D02*
X29540Y2583D01*
X2583Y12837D02*
X12837Y2583D01*
X2583Y18405D02*
X18405Y2583D01*
X2583Y7269D02*
X7269Y2583D01*
X75060Y101825D02*
X174302Y2583D01*
X75060Y107393D02*
X179870Y2583D01*
X75060Y96257D02*
X168734Y2583D01*
X73383Y92366D02*
X163166Y2583D01*
X2583Y96353D02*
X96353Y2583D01*
X2583Y101921D02*
X101921Y2583D01*
X2583Y90785D02*
X90785Y2583D01*
X2583Y22394D02*
X72597Y92408D01*
X2583Y27962D02*
X71141Y96521D01*
X2583Y79650D02*
X79650Y2583D01*
X2583Y85218D02*
X85218Y2583D01*
X2583Y44666D02*
X62893Y104976D01*
X2583Y50233D02*
X58303Y105954D01*
X2583Y33530D02*
X71141Y102088D01*
X2583Y68514D02*
X68514Y2583D01*
X2583Y74082D02*
X74082Y2583D01*
X2583Y57379D02*
X57379Y2583D01*
X2583Y62947D02*
X62947Y2583D01*
X2583Y46243D02*
X46243Y2583D01*
X2583Y51811D02*
X51811Y2583D01*
X2583Y40676D02*
X40676Y2583D01*
X1072449Y-202012D02*
Y-194141D01*
X1076384D01*
X1077696Y-195452D01*
Y-198076D01*
X1076384Y-199388D01*
X1072449D01*
X1075072D02*
X1077696Y-202012D01*
X1084256D02*
X1081632D01*
X1080320Y-200700D01*
Y-198076D01*
X1081632Y-196764D01*
X1084256D01*
X1085568Y-198076D01*
Y-199388D01*
X1080320D01*
X1088192Y-196764D02*
X1090815Y-202012D01*
X1093439Y-196764D01*
X718118Y-233511D02*
Y-241382D01*
X722053D01*
X723365Y-240070D01*
Y-234823D01*
X722053Y-233511D01*
X718118D01*
X729925Y-241382D02*
X727301D01*
X725989Y-240070D01*
Y-237446D01*
X727301Y-236134D01*
X729925D01*
X731237Y-237446D01*
Y-238758D01*
X725989D01*
X733861Y-241382D02*
X737796D01*
X739108Y-240070D01*
X737796Y-238758D01*
X735173D01*
X733861Y-237446D01*
X735173Y-236134D01*
X739108D01*
X744356Y-244006D02*
X745668D01*
X746980Y-242694D01*
Y-236134D01*
X743044D01*
X741732Y-237446D01*
Y-240070D01*
X743044Y-241382D01*
X746980D01*
X749604D02*
X752227D01*
X750916D01*
Y-236134D01*
X749604D01*
X756163Y-241382D02*
Y-236134D01*
X760099D01*
X761411Y-237446D01*
Y-241382D01*
X767971D02*
X765347D01*
X764035Y-240070D01*
Y-237446D01*
X765347Y-236134D01*
X767971D01*
X769282Y-237446D01*
Y-238758D01*
X764035D01*
X771906Y-236134D02*
Y-241382D01*
Y-238758D01*
X773218Y-237446D01*
X774530Y-236134D01*
X775842D01*
X914968Y-115400D02*
Y-123272D01*
X918904D01*
X920216Y-121960D01*
Y-116712D01*
X918904Y-115400D01*
X914968D01*
X924152Y-123272D02*
X926775D01*
X928087Y-121960D01*
Y-119336D01*
X926775Y-118024D01*
X924152D01*
X922840Y-119336D01*
Y-121960D01*
X924152Y-123272D01*
X935959Y-118024D02*
X932023D01*
X930711Y-119336D01*
Y-121960D01*
X932023Y-123272D01*
X935959D01*
X938583Y-118024D02*
Y-121960D01*
X939894Y-123272D01*
X943830D01*
Y-118024D01*
X946454Y-123272D02*
Y-118024D01*
X947766D01*
X949078Y-119336D01*
Y-123272D01*
Y-119336D01*
X950390Y-118024D01*
X951702Y-119336D01*
Y-123272D01*
X958261D02*
X955637D01*
X954326Y-121960D01*
Y-119336D01*
X955637Y-118024D01*
X958261D01*
X959573Y-119336D01*
Y-120648D01*
X954326D01*
X962197Y-123272D02*
Y-118024D01*
X966133D01*
X967445Y-119336D01*
Y-123272D01*
X971381Y-116712D02*
Y-118024D01*
X970068D01*
X972692D01*
X971381D01*
Y-121960D01*
X972692Y-123272D01*
X914968Y-154770D02*
Y-162642D01*
X920216D01*
X924152Y-157394D02*
X926775D01*
X928087Y-158706D01*
Y-162642D01*
X924152D01*
X922840Y-161330D01*
X924152Y-160018D01*
X928087D01*
X930711Y-157394D02*
Y-161330D01*
X932023Y-162642D01*
X935959D01*
Y-163954D01*
X934647Y-165266D01*
X933335D01*
X935959Y-162642D02*
Y-157394D01*
X942518Y-162642D02*
X939894D01*
X938583Y-161330D01*
Y-158706D01*
X939894Y-157394D01*
X942518D01*
X943830Y-158706D01*
Y-160018D01*
X938583D01*
X946454Y-157394D02*
Y-162642D01*
Y-160018D01*
X947766Y-158706D01*
X949078Y-157394D01*
X950390D01*
X962197Y-162642D02*
Y-154770D01*
X967445Y-162642D01*
Y-154770D01*
X971381Y-157394D02*
X974004D01*
X975316Y-158706D01*
Y-162642D01*
X971381D01*
X970068Y-161330D01*
X971381Y-160018D01*
X975316D01*
X977940Y-162642D02*
Y-157394D01*
X979252D01*
X980564Y-158706D01*
Y-162642D01*
Y-158706D01*
X981876Y-157394D01*
X983188Y-158706D01*
Y-162642D01*
X989747D02*
X987123D01*
X985812Y-161330D01*
Y-158706D01*
X987123Y-157394D01*
X989747D01*
X991059Y-158706D01*
Y-160018D01*
X985812D01*
X914968Y-194141D02*
Y-202012D01*
X918904D01*
X920216Y-200700D01*
Y-195452D01*
X918904Y-194141D01*
X914968D01*
X924152Y-196764D02*
X926775D01*
X928087Y-198076D01*
Y-202012D01*
X924152D01*
X922840Y-200700D01*
X924152Y-199388D01*
X928087D01*
X932023Y-195452D02*
Y-196764D01*
X930711D01*
X933335D01*
X932023D01*
Y-200700D01*
X933335Y-202012D01*
X941206D02*
X938583D01*
X937271Y-200700D01*
Y-198076D01*
X938583Y-196764D01*
X941206D01*
X942518Y-198076D01*
Y-199388D01*
X937271D01*
X914968Y-233511D02*
Y-241382D01*
X918904D01*
X920216Y-240070D01*
Y-234823D01*
X918904Y-233511D01*
X914968D01*
X924152Y-241382D02*
X926775D01*
X928087Y-240070D01*
Y-237446D01*
X926775Y-236134D01*
X924152D01*
X922840Y-237446D01*
Y-240070D01*
X924152Y-241382D01*
X935959Y-236134D02*
X932023D01*
X930711Y-237446D01*
Y-240070D01*
X932023Y-241382D01*
X935959D01*
X938583Y-236134D02*
Y-240070D01*
X939894Y-241382D01*
X943830D01*
Y-236134D01*
X946454Y-241382D02*
Y-236134D01*
X947766D01*
X949078Y-237446D01*
Y-241382D01*
Y-237446D01*
X950390Y-236134D01*
X951702Y-237446D01*
Y-241382D01*
X958261D02*
X955637D01*
X954326Y-240070D01*
Y-237446D01*
X955637Y-236134D01*
X958261D01*
X959573Y-237446D01*
Y-238758D01*
X954326D01*
X962197Y-241382D02*
Y-236134D01*
X966133D01*
X967445Y-237446D01*
Y-241382D01*
X971381Y-234823D02*
Y-236134D01*
X970068D01*
X972692D01*
X971381D01*
Y-240070D01*
X972692Y-241382D01*
D39*
X237598Y165354D02*
D03*
X61614D02*
D03*
Y110236D02*
D03*
X237598D02*
D03*
D40*
X401575Y181102D02*
D03*
X15748D02*
D03*
D41*
X358169Y157795D02*
D03*
Y137795D02*
D03*
Y117795D02*
D03*
X346457Y157795D02*
D03*
Y137795D02*
D03*
Y117795D02*
D03*
D42*
X314961Y114173D02*
D03*
D43*
Y108268D02*
D03*
D44*
X169291Y145669D02*
D03*
X90551D02*
D03*
D45*
X275590Y109173D02*
D03*
Y119173D02*
D03*
D46*
Y114173D02*
D03*
D47*
X287402Y104173D02*
D03*
Y114173D02*
D03*
Y124173D02*
D03*
D48*
X276378Y163386D02*
D03*
D49*
X306299D02*
D03*
M02*
