G04*
G04 #@! TF.GenerationSoftware,Altium Limited,Altium Designer,22.10.1 (41)*
G04*
G04 Layer_Color=8388736*
%FSLAX25Y25*%
%MOIN*%
G70*
G04*
G04 #@! TF.SameCoordinates,8BAF8B8E-E321-4B2E-8998-6E6DE7EF2018*
G04*
G04*
G04 #@! TF.FilePolarity,Positive*
G04*
G01*
G75*
%ADD10C,0.00787*%
%ADD11C,0.00591*%
%ADD14C,0.01000*%
%ADD15C,0.01575*%
%ADD19C,0.00984*%
%ADD50C,0.00600*%
G36*
X761965Y-141778D02*
X763683D01*
Y-142065D01*
X764542D01*
Y-142351D01*
X765401D01*
Y-142637D01*
X766260D01*
Y-142924D01*
X766832D01*
Y-143210D01*
X767119D01*
Y-143496D01*
X767691D01*
Y-143783D01*
X767978D01*
Y-144069D01*
X768550D01*
Y-144355D01*
X768837D01*
Y-144641D01*
X769123D01*
Y-144928D01*
X769409D01*
Y-145214D01*
X769696D01*
Y-145501D01*
X769982D01*
Y-145787D01*
X770268D01*
Y-146073D01*
Y-146359D01*
X770554D01*
Y-146646D01*
X770841D01*
Y-146932D01*
Y-147218D01*
X771127D01*
Y-147505D01*
X771414D01*
Y-147791D01*
Y-148077D01*
X771700D01*
Y-148364D01*
Y-148650D01*
Y-148936D01*
X771986D01*
Y-149223D01*
Y-149509D01*
Y-149795D01*
X772272D01*
Y-150082D01*
Y-150368D01*
Y-150654D01*
Y-150940D01*
X772559D01*
Y-151227D01*
Y-151513D01*
Y-151799D01*
Y-152086D01*
Y-152372D01*
X772845D01*
Y-152658D01*
Y-152945D01*
Y-153231D01*
Y-153517D01*
Y-153804D01*
Y-154090D01*
Y-154376D01*
Y-154663D01*
Y-154949D01*
Y-155235D01*
Y-155521D01*
Y-155808D01*
Y-156094D01*
Y-156380D01*
Y-156667D01*
Y-156953D01*
Y-157239D01*
Y-157526D01*
Y-157812D01*
Y-158098D01*
X772559D01*
Y-158385D01*
Y-158671D01*
Y-158957D01*
Y-159244D01*
Y-159530D01*
Y-159816D01*
Y-160102D01*
X772272D01*
Y-160389D01*
Y-160675D01*
Y-160961D01*
Y-161248D01*
Y-161534D01*
X771986D01*
Y-161820D01*
Y-162107D01*
Y-162393D01*
Y-162679D01*
Y-162966D01*
X771700D01*
Y-163252D01*
Y-163538D01*
Y-163824D01*
X771414D01*
Y-164111D01*
Y-164397D01*
Y-164683D01*
Y-164970D01*
X771127D01*
Y-165256D01*
Y-165542D01*
Y-165829D01*
X770841D01*
Y-166115D01*
Y-166401D01*
X770554D01*
Y-166688D01*
Y-166974D01*
Y-167260D01*
X770268D01*
Y-167547D01*
Y-167833D01*
X769982D01*
Y-168119D01*
Y-168405D01*
X769696D01*
Y-168692D01*
Y-168978D01*
X769409D01*
Y-169264D01*
X769123D01*
Y-169551D01*
Y-169837D01*
X768837D01*
Y-170123D01*
X768550D01*
Y-170410D01*
X768264D01*
Y-170696D01*
Y-170982D01*
X767978D01*
Y-171269D01*
X767691D01*
Y-171555D01*
X767405D01*
Y-171841D01*
X767119D01*
Y-172127D01*
X766832D01*
Y-172414D01*
X766260D01*
Y-172700D01*
X765974D01*
Y-172986D01*
X765401D01*
Y-173273D01*
X765115D01*
Y-173559D01*
X764542D01*
Y-173845D01*
X763683D01*
Y-174132D01*
X762824D01*
Y-174418D01*
X761965D01*
Y-174704D01*
X760247D01*
Y-174991D01*
X755094D01*
Y-174704D01*
X752517D01*
Y-174418D01*
X750513D01*
Y-174132D01*
X749081D01*
Y-173845D01*
X747649D01*
Y-173559D01*
X746218D01*
Y-173845D01*
Y-174132D01*
Y-174418D01*
Y-174704D01*
Y-174991D01*
Y-175277D01*
Y-175563D01*
X745932D01*
Y-175850D01*
Y-176136D01*
Y-176422D01*
Y-176709D01*
Y-176995D01*
Y-177281D01*
X745645D01*
Y-177568D01*
Y-177854D01*
Y-178140D01*
Y-178426D01*
Y-178713D01*
Y-178999D01*
X745359D01*
Y-179285D01*
Y-179572D01*
Y-179858D01*
Y-180144D01*
Y-180431D01*
Y-180717D01*
Y-181003D01*
X745073D01*
Y-181290D01*
Y-181576D01*
Y-181862D01*
Y-182149D01*
Y-182435D01*
Y-182721D01*
X744786D01*
Y-183007D01*
Y-183294D01*
Y-183580D01*
Y-183866D01*
Y-184153D01*
Y-184439D01*
X744500D01*
Y-184725D01*
Y-185012D01*
Y-185298D01*
Y-185584D01*
Y-185871D01*
Y-186157D01*
Y-186443D01*
X744214D01*
Y-186730D01*
Y-187016D01*
Y-187302D01*
Y-187588D01*
Y-187875D01*
Y-188161D01*
X743927D01*
Y-188447D01*
Y-188734D01*
Y-189020D01*
Y-189306D01*
Y-189593D01*
Y-189879D01*
X743641D01*
Y-190165D01*
Y-190452D01*
Y-190738D01*
Y-191024D01*
Y-191311D01*
Y-191597D01*
Y-191883D01*
X730184D01*
Y-191597D01*
X730471D01*
Y-191311D01*
Y-191024D01*
Y-190738D01*
Y-190452D01*
Y-190165D01*
X730757D01*
Y-189879D01*
Y-189593D01*
Y-189306D01*
Y-189020D01*
Y-188734D01*
Y-188447D01*
Y-188161D01*
X731043D01*
Y-187875D01*
Y-187588D01*
Y-187302D01*
Y-187016D01*
Y-186730D01*
Y-186443D01*
X731330D01*
Y-186157D01*
Y-185871D01*
Y-185584D01*
Y-185298D01*
Y-185012D01*
Y-184725D01*
X731616D01*
Y-184439D01*
Y-184153D01*
Y-183866D01*
Y-183580D01*
Y-183294D01*
Y-183007D01*
Y-182721D01*
X731902D01*
Y-182435D01*
Y-182149D01*
Y-181862D01*
Y-181576D01*
Y-181290D01*
Y-181003D01*
X732189D01*
Y-180717D01*
Y-180431D01*
Y-180144D01*
Y-179858D01*
Y-179572D01*
Y-179285D01*
X732475D01*
Y-178999D01*
Y-178713D01*
Y-178426D01*
Y-178140D01*
Y-177854D01*
Y-177568D01*
X732761D01*
Y-177281D01*
Y-176995D01*
Y-176709D01*
Y-176422D01*
Y-176136D01*
Y-175850D01*
Y-175563D01*
X733047D01*
Y-175277D01*
Y-174991D01*
Y-174704D01*
Y-174418D01*
Y-174132D01*
Y-173845D01*
X733334D01*
Y-173559D01*
Y-173273D01*
Y-172986D01*
Y-172700D01*
Y-172414D01*
Y-172127D01*
X733620D01*
Y-171841D01*
Y-171555D01*
Y-171269D01*
Y-170982D01*
Y-170696D01*
Y-170410D01*
X733907D01*
Y-170123D01*
Y-169837D01*
Y-169551D01*
Y-169264D01*
Y-168978D01*
Y-168692D01*
Y-168405D01*
X734193D01*
Y-168119D01*
Y-167833D01*
Y-167547D01*
Y-167260D01*
Y-166974D01*
Y-166688D01*
X734479D01*
Y-166401D01*
Y-166115D01*
Y-165829D01*
Y-165542D01*
Y-165256D01*
Y-164970D01*
X734765D01*
Y-164683D01*
Y-164397D01*
Y-164111D01*
Y-163824D01*
Y-163538D01*
Y-163252D01*
Y-162966D01*
X735052D01*
Y-162679D01*
Y-162393D01*
Y-162107D01*
Y-161820D01*
Y-161534D01*
Y-161248D01*
X735338D01*
Y-160961D01*
Y-160675D01*
Y-160389D01*
Y-160102D01*
Y-159816D01*
Y-159530D01*
X735624D01*
Y-159244D01*
Y-158957D01*
Y-158671D01*
Y-158385D01*
Y-158098D01*
Y-157812D01*
X735911D01*
Y-157526D01*
Y-157239D01*
Y-156953D01*
Y-156667D01*
Y-156380D01*
Y-156094D01*
Y-155808D01*
X736197D01*
Y-155521D01*
Y-155235D01*
Y-154949D01*
Y-154663D01*
Y-154376D01*
Y-154090D01*
X736483D01*
Y-153804D01*
Y-153517D01*
Y-153231D01*
Y-152945D01*
Y-152658D01*
Y-152372D01*
X736770D01*
Y-152086D01*
Y-151799D01*
Y-151513D01*
Y-151227D01*
Y-150940D01*
Y-150654D01*
Y-150368D01*
X737056D01*
Y-150082D01*
Y-149795D01*
Y-149509D01*
Y-149223D01*
Y-148936D01*
Y-148650D01*
X737342D01*
Y-148364D01*
Y-148077D01*
Y-147791D01*
Y-147505D01*
Y-147218D01*
Y-146932D01*
X737629D01*
Y-146646D01*
Y-146359D01*
Y-146073D01*
Y-145787D01*
Y-145501D01*
Y-145214D01*
Y-144928D01*
X737915D01*
Y-144641D01*
Y-144355D01*
Y-144069D01*
Y-143783D01*
Y-143496D01*
Y-143210D01*
X738201D01*
Y-142924D01*
Y-142637D01*
Y-142351D01*
Y-142065D01*
Y-141778D01*
Y-141492D01*
X761965D01*
Y-141778D01*
D02*
G37*
G36*
X793173Y-138343D02*
Y-138629D01*
X792887D01*
Y-138915D01*
Y-139202D01*
Y-139488D01*
Y-139774D01*
Y-140060D01*
Y-140347D01*
X792601D01*
Y-140633D01*
Y-140919D01*
Y-141206D01*
Y-141492D01*
Y-141778D01*
Y-142065D01*
X792314D01*
Y-142351D01*
Y-142637D01*
Y-142924D01*
Y-143210D01*
Y-143496D01*
Y-143783D01*
Y-144069D01*
X792028D01*
Y-144355D01*
Y-144641D01*
Y-144928D01*
Y-145214D01*
Y-145501D01*
Y-145787D01*
X791742D01*
Y-146073D01*
Y-146359D01*
Y-146646D01*
Y-146932D01*
Y-147218D01*
Y-147505D01*
X791455D01*
Y-147791D01*
Y-148077D01*
Y-148364D01*
Y-148650D01*
Y-148936D01*
Y-149223D01*
Y-149509D01*
X791169D01*
Y-149795D01*
Y-150082D01*
Y-150368D01*
Y-150654D01*
Y-150940D01*
Y-151227D01*
X790883D01*
Y-151513D01*
Y-151799D01*
Y-152086D01*
Y-152372D01*
Y-152658D01*
Y-152945D01*
X790596D01*
Y-153231D01*
Y-153517D01*
Y-153804D01*
Y-154090D01*
Y-154376D01*
Y-154663D01*
X790310D01*
Y-154949D01*
Y-155235D01*
Y-155521D01*
Y-155808D01*
Y-156094D01*
Y-156380D01*
Y-156667D01*
X790024D01*
Y-156953D01*
Y-157239D01*
Y-157526D01*
Y-157812D01*
Y-158098D01*
Y-158385D01*
X789738D01*
Y-158671D01*
Y-158957D01*
X790310D01*
Y-158671D01*
X790596D01*
Y-158385D01*
X790883D01*
Y-158098D01*
X791455D01*
Y-157812D01*
X791742D01*
Y-157526D01*
X792028D01*
Y-157239D01*
X792601D01*
Y-156953D01*
X793173D01*
Y-156667D01*
X793460D01*
Y-156380D01*
X794032D01*
Y-156094D01*
X794891D01*
Y-155808D01*
X795464D01*
Y-155521D01*
X796323D01*
Y-155235D01*
X797754D01*
Y-154949D01*
X804053D01*
Y-155235D01*
X805198D01*
Y-155521D01*
X806057D01*
Y-155808D01*
X806630D01*
Y-156094D01*
X806916D01*
Y-156380D01*
X807489D01*
Y-156667D01*
X807775D01*
Y-156953D01*
X808062D01*
Y-157239D01*
X808348D01*
Y-157526D01*
X808634D01*
Y-157812D01*
Y-158098D01*
X808920D01*
Y-158385D01*
Y-158671D01*
X809207D01*
Y-158957D01*
Y-159244D01*
Y-159530D01*
X809493D01*
Y-159816D01*
Y-160102D01*
Y-160389D01*
Y-160675D01*
X809779D01*
Y-160961D01*
Y-161248D01*
Y-161534D01*
Y-161820D01*
Y-162107D01*
Y-162393D01*
Y-162679D01*
Y-162966D01*
Y-163252D01*
Y-163538D01*
Y-163824D01*
Y-164111D01*
Y-164397D01*
Y-164683D01*
Y-164970D01*
Y-165256D01*
Y-165542D01*
Y-165829D01*
X809493D01*
Y-166115D01*
Y-166401D01*
Y-166688D01*
Y-166974D01*
Y-167260D01*
Y-167547D01*
Y-167833D01*
X809207D01*
Y-168119D01*
Y-168405D01*
Y-168692D01*
Y-168978D01*
Y-169264D01*
Y-169551D01*
Y-169837D01*
X808920D01*
Y-170123D01*
Y-170410D01*
Y-170696D01*
Y-170982D01*
Y-171269D01*
Y-171555D01*
X808634D01*
Y-171841D01*
Y-172127D01*
Y-172414D01*
Y-172700D01*
Y-172986D01*
Y-173273D01*
X808348D01*
Y-173559D01*
Y-173845D01*
Y-174132D01*
Y-174418D01*
Y-174704D01*
Y-174991D01*
X808062D01*
Y-175277D01*
Y-175563D01*
Y-175850D01*
Y-176136D01*
Y-176422D01*
Y-176709D01*
Y-176995D01*
X807775D01*
Y-177281D01*
Y-177568D01*
Y-177854D01*
Y-178140D01*
Y-178426D01*
Y-178713D01*
X807489D01*
Y-178999D01*
Y-179285D01*
Y-179572D01*
Y-179858D01*
Y-180144D01*
Y-180431D01*
X807203D01*
Y-180717D01*
Y-181003D01*
Y-181290D01*
Y-181576D01*
Y-181862D01*
Y-182149D01*
Y-182435D01*
X806916D01*
Y-182721D01*
Y-183007D01*
Y-183294D01*
Y-183580D01*
Y-183866D01*
Y-184153D01*
X806630D01*
Y-184439D01*
Y-184725D01*
Y-185012D01*
Y-185298D01*
Y-185584D01*
Y-185871D01*
X806344D01*
Y-186157D01*
Y-186443D01*
Y-186730D01*
Y-187016D01*
Y-187302D01*
Y-187588D01*
X806057D01*
Y-187875D01*
Y-188161D01*
Y-188447D01*
Y-188734D01*
Y-189020D01*
Y-189306D01*
Y-189593D01*
X805771D01*
Y-189879D01*
Y-190165D01*
Y-190452D01*
Y-190738D01*
Y-191024D01*
Y-191311D01*
X805485D01*
Y-191597D01*
Y-191883D01*
X792314D01*
Y-191597D01*
Y-191311D01*
X792601D01*
Y-191024D01*
Y-190738D01*
Y-190452D01*
Y-190165D01*
Y-189879D01*
Y-189593D01*
X792887D01*
Y-189306D01*
Y-189020D01*
Y-188734D01*
Y-188447D01*
Y-188161D01*
Y-187875D01*
Y-187588D01*
X793173D01*
Y-187302D01*
Y-187016D01*
Y-186730D01*
Y-186443D01*
Y-186157D01*
Y-185871D01*
X793460D01*
Y-185584D01*
Y-185298D01*
Y-185012D01*
Y-184725D01*
Y-184439D01*
Y-184153D01*
X793746D01*
Y-183866D01*
Y-183580D01*
Y-183294D01*
Y-183007D01*
Y-182721D01*
Y-182435D01*
Y-182149D01*
X794032D01*
Y-181862D01*
Y-181576D01*
Y-181290D01*
Y-181003D01*
Y-180717D01*
Y-180431D01*
X794318D01*
Y-180144D01*
Y-179858D01*
Y-179572D01*
Y-179285D01*
Y-178999D01*
Y-178713D01*
Y-178426D01*
X794605D01*
Y-178140D01*
Y-177854D01*
Y-177568D01*
Y-177281D01*
Y-176995D01*
Y-176709D01*
X794891D01*
Y-176422D01*
Y-176136D01*
Y-175850D01*
Y-175563D01*
Y-175277D01*
Y-174991D01*
X795177D01*
Y-174704D01*
Y-174418D01*
Y-174132D01*
Y-173845D01*
Y-173559D01*
Y-173273D01*
X795464D01*
Y-172986D01*
Y-172700D01*
Y-172414D01*
Y-172127D01*
Y-171841D01*
Y-171555D01*
Y-171269D01*
X795750D01*
Y-170982D01*
Y-170696D01*
Y-170410D01*
Y-170123D01*
Y-169837D01*
Y-169551D01*
X796036D01*
Y-169264D01*
Y-168978D01*
Y-168692D01*
Y-168405D01*
Y-168119D01*
Y-167833D01*
Y-167547D01*
X796323D01*
Y-167260D01*
Y-166974D01*
Y-166688D01*
Y-166401D01*
Y-166115D01*
Y-165829D01*
X796036D01*
Y-165542D01*
Y-165256D01*
X795750D01*
Y-164970D01*
X795464D01*
Y-164683D01*
X794891D01*
Y-164397D01*
X793173D01*
Y-164683D01*
X791742D01*
Y-164970D01*
X790883D01*
Y-165256D01*
X790310D01*
Y-165542D01*
X790024D01*
Y-165829D01*
X789451D01*
Y-166115D01*
X789165D01*
Y-166401D01*
X788878D01*
Y-166688D01*
Y-166974D01*
X788592D01*
Y-167260D01*
Y-167547D01*
Y-167833D01*
X788306D01*
Y-168119D01*
Y-168405D01*
Y-168692D01*
Y-168978D01*
Y-169264D01*
Y-169551D01*
X788020D01*
Y-169837D01*
Y-170123D01*
Y-170410D01*
Y-170696D01*
Y-170982D01*
Y-171269D01*
Y-171555D01*
X787733D01*
Y-171841D01*
Y-172127D01*
Y-172414D01*
Y-172700D01*
Y-172986D01*
Y-173273D01*
X787447D01*
Y-173559D01*
Y-173845D01*
Y-174132D01*
Y-174418D01*
Y-174704D01*
Y-174991D01*
X787161D01*
Y-175277D01*
Y-175563D01*
Y-175850D01*
Y-176136D01*
Y-176422D01*
Y-176709D01*
X786874D01*
Y-176995D01*
Y-177281D01*
Y-177568D01*
Y-177854D01*
Y-178140D01*
Y-178426D01*
Y-178713D01*
X786588D01*
Y-178999D01*
Y-179285D01*
Y-179572D01*
Y-179858D01*
Y-180144D01*
Y-180431D01*
X786302D01*
Y-180717D01*
Y-181003D01*
Y-181290D01*
Y-181576D01*
Y-181862D01*
Y-182149D01*
X786015D01*
Y-182435D01*
Y-182721D01*
Y-183007D01*
Y-183294D01*
Y-183580D01*
Y-183866D01*
Y-184153D01*
X785729D01*
Y-184439D01*
Y-184725D01*
Y-185012D01*
Y-185298D01*
Y-185584D01*
Y-185871D01*
X785443D01*
Y-186157D01*
Y-186443D01*
Y-186730D01*
Y-187016D01*
Y-187302D01*
Y-187588D01*
X785156D01*
Y-187875D01*
Y-188161D01*
Y-188447D01*
Y-188734D01*
Y-189020D01*
Y-189306D01*
X784870D01*
Y-189593D01*
Y-189879D01*
Y-190165D01*
Y-190452D01*
Y-190738D01*
Y-191024D01*
Y-191311D01*
X784584D01*
Y-191597D01*
Y-191883D01*
X771414D01*
Y-191597D01*
Y-191311D01*
X771700D01*
Y-191024D01*
Y-190738D01*
Y-190452D01*
Y-190165D01*
Y-189879D01*
Y-189593D01*
Y-189306D01*
X771986D01*
Y-189020D01*
Y-188734D01*
Y-188447D01*
Y-188161D01*
Y-187875D01*
Y-187588D01*
X772272D01*
Y-187302D01*
Y-187016D01*
Y-186730D01*
Y-186443D01*
Y-186157D01*
Y-185871D01*
X772559D01*
Y-185584D01*
Y-185298D01*
Y-185012D01*
Y-184725D01*
Y-184439D01*
Y-184153D01*
Y-183866D01*
X772845D01*
Y-183580D01*
Y-183294D01*
Y-183007D01*
Y-182721D01*
Y-182435D01*
Y-182149D01*
X773131D01*
Y-181862D01*
Y-181576D01*
Y-181290D01*
Y-181003D01*
Y-180717D01*
Y-180431D01*
X773418D01*
Y-180144D01*
Y-179858D01*
Y-179572D01*
Y-179285D01*
Y-178999D01*
Y-178713D01*
X773704D01*
Y-178426D01*
Y-178140D01*
Y-177854D01*
Y-177568D01*
Y-177281D01*
Y-176995D01*
Y-176709D01*
X773990D01*
Y-176422D01*
Y-176136D01*
Y-175850D01*
Y-175563D01*
Y-175277D01*
Y-174991D01*
X774277D01*
Y-174704D01*
Y-174418D01*
Y-174132D01*
Y-173845D01*
Y-173559D01*
Y-173273D01*
X774563D01*
Y-172986D01*
Y-172700D01*
Y-172414D01*
Y-172127D01*
Y-171841D01*
Y-171555D01*
Y-171269D01*
X774849D01*
Y-170982D01*
Y-170696D01*
Y-170410D01*
Y-170123D01*
Y-169837D01*
Y-169551D01*
X775136D01*
Y-169264D01*
Y-168978D01*
Y-168692D01*
Y-168405D01*
Y-168119D01*
Y-167833D01*
X775422D01*
Y-167547D01*
Y-167260D01*
Y-166974D01*
Y-166688D01*
Y-166401D01*
Y-166115D01*
X775708D01*
Y-165829D01*
Y-165542D01*
Y-165256D01*
Y-164970D01*
Y-164683D01*
Y-164397D01*
Y-164111D01*
X775994D01*
Y-163824D01*
Y-163538D01*
Y-163252D01*
Y-162966D01*
Y-162679D01*
Y-162393D01*
X776281D01*
Y-162107D01*
Y-161820D01*
Y-161534D01*
Y-161248D01*
Y-160961D01*
Y-160675D01*
X776567D01*
Y-160389D01*
Y-160102D01*
Y-159816D01*
Y-159530D01*
Y-159244D01*
Y-158957D01*
X776853D01*
Y-158671D01*
Y-158385D01*
Y-158098D01*
Y-157812D01*
Y-157526D01*
Y-157239D01*
Y-156953D01*
X777140D01*
Y-156667D01*
Y-156380D01*
Y-156094D01*
Y-155808D01*
Y-155521D01*
Y-155235D01*
X777426D01*
Y-154949D01*
Y-154663D01*
Y-154376D01*
Y-154090D01*
Y-153804D01*
Y-153517D01*
X777712D01*
Y-153231D01*
Y-152945D01*
Y-152658D01*
Y-152372D01*
Y-152086D01*
Y-151799D01*
Y-151513D01*
X777999D01*
Y-151227D01*
Y-150940D01*
Y-150654D01*
Y-150368D01*
Y-150082D01*
Y-149795D01*
X778285D01*
Y-149509D01*
Y-149223D01*
Y-148936D01*
Y-148650D01*
Y-148364D01*
Y-148077D01*
X778571D01*
Y-147791D01*
Y-147505D01*
Y-147218D01*
Y-146932D01*
Y-146646D01*
Y-146359D01*
X778858D01*
Y-146073D01*
Y-145787D01*
Y-145501D01*
Y-145214D01*
Y-144928D01*
Y-144641D01*
Y-144355D01*
X779144D01*
Y-144069D01*
Y-143783D01*
Y-143496D01*
Y-143210D01*
Y-142924D01*
Y-142637D01*
X779430D01*
Y-142351D01*
Y-142065D01*
Y-141778D01*
Y-141492D01*
Y-141206D01*
Y-140919D01*
X779716D01*
Y-140633D01*
Y-140347D01*
Y-140060D01*
Y-139774D01*
Y-139488D01*
Y-139202D01*
Y-138915D01*
X780003D01*
Y-138629D01*
Y-138343D01*
Y-138056D01*
X793173D01*
Y-138343D01*
D02*
G37*
G36*
X895101Y-155808D02*
X894814D01*
Y-156094D01*
X894528D01*
Y-156380D01*
Y-156667D01*
X894242D01*
Y-156953D01*
X893955D01*
Y-157239D01*
X893669D01*
Y-157526D01*
Y-157812D01*
X893383D01*
Y-158098D01*
X893096D01*
Y-158385D01*
X892810D01*
Y-158671D01*
X892524D01*
Y-158957D01*
Y-159244D01*
X892237D01*
Y-159530D01*
X891951D01*
Y-159816D01*
X891665D01*
Y-160102D01*
Y-160389D01*
X891378D01*
Y-160675D01*
X891092D01*
Y-160961D01*
X890806D01*
Y-161248D01*
X890520D01*
Y-161534D01*
Y-161820D01*
X890233D01*
Y-162107D01*
X889947D01*
Y-162393D01*
X889661D01*
Y-162679D01*
Y-162966D01*
X889374D01*
Y-163252D01*
X889088D01*
Y-163538D01*
X888802D01*
Y-163824D01*
Y-164111D01*
X888515D01*
Y-164397D01*
X888229D01*
Y-164683D01*
X887943D01*
Y-164970D01*
X887656D01*
Y-165256D01*
Y-165542D01*
X887370D01*
Y-165829D01*
X887084D01*
Y-166115D01*
X886798D01*
Y-166401D01*
Y-166688D01*
X886511D01*
Y-166974D01*
X886225D01*
Y-167260D01*
X885939D01*
Y-167547D01*
Y-167833D01*
X885652D01*
Y-168119D01*
X885366D01*
Y-168405D01*
X885080D01*
Y-168692D01*
X884793D01*
Y-168978D01*
Y-169264D01*
X884507D01*
Y-169551D01*
X884221D01*
Y-169837D01*
X883934D01*
Y-170123D01*
Y-170410D01*
X883648D01*
Y-170696D01*
X883362D01*
Y-170982D01*
X883076D01*
Y-171269D01*
Y-171555D01*
X882789D01*
Y-171841D01*
X882503D01*
Y-172127D01*
X882216D01*
Y-172414D01*
X881930D01*
Y-172700D01*
Y-172986D01*
X881644D01*
Y-173273D01*
X881358D01*
Y-173559D01*
X881071D01*
Y-173845D01*
Y-174132D01*
X880785D01*
Y-174418D01*
X880499D01*
Y-174704D01*
X880212D01*
Y-174991D01*
X879926D01*
Y-175277D01*
Y-175563D01*
X880212D01*
Y-175850D01*
Y-176136D01*
X880499D01*
Y-176422D01*
Y-176709D01*
X880785D01*
Y-176995D01*
X881071D01*
Y-177281D01*
Y-177568D01*
X881358D01*
Y-177854D01*
Y-178140D01*
X881644D01*
Y-178426D01*
Y-178713D01*
X881930D01*
Y-178999D01*
Y-179285D01*
X882216D01*
Y-179572D01*
Y-179858D01*
X882503D01*
Y-180144D01*
Y-180431D01*
X882789D01*
Y-180717D01*
Y-181003D01*
X883076D01*
Y-181290D01*
Y-181576D01*
X883362D01*
Y-181862D01*
X883648D01*
Y-182149D01*
Y-182435D01*
X883934D01*
Y-182721D01*
Y-183007D01*
X884221D01*
Y-183294D01*
Y-183580D01*
X884507D01*
Y-183866D01*
Y-184153D01*
X884793D01*
Y-184439D01*
Y-184725D01*
X885080D01*
Y-185012D01*
Y-185298D01*
X885366D01*
Y-185584D01*
Y-185871D01*
X885652D01*
Y-186157D01*
X885939D01*
Y-186443D01*
Y-186730D01*
X886225D01*
Y-187016D01*
Y-187302D01*
X886511D01*
Y-187588D01*
Y-187875D01*
X886798D01*
Y-188161D01*
Y-188447D01*
X887084D01*
Y-188734D01*
Y-189020D01*
X887370D01*
Y-189306D01*
Y-189593D01*
X887656D01*
Y-189879D01*
Y-190165D01*
X887943D01*
Y-190452D01*
X888229D01*
Y-190738D01*
Y-191024D01*
X888515D01*
Y-191311D01*
Y-191597D01*
X888802D01*
Y-191883D01*
X873627D01*
Y-191597D01*
X873341D01*
Y-191311D01*
Y-191024D01*
Y-190738D01*
X873055D01*
Y-190452D01*
Y-190165D01*
Y-189879D01*
X872768D01*
Y-189593D01*
Y-189306D01*
X872482D01*
Y-189020D01*
Y-188734D01*
Y-188447D01*
X872196D01*
Y-188161D01*
Y-187875D01*
Y-187588D01*
X871909D01*
Y-187302D01*
Y-187016D01*
X871623D01*
Y-186730D01*
Y-186443D01*
Y-186157D01*
X871337D01*
Y-185871D01*
Y-185584D01*
Y-185298D01*
X871050D01*
Y-185012D01*
Y-184725D01*
Y-184439D01*
X870764D01*
Y-184153D01*
X870191D01*
Y-184439D01*
Y-184725D01*
X869905D01*
Y-185012D01*
X869619D01*
Y-185298D01*
Y-185584D01*
X869332D01*
Y-185871D01*
X869046D01*
Y-186157D01*
Y-186443D01*
X868760D01*
Y-186730D01*
X868474D01*
Y-187016D01*
Y-187302D01*
X868187D01*
Y-187588D01*
X867901D01*
Y-187875D01*
X867615D01*
Y-188161D01*
Y-188447D01*
X867328D01*
Y-188734D01*
X867042D01*
Y-189020D01*
Y-189306D01*
X866756D01*
Y-189593D01*
X866469D01*
Y-189879D01*
Y-190165D01*
X866183D01*
Y-190452D01*
X865897D01*
Y-190738D01*
Y-191024D01*
X865610D01*
Y-191311D01*
X865324D01*
Y-191597D01*
Y-191883D01*
X849290D01*
Y-191597D01*
X849577D01*
Y-191311D01*
X849863D01*
Y-191024D01*
X850150D01*
Y-190738D01*
X850436D01*
Y-190452D01*
Y-190165D01*
X850722D01*
Y-189879D01*
X851008D01*
Y-189593D01*
X851295D01*
Y-189306D01*
X851581D01*
Y-189020D01*
Y-188734D01*
X851867D01*
Y-188447D01*
X852154D01*
Y-188161D01*
X852440D01*
Y-187875D01*
Y-187588D01*
X852726D01*
Y-187302D01*
X853013D01*
Y-187016D01*
X853299D01*
Y-186730D01*
X853585D01*
Y-186443D01*
Y-186157D01*
X853872D01*
Y-185871D01*
X854158D01*
Y-185584D01*
X854444D01*
Y-185298D01*
X854731D01*
Y-185012D01*
Y-184725D01*
X855017D01*
Y-184439D01*
X855303D01*
Y-184153D01*
X855589D01*
Y-183866D01*
Y-183580D01*
X855876D01*
Y-183294D01*
X856162D01*
Y-183007D01*
X856448D01*
Y-182721D01*
X856735D01*
Y-182435D01*
Y-182149D01*
X857021D01*
Y-181862D01*
X857307D01*
Y-181576D01*
X857594D01*
Y-181290D01*
Y-181003D01*
X857880D01*
Y-180717D01*
X858166D01*
Y-180431D01*
X858453D01*
Y-180144D01*
X858739D01*
Y-179858D01*
Y-179572D01*
X859025D01*
Y-179285D01*
X859311D01*
Y-178999D01*
X859598D01*
Y-178713D01*
Y-178426D01*
X859884D01*
Y-178140D01*
X860170D01*
Y-177854D01*
X860457D01*
Y-177568D01*
X860743D01*
Y-177281D01*
Y-176995D01*
X861029D01*
Y-176709D01*
X861316D01*
Y-176422D01*
X861602D01*
Y-176136D01*
X861888D01*
Y-175850D01*
Y-175563D01*
X862175D01*
Y-175277D01*
X862461D01*
Y-174991D01*
X862747D01*
Y-174704D01*
Y-174418D01*
X863034D01*
Y-174132D01*
X863320D01*
Y-173845D01*
X863606D01*
Y-173559D01*
X863892D01*
Y-173273D01*
Y-172986D01*
X864179D01*
Y-172700D01*
Y-172414D01*
Y-172127D01*
X863892D01*
Y-171841D01*
X863606D01*
Y-171555D01*
Y-171269D01*
X863320D01*
Y-170982D01*
Y-170696D01*
X863034D01*
Y-170410D01*
Y-170123D01*
X862747D01*
Y-169837D01*
Y-169551D01*
X862461D01*
Y-169264D01*
Y-168978D01*
X862175D01*
Y-168692D01*
Y-168405D01*
X861888D01*
Y-168119D01*
X861602D01*
Y-167833D01*
Y-167547D01*
X861316D01*
Y-167260D01*
Y-166974D01*
X861029D01*
Y-166688D01*
Y-166401D01*
X860743D01*
Y-166115D01*
Y-165829D01*
X860457D01*
Y-165542D01*
Y-165256D01*
X860170D01*
Y-164970D01*
Y-164683D01*
X859884D01*
Y-164397D01*
X859598D01*
Y-164111D01*
Y-163824D01*
X859311D01*
Y-163538D01*
Y-163252D01*
X859025D01*
Y-162966D01*
Y-162679D01*
X858739D01*
Y-162393D01*
Y-162107D01*
X858453D01*
Y-161820D01*
Y-161534D01*
X858166D01*
Y-161248D01*
Y-160961D01*
X857880D01*
Y-160675D01*
Y-160389D01*
X857594D01*
Y-160102D01*
X857307D01*
Y-159816D01*
Y-159530D01*
X857021D01*
Y-159244D01*
Y-158957D01*
X856735D01*
Y-158671D01*
Y-158385D01*
X856448D01*
Y-158098D01*
Y-157812D01*
X856162D01*
Y-157526D01*
Y-157239D01*
X855876D01*
Y-156953D01*
Y-156667D01*
X855589D01*
Y-156380D01*
X855303D01*
Y-156094D01*
Y-155808D01*
X855017D01*
Y-155521D01*
X870764D01*
Y-155808D01*
X871050D01*
Y-156094D01*
Y-156380D01*
Y-156667D01*
X871337D01*
Y-156953D01*
Y-157239D01*
Y-157526D01*
X871623D01*
Y-157812D01*
Y-158098D01*
Y-158385D01*
X871909D01*
Y-158671D01*
Y-158957D01*
Y-159244D01*
X872196D01*
Y-159530D01*
Y-159816D01*
Y-160102D01*
X872482D01*
Y-160389D01*
Y-160675D01*
Y-160961D01*
X872768D01*
Y-161248D01*
Y-161534D01*
Y-161820D01*
X873055D01*
Y-162107D01*
Y-162393D01*
Y-162679D01*
X873341D01*
Y-162966D01*
Y-163252D01*
Y-163538D01*
Y-163824D01*
X873913D01*
Y-163538D01*
X874200D01*
Y-163252D01*
X874486D01*
Y-162966D01*
Y-162679D01*
X874772D01*
Y-162393D01*
X875059D01*
Y-162107D01*
Y-161820D01*
X875345D01*
Y-161534D01*
X875631D01*
Y-161248D01*
Y-160961D01*
X875918D01*
Y-160675D01*
X876204D01*
Y-160389D01*
Y-160102D01*
X876490D01*
Y-159816D01*
X876777D01*
Y-159530D01*
Y-159244D01*
X877063D01*
Y-158957D01*
X877349D01*
Y-158671D01*
Y-158385D01*
X877635D01*
Y-158098D01*
X877922D01*
Y-157812D01*
Y-157526D01*
X878208D01*
Y-157239D01*
X878494D01*
Y-156953D01*
Y-156667D01*
X878781D01*
Y-156380D01*
X879067D01*
Y-156094D01*
Y-155808D01*
X879353D01*
Y-155521D01*
X895101D01*
Y-155808D01*
D02*
G37*
G36*
X851008D02*
Y-156094D01*
Y-156380D01*
Y-156667D01*
Y-156953D01*
Y-157239D01*
Y-157526D01*
Y-157812D01*
Y-158098D01*
Y-158385D01*
Y-158671D01*
Y-158957D01*
Y-159244D01*
Y-159530D01*
Y-159816D01*
Y-160102D01*
Y-160389D01*
Y-160675D01*
Y-160961D01*
Y-161248D01*
Y-161534D01*
X850722D01*
Y-161820D01*
Y-162107D01*
Y-162393D01*
Y-162679D01*
Y-162966D01*
X850436D01*
Y-163252D01*
Y-163538D01*
Y-163824D01*
Y-164111D01*
X850150D01*
Y-164397D01*
Y-164683D01*
Y-164970D01*
Y-165256D01*
X849863D01*
Y-165542D01*
Y-165829D01*
Y-166115D01*
X849577D01*
Y-166401D01*
Y-166688D01*
Y-166974D01*
X849290D01*
Y-167260D01*
Y-167547D01*
Y-167833D01*
X849004D01*
Y-168119D01*
Y-168405D01*
Y-168692D01*
X848718D01*
Y-168978D01*
Y-169264D01*
X848432D01*
Y-169551D01*
Y-169837D01*
X848145D01*
Y-170123D01*
Y-170410D01*
Y-170696D01*
X847859D01*
Y-170982D01*
Y-171269D01*
X847573D01*
Y-171555D01*
Y-171841D01*
Y-172127D01*
X847286D01*
Y-172414D01*
Y-172700D01*
X847000D01*
Y-172986D01*
Y-173273D01*
Y-173559D01*
X846714D01*
Y-173845D01*
Y-174132D01*
X846427D01*
Y-174418D01*
Y-174704D01*
Y-174991D01*
X846141D01*
Y-175277D01*
Y-175563D01*
X845855D01*
Y-175850D01*
Y-176136D01*
Y-176422D01*
X845568D01*
Y-176709D01*
Y-176995D01*
X845282D01*
Y-177281D01*
Y-177568D01*
Y-177854D01*
X844996D01*
Y-178140D01*
Y-178426D01*
X844709D01*
Y-178713D01*
Y-178999D01*
Y-179285D01*
X844423D01*
Y-179572D01*
Y-179858D01*
X844137D01*
Y-180144D01*
Y-180431D01*
Y-180717D01*
X843851D01*
Y-181003D01*
Y-181290D01*
X843564D01*
Y-181576D01*
Y-181862D01*
Y-182149D01*
X843278D01*
Y-182435D01*
Y-182721D01*
X842992D01*
Y-183007D01*
Y-183294D01*
Y-183580D01*
X842705D01*
Y-183866D01*
Y-184153D01*
X842419D01*
Y-184439D01*
Y-184725D01*
Y-185012D01*
X842133D01*
Y-185298D01*
Y-185584D01*
X841846D01*
Y-185871D01*
Y-186157D01*
Y-186443D01*
X841560D01*
Y-186730D01*
Y-187016D01*
X841274D01*
Y-187302D01*
Y-187588D01*
Y-187875D01*
X840987D01*
Y-188161D01*
Y-188447D01*
X840701D01*
Y-188734D01*
Y-189020D01*
Y-189306D01*
X840415D01*
Y-189593D01*
Y-189879D01*
X840129D01*
Y-190165D01*
Y-190452D01*
Y-190738D01*
X839842D01*
Y-191024D01*
Y-191311D01*
X839556D01*
Y-191597D01*
Y-191883D01*
Y-192169D01*
X839270D01*
Y-192456D01*
Y-192742D01*
X838983D01*
Y-193028D01*
Y-193315D01*
X838697D01*
Y-193601D01*
Y-193887D01*
X838411D01*
Y-194174D01*
Y-194460D01*
Y-194746D01*
X838124D01*
Y-195033D01*
X837838D01*
Y-195319D01*
Y-195605D01*
Y-195891D01*
X837552D01*
Y-196178D01*
X837265D01*
Y-196464D01*
Y-196750D01*
X836979D01*
Y-197037D01*
Y-197323D01*
X836693D01*
Y-197609D01*
Y-197896D01*
X836407D01*
Y-198182D01*
Y-198468D01*
X836120D01*
Y-198755D01*
X835834D01*
Y-199041D01*
Y-199327D01*
X835548D01*
Y-199614D01*
Y-199900D01*
X835261D01*
Y-200186D01*
X834975D01*
Y-200472D01*
X834689D01*
Y-200759D01*
Y-201045D01*
X834402D01*
Y-201331D01*
X834116D01*
Y-201618D01*
Y-201904D01*
X833830D01*
Y-202190D01*
X833543D01*
Y-202477D01*
X833257D01*
Y-202763D01*
Y-203049D01*
X832971D01*
Y-203336D01*
X832684D01*
Y-203622D01*
X832398D01*
Y-203908D01*
X832112D01*
Y-204195D01*
X831826D01*
Y-204481D01*
Y-204767D01*
X831539D01*
Y-205053D01*
X831253D01*
Y-205340D01*
X830966D01*
Y-205626D01*
X830680D01*
Y-205912D01*
X830394D01*
Y-206199D01*
X830108D01*
Y-206485D01*
X829821D01*
Y-206771D01*
X829249D01*
Y-207058D01*
X828962D01*
Y-207344D01*
X828676D01*
Y-207630D01*
X828390D01*
Y-207917D01*
X828103D01*
Y-208203D01*
X827531D01*
Y-208489D01*
X827244D01*
Y-208776D01*
X826672D01*
Y-209062D01*
X826385D01*
Y-209348D01*
X825813D01*
Y-209634D01*
X825527D01*
Y-209921D01*
X824954D01*
Y-210207D01*
X824381D01*
Y-210493D01*
X823809D01*
Y-210780D01*
X823236D01*
Y-211066D01*
X822663D01*
Y-211352D01*
X821805D01*
Y-211639D01*
X821232D01*
Y-211925D01*
X820373D01*
Y-212211D01*
X819228D01*
Y-212498D01*
X818082D01*
Y-212784D01*
X816365D01*
Y-213070D01*
X814360D01*
Y-213357D01*
X814074D01*
Y-213070D01*
Y-212784D01*
Y-212498D01*
Y-212211D01*
Y-211925D01*
Y-211639D01*
Y-211352D01*
Y-211066D01*
Y-210780D01*
Y-210493D01*
Y-210207D01*
Y-209921D01*
Y-209634D01*
Y-209348D01*
Y-209062D01*
Y-208776D01*
Y-208489D01*
Y-208203D01*
Y-207917D01*
Y-207630D01*
Y-207344D01*
Y-207058D01*
Y-206771D01*
Y-206485D01*
Y-206199D01*
Y-205912D01*
Y-205626D01*
Y-205340D01*
Y-205053D01*
Y-204767D01*
Y-204481D01*
Y-204195D01*
Y-203908D01*
X814647D01*
Y-203622D01*
X815219D01*
Y-203336D01*
X815792D01*
Y-203049D01*
X816365D01*
Y-202763D01*
X816937D01*
Y-202477D01*
X817510D01*
Y-202190D01*
X817796D01*
Y-201904D01*
X818369D01*
Y-201618D01*
X818655D01*
Y-201331D01*
X819228D01*
Y-201045D01*
X819514D01*
Y-200759D01*
X819800D01*
Y-200472D01*
X820373D01*
Y-200186D01*
X820659D01*
Y-199900D01*
X820946D01*
Y-199614D01*
X821232D01*
Y-199327D01*
X821518D01*
Y-199041D01*
X821805D01*
Y-198755D01*
X822091D01*
Y-198468D01*
X822377D01*
Y-198182D01*
X822663D01*
Y-197896D01*
X822950D01*
Y-197609D01*
X823236D01*
Y-197323D01*
X823522D01*
Y-197037D01*
Y-196750D01*
X823809D01*
Y-196464D01*
X824095D01*
Y-196178D01*
X824381D01*
Y-195891D01*
Y-195605D01*
X824668D01*
Y-195319D01*
X824954D01*
Y-195033D01*
Y-194746D01*
X825240D01*
Y-194460D01*
Y-194174D01*
X825527D01*
Y-193887D01*
X825813D01*
Y-193601D01*
Y-193315D01*
X826099D01*
Y-193028D01*
Y-192742D01*
X826385D01*
Y-192456D01*
Y-192169D01*
X824668D01*
Y-191883D01*
X822663D01*
Y-191597D01*
X821518D01*
Y-191311D01*
X820946D01*
Y-191024D01*
X820087D01*
Y-190738D01*
X819514D01*
Y-190452D01*
X819228D01*
Y-190165D01*
X818655D01*
Y-189879D01*
X818369D01*
Y-189593D01*
X818082D01*
Y-189306D01*
X817796D01*
Y-189020D01*
X817510D01*
Y-188734D01*
X817223D01*
Y-188447D01*
Y-188161D01*
X816937D01*
Y-187875D01*
X816651D01*
Y-187588D01*
Y-187302D01*
X816365D01*
Y-187016D01*
Y-186730D01*
X816078D01*
Y-186443D01*
Y-186157D01*
X815792D01*
Y-185871D01*
Y-185584D01*
Y-185298D01*
X815506D01*
Y-185012D01*
Y-184725D01*
Y-184439D01*
Y-184153D01*
X815219D01*
Y-183866D01*
Y-183580D01*
Y-183294D01*
Y-183007D01*
Y-182721D01*
Y-182435D01*
Y-182149D01*
X814933D01*
Y-181862D01*
Y-181576D01*
Y-181290D01*
Y-181003D01*
Y-180717D01*
Y-180431D01*
Y-180144D01*
Y-179858D01*
Y-179572D01*
Y-179285D01*
Y-178999D01*
Y-178713D01*
Y-178426D01*
Y-178140D01*
Y-177854D01*
X814647D01*
Y-177568D01*
Y-177281D01*
Y-176995D01*
Y-176709D01*
Y-176422D01*
Y-176136D01*
Y-175850D01*
Y-175563D01*
Y-175277D01*
Y-174991D01*
Y-174704D01*
Y-174418D01*
Y-174132D01*
Y-173845D01*
Y-173559D01*
X814360D01*
Y-173273D01*
Y-172986D01*
Y-172700D01*
Y-172414D01*
Y-172127D01*
Y-171841D01*
Y-171555D01*
Y-171269D01*
Y-170982D01*
Y-170696D01*
Y-170410D01*
Y-170123D01*
Y-169837D01*
Y-169551D01*
Y-169264D01*
Y-168978D01*
X814074D01*
Y-168692D01*
Y-168405D01*
Y-168119D01*
Y-167833D01*
Y-167547D01*
Y-167260D01*
Y-166974D01*
Y-166688D01*
Y-166401D01*
Y-166115D01*
Y-165829D01*
Y-165542D01*
Y-165256D01*
Y-164970D01*
Y-164683D01*
Y-164397D01*
X813788D01*
Y-164111D01*
Y-163824D01*
Y-163538D01*
Y-163252D01*
Y-162966D01*
Y-162679D01*
Y-162393D01*
Y-162107D01*
Y-161820D01*
Y-161534D01*
Y-161248D01*
Y-160961D01*
Y-160675D01*
Y-160389D01*
X813501D01*
Y-160102D01*
Y-159816D01*
Y-159530D01*
Y-159244D01*
Y-158957D01*
Y-158671D01*
Y-158385D01*
Y-158098D01*
Y-157812D01*
Y-157526D01*
Y-157239D01*
Y-156953D01*
Y-156667D01*
Y-156380D01*
Y-156094D01*
Y-155808D01*
X813215D01*
Y-155521D01*
X826958D01*
Y-155808D01*
Y-156094D01*
Y-156380D01*
Y-156667D01*
Y-156953D01*
Y-157239D01*
Y-157526D01*
Y-157812D01*
Y-158098D01*
Y-158385D01*
Y-158671D01*
Y-158957D01*
Y-159244D01*
Y-159530D01*
X827244D01*
Y-159816D01*
Y-160102D01*
Y-160389D01*
Y-160675D01*
Y-160961D01*
Y-161248D01*
Y-161534D01*
Y-161820D01*
Y-162107D01*
Y-162393D01*
Y-162679D01*
Y-162966D01*
Y-163252D01*
Y-163538D01*
Y-163824D01*
Y-164111D01*
Y-164397D01*
Y-164683D01*
Y-164970D01*
Y-165256D01*
Y-165542D01*
Y-165829D01*
Y-166115D01*
Y-166401D01*
Y-166688D01*
Y-166974D01*
Y-167260D01*
Y-167547D01*
Y-167833D01*
Y-168119D01*
Y-168405D01*
Y-168692D01*
Y-168978D01*
Y-169264D01*
Y-169551D01*
Y-169837D01*
Y-170123D01*
Y-170410D01*
Y-170696D01*
Y-170982D01*
Y-171269D01*
X827531D01*
Y-171555D01*
X827244D01*
Y-171841D01*
Y-172127D01*
X827531D01*
Y-172414D01*
Y-172700D01*
Y-172986D01*
Y-173273D01*
Y-173559D01*
Y-173845D01*
Y-174132D01*
Y-174418D01*
Y-174704D01*
Y-174991D01*
Y-175277D01*
Y-175563D01*
Y-175850D01*
Y-176136D01*
Y-176422D01*
Y-176709D01*
Y-176995D01*
Y-177281D01*
Y-177568D01*
Y-177854D01*
Y-178140D01*
Y-178426D01*
Y-178713D01*
Y-178999D01*
Y-179285D01*
Y-179572D01*
X827817D01*
Y-179858D01*
Y-180144D01*
Y-180431D01*
X828103D01*
Y-180717D01*
X828390D01*
Y-181003D01*
X828676D01*
Y-181290D01*
X829535D01*
Y-181576D01*
X830394D01*
Y-181290D01*
X830680D01*
Y-181003D01*
Y-180717D01*
Y-180431D01*
X830966D01*
Y-180144D01*
Y-179858D01*
X831253D01*
Y-179572D01*
Y-179285D01*
Y-178999D01*
X831539D01*
Y-178713D01*
Y-178426D01*
Y-178140D01*
X831826D01*
Y-177854D01*
Y-177568D01*
Y-177281D01*
X832112D01*
Y-176995D01*
Y-176709D01*
Y-176422D01*
X832398D01*
Y-176136D01*
Y-175850D01*
X832684D01*
Y-175563D01*
Y-175277D01*
Y-174991D01*
X832971D01*
Y-174704D01*
Y-174418D01*
Y-174132D01*
X833257D01*
Y-173845D01*
Y-173559D01*
Y-173273D01*
X833543D01*
Y-172986D01*
Y-172700D01*
X833830D01*
Y-172414D01*
Y-172127D01*
Y-171841D01*
X834116D01*
Y-171555D01*
Y-171269D01*
Y-170982D01*
X834402D01*
Y-170696D01*
Y-170410D01*
Y-170123D01*
X834689D01*
Y-169837D01*
Y-169551D01*
X834975D01*
Y-169264D01*
Y-168978D01*
Y-168692D01*
X835261D01*
Y-168405D01*
Y-168119D01*
Y-167833D01*
X835548D01*
Y-167547D01*
Y-167260D01*
Y-166974D01*
X835834D01*
Y-166688D01*
Y-166401D01*
X836120D01*
Y-166115D01*
Y-165829D01*
Y-165542D01*
X836407D01*
Y-165256D01*
Y-164970D01*
Y-164683D01*
X836693D01*
Y-164397D01*
Y-164111D01*
Y-163824D01*
X836979D01*
Y-163538D01*
Y-163252D01*
Y-162966D01*
Y-162679D01*
X837265D01*
Y-162393D01*
Y-162107D01*
Y-161820D01*
Y-161534D01*
X837552D01*
Y-161248D01*
Y-160961D01*
Y-160675D01*
Y-160389D01*
Y-160102D01*
X837838D01*
Y-159816D01*
Y-159530D01*
Y-159244D01*
Y-158957D01*
Y-158671D01*
Y-158385D01*
X838124D01*
Y-158098D01*
Y-157812D01*
Y-157526D01*
Y-157239D01*
Y-156953D01*
Y-156667D01*
Y-156380D01*
Y-156094D01*
Y-155808D01*
Y-155521D01*
X851008D01*
Y-155808D01*
D02*
G37*
%LPC*%
G36*
X757670Y-152658D02*
X749654D01*
Y-152945D01*
Y-153231D01*
Y-153517D01*
Y-153804D01*
Y-154090D01*
X749367D01*
Y-154376D01*
Y-154663D01*
Y-154949D01*
Y-155235D01*
Y-155521D01*
Y-155808D01*
X749081D01*
Y-156094D01*
Y-156380D01*
Y-156667D01*
Y-156953D01*
Y-157239D01*
Y-157526D01*
X748795D01*
Y-157812D01*
Y-158098D01*
Y-158385D01*
Y-158671D01*
Y-158957D01*
Y-159244D01*
X748508D01*
Y-159530D01*
Y-159816D01*
Y-160102D01*
Y-160389D01*
Y-160675D01*
Y-160961D01*
Y-161248D01*
X748222D01*
Y-161534D01*
Y-161820D01*
Y-162107D01*
Y-162393D01*
Y-162679D01*
Y-162966D01*
X747936D01*
Y-163252D01*
Y-163538D01*
Y-163824D01*
X755094D01*
Y-163538D01*
X756239D01*
Y-163252D01*
X756812D01*
Y-162966D01*
X757098D01*
Y-162679D01*
X757384D01*
Y-162393D01*
X757670D01*
Y-162107D01*
X757957D01*
Y-161820D01*
Y-161534D01*
X758243D01*
Y-161248D01*
Y-160961D01*
X758529D01*
Y-160675D01*
Y-160389D01*
X758816D01*
Y-160102D01*
Y-159816D01*
Y-159530D01*
Y-159244D01*
X759102D01*
Y-158957D01*
Y-158671D01*
Y-158385D01*
Y-158098D01*
Y-157812D01*
X759388D01*
Y-157526D01*
Y-157239D01*
Y-156953D01*
Y-156667D01*
Y-156380D01*
Y-156094D01*
Y-155808D01*
Y-155521D01*
Y-155235D01*
Y-154949D01*
Y-154663D01*
X759102D01*
Y-154376D01*
Y-154090D01*
X758816D01*
Y-153804D01*
Y-153517D01*
X758529D01*
Y-153231D01*
X758243D01*
Y-152945D01*
X757670D01*
Y-152658D01*
D02*
G37*
%LPD*%
D10*
X1068511Y-229571D02*
Y-190201D01*
X911031Y-150831D02*
X1186622D01*
X911031Y-190201D02*
X1186622D01*
X714181Y-229571D02*
X1186622D01*
X714181Y-111461D02*
X1186622D01*
X714181Y-268941D02*
Y-111461D01*
X911031Y-268941D02*
Y-111461D01*
X-466922Y900350D02*
X1186622D01*
Y-268941D02*
Y900350D01*
X-466922Y-268941D02*
Y900350D01*
Y-268941D02*
X1186622D01*
X920874Y-261067D02*
Y-255164D01*
X923825D01*
X924809Y-256147D01*
Y-258115D01*
X923825Y-259099D01*
X920874D01*
X926777Y-255164D02*
X928745D01*
X927761D01*
Y-261067D01*
X926777D01*
X928745D01*
X931697D02*
Y-257131D01*
X933665Y-255164D01*
X935633Y-257131D01*
Y-261067D01*
Y-258115D01*
X931697D01*
X937601Y-261067D02*
Y-255164D01*
X941536Y-261067D01*
Y-255164D01*
X946456D02*
X944488D01*
X943504Y-256147D01*
Y-260083D01*
X944488Y-261067D01*
X946456D01*
X947440Y-260083D01*
Y-256147D01*
X946456Y-255164D01*
X949408Y-262051D02*
X953343D01*
X959247Y-255164D02*
X955311D01*
Y-261067D01*
X959247D01*
X955311Y-258115D02*
X957279D01*
X961215Y-255164D02*
Y-261067D01*
X965151D01*
X967119Y-255164D02*
X969086D01*
X968102D01*
Y-261067D01*
X967119D01*
X969086D01*
X975974Y-256147D02*
X974990Y-255164D01*
X973022D01*
X972038Y-256147D01*
Y-257131D01*
X973022Y-258115D01*
X974990D01*
X975974Y-259099D01*
Y-260083D01*
X974990Y-261067D01*
X973022D01*
X972038Y-260083D01*
X981878Y-255164D02*
X977942D01*
Y-261067D01*
X981878D01*
X977942Y-258115D02*
X979910D01*
X983845Y-262051D02*
X987781D01*
X989749Y-256147D02*
X990733Y-255164D01*
X992701D01*
X993685Y-256147D01*
Y-260083D01*
X992701Y-261067D01*
X990733D01*
X989749Y-260083D01*
Y-256147D01*
X995653Y-261067D02*
X997620D01*
X996637D01*
Y-255164D01*
X995653Y-256147D01*
X1000572Y-261067D02*
Y-260083D01*
X1001556D01*
Y-261067D01*
X1000572D01*
X1005492D02*
Y-255164D01*
X1008444D01*
X1009428Y-256147D01*
Y-258115D01*
X1008444Y-259099D01*
X1005492D01*
X1015331Y-257131D02*
X1012379D01*
X1011396Y-258115D01*
Y-260083D01*
X1012379Y-261067D01*
X1015331D01*
X1017299Y-255164D02*
Y-261067D01*
X1020251D01*
X1021235Y-260083D01*
Y-259099D01*
Y-258115D01*
X1020251Y-257131D01*
X1017299D01*
X1023203Y-255164D02*
Y-261067D01*
X1026155D01*
X1027139Y-260083D01*
Y-256147D01*
X1026155Y-255164D01*
X1023203D01*
X1030090Y-261067D02*
X1032058D01*
X1033042Y-260083D01*
Y-258115D01*
X1032058Y-257131D01*
X1030090D01*
X1029106Y-258115D01*
Y-260083D01*
X1030090Y-261067D01*
X1038946Y-257131D02*
X1035994D01*
X1035010Y-258115D01*
Y-260083D01*
X1035994Y-261067D01*
X1038946D01*
D11*
X21654Y196850D02*
G03*
X-0Y175197I0J-21654D01*
G01*
X417323D02*
G03*
X395669Y196850I-21654J0D01*
G01*
X0Y0D02*
Y175197D01*
X21654Y196850D02*
X395669D01*
X417323Y175197D02*
X417323Y0D01*
X0D02*
X417323D01*
D14*
X0Y-21654D02*
X6000Y-19654D01*
X0Y-21654D02*
X6000Y-23653D01*
X411323D02*
X417323Y-21654D01*
X411323Y-19654D02*
X417323Y-21654D01*
X0D02*
X188967D01*
X225156D02*
X417323D01*
X0Y-22654D02*
Y0D01*
X417323Y-22654D02*
Y-16043D01*
X-26575Y196850D02*
X-24575Y190850D01*
X-28575D02*
X-26575Y196850D01*
X-28575Y6000D02*
X-26575Y0D01*
X-24575Y6000D01*
X-26575Y112421D02*
Y196850D01*
Y0D02*
Y81230D01*
X-27575Y196850D02*
X9547D01*
X-27575Y0D02*
X0D01*
D15*
X941868Y-168552D02*
X932685D01*
Y-175439D01*
X937276D01*
X932685D01*
Y-182327D01*
X948756Y-173143D02*
X953347D01*
X955643Y-175439D01*
Y-182327D01*
X948756D01*
X946460Y-180031D01*
X948756Y-177735D01*
X955643D01*
X960235Y-168552D02*
Y-182327D01*
X967122D01*
X969418Y-180031D01*
Y-177735D01*
Y-175439D01*
X967122Y-173143D01*
X960235D01*
X974010D02*
Y-182327D01*
Y-177735D01*
X976306Y-175439D01*
X978602Y-173143D01*
X980898D01*
X987785Y-182327D02*
X992377D01*
X990081D01*
Y-173143D01*
X987785D01*
X1008448D02*
X1001560D01*
X999264Y-175439D01*
Y-180031D01*
X1001560Y-182327D01*
X1008448D01*
X1015335Y-173143D02*
X1019927D01*
X1022223Y-175439D01*
Y-182327D01*
X1015335D01*
X1013039Y-180031D01*
X1015335Y-177735D01*
X1022223D01*
X1029110Y-170848D02*
Y-173143D01*
X1026814D01*
X1031406D01*
X1029110D01*
Y-180031D01*
X1031406Y-182327D01*
X1038294D02*
X1042885D01*
X1040590D01*
Y-173143D01*
X1038294D01*
X1052069Y-182327D02*
X1056660D01*
X1058956Y-180031D01*
Y-175439D01*
X1056660Y-173143D01*
X1052069D01*
X1049773Y-175439D01*
Y-180031D01*
X1052069Y-182327D01*
X1063548D02*
Y-173143D01*
X1070436D01*
X1072731Y-175439D01*
Y-182327D01*
X735834Y-247293D02*
Y-263036D01*
X741082Y-257788D01*
X746330Y-263036D01*
Y-247293D01*
X751577Y-263036D02*
X756825D01*
X754201D01*
Y-252540D01*
X751577D01*
X764696Y-263036D02*
Y-252540D01*
X767320D01*
X769944Y-255164D01*
Y-263036D01*
Y-255164D01*
X772568Y-252540D01*
X775192Y-255164D01*
Y-263036D01*
X780439Y-247293D02*
Y-257788D01*
X785687Y-263036D01*
X790935Y-257788D01*
Y-247293D01*
X806678Y-249917D02*
X804054Y-247293D01*
X798806D01*
X796182Y-249917D01*
Y-260412D01*
X798806Y-263036D01*
X804054D01*
X806678Y-260412D01*
Y-255164D01*
X801430D01*
X1090165Y-210546D02*
X1092789Y-207923D01*
X1098036D01*
X1100660Y-210546D01*
Y-221042D01*
X1098036Y-223665D01*
X1092789D01*
X1090165Y-221042D01*
Y-210546D01*
X1105908Y-223665D02*
X1111156D01*
X1108532D01*
Y-207923D01*
X1105908Y-210546D01*
X926779Y-212186D02*
X929075Y-209890D01*
X933667D01*
X935963Y-212186D01*
Y-214482D01*
X933667Y-216778D01*
X931371D01*
X933667D01*
X935963Y-219074D01*
Y-221370D01*
X933667Y-223665D01*
X929075D01*
X926779Y-221370D01*
X940554Y-212186D02*
X942850Y-209890D01*
X947442D01*
X949738Y-212186D01*
Y-221370D01*
X947442Y-223665D01*
X942850D01*
X940554Y-221370D01*
Y-212186D01*
X954329Y-223665D02*
X963513Y-214482D01*
X968104Y-223665D02*
X972696D01*
X970400D01*
Y-209890D01*
X968104Y-212186D01*
X979584D02*
X981880Y-209890D01*
X986471D01*
X988767Y-212186D01*
Y-221370D01*
X986471Y-223665D01*
X981880D01*
X979584Y-221370D01*
Y-212186D01*
X993359Y-223665D02*
X1002542Y-214482D01*
X1016317Y-223665D02*
X1007134D01*
X1016317Y-214482D01*
Y-212186D01*
X1014021Y-209890D01*
X1009430D01*
X1007134Y-212186D01*
X1020909D02*
X1023205Y-209890D01*
X1027796D01*
X1030092Y-212186D01*
Y-221370D01*
X1027796Y-223665D01*
X1023205D01*
X1020909Y-221370D01*
Y-212186D01*
X1043867Y-223665D02*
X1034684D01*
X1043867Y-214482D01*
Y-212186D01*
X1041572Y-209890D01*
X1036980D01*
X1034684Y-212186D01*
X1057642Y-223665D02*
X1048459D01*
X1057642Y-214482D01*
Y-212186D01*
X1055347Y-209890D01*
X1050755D01*
X1048459Y-212186D01*
X920874Y-144925D02*
Y-132331D01*
X927171D01*
X929270Y-134430D01*
Y-138628D01*
X927171Y-140727D01*
X920874D01*
X933468Y-144925D02*
X937666D01*
X935567D01*
Y-136529D01*
X933468D01*
X946062D02*
X950261D01*
X952360Y-138628D01*
Y-144925D01*
X946062D01*
X943963Y-142826D01*
X946062Y-140727D01*
X952360D01*
X956558Y-144925D02*
Y-136529D01*
X962855D01*
X964954Y-138628D01*
Y-144925D01*
X971251D02*
X975449D01*
X977548Y-142826D01*
Y-138628D01*
X975449Y-136529D01*
X971251D01*
X969152Y-138628D01*
Y-142826D01*
X971251Y-144925D01*
X1002737Y-132331D02*
X994341D01*
Y-144925D01*
X1002737D01*
X994341Y-138628D02*
X998539D01*
X1006935Y-144925D02*
X1011133D01*
X1009034D01*
Y-132331D01*
X1006935D01*
X1017430Y-144925D02*
X1021629D01*
X1019530D01*
Y-136529D01*
X1017430D01*
X1027926Y-144925D02*
X1034223D01*
X1036322Y-142826D01*
X1034223Y-140727D01*
X1030025D01*
X1027926Y-138628D01*
X1030025Y-136529D01*
X1036322D01*
X1046817Y-144925D02*
X1042619D01*
X1040520Y-142826D01*
Y-138628D01*
X1042619Y-136529D01*
X1046817D01*
X1048916Y-138628D01*
Y-140727D01*
X1040520D01*
D19*
X-232283Y-106301D02*
Y-112205D01*
X-229332D01*
X-228348Y-111221D01*
Y-110237D01*
X-229332Y-109253D01*
X-232283D01*
X-229332D01*
X-228348Y-108269D01*
Y-107285D01*
X-229332Y-106301D01*
X-232283D01*
X-226380Y-112205D02*
X-224412D01*
X-225396D01*
Y-106301D01*
X-226380D01*
X-220476Y-108269D02*
X-218508D01*
X-217525Y-109253D01*
Y-112205D01*
X-220476D01*
X-221460Y-111221D01*
X-220476Y-110237D01*
X-217525D01*
X-211621Y-108269D02*
X-214573D01*
X-215557Y-109253D01*
Y-111221D01*
X-214573Y-112205D01*
X-211621D01*
X-209653D02*
Y-106301D01*
Y-110237D02*
X-206701Y-108269D01*
X-209653Y-110237D02*
X-206701Y-112205D01*
X-193910Y-107285D02*
X-194894Y-106301D01*
X-196862D01*
X-197846Y-107285D01*
Y-108269D01*
X-196862Y-109253D01*
X-194894D01*
X-193910Y-110237D01*
Y-111221D01*
X-194894Y-112205D01*
X-196862D01*
X-197846Y-111221D01*
X-191942Y-112205D02*
X-189974D01*
X-190958D01*
Y-108269D01*
X-191942D01*
X-187022Y-112205D02*
X-185055D01*
X-186039D01*
Y-106301D01*
X-187022D01*
X-182103Y-112205D02*
Y-106301D01*
Y-110237D02*
X-179151Y-108269D01*
X-182103Y-110237D02*
X-179151Y-112205D01*
X-176199D02*
X-173248D01*
X-172264Y-111221D01*
X-173248Y-110237D01*
X-175215D01*
X-176199Y-109253D01*
X-175215Y-108269D01*
X-172264D01*
X-166360D02*
X-169312D01*
X-170296Y-109253D01*
Y-111221D01*
X-169312Y-112205D01*
X-166360D01*
X-164392Y-108269D02*
Y-112205D01*
Y-110237D01*
X-163408Y-109253D01*
X-162424Y-108269D01*
X-161440D01*
X-155537Y-112205D02*
X-157504D01*
X-158489Y-111221D01*
Y-109253D01*
X-157504Y-108269D01*
X-155537D01*
X-154553Y-109253D01*
Y-110237D01*
X-158489D01*
X-149633Y-112205D02*
X-151601D01*
X-152585Y-111221D01*
Y-109253D01*
X-151601Y-108269D01*
X-149633D01*
X-148649Y-109253D01*
Y-110237D01*
X-152585D01*
X-146681Y-112205D02*
Y-108269D01*
X-143729D01*
X-142745Y-109253D01*
Y-112205D01*
X-232283Y-96459D02*
Y-102362D01*
X-230316Y-100394D01*
X-228348Y-102362D01*
Y-96459D01*
X-226380D02*
Y-102362D01*
Y-99410D01*
X-225396Y-98427D01*
X-223428D01*
X-222444Y-99410D01*
Y-102362D01*
X-220476D02*
X-218508D01*
X-219492D01*
Y-98427D01*
X-220476D01*
X-214573Y-97443D02*
Y-98427D01*
X-215557D01*
X-213589D01*
X-214573D01*
Y-101378D01*
X-213589Y-102362D01*
X-207685D02*
X-209653D01*
X-210637Y-101378D01*
Y-99410D01*
X-209653Y-98427D01*
X-207685D01*
X-206701Y-99410D01*
Y-100394D01*
X-210637D01*
X-194894Y-97443D02*
X-195878Y-96459D01*
X-197846D01*
X-198830Y-97443D01*
Y-98427D01*
X-197846Y-99410D01*
X-195878D01*
X-194894Y-100394D01*
Y-101378D01*
X-195878Y-102362D01*
X-197846D01*
X-198830Y-101378D01*
X-191942Y-102362D02*
X-189974D01*
X-188990Y-101378D01*
Y-99410D01*
X-189974Y-98427D01*
X-191942D01*
X-192926Y-99410D01*
Y-101378D01*
X-191942Y-102362D01*
X-187022D02*
X-185055D01*
X-186039D01*
Y-96459D01*
X-187022D01*
X-178167D02*
Y-102362D01*
X-181119D01*
X-182103Y-101378D01*
Y-99410D01*
X-181119Y-98427D01*
X-178167D01*
X-173248Y-102362D02*
X-175215D01*
X-176199Y-101378D01*
Y-99410D01*
X-175215Y-98427D01*
X-173248D01*
X-172264Y-99410D01*
Y-100394D01*
X-176199D01*
X-170296Y-98427D02*
Y-102362D01*
Y-100394D01*
X-169312Y-99410D01*
X-168328Y-98427D01*
X-167344D01*
X-164392Y-102362D02*
Y-98427D01*
X-163408D01*
X-162424Y-99410D01*
Y-102362D01*
Y-99410D01*
X-161440Y-98427D01*
X-160456Y-99410D01*
Y-102362D01*
X-157504Y-98427D02*
X-155537D01*
X-154553Y-99410D01*
Y-102362D01*
X-157504D01*
X-158489Y-101378D01*
X-157504Y-100394D01*
X-154553D01*
X-152585Y-102362D02*
X-149633D01*
X-148649Y-101378D01*
X-149633Y-100394D01*
X-151601D01*
X-152585Y-99410D01*
X-151601Y-98427D01*
X-148649D01*
X-146681Y-102362D02*
Y-96459D01*
Y-100394D02*
X-143729Y-98427D01*
X-146681Y-100394D02*
X-143729Y-102362D01*
X-232283Y-92520D02*
X-230316D01*
X-231299D01*
Y-86616D01*
X-232283Y-87600D01*
X-227364Y-92520D02*
Y-91536D01*
X-226380D01*
Y-92520D01*
X-227364D01*
X-218508Y-86616D02*
X-220476Y-87600D01*
X-222444Y-89568D01*
Y-91536D01*
X-221460Y-92520D01*
X-219492D01*
X-218508Y-91536D01*
Y-90552D01*
X-219492Y-89568D01*
X-222444D01*
X-216541Y-92520D02*
Y-88584D01*
X-215557D01*
X-214573Y-89568D01*
Y-92520D01*
Y-89568D01*
X-213589Y-88584D01*
X-212605Y-89568D01*
Y-92520D01*
X-210637D02*
Y-88584D01*
X-209653D01*
X-208669Y-89568D01*
Y-92520D01*
Y-89568D01*
X-207685Y-88584D01*
X-206701Y-89568D01*
Y-92520D01*
X-198830Y-86616D02*
X-194894D01*
X-196862D01*
Y-92520D01*
X-192926Y-86616D02*
Y-92520D01*
Y-89568D01*
X-191942Y-88584D01*
X-189974D01*
X-188990Y-89568D01*
Y-92520D01*
X-187022D02*
X-185055D01*
X-186039D01*
Y-88584D01*
X-187022D01*
X-178167D02*
X-181119D01*
X-182103Y-89568D01*
Y-91536D01*
X-181119Y-92520D01*
X-178167D01*
X-176199D02*
Y-86616D01*
Y-90552D02*
X-173248Y-88584D01*
X-176199Y-90552D02*
X-173248Y-92520D01*
X-170296D02*
Y-88584D01*
X-167344D01*
X-166360Y-89568D01*
Y-92520D01*
X-161440D02*
X-163408D01*
X-164392Y-91536D01*
Y-89568D01*
X-163408Y-88584D01*
X-161440D01*
X-160456Y-89568D01*
Y-90552D01*
X-164392D01*
X-158489Y-92520D02*
X-155537D01*
X-154553Y-91536D01*
X-155537Y-90552D01*
X-157504D01*
X-158489Y-89568D01*
X-157504Y-88584D01*
X-154553D01*
X-152585Y-92520D02*
X-149633D01*
X-148649Y-91536D01*
X-149633Y-90552D01*
X-151601D01*
X-152585Y-89568D01*
X-151601Y-88584D01*
X-148649D01*
X1072449Y-202012D02*
Y-194141D01*
X1076384D01*
X1077696Y-195452D01*
Y-198076D01*
X1076384Y-199388D01*
X1072449D01*
X1075072D02*
X1077696Y-202012D01*
X1084256D02*
X1081632D01*
X1080320Y-200700D01*
Y-198076D01*
X1081632Y-196764D01*
X1084256D01*
X1085568Y-198076D01*
Y-199388D01*
X1080320D01*
X1088192Y-196764D02*
X1090815Y-202012D01*
X1093439Y-196764D01*
X718118Y-233511D02*
Y-241382D01*
X722053D01*
X723365Y-240070D01*
Y-234823D01*
X722053Y-233511D01*
X718118D01*
X729925Y-241382D02*
X727301D01*
X725989Y-240070D01*
Y-237446D01*
X727301Y-236134D01*
X729925D01*
X731237Y-237446D01*
Y-238758D01*
X725989D01*
X733861Y-241382D02*
X737796D01*
X739108Y-240070D01*
X737796Y-238758D01*
X735173D01*
X733861Y-237446D01*
X735173Y-236134D01*
X739108D01*
X744356Y-244006D02*
X745668D01*
X746980Y-242694D01*
Y-236134D01*
X743044D01*
X741732Y-237446D01*
Y-240070D01*
X743044Y-241382D01*
X746980D01*
X749604D02*
X752227D01*
X750916D01*
Y-236134D01*
X749604D01*
X756163Y-241382D02*
Y-236134D01*
X760099D01*
X761411Y-237446D01*
Y-241382D01*
X767971D02*
X765347D01*
X764035Y-240070D01*
Y-237446D01*
X765347Y-236134D01*
X767971D01*
X769282Y-237446D01*
Y-238758D01*
X764035D01*
X771906Y-236134D02*
Y-241382D01*
Y-238758D01*
X773218Y-237446D01*
X774530Y-236134D01*
X775842D01*
X914968Y-115400D02*
Y-123272D01*
X918904D01*
X920216Y-121960D01*
Y-116712D01*
X918904Y-115400D01*
X914968D01*
X924152Y-123272D02*
X926775D01*
X928087Y-121960D01*
Y-119336D01*
X926775Y-118024D01*
X924152D01*
X922840Y-119336D01*
Y-121960D01*
X924152Y-123272D01*
X935959Y-118024D02*
X932023D01*
X930711Y-119336D01*
Y-121960D01*
X932023Y-123272D01*
X935959D01*
X938583Y-118024D02*
Y-121960D01*
X939894Y-123272D01*
X943830D01*
Y-118024D01*
X946454Y-123272D02*
Y-118024D01*
X947766D01*
X949078Y-119336D01*
Y-123272D01*
Y-119336D01*
X950390Y-118024D01*
X951702Y-119336D01*
Y-123272D01*
X958261D02*
X955637D01*
X954326Y-121960D01*
Y-119336D01*
X955637Y-118024D01*
X958261D01*
X959573Y-119336D01*
Y-120648D01*
X954326D01*
X962197Y-123272D02*
Y-118024D01*
X966133D01*
X967445Y-119336D01*
Y-123272D01*
X971381Y-116712D02*
Y-118024D01*
X970068D01*
X972692D01*
X971381D01*
Y-121960D01*
X972692Y-123272D01*
X914968Y-154770D02*
Y-162642D01*
X920216D01*
X924152Y-157394D02*
X926775D01*
X928087Y-158706D01*
Y-162642D01*
X924152D01*
X922840Y-161330D01*
X924152Y-160018D01*
X928087D01*
X930711Y-157394D02*
Y-161330D01*
X932023Y-162642D01*
X935959D01*
Y-163954D01*
X934647Y-165266D01*
X933335D01*
X935959Y-162642D02*
Y-157394D01*
X942518Y-162642D02*
X939894D01*
X938583Y-161330D01*
Y-158706D01*
X939894Y-157394D01*
X942518D01*
X943830Y-158706D01*
Y-160018D01*
X938583D01*
X946454Y-157394D02*
Y-162642D01*
Y-160018D01*
X947766Y-158706D01*
X949078Y-157394D01*
X950390D01*
X962197Y-162642D02*
Y-154770D01*
X967445Y-162642D01*
Y-154770D01*
X971381Y-157394D02*
X974004D01*
X975316Y-158706D01*
Y-162642D01*
X971381D01*
X970068Y-161330D01*
X971381Y-160018D01*
X975316D01*
X977940Y-162642D02*
Y-157394D01*
X979252D01*
X980564Y-158706D01*
Y-162642D01*
Y-158706D01*
X981876Y-157394D01*
X983188Y-158706D01*
Y-162642D01*
X989747D02*
X987123D01*
X985812Y-161330D01*
Y-158706D01*
X987123Y-157394D01*
X989747D01*
X991059Y-158706D01*
Y-160018D01*
X985812D01*
X914968Y-194141D02*
Y-202012D01*
X918904D01*
X920216Y-200700D01*
Y-195452D01*
X918904Y-194141D01*
X914968D01*
X924152Y-196764D02*
X926775D01*
X928087Y-198076D01*
Y-202012D01*
X924152D01*
X922840Y-200700D01*
X924152Y-199388D01*
X928087D01*
X932023Y-195452D02*
Y-196764D01*
X930711D01*
X933335D01*
X932023D01*
Y-200700D01*
X933335Y-202012D01*
X941206D02*
X938583D01*
X937271Y-200700D01*
Y-198076D01*
X938583Y-196764D01*
X941206D01*
X942518Y-198076D01*
Y-199388D01*
X937271D01*
X914968Y-233511D02*
Y-241382D01*
X918904D01*
X920216Y-240070D01*
Y-234823D01*
X918904Y-233511D01*
X914968D01*
X924152Y-241382D02*
X926775D01*
X928087Y-240070D01*
Y-237446D01*
X926775Y-236134D01*
X924152D01*
X922840Y-237446D01*
Y-240070D01*
X924152Y-241382D01*
X935959Y-236134D02*
X932023D01*
X930711Y-237446D01*
Y-240070D01*
X932023Y-241382D01*
X935959D01*
X938583Y-236134D02*
Y-240070D01*
X939894Y-241382D01*
X943830D01*
Y-236134D01*
X946454Y-241382D02*
Y-236134D01*
X947766D01*
X949078Y-237446D01*
Y-241382D01*
Y-237446D01*
X950390Y-236134D01*
X951702Y-237446D01*
Y-241382D01*
X958261D02*
X955637D01*
X954326Y-240070D01*
Y-237446D01*
X955637Y-236134D01*
X958261D01*
X959573Y-237446D01*
Y-238758D01*
X954326D01*
X962197Y-241382D02*
Y-236134D01*
X966133D01*
X967445Y-237446D01*
Y-241382D01*
X971381Y-234823D02*
Y-236134D01*
X970068D01*
X972692D01*
X971381D01*
Y-240070D01*
X972692Y-241382D01*
D50*
X190567Y-26252D02*
X192566D01*
X191566D01*
Y-20254D01*
X190567Y-21254D01*
X195565D02*
X196565Y-20254D01*
X198564D01*
X199564Y-21254D01*
Y-25253D01*
X198564Y-26252D01*
X196565D01*
X195565Y-25253D01*
Y-21254D01*
X205562Y-20254D02*
X203562Y-21254D01*
X201563Y-23253D01*
Y-25253D01*
X202563Y-26252D01*
X204562D01*
X205562Y-25253D01*
Y-24253D01*
X204562Y-23253D01*
X201563D01*
X208561Y-27252D02*
X209561Y-26252D01*
Y-25253D01*
X208561D01*
Y-26252D01*
X209561D01*
X208561Y-27252D01*
X207561Y-28252D01*
X213559Y-21254D02*
X214559Y-20254D01*
X216558D01*
X217558Y-21254D01*
Y-25253D01*
X216558Y-26252D01*
X214559D01*
X213559Y-25253D01*
Y-21254D01*
X219557D02*
X220557Y-20254D01*
X222556D01*
X223556Y-21254D01*
Y-25253D01*
X222556Y-26252D01*
X220557D01*
X219557Y-25253D01*
Y-21254D01*
X-27974Y86828D02*
Y82830D01*
X-24975D01*
X-25975Y84829D01*
Y85829D01*
X-24975Y86828D01*
X-22976D01*
X-21976Y85829D01*
Y83829D01*
X-22976Y82830D01*
X-26974Y88828D02*
X-27974Y89828D01*
Y91827D01*
X-26974Y92826D01*
X-22976D01*
X-21976Y91827D01*
Y89828D01*
X-22976Y88828D01*
X-26974D01*
X-20976Y95825D02*
X-21976Y96825D01*
X-22976D01*
Y95825D01*
X-21976D01*
Y96825D01*
X-20976Y95825D01*
X-19977Y94826D01*
X-26974Y100824D02*
X-27974Y101824D01*
Y103823D01*
X-26974Y104823D01*
X-22976D01*
X-21976Y103823D01*
Y101824D01*
X-22976Y100824D01*
X-26974D01*
Y106822D02*
X-27974Y107822D01*
Y109821D01*
X-26974Y110821D01*
X-22976D01*
X-21976Y109821D01*
Y107822D01*
X-22976Y106822D01*
X-26974D01*
M02*
