G04*
G04 #@! TF.GenerationSoftware,Altium Limited,Altium Designer,22.10.1 (41)*
G04*
G04 Layer_Color=128*
%FSLAX25Y25*%
%MOIN*%
G70*
G04*
G04 #@! TF.SameCoordinates,8BAF8B8E-E321-4B2E-8998-6E6DE7EF2018*
G04*
G04*
G04 #@! TF.FilePolarity,Positive*
G04*
G01*
G75*
%ADD10C,0.00787*%
%ADD11C,0.00591*%
%ADD15C,0.01575*%
%ADD19C,0.00984*%
G36*
X-42265Y-141778D02*
X-43983D01*
Y-142065D01*
X-44842D01*
Y-142351D01*
X-45701D01*
Y-142637D01*
X-46560D01*
Y-142924D01*
X-47132D01*
Y-143210D01*
X-47419D01*
Y-143496D01*
X-47991D01*
Y-143783D01*
X-48278D01*
Y-144069D01*
X-48850D01*
Y-144355D01*
X-49136D01*
Y-144641D01*
X-49423D01*
Y-144928D01*
X-49709D01*
Y-145214D01*
X-49995D01*
Y-145501D01*
X-50282D01*
Y-145787D01*
X-50568D01*
Y-146073D01*
Y-146359D01*
X-50854D01*
Y-146646D01*
X-51141D01*
Y-146932D01*
Y-147218D01*
X-51427D01*
Y-147505D01*
X-51713D01*
Y-147791D01*
Y-148077D01*
X-52000D01*
Y-148364D01*
Y-148650D01*
Y-148936D01*
X-52286D01*
Y-149223D01*
Y-149509D01*
Y-149795D01*
X-52572D01*
Y-150082D01*
Y-150368D01*
Y-150654D01*
Y-150940D01*
X-52859D01*
Y-151227D01*
Y-151513D01*
Y-151799D01*
Y-152086D01*
Y-152372D01*
X-53145D01*
Y-152658D01*
Y-152945D01*
Y-153231D01*
Y-153517D01*
Y-153804D01*
Y-154090D01*
Y-154376D01*
Y-154663D01*
Y-154949D01*
Y-155235D01*
Y-155521D01*
Y-155808D01*
Y-156094D01*
Y-156380D01*
Y-156667D01*
Y-156953D01*
Y-157239D01*
Y-157526D01*
Y-157812D01*
Y-158098D01*
X-52859D01*
Y-158385D01*
Y-158671D01*
Y-158957D01*
Y-159244D01*
Y-159530D01*
Y-159816D01*
Y-160102D01*
X-52572D01*
Y-160389D01*
Y-160675D01*
Y-160961D01*
Y-161248D01*
Y-161534D01*
X-52286D01*
Y-161820D01*
Y-162107D01*
Y-162393D01*
Y-162679D01*
Y-162966D01*
X-52000D01*
Y-163252D01*
Y-163538D01*
Y-163824D01*
X-51713D01*
Y-164111D01*
Y-164397D01*
Y-164683D01*
Y-164970D01*
X-51427D01*
Y-165256D01*
Y-165542D01*
Y-165829D01*
X-51141D01*
Y-166115D01*
Y-166401D01*
X-50854D01*
Y-166688D01*
Y-166974D01*
Y-167260D01*
X-50568D01*
Y-167547D01*
Y-167833D01*
X-50282D01*
Y-168119D01*
Y-168405D01*
X-49995D01*
Y-168692D01*
Y-168978D01*
X-49709D01*
Y-169264D01*
X-49423D01*
Y-169551D01*
Y-169837D01*
X-49136D01*
Y-170123D01*
X-48850D01*
Y-170410D01*
X-48564D01*
Y-170696D01*
Y-170982D01*
X-48278D01*
Y-171269D01*
X-47991D01*
Y-171555D01*
X-47705D01*
Y-171841D01*
X-47419D01*
Y-172127D01*
X-47132D01*
Y-172414D01*
X-46560D01*
Y-172700D01*
X-46273D01*
Y-172986D01*
X-45701D01*
Y-173273D01*
X-45414D01*
Y-173559D01*
X-44842D01*
Y-173845D01*
X-43983D01*
Y-174132D01*
X-43124D01*
Y-174418D01*
X-42265D01*
Y-174704D01*
X-40547D01*
Y-174991D01*
X-35394D01*
Y-174704D01*
X-32817D01*
Y-174418D01*
X-30812D01*
Y-174132D01*
X-29381D01*
Y-173845D01*
X-27949D01*
Y-173559D01*
X-26518D01*
Y-173845D01*
Y-174132D01*
Y-174418D01*
Y-174704D01*
Y-174991D01*
Y-175277D01*
Y-175563D01*
X-26232D01*
Y-175850D01*
Y-176136D01*
Y-176422D01*
Y-176709D01*
Y-176995D01*
Y-177281D01*
X-25945D01*
Y-177568D01*
Y-177854D01*
Y-178140D01*
Y-178426D01*
Y-178713D01*
Y-178999D01*
X-25659D01*
Y-179285D01*
Y-179572D01*
Y-179858D01*
Y-180144D01*
Y-180431D01*
Y-180717D01*
Y-181003D01*
X-25372D01*
Y-181290D01*
Y-181576D01*
Y-181862D01*
Y-182149D01*
Y-182435D01*
Y-182721D01*
X-25086D01*
Y-183007D01*
Y-183294D01*
Y-183580D01*
Y-183866D01*
Y-184153D01*
Y-184439D01*
X-24800D01*
Y-184725D01*
Y-185012D01*
Y-185298D01*
Y-185584D01*
Y-185871D01*
Y-186157D01*
Y-186443D01*
X-24514D01*
Y-186730D01*
Y-187016D01*
Y-187302D01*
Y-187588D01*
Y-187875D01*
Y-188161D01*
X-24227D01*
Y-188447D01*
Y-188734D01*
Y-189020D01*
Y-189306D01*
Y-189593D01*
Y-189879D01*
X-23941D01*
Y-190165D01*
Y-190452D01*
Y-190738D01*
Y-191024D01*
Y-191311D01*
Y-191597D01*
Y-191883D01*
X-10484D01*
Y-191597D01*
X-10771D01*
Y-191311D01*
Y-191024D01*
Y-190738D01*
Y-190452D01*
Y-190165D01*
X-11057D01*
Y-189879D01*
Y-189593D01*
Y-189306D01*
Y-189020D01*
Y-188734D01*
Y-188447D01*
Y-188161D01*
X-11343D01*
Y-187875D01*
Y-187588D01*
Y-187302D01*
Y-187016D01*
Y-186730D01*
Y-186443D01*
X-11630D01*
Y-186157D01*
Y-185871D01*
Y-185584D01*
Y-185298D01*
Y-185012D01*
Y-184725D01*
X-11916D01*
Y-184439D01*
Y-184153D01*
Y-183866D01*
Y-183580D01*
Y-183294D01*
Y-183007D01*
Y-182721D01*
X-12202D01*
Y-182435D01*
Y-182149D01*
Y-181862D01*
Y-181576D01*
Y-181290D01*
Y-181003D01*
X-12488D01*
Y-180717D01*
Y-180431D01*
Y-180144D01*
Y-179858D01*
Y-179572D01*
Y-179285D01*
X-12775D01*
Y-178999D01*
Y-178713D01*
Y-178426D01*
Y-178140D01*
Y-177854D01*
Y-177568D01*
X-13061D01*
Y-177281D01*
Y-176995D01*
Y-176709D01*
Y-176422D01*
Y-176136D01*
Y-175850D01*
Y-175563D01*
X-13347D01*
Y-175277D01*
Y-174991D01*
Y-174704D01*
Y-174418D01*
Y-174132D01*
Y-173845D01*
X-13634D01*
Y-173559D01*
Y-173273D01*
Y-172986D01*
Y-172700D01*
Y-172414D01*
Y-172127D01*
X-13920D01*
Y-171841D01*
Y-171555D01*
Y-171269D01*
Y-170982D01*
Y-170696D01*
Y-170410D01*
X-14206D01*
Y-170123D01*
Y-169837D01*
Y-169551D01*
Y-169264D01*
Y-168978D01*
Y-168692D01*
Y-168405D01*
X-14493D01*
Y-168119D01*
Y-167833D01*
Y-167547D01*
Y-167260D01*
Y-166974D01*
Y-166688D01*
X-14779D01*
Y-166401D01*
Y-166115D01*
Y-165829D01*
Y-165542D01*
Y-165256D01*
Y-164970D01*
X-15065D01*
Y-164683D01*
Y-164397D01*
Y-164111D01*
Y-163824D01*
Y-163538D01*
Y-163252D01*
Y-162966D01*
X-15352D01*
Y-162679D01*
Y-162393D01*
Y-162107D01*
Y-161820D01*
Y-161534D01*
Y-161248D01*
X-15638D01*
Y-160961D01*
Y-160675D01*
Y-160389D01*
Y-160102D01*
Y-159816D01*
Y-159530D01*
X-15924D01*
Y-159244D01*
Y-158957D01*
Y-158671D01*
Y-158385D01*
Y-158098D01*
Y-157812D01*
X-16210D01*
Y-157526D01*
Y-157239D01*
Y-156953D01*
Y-156667D01*
Y-156380D01*
Y-156094D01*
Y-155808D01*
X-16497D01*
Y-155521D01*
Y-155235D01*
Y-154949D01*
Y-154663D01*
Y-154376D01*
Y-154090D01*
X-16783D01*
Y-153804D01*
Y-153517D01*
Y-153231D01*
Y-152945D01*
Y-152658D01*
Y-152372D01*
X-17069D01*
Y-152086D01*
Y-151799D01*
Y-151513D01*
Y-151227D01*
Y-150940D01*
Y-150654D01*
Y-150368D01*
X-17356D01*
Y-150082D01*
Y-149795D01*
Y-149509D01*
Y-149223D01*
Y-148936D01*
Y-148650D01*
X-17642D01*
Y-148364D01*
Y-148077D01*
Y-147791D01*
Y-147505D01*
Y-147218D01*
Y-146932D01*
X-17928D01*
Y-146646D01*
Y-146359D01*
Y-146073D01*
Y-145787D01*
Y-145501D01*
Y-145214D01*
Y-144928D01*
X-18215D01*
Y-144641D01*
Y-144355D01*
Y-144069D01*
Y-143783D01*
Y-143496D01*
Y-143210D01*
X-18501D01*
Y-142924D01*
Y-142637D01*
Y-142351D01*
Y-142065D01*
Y-141778D01*
Y-141492D01*
X-42265D01*
Y-141778D01*
D02*
G37*
G36*
X-73473Y-138343D02*
Y-138629D01*
X-73187D01*
Y-138915D01*
Y-139202D01*
Y-139488D01*
Y-139774D01*
Y-140060D01*
Y-140347D01*
X-72900D01*
Y-140633D01*
Y-140919D01*
Y-141206D01*
Y-141492D01*
Y-141778D01*
Y-142065D01*
X-72614D01*
Y-142351D01*
Y-142637D01*
Y-142924D01*
Y-143210D01*
Y-143496D01*
Y-143783D01*
Y-144069D01*
X-72328D01*
Y-144355D01*
Y-144641D01*
Y-144928D01*
Y-145214D01*
Y-145501D01*
Y-145787D01*
X-72041D01*
Y-146073D01*
Y-146359D01*
Y-146646D01*
Y-146932D01*
Y-147218D01*
Y-147505D01*
X-71755D01*
Y-147791D01*
Y-148077D01*
Y-148364D01*
Y-148650D01*
Y-148936D01*
Y-149223D01*
Y-149509D01*
X-71469D01*
Y-149795D01*
Y-150082D01*
Y-150368D01*
Y-150654D01*
Y-150940D01*
Y-151227D01*
X-71183D01*
Y-151513D01*
Y-151799D01*
Y-152086D01*
Y-152372D01*
Y-152658D01*
Y-152945D01*
X-70896D01*
Y-153231D01*
Y-153517D01*
Y-153804D01*
Y-154090D01*
Y-154376D01*
Y-154663D01*
X-70610D01*
Y-154949D01*
Y-155235D01*
Y-155521D01*
Y-155808D01*
Y-156094D01*
Y-156380D01*
Y-156667D01*
X-70324D01*
Y-156953D01*
Y-157239D01*
Y-157526D01*
Y-157812D01*
Y-158098D01*
Y-158385D01*
X-70037D01*
Y-158671D01*
Y-158957D01*
X-70610D01*
Y-158671D01*
X-70896D01*
Y-158385D01*
X-71183D01*
Y-158098D01*
X-71755D01*
Y-157812D01*
X-72041D01*
Y-157526D01*
X-72328D01*
Y-157239D01*
X-72900D01*
Y-156953D01*
X-73473D01*
Y-156667D01*
X-73759D01*
Y-156380D01*
X-74332D01*
Y-156094D01*
X-75191D01*
Y-155808D01*
X-75764D01*
Y-155521D01*
X-76622D01*
Y-155235D01*
X-78054D01*
Y-154949D01*
X-84353D01*
Y-155235D01*
X-85498D01*
Y-155521D01*
X-86357D01*
Y-155808D01*
X-86930D01*
Y-156094D01*
X-87216D01*
Y-156380D01*
X-87789D01*
Y-156667D01*
X-88075D01*
Y-156953D01*
X-88361D01*
Y-157239D01*
X-88648D01*
Y-157526D01*
X-88934D01*
Y-157812D01*
Y-158098D01*
X-89220D01*
Y-158385D01*
Y-158671D01*
X-89507D01*
Y-158957D01*
Y-159244D01*
Y-159530D01*
X-89793D01*
Y-159816D01*
Y-160102D01*
Y-160389D01*
Y-160675D01*
X-90079D01*
Y-160961D01*
Y-161248D01*
Y-161534D01*
Y-161820D01*
Y-162107D01*
Y-162393D01*
Y-162679D01*
Y-162966D01*
Y-163252D01*
Y-163538D01*
Y-163824D01*
Y-164111D01*
Y-164397D01*
Y-164683D01*
Y-164970D01*
Y-165256D01*
Y-165542D01*
Y-165829D01*
X-89793D01*
Y-166115D01*
Y-166401D01*
Y-166688D01*
Y-166974D01*
Y-167260D01*
Y-167547D01*
Y-167833D01*
X-89507D01*
Y-168119D01*
Y-168405D01*
Y-168692D01*
Y-168978D01*
Y-169264D01*
Y-169551D01*
Y-169837D01*
X-89220D01*
Y-170123D01*
Y-170410D01*
Y-170696D01*
Y-170982D01*
Y-171269D01*
Y-171555D01*
X-88934D01*
Y-171841D01*
Y-172127D01*
Y-172414D01*
Y-172700D01*
Y-172986D01*
Y-173273D01*
X-88648D01*
Y-173559D01*
Y-173845D01*
Y-174132D01*
Y-174418D01*
Y-174704D01*
Y-174991D01*
X-88361D01*
Y-175277D01*
Y-175563D01*
Y-175850D01*
Y-176136D01*
Y-176422D01*
Y-176709D01*
Y-176995D01*
X-88075D01*
Y-177281D01*
Y-177568D01*
Y-177854D01*
Y-178140D01*
Y-178426D01*
Y-178713D01*
X-87789D01*
Y-178999D01*
Y-179285D01*
Y-179572D01*
Y-179858D01*
Y-180144D01*
Y-180431D01*
X-87502D01*
Y-180717D01*
Y-181003D01*
Y-181290D01*
Y-181576D01*
Y-181862D01*
Y-182149D01*
Y-182435D01*
X-87216D01*
Y-182721D01*
Y-183007D01*
Y-183294D01*
Y-183580D01*
Y-183866D01*
Y-184153D01*
X-86930D01*
Y-184439D01*
Y-184725D01*
Y-185012D01*
Y-185298D01*
Y-185584D01*
Y-185871D01*
X-86643D01*
Y-186157D01*
Y-186443D01*
Y-186730D01*
Y-187016D01*
Y-187302D01*
Y-187588D01*
X-86357D01*
Y-187875D01*
Y-188161D01*
Y-188447D01*
Y-188734D01*
Y-189020D01*
Y-189306D01*
Y-189593D01*
X-86071D01*
Y-189879D01*
Y-190165D01*
Y-190452D01*
Y-190738D01*
Y-191024D01*
Y-191311D01*
X-85785D01*
Y-191597D01*
Y-191883D01*
X-72614D01*
Y-191597D01*
Y-191311D01*
X-72900D01*
Y-191024D01*
Y-190738D01*
Y-190452D01*
Y-190165D01*
Y-189879D01*
Y-189593D01*
X-73187D01*
Y-189306D01*
Y-189020D01*
Y-188734D01*
Y-188447D01*
Y-188161D01*
Y-187875D01*
Y-187588D01*
X-73473D01*
Y-187302D01*
Y-187016D01*
Y-186730D01*
Y-186443D01*
Y-186157D01*
Y-185871D01*
X-73759D01*
Y-185584D01*
Y-185298D01*
Y-185012D01*
Y-184725D01*
Y-184439D01*
Y-184153D01*
X-74046D01*
Y-183866D01*
Y-183580D01*
Y-183294D01*
Y-183007D01*
Y-182721D01*
Y-182435D01*
Y-182149D01*
X-74332D01*
Y-181862D01*
Y-181576D01*
Y-181290D01*
Y-181003D01*
Y-180717D01*
Y-180431D01*
X-74618D01*
Y-180144D01*
Y-179858D01*
Y-179572D01*
Y-179285D01*
Y-178999D01*
Y-178713D01*
Y-178426D01*
X-74905D01*
Y-178140D01*
Y-177854D01*
Y-177568D01*
Y-177281D01*
Y-176995D01*
Y-176709D01*
X-75191D01*
Y-176422D01*
Y-176136D01*
Y-175850D01*
Y-175563D01*
Y-175277D01*
Y-174991D01*
X-75477D01*
Y-174704D01*
Y-174418D01*
Y-174132D01*
Y-173845D01*
Y-173559D01*
Y-173273D01*
X-75764D01*
Y-172986D01*
Y-172700D01*
Y-172414D01*
Y-172127D01*
Y-171841D01*
Y-171555D01*
Y-171269D01*
X-76050D01*
Y-170982D01*
Y-170696D01*
Y-170410D01*
Y-170123D01*
Y-169837D01*
Y-169551D01*
X-76336D01*
Y-169264D01*
Y-168978D01*
Y-168692D01*
Y-168405D01*
Y-168119D01*
Y-167833D01*
Y-167547D01*
X-76622D01*
Y-167260D01*
Y-166974D01*
Y-166688D01*
Y-166401D01*
Y-166115D01*
Y-165829D01*
X-76336D01*
Y-165542D01*
Y-165256D01*
X-76050D01*
Y-164970D01*
X-75764D01*
Y-164683D01*
X-75191D01*
Y-164397D01*
X-73473D01*
Y-164683D01*
X-72041D01*
Y-164970D01*
X-71183D01*
Y-165256D01*
X-70610D01*
Y-165542D01*
X-70324D01*
Y-165829D01*
X-69751D01*
Y-166115D01*
X-69465D01*
Y-166401D01*
X-69178D01*
Y-166688D01*
Y-166974D01*
X-68892D01*
Y-167260D01*
Y-167547D01*
Y-167833D01*
X-68606D01*
Y-168119D01*
Y-168405D01*
Y-168692D01*
Y-168978D01*
Y-169264D01*
Y-169551D01*
X-68319D01*
Y-169837D01*
Y-170123D01*
Y-170410D01*
Y-170696D01*
Y-170982D01*
Y-171269D01*
Y-171555D01*
X-68033D01*
Y-171841D01*
Y-172127D01*
Y-172414D01*
Y-172700D01*
Y-172986D01*
Y-173273D01*
X-67747D01*
Y-173559D01*
Y-173845D01*
Y-174132D01*
Y-174418D01*
Y-174704D01*
Y-174991D01*
X-67461D01*
Y-175277D01*
Y-175563D01*
Y-175850D01*
Y-176136D01*
Y-176422D01*
Y-176709D01*
X-67174D01*
Y-176995D01*
Y-177281D01*
Y-177568D01*
Y-177854D01*
Y-178140D01*
Y-178426D01*
Y-178713D01*
X-66888D01*
Y-178999D01*
Y-179285D01*
Y-179572D01*
Y-179858D01*
Y-180144D01*
Y-180431D01*
X-66602D01*
Y-180717D01*
Y-181003D01*
Y-181290D01*
Y-181576D01*
Y-181862D01*
Y-182149D01*
X-66315D01*
Y-182435D01*
Y-182721D01*
Y-183007D01*
Y-183294D01*
Y-183580D01*
Y-183866D01*
Y-184153D01*
X-66029D01*
Y-184439D01*
Y-184725D01*
Y-185012D01*
Y-185298D01*
Y-185584D01*
Y-185871D01*
X-65743D01*
Y-186157D01*
Y-186443D01*
Y-186730D01*
Y-187016D01*
Y-187302D01*
Y-187588D01*
X-65456D01*
Y-187875D01*
Y-188161D01*
Y-188447D01*
Y-188734D01*
Y-189020D01*
Y-189306D01*
X-65170D01*
Y-189593D01*
Y-189879D01*
Y-190165D01*
Y-190452D01*
Y-190738D01*
Y-191024D01*
Y-191311D01*
X-64884D01*
Y-191597D01*
Y-191883D01*
X-51713D01*
Y-191597D01*
Y-191311D01*
X-52000D01*
Y-191024D01*
Y-190738D01*
Y-190452D01*
Y-190165D01*
Y-189879D01*
Y-189593D01*
Y-189306D01*
X-52286D01*
Y-189020D01*
Y-188734D01*
Y-188447D01*
Y-188161D01*
Y-187875D01*
Y-187588D01*
X-52572D01*
Y-187302D01*
Y-187016D01*
Y-186730D01*
Y-186443D01*
Y-186157D01*
Y-185871D01*
X-52859D01*
Y-185584D01*
Y-185298D01*
Y-185012D01*
Y-184725D01*
Y-184439D01*
Y-184153D01*
Y-183866D01*
X-53145D01*
Y-183580D01*
Y-183294D01*
Y-183007D01*
Y-182721D01*
Y-182435D01*
Y-182149D01*
X-53431D01*
Y-181862D01*
Y-181576D01*
Y-181290D01*
Y-181003D01*
Y-180717D01*
Y-180431D01*
X-53717D01*
Y-180144D01*
Y-179858D01*
Y-179572D01*
Y-179285D01*
Y-178999D01*
Y-178713D01*
X-54004D01*
Y-178426D01*
Y-178140D01*
Y-177854D01*
Y-177568D01*
Y-177281D01*
Y-176995D01*
Y-176709D01*
X-54290D01*
Y-176422D01*
Y-176136D01*
Y-175850D01*
Y-175563D01*
Y-175277D01*
Y-174991D01*
X-54576D01*
Y-174704D01*
Y-174418D01*
Y-174132D01*
Y-173845D01*
Y-173559D01*
Y-173273D01*
X-54863D01*
Y-172986D01*
Y-172700D01*
Y-172414D01*
Y-172127D01*
Y-171841D01*
Y-171555D01*
Y-171269D01*
X-55149D01*
Y-170982D01*
Y-170696D01*
Y-170410D01*
Y-170123D01*
Y-169837D01*
Y-169551D01*
X-55435D01*
Y-169264D01*
Y-168978D01*
Y-168692D01*
Y-168405D01*
Y-168119D01*
Y-167833D01*
X-55722D01*
Y-167547D01*
Y-167260D01*
Y-166974D01*
Y-166688D01*
Y-166401D01*
Y-166115D01*
X-56008D01*
Y-165829D01*
Y-165542D01*
Y-165256D01*
Y-164970D01*
Y-164683D01*
Y-164397D01*
Y-164111D01*
X-56294D01*
Y-163824D01*
Y-163538D01*
Y-163252D01*
Y-162966D01*
Y-162679D01*
Y-162393D01*
X-56581D01*
Y-162107D01*
Y-161820D01*
Y-161534D01*
Y-161248D01*
Y-160961D01*
Y-160675D01*
X-56867D01*
Y-160389D01*
Y-160102D01*
Y-159816D01*
Y-159530D01*
Y-159244D01*
Y-158957D01*
X-57153D01*
Y-158671D01*
Y-158385D01*
Y-158098D01*
Y-157812D01*
Y-157526D01*
Y-157239D01*
Y-156953D01*
X-57440D01*
Y-156667D01*
Y-156380D01*
Y-156094D01*
Y-155808D01*
Y-155521D01*
Y-155235D01*
X-57726D01*
Y-154949D01*
Y-154663D01*
Y-154376D01*
Y-154090D01*
Y-153804D01*
Y-153517D01*
X-58012D01*
Y-153231D01*
Y-152945D01*
Y-152658D01*
Y-152372D01*
Y-152086D01*
Y-151799D01*
Y-151513D01*
X-58298D01*
Y-151227D01*
Y-150940D01*
Y-150654D01*
Y-150368D01*
Y-150082D01*
Y-149795D01*
X-58585D01*
Y-149509D01*
Y-149223D01*
Y-148936D01*
Y-148650D01*
Y-148364D01*
Y-148077D01*
X-58871D01*
Y-147791D01*
Y-147505D01*
Y-147218D01*
Y-146932D01*
Y-146646D01*
Y-146359D01*
X-59157D01*
Y-146073D01*
Y-145787D01*
Y-145501D01*
Y-145214D01*
Y-144928D01*
Y-144641D01*
Y-144355D01*
X-59444D01*
Y-144069D01*
Y-143783D01*
Y-143496D01*
Y-143210D01*
Y-142924D01*
Y-142637D01*
X-59730D01*
Y-142351D01*
Y-142065D01*
Y-141778D01*
Y-141492D01*
Y-141206D01*
Y-140919D01*
X-60016D01*
Y-140633D01*
Y-140347D01*
Y-140060D01*
Y-139774D01*
Y-139488D01*
Y-139202D01*
Y-138915D01*
X-60303D01*
Y-138629D01*
Y-138343D01*
Y-138056D01*
X-73473D01*
Y-138343D01*
D02*
G37*
G36*
X-175400Y-155808D02*
X-175114D01*
Y-156094D01*
X-174828D01*
Y-156380D01*
Y-156667D01*
X-174541D01*
Y-156953D01*
X-174255D01*
Y-157239D01*
X-173969D01*
Y-157526D01*
Y-157812D01*
X-173683D01*
Y-158098D01*
X-173396D01*
Y-158385D01*
X-173110D01*
Y-158671D01*
X-172824D01*
Y-158957D01*
Y-159244D01*
X-172537D01*
Y-159530D01*
X-172251D01*
Y-159816D01*
X-171965D01*
Y-160102D01*
Y-160389D01*
X-171678D01*
Y-160675D01*
X-171392D01*
Y-160961D01*
X-171106D01*
Y-161248D01*
X-170819D01*
Y-161534D01*
Y-161820D01*
X-170533D01*
Y-162107D01*
X-170247D01*
Y-162393D01*
X-169960D01*
Y-162679D01*
Y-162966D01*
X-169674D01*
Y-163252D01*
X-169388D01*
Y-163538D01*
X-169102D01*
Y-163824D01*
Y-164111D01*
X-168815D01*
Y-164397D01*
X-168529D01*
Y-164683D01*
X-168243D01*
Y-164970D01*
X-167956D01*
Y-165256D01*
Y-165542D01*
X-167670D01*
Y-165829D01*
X-167384D01*
Y-166115D01*
X-167097D01*
Y-166401D01*
Y-166688D01*
X-166811D01*
Y-166974D01*
X-166525D01*
Y-167260D01*
X-166238D01*
Y-167547D01*
Y-167833D01*
X-165952D01*
Y-168119D01*
X-165666D01*
Y-168405D01*
X-165380D01*
Y-168692D01*
X-165093D01*
Y-168978D01*
Y-169264D01*
X-164807D01*
Y-169551D01*
X-164521D01*
Y-169837D01*
X-164234D01*
Y-170123D01*
Y-170410D01*
X-163948D01*
Y-170696D01*
X-163662D01*
Y-170982D01*
X-163375D01*
Y-171269D01*
Y-171555D01*
X-163089D01*
Y-171841D01*
X-162803D01*
Y-172127D01*
X-162516D01*
Y-172414D01*
X-162230D01*
Y-172700D01*
Y-172986D01*
X-161944D01*
Y-173273D01*
X-161657D01*
Y-173559D01*
X-161371D01*
Y-173845D01*
Y-174132D01*
X-161085D01*
Y-174418D01*
X-160799D01*
Y-174704D01*
X-160512D01*
Y-174991D01*
X-160226D01*
Y-175277D01*
Y-175563D01*
X-160512D01*
Y-175850D01*
Y-176136D01*
X-160799D01*
Y-176422D01*
Y-176709D01*
X-161085D01*
Y-176995D01*
X-161371D01*
Y-177281D01*
Y-177568D01*
X-161657D01*
Y-177854D01*
Y-178140D01*
X-161944D01*
Y-178426D01*
Y-178713D01*
X-162230D01*
Y-178999D01*
Y-179285D01*
X-162516D01*
Y-179572D01*
Y-179858D01*
X-162803D01*
Y-180144D01*
Y-180431D01*
X-163089D01*
Y-180717D01*
Y-181003D01*
X-163375D01*
Y-181290D01*
Y-181576D01*
X-163662D01*
Y-181862D01*
X-163948D01*
Y-182149D01*
Y-182435D01*
X-164234D01*
Y-182721D01*
Y-183007D01*
X-164521D01*
Y-183294D01*
Y-183580D01*
X-164807D01*
Y-183866D01*
Y-184153D01*
X-165093D01*
Y-184439D01*
Y-184725D01*
X-165380D01*
Y-185012D01*
Y-185298D01*
X-165666D01*
Y-185584D01*
Y-185871D01*
X-165952D01*
Y-186157D01*
X-166238D01*
Y-186443D01*
Y-186730D01*
X-166525D01*
Y-187016D01*
Y-187302D01*
X-166811D01*
Y-187588D01*
Y-187875D01*
X-167097D01*
Y-188161D01*
Y-188447D01*
X-167384D01*
Y-188734D01*
Y-189020D01*
X-167670D01*
Y-189306D01*
Y-189593D01*
X-167956D01*
Y-189879D01*
Y-190165D01*
X-168243D01*
Y-190452D01*
X-168529D01*
Y-190738D01*
Y-191024D01*
X-168815D01*
Y-191311D01*
Y-191597D01*
X-169102D01*
Y-191883D01*
X-153927D01*
Y-191597D01*
X-153641D01*
Y-191311D01*
Y-191024D01*
Y-190738D01*
X-153354D01*
Y-190452D01*
Y-190165D01*
Y-189879D01*
X-153068D01*
Y-189593D01*
Y-189306D01*
X-152782D01*
Y-189020D01*
Y-188734D01*
Y-188447D01*
X-152495D01*
Y-188161D01*
Y-187875D01*
Y-187588D01*
X-152209D01*
Y-187302D01*
Y-187016D01*
X-151923D01*
Y-186730D01*
Y-186443D01*
Y-186157D01*
X-151637D01*
Y-185871D01*
Y-185584D01*
Y-185298D01*
X-151350D01*
Y-185012D01*
Y-184725D01*
Y-184439D01*
X-151064D01*
Y-184153D01*
X-150491D01*
Y-184439D01*
Y-184725D01*
X-150205D01*
Y-185012D01*
X-149919D01*
Y-185298D01*
Y-185584D01*
X-149632D01*
Y-185871D01*
X-149346D01*
Y-186157D01*
Y-186443D01*
X-149060D01*
Y-186730D01*
X-148773D01*
Y-187016D01*
Y-187302D01*
X-148487D01*
Y-187588D01*
X-148201D01*
Y-187875D01*
X-147914D01*
Y-188161D01*
Y-188447D01*
X-147628D01*
Y-188734D01*
X-147342D01*
Y-189020D01*
Y-189306D01*
X-147055D01*
Y-189593D01*
X-146769D01*
Y-189879D01*
Y-190165D01*
X-146483D01*
Y-190452D01*
X-146196D01*
Y-190738D01*
Y-191024D01*
X-145910D01*
Y-191311D01*
X-145624D01*
Y-191597D01*
Y-191883D01*
X-129590D01*
Y-191597D01*
X-129877D01*
Y-191311D01*
X-130163D01*
Y-191024D01*
X-130449D01*
Y-190738D01*
X-130736D01*
Y-190452D01*
Y-190165D01*
X-131022D01*
Y-189879D01*
X-131308D01*
Y-189593D01*
X-131595D01*
Y-189306D01*
X-131881D01*
Y-189020D01*
Y-188734D01*
X-132167D01*
Y-188447D01*
X-132454D01*
Y-188161D01*
X-132740D01*
Y-187875D01*
Y-187588D01*
X-133026D01*
Y-187302D01*
X-133312D01*
Y-187016D01*
X-133599D01*
Y-186730D01*
X-133885D01*
Y-186443D01*
Y-186157D01*
X-134171D01*
Y-185871D01*
X-134458D01*
Y-185584D01*
X-134744D01*
Y-185298D01*
X-135030D01*
Y-185012D01*
Y-184725D01*
X-135317D01*
Y-184439D01*
X-135603D01*
Y-184153D01*
X-135889D01*
Y-183866D01*
Y-183580D01*
X-136176D01*
Y-183294D01*
X-136462D01*
Y-183007D01*
X-136748D01*
Y-182721D01*
X-137034D01*
Y-182435D01*
Y-182149D01*
X-137321D01*
Y-181862D01*
X-137607D01*
Y-181576D01*
X-137893D01*
Y-181290D01*
Y-181003D01*
X-138180D01*
Y-180717D01*
X-138466D01*
Y-180431D01*
X-138752D01*
Y-180144D01*
X-139039D01*
Y-179858D01*
Y-179572D01*
X-139325D01*
Y-179285D01*
X-139611D01*
Y-178999D01*
X-139898D01*
Y-178713D01*
Y-178426D01*
X-140184D01*
Y-178140D01*
X-140470D01*
Y-177854D01*
X-140757D01*
Y-177568D01*
X-141043D01*
Y-177281D01*
Y-176995D01*
X-141329D01*
Y-176709D01*
X-141615D01*
Y-176422D01*
X-141902D01*
Y-176136D01*
X-142188D01*
Y-175850D01*
Y-175563D01*
X-142474D01*
Y-175277D01*
X-142761D01*
Y-174991D01*
X-143047D01*
Y-174704D01*
Y-174418D01*
X-143333D01*
Y-174132D01*
X-143620D01*
Y-173845D01*
X-143906D01*
Y-173559D01*
X-144192D01*
Y-173273D01*
Y-172986D01*
X-144479D01*
Y-172700D01*
Y-172414D01*
Y-172127D01*
X-144192D01*
Y-171841D01*
X-143906D01*
Y-171555D01*
Y-171269D01*
X-143620D01*
Y-170982D01*
Y-170696D01*
X-143333D01*
Y-170410D01*
Y-170123D01*
X-143047D01*
Y-169837D01*
Y-169551D01*
X-142761D01*
Y-169264D01*
Y-168978D01*
X-142474D01*
Y-168692D01*
Y-168405D01*
X-142188D01*
Y-168119D01*
X-141902D01*
Y-167833D01*
Y-167547D01*
X-141615D01*
Y-167260D01*
Y-166974D01*
X-141329D01*
Y-166688D01*
Y-166401D01*
X-141043D01*
Y-166115D01*
Y-165829D01*
X-140757D01*
Y-165542D01*
Y-165256D01*
X-140470D01*
Y-164970D01*
Y-164683D01*
X-140184D01*
Y-164397D01*
X-139898D01*
Y-164111D01*
Y-163824D01*
X-139611D01*
Y-163538D01*
Y-163252D01*
X-139325D01*
Y-162966D01*
Y-162679D01*
X-139039D01*
Y-162393D01*
Y-162107D01*
X-138752D01*
Y-161820D01*
Y-161534D01*
X-138466D01*
Y-161248D01*
Y-160961D01*
X-138180D01*
Y-160675D01*
Y-160389D01*
X-137893D01*
Y-160102D01*
X-137607D01*
Y-159816D01*
Y-159530D01*
X-137321D01*
Y-159244D01*
Y-158957D01*
X-137034D01*
Y-158671D01*
Y-158385D01*
X-136748D01*
Y-158098D01*
Y-157812D01*
X-136462D01*
Y-157526D01*
Y-157239D01*
X-136176D01*
Y-156953D01*
Y-156667D01*
X-135889D01*
Y-156380D01*
X-135603D01*
Y-156094D01*
Y-155808D01*
X-135317D01*
Y-155521D01*
X-151064D01*
Y-155808D01*
X-151350D01*
Y-156094D01*
Y-156380D01*
Y-156667D01*
X-151637D01*
Y-156953D01*
Y-157239D01*
Y-157526D01*
X-151923D01*
Y-157812D01*
Y-158098D01*
Y-158385D01*
X-152209D01*
Y-158671D01*
Y-158957D01*
Y-159244D01*
X-152495D01*
Y-159530D01*
Y-159816D01*
Y-160102D01*
X-152782D01*
Y-160389D01*
Y-160675D01*
Y-160961D01*
X-153068D01*
Y-161248D01*
Y-161534D01*
Y-161820D01*
X-153354D01*
Y-162107D01*
Y-162393D01*
Y-162679D01*
X-153641D01*
Y-162966D01*
Y-163252D01*
Y-163538D01*
Y-163824D01*
X-154213D01*
Y-163538D01*
X-154500D01*
Y-163252D01*
X-154786D01*
Y-162966D01*
Y-162679D01*
X-155072D01*
Y-162393D01*
X-155359D01*
Y-162107D01*
Y-161820D01*
X-155645D01*
Y-161534D01*
X-155931D01*
Y-161248D01*
Y-160961D01*
X-156218D01*
Y-160675D01*
X-156504D01*
Y-160389D01*
Y-160102D01*
X-156790D01*
Y-159816D01*
X-157076D01*
Y-159530D01*
Y-159244D01*
X-157363D01*
Y-158957D01*
X-157649D01*
Y-158671D01*
Y-158385D01*
X-157935D01*
Y-158098D01*
X-158222D01*
Y-157812D01*
Y-157526D01*
X-158508D01*
Y-157239D01*
X-158794D01*
Y-156953D01*
Y-156667D01*
X-159081D01*
Y-156380D01*
X-159367D01*
Y-156094D01*
Y-155808D01*
X-159653D01*
Y-155521D01*
X-175400D01*
Y-155808D01*
D02*
G37*
G36*
X-131308D02*
Y-156094D01*
Y-156380D01*
Y-156667D01*
Y-156953D01*
Y-157239D01*
Y-157526D01*
Y-157812D01*
Y-158098D01*
Y-158385D01*
Y-158671D01*
Y-158957D01*
Y-159244D01*
Y-159530D01*
Y-159816D01*
Y-160102D01*
Y-160389D01*
Y-160675D01*
Y-160961D01*
Y-161248D01*
Y-161534D01*
X-131022D01*
Y-161820D01*
Y-162107D01*
Y-162393D01*
Y-162679D01*
Y-162966D01*
X-130736D01*
Y-163252D01*
Y-163538D01*
Y-163824D01*
Y-164111D01*
X-130449D01*
Y-164397D01*
Y-164683D01*
Y-164970D01*
Y-165256D01*
X-130163D01*
Y-165542D01*
Y-165829D01*
Y-166115D01*
X-129877D01*
Y-166401D01*
Y-166688D01*
Y-166974D01*
X-129590D01*
Y-167260D01*
Y-167547D01*
Y-167833D01*
X-129304D01*
Y-168119D01*
Y-168405D01*
Y-168692D01*
X-129018D01*
Y-168978D01*
Y-169264D01*
X-128731D01*
Y-169551D01*
Y-169837D01*
X-128445D01*
Y-170123D01*
Y-170410D01*
Y-170696D01*
X-128159D01*
Y-170982D01*
Y-171269D01*
X-127873D01*
Y-171555D01*
Y-171841D01*
Y-172127D01*
X-127586D01*
Y-172414D01*
Y-172700D01*
X-127300D01*
Y-172986D01*
Y-173273D01*
Y-173559D01*
X-127014D01*
Y-173845D01*
Y-174132D01*
X-126727D01*
Y-174418D01*
Y-174704D01*
Y-174991D01*
X-126441D01*
Y-175277D01*
Y-175563D01*
X-126155D01*
Y-175850D01*
Y-176136D01*
Y-176422D01*
X-125868D01*
Y-176709D01*
Y-176995D01*
X-125582D01*
Y-177281D01*
Y-177568D01*
Y-177854D01*
X-125296D01*
Y-178140D01*
Y-178426D01*
X-125009D01*
Y-178713D01*
Y-178999D01*
Y-179285D01*
X-124723D01*
Y-179572D01*
Y-179858D01*
X-124437D01*
Y-180144D01*
Y-180431D01*
Y-180717D01*
X-124150D01*
Y-181003D01*
Y-181290D01*
X-123864D01*
Y-181576D01*
Y-181862D01*
Y-182149D01*
X-123578D01*
Y-182435D01*
Y-182721D01*
X-123292D01*
Y-183007D01*
Y-183294D01*
Y-183580D01*
X-123005D01*
Y-183866D01*
Y-184153D01*
X-122719D01*
Y-184439D01*
Y-184725D01*
Y-185012D01*
X-122433D01*
Y-185298D01*
Y-185584D01*
X-122146D01*
Y-185871D01*
Y-186157D01*
Y-186443D01*
X-121860D01*
Y-186730D01*
Y-187016D01*
X-121574D01*
Y-187302D01*
Y-187588D01*
Y-187875D01*
X-121287D01*
Y-188161D01*
Y-188447D01*
X-121001D01*
Y-188734D01*
Y-189020D01*
Y-189306D01*
X-120715D01*
Y-189593D01*
Y-189879D01*
X-120428D01*
Y-190165D01*
Y-190452D01*
Y-190738D01*
X-120142D01*
Y-191024D01*
Y-191311D01*
X-119856D01*
Y-191597D01*
Y-191883D01*
Y-192169D01*
X-119569D01*
Y-192456D01*
Y-192742D01*
X-119283D01*
Y-193028D01*
Y-193315D01*
X-118997D01*
Y-193601D01*
Y-193887D01*
X-118710D01*
Y-194174D01*
Y-194460D01*
Y-194746D01*
X-118424D01*
Y-195033D01*
X-118138D01*
Y-195319D01*
Y-195605D01*
Y-195891D01*
X-117852D01*
Y-196178D01*
X-117565D01*
Y-196464D01*
Y-196750D01*
X-117279D01*
Y-197037D01*
Y-197323D01*
X-116993D01*
Y-197609D01*
Y-197896D01*
X-116706D01*
Y-198182D01*
Y-198468D01*
X-116420D01*
Y-198755D01*
X-116134D01*
Y-199041D01*
Y-199327D01*
X-115847D01*
Y-199614D01*
Y-199900D01*
X-115561D01*
Y-200186D01*
X-115275D01*
Y-200472D01*
X-114988D01*
Y-200759D01*
Y-201045D01*
X-114702D01*
Y-201331D01*
X-114416D01*
Y-201618D01*
Y-201904D01*
X-114129D01*
Y-202190D01*
X-113843D01*
Y-202477D01*
X-113557D01*
Y-202763D01*
Y-203049D01*
X-113271D01*
Y-203336D01*
X-112984D01*
Y-203622D01*
X-112698D01*
Y-203908D01*
X-112412D01*
Y-204195D01*
X-112125D01*
Y-204481D01*
Y-204767D01*
X-111839D01*
Y-205053D01*
X-111553D01*
Y-205340D01*
X-111266D01*
Y-205626D01*
X-110980D01*
Y-205912D01*
X-110694D01*
Y-206199D01*
X-110407D01*
Y-206485D01*
X-110121D01*
Y-206771D01*
X-109548D01*
Y-207058D01*
X-109262D01*
Y-207344D01*
X-108976D01*
Y-207630D01*
X-108689D01*
Y-207917D01*
X-108403D01*
Y-208203D01*
X-107831D01*
Y-208489D01*
X-107544D01*
Y-208776D01*
X-106972D01*
Y-209062D01*
X-106685D01*
Y-209348D01*
X-106113D01*
Y-209634D01*
X-105826D01*
Y-209921D01*
X-105254D01*
Y-210207D01*
X-104681D01*
Y-210493D01*
X-104109D01*
Y-210780D01*
X-103536D01*
Y-211066D01*
X-102963D01*
Y-211352D01*
X-102104D01*
Y-211639D01*
X-101532D01*
Y-211925D01*
X-100673D01*
Y-212211D01*
X-99528D01*
Y-212498D01*
X-98382D01*
Y-212784D01*
X-96664D01*
Y-213070D01*
X-94660D01*
Y-213357D01*
X-94374D01*
Y-213070D01*
Y-212784D01*
Y-212498D01*
Y-212211D01*
Y-211925D01*
Y-211639D01*
Y-211352D01*
Y-211066D01*
Y-210780D01*
Y-210493D01*
Y-210207D01*
Y-209921D01*
Y-209634D01*
Y-209348D01*
Y-209062D01*
Y-208776D01*
Y-208489D01*
Y-208203D01*
Y-207917D01*
Y-207630D01*
Y-207344D01*
Y-207058D01*
Y-206771D01*
Y-206485D01*
Y-206199D01*
Y-205912D01*
Y-205626D01*
Y-205340D01*
Y-205053D01*
Y-204767D01*
Y-204481D01*
Y-204195D01*
Y-203908D01*
X-94946D01*
Y-203622D01*
X-95519D01*
Y-203336D01*
X-96092D01*
Y-203049D01*
X-96664D01*
Y-202763D01*
X-97237D01*
Y-202477D01*
X-97810D01*
Y-202190D01*
X-98096D01*
Y-201904D01*
X-98669D01*
Y-201618D01*
X-98955D01*
Y-201331D01*
X-99528D01*
Y-201045D01*
X-99814D01*
Y-200759D01*
X-100100D01*
Y-200472D01*
X-100673D01*
Y-200186D01*
X-100959D01*
Y-199900D01*
X-101245D01*
Y-199614D01*
X-101532D01*
Y-199327D01*
X-101818D01*
Y-199041D01*
X-102104D01*
Y-198755D01*
X-102391D01*
Y-198468D01*
X-102677D01*
Y-198182D01*
X-102963D01*
Y-197896D01*
X-103250D01*
Y-197609D01*
X-103536D01*
Y-197323D01*
X-103822D01*
Y-197037D01*
Y-196750D01*
X-104109D01*
Y-196464D01*
X-104395D01*
Y-196178D01*
X-104681D01*
Y-195891D01*
Y-195605D01*
X-104967D01*
Y-195319D01*
X-105254D01*
Y-195033D01*
Y-194746D01*
X-105540D01*
Y-194460D01*
Y-194174D01*
X-105826D01*
Y-193887D01*
X-106113D01*
Y-193601D01*
Y-193315D01*
X-106399D01*
Y-193028D01*
Y-192742D01*
X-106685D01*
Y-192456D01*
Y-192169D01*
X-104967D01*
Y-191883D01*
X-102963D01*
Y-191597D01*
X-101818D01*
Y-191311D01*
X-101245D01*
Y-191024D01*
X-100387D01*
Y-190738D01*
X-99814D01*
Y-190452D01*
X-99528D01*
Y-190165D01*
X-98955D01*
Y-189879D01*
X-98669D01*
Y-189593D01*
X-98382D01*
Y-189306D01*
X-98096D01*
Y-189020D01*
X-97810D01*
Y-188734D01*
X-97523D01*
Y-188447D01*
Y-188161D01*
X-97237D01*
Y-187875D01*
X-96951D01*
Y-187588D01*
Y-187302D01*
X-96664D01*
Y-187016D01*
Y-186730D01*
X-96378D01*
Y-186443D01*
Y-186157D01*
X-96092D01*
Y-185871D01*
Y-185584D01*
Y-185298D01*
X-95806D01*
Y-185012D01*
Y-184725D01*
Y-184439D01*
Y-184153D01*
X-95519D01*
Y-183866D01*
Y-183580D01*
Y-183294D01*
Y-183007D01*
Y-182721D01*
Y-182435D01*
Y-182149D01*
X-95233D01*
Y-181862D01*
Y-181576D01*
Y-181290D01*
Y-181003D01*
Y-180717D01*
Y-180431D01*
Y-180144D01*
Y-179858D01*
Y-179572D01*
Y-179285D01*
Y-178999D01*
Y-178713D01*
Y-178426D01*
Y-178140D01*
Y-177854D01*
X-94946D01*
Y-177568D01*
Y-177281D01*
Y-176995D01*
Y-176709D01*
Y-176422D01*
Y-176136D01*
Y-175850D01*
Y-175563D01*
Y-175277D01*
Y-174991D01*
Y-174704D01*
Y-174418D01*
Y-174132D01*
Y-173845D01*
Y-173559D01*
X-94660D01*
Y-173273D01*
Y-172986D01*
Y-172700D01*
Y-172414D01*
Y-172127D01*
Y-171841D01*
Y-171555D01*
Y-171269D01*
Y-170982D01*
Y-170696D01*
Y-170410D01*
Y-170123D01*
Y-169837D01*
Y-169551D01*
Y-169264D01*
Y-168978D01*
X-94374D01*
Y-168692D01*
Y-168405D01*
Y-168119D01*
Y-167833D01*
Y-167547D01*
Y-167260D01*
Y-166974D01*
Y-166688D01*
Y-166401D01*
Y-166115D01*
Y-165829D01*
Y-165542D01*
Y-165256D01*
Y-164970D01*
Y-164683D01*
Y-164397D01*
X-94088D01*
Y-164111D01*
Y-163824D01*
Y-163538D01*
Y-163252D01*
Y-162966D01*
Y-162679D01*
Y-162393D01*
Y-162107D01*
Y-161820D01*
Y-161534D01*
Y-161248D01*
Y-160961D01*
Y-160675D01*
Y-160389D01*
X-93801D01*
Y-160102D01*
Y-159816D01*
Y-159530D01*
Y-159244D01*
Y-158957D01*
Y-158671D01*
Y-158385D01*
Y-158098D01*
Y-157812D01*
Y-157526D01*
Y-157239D01*
Y-156953D01*
Y-156667D01*
Y-156380D01*
Y-156094D01*
Y-155808D01*
X-93515D01*
Y-155521D01*
X-107258D01*
Y-155808D01*
Y-156094D01*
Y-156380D01*
Y-156667D01*
Y-156953D01*
Y-157239D01*
Y-157526D01*
Y-157812D01*
Y-158098D01*
Y-158385D01*
Y-158671D01*
Y-158957D01*
Y-159244D01*
Y-159530D01*
X-107544D01*
Y-159816D01*
Y-160102D01*
Y-160389D01*
Y-160675D01*
Y-160961D01*
Y-161248D01*
Y-161534D01*
Y-161820D01*
Y-162107D01*
Y-162393D01*
Y-162679D01*
Y-162966D01*
Y-163252D01*
Y-163538D01*
Y-163824D01*
Y-164111D01*
Y-164397D01*
Y-164683D01*
Y-164970D01*
Y-165256D01*
Y-165542D01*
Y-165829D01*
Y-166115D01*
Y-166401D01*
Y-166688D01*
Y-166974D01*
Y-167260D01*
Y-167547D01*
Y-167833D01*
Y-168119D01*
Y-168405D01*
Y-168692D01*
Y-168978D01*
Y-169264D01*
Y-169551D01*
Y-169837D01*
Y-170123D01*
Y-170410D01*
Y-170696D01*
Y-170982D01*
Y-171269D01*
X-107831D01*
Y-171555D01*
X-107544D01*
Y-171841D01*
Y-172127D01*
X-107831D01*
Y-172414D01*
Y-172700D01*
Y-172986D01*
Y-173273D01*
Y-173559D01*
Y-173845D01*
Y-174132D01*
Y-174418D01*
Y-174704D01*
Y-174991D01*
Y-175277D01*
Y-175563D01*
Y-175850D01*
Y-176136D01*
Y-176422D01*
Y-176709D01*
Y-176995D01*
Y-177281D01*
Y-177568D01*
Y-177854D01*
Y-178140D01*
Y-178426D01*
Y-178713D01*
Y-178999D01*
Y-179285D01*
Y-179572D01*
X-108117D01*
Y-179858D01*
Y-180144D01*
Y-180431D01*
X-108403D01*
Y-180717D01*
X-108689D01*
Y-181003D01*
X-108976D01*
Y-181290D01*
X-109835D01*
Y-181576D01*
X-110694D01*
Y-181290D01*
X-110980D01*
Y-181003D01*
Y-180717D01*
Y-180431D01*
X-111266D01*
Y-180144D01*
Y-179858D01*
X-111553D01*
Y-179572D01*
Y-179285D01*
Y-178999D01*
X-111839D01*
Y-178713D01*
Y-178426D01*
Y-178140D01*
X-112125D01*
Y-177854D01*
Y-177568D01*
Y-177281D01*
X-112412D01*
Y-176995D01*
Y-176709D01*
Y-176422D01*
X-112698D01*
Y-176136D01*
Y-175850D01*
X-112984D01*
Y-175563D01*
Y-175277D01*
Y-174991D01*
X-113271D01*
Y-174704D01*
Y-174418D01*
Y-174132D01*
X-113557D01*
Y-173845D01*
Y-173559D01*
Y-173273D01*
X-113843D01*
Y-172986D01*
Y-172700D01*
X-114129D01*
Y-172414D01*
Y-172127D01*
Y-171841D01*
X-114416D01*
Y-171555D01*
Y-171269D01*
Y-170982D01*
X-114702D01*
Y-170696D01*
Y-170410D01*
Y-170123D01*
X-114988D01*
Y-169837D01*
Y-169551D01*
X-115275D01*
Y-169264D01*
Y-168978D01*
Y-168692D01*
X-115561D01*
Y-168405D01*
Y-168119D01*
Y-167833D01*
X-115847D01*
Y-167547D01*
Y-167260D01*
Y-166974D01*
X-116134D01*
Y-166688D01*
Y-166401D01*
X-116420D01*
Y-166115D01*
Y-165829D01*
Y-165542D01*
X-116706D01*
Y-165256D01*
Y-164970D01*
Y-164683D01*
X-116993D01*
Y-164397D01*
Y-164111D01*
Y-163824D01*
X-117279D01*
Y-163538D01*
Y-163252D01*
Y-162966D01*
Y-162679D01*
X-117565D01*
Y-162393D01*
Y-162107D01*
Y-161820D01*
Y-161534D01*
X-117852D01*
Y-161248D01*
Y-160961D01*
Y-160675D01*
Y-160389D01*
Y-160102D01*
X-118138D01*
Y-159816D01*
Y-159530D01*
Y-159244D01*
Y-158957D01*
Y-158671D01*
Y-158385D01*
X-118424D01*
Y-158098D01*
Y-157812D01*
Y-157526D01*
Y-157239D01*
Y-156953D01*
Y-156667D01*
Y-156380D01*
Y-156094D01*
Y-155808D01*
Y-155521D01*
X-131308D01*
Y-155808D01*
D02*
G37*
%LPC*%
G36*
X-37970Y-152658D02*
X-29954D01*
Y-152945D01*
Y-153231D01*
Y-153517D01*
Y-153804D01*
Y-154090D01*
X-29667D01*
Y-154376D01*
Y-154663D01*
Y-154949D01*
Y-155235D01*
Y-155521D01*
Y-155808D01*
X-29381D01*
Y-156094D01*
Y-156380D01*
Y-156667D01*
Y-156953D01*
Y-157239D01*
Y-157526D01*
X-29095D01*
Y-157812D01*
Y-158098D01*
Y-158385D01*
Y-158671D01*
Y-158957D01*
Y-159244D01*
X-28808D01*
Y-159530D01*
Y-159816D01*
Y-160102D01*
Y-160389D01*
Y-160675D01*
Y-160961D01*
Y-161248D01*
X-28522D01*
Y-161534D01*
Y-161820D01*
Y-162107D01*
Y-162393D01*
Y-162679D01*
Y-162966D01*
X-28236D01*
Y-163252D01*
Y-163538D01*
Y-163824D01*
X-35394D01*
Y-163538D01*
X-36539D01*
Y-163252D01*
X-37111D01*
Y-162966D01*
X-37398D01*
Y-162679D01*
X-37684D01*
Y-162393D01*
X-37970D01*
Y-162107D01*
X-38257D01*
Y-161820D01*
Y-161534D01*
X-38543D01*
Y-161248D01*
Y-160961D01*
X-38829D01*
Y-160675D01*
Y-160389D01*
X-39116D01*
Y-160102D01*
Y-159816D01*
Y-159530D01*
Y-159244D01*
X-39402D01*
Y-158957D01*
Y-158671D01*
Y-158385D01*
Y-158098D01*
Y-157812D01*
X-39688D01*
Y-157526D01*
Y-157239D01*
Y-156953D01*
Y-156667D01*
Y-156380D01*
Y-156094D01*
Y-155808D01*
Y-155521D01*
Y-155235D01*
Y-154949D01*
Y-154663D01*
X-39402D01*
Y-154376D01*
Y-154090D01*
X-39116D01*
Y-153804D01*
Y-153517D01*
X-38829D01*
Y-153231D01*
X-38543D01*
Y-152945D01*
X-37970D01*
Y-152658D01*
D02*
G37*
%LPD*%
D10*
X-348811Y-229571D02*
Y-190201D01*
X-191331Y-150831D02*
X-466922D01*
X-191331Y-190201D02*
X-466922D01*
X5519Y-229571D02*
X-466922D01*
X5519Y-111461D02*
X-466922D01*
X5519Y-268941D02*
Y-111461D01*
X-191331Y-268941D02*
Y-111461D01*
X1186622Y900350D02*
X-466922D01*
Y-268941D02*
Y900350D01*
X1186622Y-268941D02*
Y900350D01*
Y-268941D02*
X-466922D01*
X-201173Y-261067D02*
Y-255164D01*
X-204125D01*
X-205109Y-256147D01*
Y-258115D01*
X-204125Y-259099D01*
X-201173D01*
X-207077Y-255164D02*
X-209045D01*
X-208061D01*
Y-261067D01*
X-207077D01*
X-209045D01*
X-211997D02*
Y-257131D01*
X-213965Y-255164D01*
X-215932Y-257131D01*
Y-261067D01*
Y-258115D01*
X-211997D01*
X-217900Y-261067D02*
Y-255164D01*
X-221836Y-261067D01*
Y-255164D01*
X-226756D02*
X-224788D01*
X-223804Y-256147D01*
Y-260083D01*
X-224788Y-261067D01*
X-226756D01*
X-227740Y-260083D01*
Y-256147D01*
X-226756Y-255164D01*
X-229708Y-262051D02*
X-233643D01*
X-239547Y-255164D02*
X-235611D01*
Y-261067D01*
X-239547D01*
X-235611Y-258115D02*
X-237579D01*
X-241515Y-255164D02*
Y-261067D01*
X-245450D01*
X-247418Y-255164D02*
X-249386D01*
X-248402D01*
Y-261067D01*
X-247418D01*
X-249386D01*
X-256274Y-256147D02*
X-255290Y-255164D01*
X-253322D01*
X-252338Y-256147D01*
Y-257131D01*
X-253322Y-258115D01*
X-255290D01*
X-256274Y-259099D01*
Y-260083D01*
X-255290Y-261067D01*
X-253322D01*
X-252338Y-260083D01*
X-262177Y-255164D02*
X-258242D01*
Y-261067D01*
X-262177D01*
X-258242Y-258115D02*
X-260209D01*
X-264145Y-262051D02*
X-268081D01*
X-270049Y-256147D02*
X-271033Y-255164D01*
X-273001D01*
X-273985Y-256147D01*
Y-260083D01*
X-273001Y-261067D01*
X-271033D01*
X-270049Y-260083D01*
Y-256147D01*
X-275953Y-261067D02*
X-277920D01*
X-276936D01*
Y-255164D01*
X-275953Y-256147D01*
X-280872Y-261067D02*
Y-260083D01*
X-281856D01*
Y-261067D01*
X-280872D01*
X-285792D02*
Y-255164D01*
X-288744D01*
X-289728Y-256147D01*
Y-258115D01*
X-288744Y-259099D01*
X-285792D01*
X-295631Y-257131D02*
X-292679D01*
X-291695Y-258115D01*
Y-260083D01*
X-292679Y-261067D01*
X-295631D01*
X-297599Y-255164D02*
Y-261067D01*
X-300551D01*
X-301535Y-260083D01*
Y-259099D01*
Y-258115D01*
X-300551Y-257131D01*
X-297599D01*
X-303503Y-255164D02*
Y-261067D01*
X-306454D01*
X-307438Y-260083D01*
Y-256147D01*
X-306454Y-255164D01*
X-303503D01*
X-310390Y-261067D02*
X-312358D01*
X-313342Y-260083D01*
Y-258115D01*
X-312358Y-257131D01*
X-310390D01*
X-309406Y-258115D01*
Y-260083D01*
X-310390Y-261067D01*
X-319246Y-257131D02*
X-316294D01*
X-315310Y-258115D01*
Y-260083D01*
X-316294Y-261067D01*
X-319246D01*
D11*
X719700Y175197D02*
G03*
X698047Y196850I-21654J0D01*
G01*
X324031D02*
G03*
X302377Y175197I0J-21654D01*
G01*
X719700Y0D02*
Y175197D01*
X698047Y196850D02*
X324031D01*
X302377Y175197D02*
X302377Y0D01*
X719700D02*
X302377D01*
D15*
X-212985Y-168552D02*
Y-182327D01*
X-219872D01*
X-222168Y-180031D01*
Y-177735D01*
X-219872Y-175439D01*
X-212985D01*
X-219872D01*
X-222168Y-173144D01*
Y-170848D01*
X-219872Y-168552D01*
X-212985D01*
X-229056Y-182327D02*
X-233647D01*
X-235943Y-180031D01*
Y-175439D01*
X-233647Y-173144D01*
X-229056D01*
X-226760Y-175439D01*
Y-180031D01*
X-229056Y-182327D01*
X-242831Y-170848D02*
Y-173144D01*
X-240535D01*
X-245126D01*
X-242831D01*
Y-180031D01*
X-245126Y-182327D01*
X-254310Y-170848D02*
Y-173144D01*
X-252014D01*
X-256606D01*
X-254310D01*
Y-180031D01*
X-256606Y-182327D01*
X-265789D02*
X-270381D01*
X-272677Y-180031D01*
Y-175439D01*
X-270381Y-173144D01*
X-265789D01*
X-263493Y-175439D01*
Y-180031D01*
X-265789Y-182327D01*
X-277268D02*
Y-173144D01*
X-279564D01*
X-281860Y-175439D01*
Y-182327D01*
Y-175439D01*
X-284156Y-173144D01*
X-286452Y-175439D01*
Y-182327D01*
X-304818D02*
Y-168552D01*
X-311706D01*
X-314002Y-170848D01*
Y-175439D01*
X-311706Y-177735D01*
X-304818D01*
X-320889Y-173144D02*
X-325481D01*
X-327777Y-175439D01*
Y-182327D01*
X-320889D01*
X-318594Y-180031D01*
X-320889Y-177735D01*
X-327777D01*
X-332369Y-182327D02*
X-339256D01*
X-341552Y-180031D01*
X-339256Y-177735D01*
X-334664D01*
X-332369Y-175439D01*
X-334664Y-173144D01*
X-341552D01*
X-348440Y-170848D02*
Y-173144D01*
X-346144D01*
X-350735D01*
X-348440D01*
Y-180031D01*
X-350735Y-182327D01*
X-364510D02*
X-359919D01*
X-357623Y-180031D01*
Y-175439D01*
X-359919Y-173144D01*
X-364510D01*
X-366806Y-175439D01*
Y-177735D01*
X-357623D01*
X-16134Y-247293D02*
Y-263036D01*
X-21382Y-257788D01*
X-26629Y-263036D01*
Y-247293D01*
X-31877Y-263036D02*
X-37125D01*
X-34501D01*
Y-252540D01*
X-31877D01*
X-44996Y-263036D02*
Y-252540D01*
X-47620D01*
X-50244Y-255164D01*
Y-263036D01*
Y-255164D01*
X-52868Y-252540D01*
X-55492Y-255164D01*
Y-263036D01*
X-60739Y-247293D02*
Y-257788D01*
X-65987Y-263036D01*
X-71235Y-257788D01*
Y-247293D01*
X-86977Y-249917D02*
X-84354Y-247293D01*
X-79106D01*
X-76482Y-249917D01*
Y-260412D01*
X-79106Y-263036D01*
X-84354D01*
X-86977Y-260412D01*
Y-255164D01*
X-81730D01*
X-370465Y-210546D02*
X-373089Y-207923D01*
X-378336D01*
X-380960Y-210546D01*
Y-221042D01*
X-378336Y-223665D01*
X-373089D01*
X-370465Y-221042D01*
Y-210546D01*
X-386208Y-223665D02*
X-391456D01*
X-388832D01*
Y-207923D01*
X-386208Y-210546D01*
X-207079Y-212186D02*
X-209375Y-209890D01*
X-213967D01*
X-216262Y-212186D01*
Y-214482D01*
X-213967Y-216778D01*
X-211671D01*
X-213967D01*
X-216262Y-219074D01*
Y-221370D01*
X-213967Y-223665D01*
X-209375D01*
X-207079Y-221370D01*
X-220854Y-212186D02*
X-223150Y-209890D01*
X-227742D01*
X-230037Y-212186D01*
Y-221370D01*
X-227742Y-223665D01*
X-223150D01*
X-220854Y-221370D01*
Y-212186D01*
X-234629Y-223665D02*
X-243813Y-214482D01*
X-248404Y-223665D02*
X-252996D01*
X-250700D01*
Y-209890D01*
X-248404Y-212186D01*
X-259883D02*
X-262179Y-209890D01*
X-266771D01*
X-269067Y-212186D01*
Y-221370D01*
X-266771Y-223665D01*
X-262179D01*
X-259883Y-221370D01*
Y-212186D01*
X-273659Y-223665D02*
X-282842Y-214482D01*
X-296617Y-223665D02*
X-287434D01*
X-296617Y-214482D01*
Y-212186D01*
X-294321Y-209890D01*
X-289729D01*
X-287434Y-212186D01*
X-301209D02*
X-303505Y-209890D01*
X-308096D01*
X-310392Y-212186D01*
Y-221370D01*
X-308096Y-223665D01*
X-303505D01*
X-301209Y-221370D01*
Y-212186D01*
X-324167Y-223665D02*
X-314984D01*
X-324167Y-214482D01*
Y-212186D01*
X-321871Y-209890D01*
X-317280D01*
X-314984Y-212186D01*
X-337942Y-223665D02*
X-328759D01*
X-337942Y-214482D01*
Y-212186D01*
X-335647Y-209890D01*
X-331055D01*
X-328759Y-212186D01*
X-201173Y-144925D02*
Y-132331D01*
X-207471D01*
X-209570Y-134430D01*
Y-138628D01*
X-207471Y-140727D01*
X-201173D01*
X-213768Y-144925D02*
X-217966D01*
X-215867D01*
Y-136529D01*
X-213768D01*
X-226362D02*
X-230560D01*
X-232659Y-138628D01*
Y-144925D01*
X-226362D01*
X-224263Y-142826D01*
X-226362Y-140727D01*
X-232659D01*
X-236858Y-144925D02*
Y-136529D01*
X-243155D01*
X-245254Y-138628D01*
Y-144925D01*
X-251551D02*
X-255749D01*
X-257848Y-142826D01*
Y-138628D01*
X-255749Y-136529D01*
X-251551D01*
X-249452Y-138628D01*
Y-142826D01*
X-251551Y-144925D01*
X-283037Y-132331D02*
X-274641D01*
Y-144925D01*
X-283037D01*
X-274641Y-138628D02*
X-278839D01*
X-287235Y-144925D02*
X-291433D01*
X-289334D01*
Y-132331D01*
X-287235D01*
X-297730Y-144925D02*
X-301928D01*
X-299829D01*
Y-136529D01*
X-297730D01*
X-308226Y-144925D02*
X-314523D01*
X-316622Y-142826D01*
X-314523Y-140727D01*
X-310325D01*
X-308226Y-138628D01*
X-310325Y-136529D01*
X-316622D01*
X-327117Y-144925D02*
X-322919D01*
X-320820Y-142826D01*
Y-138628D01*
X-322919Y-136529D01*
X-327117D01*
X-329216Y-138628D01*
Y-140727D01*
X-320820D01*
D19*
X-352748Y-202012D02*
Y-194141D01*
X-356684D01*
X-357996Y-195452D01*
Y-198076D01*
X-356684Y-199388D01*
X-352748D01*
X-355372D02*
X-357996Y-202012D01*
X-364556D02*
X-361932D01*
X-360620Y-200700D01*
Y-198076D01*
X-361932Y-196764D01*
X-364556D01*
X-365867Y-198076D01*
Y-199388D01*
X-360620D01*
X-368491Y-196764D02*
X-371115Y-202012D01*
X-373739Y-196764D01*
X1582Y-233511D02*
Y-241382D01*
X-2353D01*
X-3665Y-240070D01*
Y-234823D01*
X-2353Y-233511D01*
X1582D01*
X-10225Y-241382D02*
X-7601D01*
X-6289Y-240070D01*
Y-237446D01*
X-7601Y-236134D01*
X-10225D01*
X-11537Y-237446D01*
Y-238758D01*
X-6289D01*
X-14161Y-241382D02*
X-18096D01*
X-19408Y-240070D01*
X-18096Y-238758D01*
X-15473D01*
X-14161Y-237446D01*
X-15473Y-236134D01*
X-19408D01*
X-24656Y-244006D02*
X-25968D01*
X-27280Y-242694D01*
Y-236134D01*
X-23344D01*
X-22032Y-237446D01*
Y-240070D01*
X-23344Y-241382D01*
X-27280D01*
X-29904D02*
X-32527D01*
X-31216D01*
Y-236134D01*
X-29904D01*
X-36463Y-241382D02*
Y-236134D01*
X-40399D01*
X-41711Y-237446D01*
Y-241382D01*
X-48270D02*
X-45647D01*
X-44335Y-240070D01*
Y-237446D01*
X-45647Y-236134D01*
X-48270D01*
X-49582Y-237446D01*
Y-238758D01*
X-44335D01*
X-52206Y-236134D02*
Y-241382D01*
Y-238758D01*
X-53518Y-237446D01*
X-54830Y-236134D01*
X-56142D01*
X-195268Y-115400D02*
Y-123272D01*
X-199204D01*
X-200516Y-121960D01*
Y-116712D01*
X-199204Y-115400D01*
X-195268D01*
X-204451Y-123272D02*
X-207075D01*
X-208387Y-121960D01*
Y-119336D01*
X-207075Y-118024D01*
X-204451D01*
X-203139Y-119336D01*
Y-121960D01*
X-204451Y-123272D01*
X-216259Y-118024D02*
X-212323D01*
X-211011Y-119336D01*
Y-121960D01*
X-212323Y-123272D01*
X-216259D01*
X-218882Y-118024D02*
Y-121960D01*
X-220194Y-123272D01*
X-224130D01*
Y-118024D01*
X-226754Y-123272D02*
Y-118024D01*
X-228066D01*
X-229378Y-119336D01*
Y-123272D01*
Y-119336D01*
X-230690Y-118024D01*
X-232002Y-119336D01*
Y-123272D01*
X-238561D02*
X-235937D01*
X-234625Y-121960D01*
Y-119336D01*
X-235937Y-118024D01*
X-238561D01*
X-239873Y-119336D01*
Y-120648D01*
X-234625D01*
X-242497Y-123272D02*
Y-118024D01*
X-246433D01*
X-247745Y-119336D01*
Y-123272D01*
X-251680Y-116712D02*
Y-118024D01*
X-250368D01*
X-252992D01*
X-251680D01*
Y-121960D01*
X-252992Y-123272D01*
X-195268Y-154770D02*
Y-162642D01*
X-200516D01*
X-204451Y-157394D02*
X-207075D01*
X-208387Y-158706D01*
Y-162642D01*
X-204451D01*
X-203139Y-161330D01*
X-204451Y-160018D01*
X-208387D01*
X-211011Y-157394D02*
Y-161330D01*
X-212323Y-162642D01*
X-216259D01*
Y-163954D01*
X-214947Y-165266D01*
X-213635D01*
X-216259Y-162642D02*
Y-157394D01*
X-222818Y-162642D02*
X-220194D01*
X-218882Y-161330D01*
Y-158706D01*
X-220194Y-157394D01*
X-222818D01*
X-224130Y-158706D01*
Y-160018D01*
X-218882D01*
X-226754Y-157394D02*
Y-162642D01*
Y-160018D01*
X-228066Y-158706D01*
X-229378Y-157394D01*
X-230690D01*
X-242497Y-162642D02*
Y-154770D01*
X-247745Y-162642D01*
Y-154770D01*
X-251680Y-157394D02*
X-254304D01*
X-255616Y-158706D01*
Y-162642D01*
X-251680D01*
X-250368Y-161330D01*
X-251680Y-160018D01*
X-255616D01*
X-258240Y-162642D02*
Y-157394D01*
X-259552D01*
X-260864Y-158706D01*
Y-162642D01*
Y-158706D01*
X-262176Y-157394D01*
X-263488Y-158706D01*
Y-162642D01*
X-270047D02*
X-267423D01*
X-266111Y-161330D01*
Y-158706D01*
X-267423Y-157394D01*
X-270047D01*
X-271359Y-158706D01*
Y-160018D01*
X-266111D01*
X-195268Y-194141D02*
Y-202012D01*
X-199204D01*
X-200516Y-200700D01*
Y-195452D01*
X-199204Y-194141D01*
X-195268D01*
X-204451Y-196764D02*
X-207075D01*
X-208387Y-198076D01*
Y-202012D01*
X-204451D01*
X-203139Y-200700D01*
X-204451Y-199388D01*
X-208387D01*
X-212323Y-195452D02*
Y-196764D01*
X-211011D01*
X-213635D01*
X-212323D01*
Y-200700D01*
X-213635Y-202012D01*
X-221506D02*
X-218882D01*
X-217571Y-200700D01*
Y-198076D01*
X-218882Y-196764D01*
X-221506D01*
X-222818Y-198076D01*
Y-199388D01*
X-217571D01*
X-195268Y-233511D02*
Y-241382D01*
X-199204D01*
X-200516Y-240070D01*
Y-234823D01*
X-199204Y-233511D01*
X-195268D01*
X-204451Y-241382D02*
X-207075D01*
X-208387Y-240070D01*
Y-237446D01*
X-207075Y-236134D01*
X-204451D01*
X-203139Y-237446D01*
Y-240070D01*
X-204451Y-241382D01*
X-216259Y-236134D02*
X-212323D01*
X-211011Y-237446D01*
Y-240070D01*
X-212323Y-241382D01*
X-216259D01*
X-218882Y-236134D02*
Y-240070D01*
X-220194Y-241382D01*
X-224130D01*
Y-236134D01*
X-226754Y-241382D02*
Y-236134D01*
X-228066D01*
X-229378Y-237446D01*
Y-241382D01*
Y-237446D01*
X-230690Y-236134D01*
X-232002Y-237446D01*
Y-241382D01*
X-238561D02*
X-235937D01*
X-234625Y-240070D01*
Y-237446D01*
X-235937Y-236134D01*
X-238561D01*
X-239873Y-237446D01*
Y-238758D01*
X-234625D01*
X-242497Y-241382D02*
Y-236134D01*
X-246433D01*
X-247745Y-237446D01*
Y-241382D01*
X-251680Y-234823D02*
Y-236134D01*
X-250368D01*
X-252992D01*
X-251680D01*
Y-240070D01*
X-252992Y-241382D01*
M02*
